M48
;GenerationSoftware,Autodesk,EAGLE,9.1.3*%
;CreationDate,2018-11-24T03:49:42Z*%
FMAT,2
ICI,OFF
METRIC,TZ,000.000
T2C0.305
T1C0.350
%
G90
M71
T1
X11495Y27495
X6334Y8096
X19108Y9307
X18890Y16180
X646Y1715
X2305Y16625
X15450Y24095
X5975Y27460
X20399Y2065
X13985Y9990
X17560Y13575
X10890Y23919
X19410Y20725
X20404Y19704
X16565Y24105
X3750Y25930
X5025Y21845
X19190Y19720
X18020Y17115
X8980Y1705
X7105Y17980
X10625Y21460
X2475Y19035
X15445Y1815
X9154Y16059
X8860Y25957
X13960Y21490
X7594Y11034
X11000Y25970
X17415Y17980
X8225Y6915
X17335Y9690
X15444Y9026
X19470Y10545
X1500Y10893
X8448Y19002
X19470Y11352
X7360Y10227
X7641Y19195
X646Y10075
X1565Y17700
X3150Y17450
X2545Y19915
X2951Y20651
X2000Y12500
X3795Y9750
X16215Y18425
X8890Y21200
X7100Y7720
X18545Y9885
T2
X16095Y5710
X20312Y3709
X20380Y7580
X20410Y1035
X14070Y8965
M30