M48
;GenerationSoftware,Autodesk,EAGLE,9.1.3*%
;CreationDate,2018-11-25T13:05:02Z*%
FMAT,2
ICI,OFF
METRIC,TZ,000.000
T3C0.305
T2C1.000
T1C1.300
%
G90
M71
T1
X6601Y1500
X13801Y1500
T2
X21070Y4920
X18530Y4920
X21070Y7460
X18530Y7460
X21070Y10000
X18530Y10000
X21070Y12540
X18530Y12540
X21070Y15080
X18530Y15080
T3
X6350Y32000
X2250Y9300
X5250Y31993
X1720Y8250
X4150Y32000
X1720Y7150
X5800Y23750
X950Y6050
X2135Y32200
X850Y4900
X17550Y6100
X12450Y17650
X8000Y23750
X8300Y22500
X8600Y21650
X10300Y23750
X9200Y23700
X6850Y23800
X9600Y32000
X3100Y12500
X8500Y32000
X2800Y11550
X7450Y32000
X2400Y10450
X3000Y32043
M30