G04 EAGLE Gerber RS-274X export*
G75*
%MOMM*%
%FSLAX34Y34*%
%LPD*%
%AMOC8*
5,1,8,0,0,1.08239X$1,22.5*%
G01*
%ADD10C,0.030000*%
%ADD11R,1.900000X3.650000*%
%ADD12R,1.900000X4.050000*%
%ADD13R,1.900000X4.250000*%
%ADD14R,1.500000X4.050000*%
%ADD15R,1.300000X4.050000*%
%ADD16C,0.609600*%
%ADD17C,0.254000*%
%ADD18C,0.654800*%
%ADD19C,0.406400*%
%ADD20C,0.152400*%
%ADD21C,0.203200*%
%ADD22C,0.152400*%
%ADD23C,0.200000*%

G36*
X93852Y-301D02*
X93852Y-301D01*
X93910Y-303D01*
X93992Y-281D01*
X94076Y-269D01*
X94129Y-246D01*
X94185Y-231D01*
X94258Y-188D01*
X94335Y-153D01*
X94380Y-115D01*
X94430Y-86D01*
X94488Y-24D01*
X94552Y30D01*
X94584Y79D01*
X94624Y122D01*
X94663Y197D01*
X94710Y267D01*
X94725Y315D01*
X94727Y323D01*
X94754Y375D01*
X94765Y443D01*
X94795Y538D01*
X94798Y638D01*
X94809Y706D01*
X94809Y12822D01*
X94805Y12851D01*
X94808Y12880D01*
X94785Y12991D01*
X94769Y13103D01*
X94757Y13130D01*
X94752Y13159D01*
X94699Y13260D01*
X94653Y13363D01*
X94634Y13385D01*
X94621Y13411D01*
X94543Y13493D01*
X94470Y13580D01*
X94445Y13596D01*
X94425Y13617D01*
X94327Y13674D01*
X94233Y13737D01*
X94205Y13746D01*
X94180Y13761D01*
X94070Y13789D01*
X93962Y13823D01*
X93932Y13824D01*
X93904Y13831D01*
X93791Y13827D01*
X93678Y13830D01*
X93649Y13823D01*
X93620Y13822D01*
X93512Y13787D01*
X93403Y13759D01*
X93377Y13744D01*
X93349Y13735D01*
X93285Y13689D01*
X93158Y13613D01*
X93115Y13568D01*
X93076Y13540D01*
X91788Y12251D01*
X87812Y12251D01*
X85001Y15062D01*
X85001Y19038D01*
X86966Y21002D01*
X87018Y21072D01*
X87078Y21136D01*
X87104Y21185D01*
X87137Y21230D01*
X87168Y21311D01*
X87208Y21389D01*
X87216Y21437D01*
X87238Y21495D01*
X87250Y21643D01*
X87263Y21720D01*
X87263Y64928D01*
X87259Y64957D01*
X87262Y64986D01*
X87239Y65097D01*
X87223Y65209D01*
X87211Y65236D01*
X87206Y65265D01*
X87153Y65366D01*
X87107Y65469D01*
X87088Y65491D01*
X87075Y65517D01*
X86997Y65599D01*
X86924Y65686D01*
X86899Y65702D01*
X86879Y65723D01*
X86781Y65780D01*
X86687Y65843D01*
X86659Y65852D01*
X86634Y65867D01*
X86524Y65895D01*
X86416Y65929D01*
X86386Y65930D01*
X86358Y65937D01*
X86245Y65933D01*
X86132Y65936D01*
X86103Y65929D01*
X86074Y65928D01*
X85966Y65893D01*
X85857Y65865D01*
X85831Y65850D01*
X85803Y65841D01*
X85739Y65795D01*
X85612Y65719D01*
X85569Y65674D01*
X85530Y65646D01*
X84236Y64351D01*
X80260Y64351D01*
X78604Y66008D01*
X78534Y66060D01*
X78470Y66120D01*
X78421Y66146D01*
X78377Y66179D01*
X78295Y66210D01*
X78217Y66250D01*
X78169Y66258D01*
X78111Y66280D01*
X77963Y66292D01*
X77886Y66305D01*
X66487Y66305D01*
X64850Y67942D01*
X63027Y69766D01*
X62957Y69818D01*
X62893Y69878D01*
X62844Y69903D01*
X62800Y69937D01*
X62718Y69968D01*
X62640Y70008D01*
X62592Y70015D01*
X62534Y70038D01*
X62386Y70050D01*
X62309Y70063D01*
X58829Y70063D01*
X52447Y76445D01*
X52447Y85471D01*
X60818Y93841D01*
X60870Y93911D01*
X60930Y93975D01*
X60956Y94024D01*
X60989Y94068D01*
X61020Y94150D01*
X61060Y94228D01*
X61068Y94275D01*
X61090Y94334D01*
X61102Y94482D01*
X61115Y94559D01*
X61115Y105899D01*
X61128Y105917D01*
X61188Y105980D01*
X61214Y106030D01*
X61247Y106074D01*
X61278Y106156D01*
X61318Y106234D01*
X61326Y106281D01*
X61348Y106340D01*
X61360Y106487D01*
X61373Y106565D01*
X61373Y114520D01*
X61369Y114549D01*
X61372Y114578D01*
X61349Y114689D01*
X61333Y114801D01*
X61321Y114828D01*
X61316Y114857D01*
X61264Y114957D01*
X61217Y115061D01*
X61198Y115083D01*
X61185Y115109D01*
X61107Y115191D01*
X61034Y115278D01*
X61009Y115294D01*
X60989Y115315D01*
X60891Y115373D01*
X60797Y115435D01*
X60769Y115444D01*
X60744Y115459D01*
X60634Y115487D01*
X60526Y115521D01*
X60496Y115522D01*
X60468Y115529D01*
X60355Y115526D01*
X60242Y115528D01*
X60213Y115521D01*
X60184Y115520D01*
X60076Y115485D01*
X59967Y115457D01*
X59941Y115442D01*
X59913Y115433D01*
X59850Y115387D01*
X59722Y115311D01*
X59679Y115266D01*
X59640Y115238D01*
X55410Y111008D01*
X55358Y110938D01*
X55298Y110874D01*
X55272Y110825D01*
X55239Y110781D01*
X55208Y110699D01*
X55168Y110621D01*
X55160Y110573D01*
X55138Y110515D01*
X55126Y110367D01*
X55113Y110290D01*
X55113Y103429D01*
X49921Y98237D01*
X43764Y98237D01*
X43706Y98229D01*
X43648Y98231D01*
X43566Y98209D01*
X43482Y98197D01*
X43429Y98174D01*
X43373Y98159D01*
X43300Y98116D01*
X43223Y98081D01*
X43178Y98043D01*
X43128Y98014D01*
X43070Y97952D01*
X43006Y97898D01*
X42974Y97849D01*
X42934Y97806D01*
X42895Y97731D01*
X42848Y97661D01*
X42831Y97605D01*
X42804Y97553D01*
X42793Y97485D01*
X42763Y97390D01*
X42760Y97290D01*
X42749Y97222D01*
X42749Y95512D01*
X39938Y92701D01*
X35962Y92701D01*
X33151Y95512D01*
X33151Y99488D01*
X35962Y102299D01*
X38376Y102299D01*
X38462Y102311D01*
X38550Y102314D01*
X38603Y102331D01*
X38657Y102339D01*
X38737Y102374D01*
X38820Y102401D01*
X38860Y102429D01*
X38917Y102455D01*
X39030Y102551D01*
X39094Y102596D01*
X40324Y103827D01*
X47185Y103827D01*
X47272Y103839D01*
X47359Y103842D01*
X47412Y103859D01*
X47467Y103867D01*
X47547Y103902D01*
X47630Y103929D01*
X47669Y103957D01*
X47726Y103983D01*
X47840Y104079D01*
X47903Y104124D01*
X49226Y105447D01*
X49278Y105517D01*
X49338Y105580D01*
X49364Y105630D01*
X49397Y105674D01*
X49428Y105756D01*
X49468Y105834D01*
X49476Y105881D01*
X49498Y105940D01*
X49510Y106087D01*
X49523Y106165D01*
X49523Y113026D01*
X51458Y114960D01*
X56694Y120196D01*
X56746Y120266D01*
X56806Y120330D01*
X56832Y120379D01*
X56865Y120423D01*
X56896Y120505D01*
X56936Y120583D01*
X56944Y120631D01*
X56966Y120689D01*
X56978Y120837D01*
X56991Y120914D01*
X56991Y130216D01*
X57020Y130247D01*
X57046Y130296D01*
X57079Y130340D01*
X57110Y130422D01*
X57150Y130500D01*
X57158Y130547D01*
X57180Y130606D01*
X57192Y130753D01*
X57205Y130831D01*
X57205Y132458D01*
X59108Y134360D01*
X59160Y134430D01*
X59220Y134494D01*
X59246Y134543D01*
X59279Y134587D01*
X59310Y134669D01*
X59350Y134747D01*
X59358Y134795D01*
X59380Y134853D01*
X59392Y135001D01*
X59405Y135078D01*
X59405Y164472D01*
X59393Y164558D01*
X59390Y164646D01*
X59373Y164699D01*
X59365Y164753D01*
X59330Y164833D01*
X59303Y164916D01*
X59275Y164956D01*
X59249Y165013D01*
X59153Y165126D01*
X59108Y165190D01*
X53405Y170892D01*
X53405Y200008D01*
X62542Y209145D01*
X83086Y209145D01*
X83144Y209153D01*
X83202Y209151D01*
X83284Y209173D01*
X83368Y209185D01*
X83421Y209208D01*
X83477Y209223D01*
X83550Y209266D01*
X83627Y209301D01*
X83672Y209339D01*
X83722Y209368D01*
X83780Y209430D01*
X83844Y209484D01*
X83876Y209533D01*
X83916Y209576D01*
X83955Y209651D01*
X84002Y209721D01*
X84019Y209777D01*
X84046Y209829D01*
X84057Y209897D01*
X84087Y209992D01*
X84090Y210092D01*
X84101Y210160D01*
X84101Y213988D01*
X86912Y216799D01*
X90888Y216799D01*
X93699Y213988D01*
X93699Y210160D01*
X93707Y210102D01*
X93705Y210044D01*
X93727Y209962D01*
X93739Y209878D01*
X93762Y209825D01*
X93777Y209769D01*
X93820Y209696D01*
X93855Y209619D01*
X93893Y209574D01*
X93922Y209524D01*
X93984Y209466D01*
X94038Y209402D01*
X94087Y209370D01*
X94130Y209330D01*
X94205Y209291D01*
X94275Y209244D01*
X94331Y209227D01*
X94383Y209200D01*
X94451Y209189D01*
X94546Y209159D01*
X94646Y209156D01*
X94714Y209145D01*
X102468Y209145D01*
X102497Y209149D01*
X102526Y209146D01*
X102637Y209169D01*
X102749Y209185D01*
X102776Y209197D01*
X102805Y209202D01*
X102906Y209255D01*
X103009Y209301D01*
X103031Y209320D01*
X103057Y209333D01*
X103139Y209411D01*
X103226Y209484D01*
X103242Y209509D01*
X103263Y209529D01*
X103320Y209627D01*
X103383Y209721D01*
X103392Y209749D01*
X103407Y209774D01*
X103435Y209884D01*
X103469Y209992D01*
X103470Y210022D01*
X103477Y210050D01*
X103473Y210163D01*
X103476Y210276D01*
X103469Y210305D01*
X103468Y210334D01*
X103433Y210442D01*
X103405Y210551D01*
X103390Y210577D01*
X103381Y210605D01*
X103335Y210668D01*
X103259Y210796D01*
X103214Y210839D01*
X103186Y210878D01*
X101451Y212612D01*
X101451Y216588D01*
X104262Y219399D01*
X108238Y219399D01*
X109900Y217736D01*
X109970Y217684D01*
X110034Y217624D01*
X110083Y217598D01*
X110128Y217565D01*
X110209Y217534D01*
X110287Y217494D01*
X110335Y217486D01*
X110393Y217464D01*
X110541Y217452D01*
X110618Y217439D01*
X134932Y217439D01*
X135018Y217451D01*
X135106Y217454D01*
X135158Y217471D01*
X135213Y217479D01*
X135293Y217514D01*
X135376Y217541D01*
X135416Y217569D01*
X135473Y217595D01*
X135586Y217691D01*
X135650Y217736D01*
X137610Y219697D01*
X141586Y219697D01*
X144397Y216886D01*
X144397Y212910D01*
X141586Y210099D01*
X137610Y210099D01*
X135650Y212060D01*
X135580Y212112D01*
X135516Y212172D01*
X135467Y212198D01*
X135422Y212231D01*
X135341Y212262D01*
X135263Y212302D01*
X135215Y212310D01*
X135157Y212332D01*
X135009Y212344D01*
X134932Y212357D01*
X111214Y212357D01*
X111128Y212345D01*
X111040Y212342D01*
X110988Y212325D01*
X110933Y212317D01*
X110853Y212282D01*
X110770Y212255D01*
X110730Y212227D01*
X110673Y212201D01*
X110560Y212105D01*
X110496Y212060D01*
X109314Y210878D01*
X109297Y210854D01*
X109274Y210835D01*
X109211Y210741D01*
X109143Y210651D01*
X109133Y210623D01*
X109117Y210599D01*
X109082Y210491D01*
X109042Y210385D01*
X109040Y210356D01*
X109031Y210328D01*
X109028Y210214D01*
X109019Y210102D01*
X109024Y210073D01*
X109024Y210044D01*
X109052Y209934D01*
X109074Y209823D01*
X109088Y209797D01*
X109095Y209769D01*
X109153Y209671D01*
X109205Y209571D01*
X109226Y209549D01*
X109241Y209524D01*
X109323Y209447D01*
X109401Y209365D01*
X109427Y209350D01*
X109448Y209330D01*
X109549Y209278D01*
X109647Y209221D01*
X109675Y209214D01*
X109701Y209200D01*
X109778Y209187D01*
X109922Y209151D01*
X109985Y209153D01*
X110032Y209145D01*
X122208Y209145D01*
X135895Y195458D01*
X135895Y195228D01*
X135907Y195142D01*
X135910Y195054D01*
X135927Y195001D01*
X135935Y194947D01*
X135970Y194867D01*
X135997Y194784D01*
X136025Y194744D01*
X136051Y194687D01*
X136147Y194574D01*
X136192Y194510D01*
X143360Y187342D01*
X143430Y187290D01*
X143494Y187230D01*
X143543Y187204D01*
X143587Y187171D01*
X143669Y187140D01*
X143747Y187100D01*
X143795Y187092D01*
X143853Y187070D01*
X144001Y187058D01*
X144078Y187045D01*
X157738Y187045D01*
X157824Y187057D01*
X157912Y187060D01*
X157964Y187077D01*
X158019Y187085D01*
X158099Y187120D01*
X158182Y187147D01*
X158222Y187175D01*
X158279Y187201D01*
X158392Y187297D01*
X158456Y187342D01*
X160162Y189049D01*
X164138Y189049D01*
X166949Y186238D01*
X166949Y183105D01*
X166957Y183047D01*
X166955Y182989D01*
X166977Y182907D01*
X166989Y182824D01*
X167012Y182770D01*
X167027Y182714D01*
X167070Y182641D01*
X167105Y182564D01*
X167143Y182520D01*
X167172Y182469D01*
X167234Y182412D01*
X167288Y182347D01*
X167337Y182315D01*
X167380Y182275D01*
X167455Y182236D01*
X167525Y182190D01*
X167581Y182172D01*
X167633Y182145D01*
X167701Y182134D01*
X167796Y182104D01*
X167896Y182101D01*
X167964Y182090D01*
X169230Y182090D01*
X169316Y182102D01*
X169404Y182105D01*
X169457Y182122D01*
X169511Y182130D01*
X169591Y182166D01*
X169674Y182192D01*
X169714Y182220D01*
X169771Y182246D01*
X169884Y182342D01*
X169948Y182387D01*
X172162Y184602D01*
X176138Y184602D01*
X178949Y181791D01*
X178949Y177816D01*
X178815Y177682D01*
X178797Y177658D01*
X178775Y177639D01*
X178712Y177545D01*
X178644Y177455D01*
X178634Y177427D01*
X178617Y177403D01*
X178583Y177295D01*
X178543Y177189D01*
X178541Y177160D01*
X178532Y177132D01*
X178529Y177019D01*
X178519Y176906D01*
X178525Y176877D01*
X178524Y176848D01*
X178553Y176738D01*
X178575Y176627D01*
X178589Y176601D01*
X178596Y176573D01*
X178654Y176475D01*
X178706Y176375D01*
X178726Y176353D01*
X178741Y176328D01*
X178824Y176251D01*
X178902Y176169D01*
X178927Y176154D01*
X178949Y176134D01*
X179050Y176082D01*
X179147Y176025D01*
X179176Y176018D01*
X179202Y176004D01*
X179279Y175991D01*
X179423Y175955D01*
X179485Y175957D01*
X179533Y175949D01*
X182186Y175949D01*
X182770Y175364D01*
X182794Y175347D01*
X182813Y175324D01*
X182907Y175261D01*
X182997Y175193D01*
X183025Y175183D01*
X183049Y175167D01*
X183157Y175132D01*
X183263Y175092D01*
X183292Y175090D01*
X183320Y175081D01*
X183434Y175078D01*
X183546Y175069D01*
X183575Y175074D01*
X183604Y175074D01*
X183714Y175102D01*
X183825Y175124D01*
X183851Y175138D01*
X183879Y175145D01*
X183977Y175203D01*
X184077Y175255D01*
X184099Y175276D01*
X184124Y175291D01*
X184201Y175373D01*
X184283Y175451D01*
X184298Y175477D01*
X184318Y175498D01*
X184370Y175599D01*
X184427Y175697D01*
X184434Y175725D01*
X184448Y175751D01*
X184461Y175828D01*
X184497Y175972D01*
X184495Y176035D01*
X184503Y176082D01*
X184503Y183632D01*
X184491Y183719D01*
X184488Y183806D01*
X184471Y183859D01*
X184463Y183914D01*
X184428Y183994D01*
X184401Y184077D01*
X184373Y184116D01*
X184347Y184173D01*
X184251Y184286D01*
X184206Y184350D01*
X179413Y189143D01*
X179413Y196272D01*
X179448Y196340D01*
X179456Y196387D01*
X179478Y196446D01*
X179490Y196593D01*
X179503Y196671D01*
X179503Y200878D01*
X180843Y202218D01*
X185400Y202218D01*
X185487Y202230D01*
X185574Y202233D01*
X185627Y202250D01*
X185682Y202258D01*
X185762Y202293D01*
X185845Y202320D01*
X185884Y202348D01*
X185941Y202374D01*
X186054Y202470D01*
X186118Y202515D01*
X188910Y205307D01*
X188922Y205314D01*
X188929Y205322D01*
X188960Y205344D01*
X189004Y205388D01*
X189056Y205458D01*
X189116Y205522D01*
X189142Y205571D01*
X189175Y205615D01*
X189206Y205697D01*
X189246Y205775D01*
X189254Y205822D01*
X189276Y205881D01*
X189288Y206028D01*
X189301Y206106D01*
X189301Y209238D01*
X192112Y212049D01*
X196088Y212049D01*
X198899Y209238D01*
X198899Y205262D01*
X196088Y202451D01*
X192956Y202451D01*
X192869Y202439D01*
X192782Y202436D01*
X192729Y202419D01*
X192674Y202411D01*
X192594Y202376D01*
X192511Y202349D01*
X192472Y202321D01*
X192415Y202295D01*
X192302Y202199D01*
X192298Y202197D01*
X192276Y202184D01*
X192269Y202176D01*
X192238Y202154D01*
X192194Y202110D01*
X190292Y200208D01*
X190247Y200176D01*
X187715Y197644D01*
X185092Y197644D01*
X185034Y197636D01*
X184976Y197638D01*
X184894Y197616D01*
X184810Y197605D01*
X184757Y197581D01*
X184701Y197566D01*
X184628Y197523D01*
X184551Y197488D01*
X184506Y197450D01*
X184456Y197421D01*
X184398Y197359D01*
X184334Y197305D01*
X184302Y197256D01*
X184262Y197213D01*
X184223Y197138D01*
X184176Y197068D01*
X184159Y197012D01*
X184132Y196960D01*
X184121Y196892D01*
X184091Y196797D01*
X184088Y196697D01*
X184077Y196629D01*
X184077Y194244D01*
X184042Y194176D01*
X184034Y194129D01*
X184012Y194070D01*
X184000Y193923D01*
X183987Y193845D01*
X183987Y191458D01*
X183999Y191371D01*
X184002Y191284D01*
X184019Y191231D01*
X184027Y191176D01*
X184062Y191096D01*
X184089Y191013D01*
X184117Y190974D01*
X184143Y190917D01*
X184239Y190804D01*
X184284Y190740D01*
X189077Y185947D01*
X189077Y167612D01*
X189085Y167554D01*
X189083Y167496D01*
X189105Y167414D01*
X189117Y167330D01*
X189140Y167277D01*
X189155Y167221D01*
X189198Y167148D01*
X189233Y167071D01*
X189271Y167026D01*
X189300Y166976D01*
X189362Y166918D01*
X189416Y166854D01*
X189465Y166822D01*
X189508Y166782D01*
X189583Y166743D01*
X189653Y166696D01*
X189709Y166679D01*
X189761Y166652D01*
X189829Y166641D01*
X189924Y166611D01*
X190024Y166608D01*
X190092Y166597D01*
X190888Y166597D01*
X193699Y163786D01*
X193699Y159810D01*
X190888Y156999D01*
X186912Y156999D01*
X184101Y159810D01*
X184101Y163786D01*
X184206Y163890D01*
X184258Y163960D01*
X184318Y164024D01*
X184344Y164073D01*
X184377Y164118D01*
X184408Y164199D01*
X184448Y164277D01*
X184456Y164325D01*
X184478Y164383D01*
X184490Y164531D01*
X184503Y164608D01*
X184503Y166218D01*
X184499Y166247D01*
X184502Y166276D01*
X184496Y166302D01*
X184497Y166308D01*
X184490Y166331D01*
X184479Y166387D01*
X184463Y166499D01*
X184451Y166526D01*
X184446Y166555D01*
X184393Y166656D01*
X184347Y166759D01*
X184328Y166781D01*
X184315Y166807D01*
X184237Y166889D01*
X184164Y166976D01*
X184139Y166992D01*
X184119Y167013D01*
X184021Y167071D01*
X183927Y167133D01*
X183899Y167142D01*
X183874Y167157D01*
X183764Y167185D01*
X183656Y167219D01*
X183626Y167220D01*
X183598Y167227D01*
X183485Y167223D01*
X183372Y167226D01*
X183343Y167219D01*
X183314Y167218D01*
X183206Y167183D01*
X183097Y167155D01*
X183071Y167140D01*
X183043Y167131D01*
X182979Y167085D01*
X182926Y167053D01*
X182921Y167051D01*
X182918Y167049D01*
X182852Y167009D01*
X182809Y166964D01*
X182770Y166936D01*
X182186Y166351D01*
X178210Y166351D01*
X175996Y168566D01*
X175926Y168618D01*
X175862Y168678D01*
X175813Y168704D01*
X175768Y168737D01*
X175687Y168768D01*
X175609Y168808D01*
X175561Y168816D01*
X175503Y168838D01*
X175355Y168850D01*
X175278Y168863D01*
X144774Y168863D01*
X142718Y170920D01*
X142694Y170937D01*
X142675Y170960D01*
X142581Y171023D01*
X142491Y171091D01*
X142463Y171101D01*
X142439Y171117D01*
X142331Y171152D01*
X142225Y171192D01*
X142196Y171194D01*
X142168Y171203D01*
X142054Y171206D01*
X141942Y171215D01*
X141913Y171210D01*
X141884Y171210D01*
X141774Y171182D01*
X141663Y171160D01*
X141637Y171146D01*
X141609Y171139D01*
X141511Y171081D01*
X141411Y171029D01*
X141389Y171008D01*
X141364Y170993D01*
X141287Y170911D01*
X141205Y170833D01*
X141190Y170807D01*
X141170Y170786D01*
X141118Y170685D01*
X141061Y170588D01*
X141054Y170559D01*
X141040Y170533D01*
X141027Y170456D01*
X140991Y170312D01*
X140993Y170250D01*
X140985Y170202D01*
X140985Y123700D01*
X140993Y123642D01*
X140991Y123584D01*
X141013Y123502D01*
X141025Y123418D01*
X141048Y123365D01*
X141063Y123309D01*
X141106Y123236D01*
X141141Y123159D01*
X141179Y123114D01*
X141208Y123064D01*
X141270Y123006D01*
X141324Y122942D01*
X141373Y122910D01*
X141416Y122870D01*
X141491Y122831D01*
X141561Y122784D01*
X141617Y122767D01*
X141669Y122740D01*
X141737Y122729D01*
X141832Y122699D01*
X141932Y122696D01*
X142000Y122685D01*
X185947Y122685D01*
X187584Y121048D01*
X190794Y117838D01*
X190841Y117803D01*
X190881Y117761D01*
X190954Y117718D01*
X191021Y117667D01*
X191076Y117646D01*
X191126Y117617D01*
X191208Y117596D01*
X191287Y117566D01*
X191345Y117561D01*
X191402Y117547D01*
X191486Y117549D01*
X191570Y117542D01*
X191627Y117554D01*
X191686Y117556D01*
X191766Y117582D01*
X191849Y117598D01*
X191901Y117625D01*
X191956Y117643D01*
X192012Y117683D01*
X192101Y117729D01*
X192173Y117798D01*
X192230Y117838D01*
X192712Y118321D01*
X196688Y118321D01*
X199499Y115510D01*
X199499Y111534D01*
X198168Y110204D01*
X198133Y110157D01*
X198091Y110117D01*
X198048Y110044D01*
X197997Y109977D01*
X197977Y109922D01*
X197947Y109872D01*
X197926Y109790D01*
X197896Y109711D01*
X197891Y109653D01*
X197877Y109596D01*
X197880Y109512D01*
X197873Y109428D01*
X197884Y109370D01*
X197886Y109312D01*
X197912Y109232D01*
X197929Y109149D01*
X197955Y109097D01*
X197973Y109041D01*
X198014Y108985D01*
X198060Y108897D01*
X198128Y108824D01*
X198168Y108768D01*
X199499Y107438D01*
X199499Y103462D01*
X196688Y100651D01*
X194312Y100651D01*
X194254Y100643D01*
X194196Y100645D01*
X194114Y100623D01*
X194030Y100611D01*
X193977Y100588D01*
X193921Y100573D01*
X193848Y100530D01*
X193771Y100495D01*
X193726Y100457D01*
X193676Y100428D01*
X193618Y100366D01*
X193554Y100312D01*
X193522Y100263D01*
X193482Y100220D01*
X193443Y100145D01*
X193396Y100075D01*
X193379Y100019D01*
X193352Y99967D01*
X193341Y99899D01*
X193311Y99804D01*
X193308Y99704D01*
X193297Y99636D01*
X193297Y98060D01*
X193309Y97974D01*
X193312Y97886D01*
X193329Y97834D01*
X193337Y97779D01*
X193372Y97699D01*
X193399Y97616D01*
X193427Y97576D01*
X193453Y97519D01*
X193549Y97406D01*
X193594Y97342D01*
X195882Y95055D01*
X195882Y91079D01*
X193071Y88268D01*
X189095Y88268D01*
X186284Y91079D01*
X186284Y93036D01*
X186276Y93094D01*
X186277Y93152D01*
X186256Y93234D01*
X186244Y93318D01*
X186220Y93371D01*
X186206Y93427D01*
X186162Y93500D01*
X186128Y93577D01*
X186090Y93622D01*
X186060Y93672D01*
X185999Y93730D01*
X185944Y93794D01*
X185896Y93826D01*
X185853Y93866D01*
X185778Y93905D01*
X185708Y93952D01*
X185652Y93969D01*
X185600Y93996D01*
X185532Y94007D01*
X185437Y94037D01*
X185337Y94040D01*
X185269Y94051D01*
X183462Y94051D01*
X180651Y96862D01*
X180651Y99994D01*
X180639Y100081D01*
X180636Y100168D01*
X180619Y100221D01*
X180611Y100276D01*
X180576Y100356D01*
X180549Y100439D01*
X180521Y100478D01*
X180495Y100535D01*
X180399Y100648D01*
X180354Y100712D01*
X177990Y103076D01*
X177920Y103128D01*
X177856Y103188D01*
X177807Y103214D01*
X177763Y103247D01*
X177681Y103278D01*
X177603Y103318D01*
X177556Y103326D01*
X177497Y103348D01*
X177350Y103360D01*
X177272Y103373D01*
X176114Y103373D01*
X176085Y103369D01*
X176056Y103372D01*
X175945Y103349D01*
X175833Y103333D01*
X175806Y103321D01*
X175777Y103316D01*
X175677Y103263D01*
X175573Y103217D01*
X175551Y103198D01*
X175525Y103185D01*
X175443Y103107D01*
X175356Y103034D01*
X175340Y103009D01*
X175319Y102989D01*
X175262Y102891D01*
X175199Y102797D01*
X175190Y102769D01*
X175175Y102744D01*
X175147Y102634D01*
X175113Y102526D01*
X175112Y102496D01*
X175105Y102468D01*
X175109Y102355D01*
X175106Y102242D01*
X175113Y102213D01*
X175114Y102184D01*
X175149Y102076D01*
X175177Y101967D01*
X175192Y101941D01*
X175201Y101913D01*
X175247Y101850D01*
X175323Y101722D01*
X175368Y101679D01*
X175396Y101640D01*
X178149Y98888D01*
X178149Y94912D01*
X175338Y92101D01*
X172206Y92101D01*
X172119Y92089D01*
X172032Y92086D01*
X171979Y92069D01*
X171924Y92061D01*
X171844Y92026D01*
X171761Y91999D01*
X171722Y91971D01*
X171665Y91945D01*
X171552Y91849D01*
X171488Y91804D01*
X171447Y91763D01*
X160254Y91763D01*
X160196Y91755D01*
X160137Y91757D01*
X160056Y91735D01*
X159972Y91723D01*
X159919Y91700D01*
X159862Y91685D01*
X159790Y91642D01*
X159713Y91607D01*
X159668Y91569D01*
X159618Y91540D01*
X159560Y91478D01*
X159496Y91424D01*
X159463Y91375D01*
X159423Y91332D01*
X159385Y91257D01*
X159338Y91187D01*
X159320Y91131D01*
X159294Y91079D01*
X159282Y91011D01*
X159252Y90916D01*
X159250Y90816D01*
X159238Y90748D01*
X159238Y88273D01*
X156427Y85462D01*
X152452Y85462D01*
X149641Y88273D01*
X149641Y92248D01*
X152452Y95059D01*
X155584Y95059D01*
X155670Y95071D01*
X155758Y95074D01*
X155810Y95091D01*
X155865Y95099D01*
X155945Y95135D01*
X156028Y95162D01*
X156068Y95190D01*
X156125Y95215D01*
X156238Y95311D01*
X156302Y95357D01*
X157282Y96337D01*
X167536Y96337D01*
X167594Y96345D01*
X167652Y96343D01*
X167734Y96365D01*
X167818Y96377D01*
X167871Y96400D01*
X167927Y96415D01*
X168000Y96458D01*
X168077Y96493D01*
X168122Y96531D01*
X168172Y96560D01*
X168230Y96622D01*
X168294Y96676D01*
X168326Y96725D01*
X168366Y96768D01*
X168405Y96843D01*
X168452Y96913D01*
X168469Y96969D01*
X168496Y97021D01*
X168507Y97089D01*
X168537Y97184D01*
X168540Y97284D01*
X168551Y97352D01*
X168551Y98888D01*
X171304Y101640D01*
X171321Y101664D01*
X171344Y101683D01*
X171407Y101777D01*
X171475Y101867D01*
X171485Y101895D01*
X171501Y101919D01*
X171536Y102027D01*
X171576Y102133D01*
X171578Y102162D01*
X171587Y102190D01*
X171590Y102304D01*
X171599Y102416D01*
X171594Y102445D01*
X171594Y102474D01*
X171566Y102584D01*
X171544Y102695D01*
X171530Y102721D01*
X171523Y102749D01*
X171465Y102847D01*
X171413Y102947D01*
X171392Y102969D01*
X171377Y102994D01*
X171295Y103071D01*
X171217Y103153D01*
X171191Y103168D01*
X171170Y103188D01*
X171069Y103240D01*
X170971Y103297D01*
X170943Y103304D01*
X170917Y103318D01*
X170840Y103331D01*
X170696Y103367D01*
X170633Y103365D01*
X170586Y103373D01*
X139117Y103373D01*
X139030Y103361D01*
X138943Y103358D01*
X138890Y103341D01*
X138835Y103333D01*
X138755Y103298D01*
X138672Y103271D01*
X138633Y103243D01*
X138576Y103217D01*
X138462Y103121D01*
X138399Y103076D01*
X138388Y103065D01*
X131976Y103065D01*
X131947Y103061D01*
X131918Y103064D01*
X131807Y103041D01*
X131695Y103025D01*
X131668Y103013D01*
X131639Y103008D01*
X131539Y102955D01*
X131435Y102909D01*
X131413Y102890D01*
X131387Y102877D01*
X131305Y102799D01*
X131218Y102726D01*
X131202Y102701D01*
X131181Y102681D01*
X131124Y102583D01*
X131061Y102489D01*
X131052Y102461D01*
X131037Y102436D01*
X131009Y102326D01*
X130975Y102218D01*
X130974Y102188D01*
X130967Y102160D01*
X130971Y102047D01*
X130968Y101934D01*
X130975Y101905D01*
X130976Y101876D01*
X131011Y101768D01*
X131040Y101659D01*
X131055Y101633D01*
X131064Y101605D01*
X131109Y101542D01*
X131185Y101414D01*
X131230Y101371D01*
X131258Y101332D01*
X133205Y99386D01*
X133205Y96868D01*
X133217Y96782D01*
X133220Y96694D01*
X133237Y96641D01*
X133245Y96587D01*
X133280Y96507D01*
X133307Y96424D01*
X133335Y96384D01*
X133361Y96327D01*
X133457Y96214D01*
X133502Y96150D01*
X136400Y93252D01*
X136447Y93217D01*
X136487Y93175D01*
X136560Y93132D01*
X136627Y93082D01*
X136682Y93061D01*
X136732Y93031D01*
X136814Y93010D01*
X136893Y92980D01*
X136951Y92976D01*
X137008Y92961D01*
X137092Y92964D01*
X137176Y92957D01*
X137233Y92968D01*
X137292Y92970D01*
X137372Y92996D01*
X137455Y93013D01*
X137507Y93040D01*
X137562Y93058D01*
X137619Y93098D01*
X137707Y93144D01*
X137779Y93212D01*
X137836Y93252D01*
X138806Y94223D01*
X142594Y94223D01*
X145273Y91544D01*
X145273Y87756D01*
X142594Y85077D01*
X138806Y85077D01*
X137325Y86558D01*
X137255Y86610D01*
X137192Y86670D01*
X137142Y86696D01*
X137098Y86729D01*
X137016Y86760D01*
X136938Y86800D01*
X136891Y86808D01*
X136832Y86830D01*
X136685Y86842D01*
X136607Y86855D01*
X134892Y86855D01*
X132706Y89042D01*
X132683Y89059D01*
X132664Y89082D01*
X132569Y89144D01*
X132479Y89212D01*
X132451Y89223D01*
X132427Y89239D01*
X132319Y89273D01*
X132213Y89314D01*
X132184Y89316D01*
X132156Y89325D01*
X132043Y89328D01*
X131930Y89337D01*
X131901Y89332D01*
X131872Y89332D01*
X131762Y89304D01*
X131651Y89281D01*
X131625Y89268D01*
X131597Y89260D01*
X131499Y89203D01*
X131399Y89150D01*
X131378Y89130D01*
X131352Y89115D01*
X131275Y89033D01*
X131193Y88955D01*
X131178Y88929D01*
X131158Y88908D01*
X131106Y88807D01*
X131049Y88709D01*
X131042Y88681D01*
X131028Y88655D01*
X131015Y88577D01*
X130979Y88434D01*
X130981Y88371D01*
X130973Y88324D01*
X130973Y46000D01*
X130985Y45913D01*
X130988Y45826D01*
X131005Y45773D01*
X131013Y45718D01*
X131049Y45639D01*
X131075Y45555D01*
X131103Y45516D01*
X131129Y45459D01*
X131225Y45346D01*
X131270Y45282D01*
X153306Y23246D01*
X153376Y23194D01*
X153440Y23134D01*
X153489Y23108D01*
X153533Y23075D01*
X153615Y23044D01*
X153693Y23004D01*
X153741Y22996D01*
X153799Y22974D01*
X153947Y22962D01*
X154024Y22949D01*
X156438Y22949D01*
X159249Y20138D01*
X159249Y16162D01*
X156438Y13351D01*
X152462Y13351D01*
X149651Y16162D01*
X149651Y18576D01*
X149639Y18662D01*
X149636Y18750D01*
X149619Y18803D01*
X149611Y18857D01*
X149576Y18937D01*
X149549Y19020D01*
X149521Y19060D01*
X149495Y19117D01*
X149399Y19230D01*
X149354Y19294D01*
X127318Y41330D01*
X126424Y42224D01*
X126400Y42241D01*
X126381Y42264D01*
X126287Y42327D01*
X126197Y42395D01*
X126169Y42405D01*
X126145Y42421D01*
X126037Y42456D01*
X125931Y42496D01*
X125902Y42498D01*
X125874Y42507D01*
X125760Y42510D01*
X125648Y42519D01*
X125619Y42514D01*
X125590Y42514D01*
X125480Y42486D01*
X125369Y42464D01*
X125343Y42450D01*
X125315Y42443D01*
X125217Y42385D01*
X125117Y42333D01*
X125095Y42312D01*
X125070Y42297D01*
X124993Y42215D01*
X124911Y42137D01*
X124896Y42112D01*
X124876Y42090D01*
X124824Y41989D01*
X124767Y41892D01*
X124760Y41863D01*
X124746Y41837D01*
X124733Y41760D01*
X124697Y41616D01*
X124699Y41554D01*
X124691Y41506D01*
X124691Y7706D01*
X124699Y7648D01*
X124697Y7590D01*
X124719Y7508D01*
X124731Y7424D01*
X124754Y7371D01*
X124769Y7315D01*
X124812Y7242D01*
X124847Y7165D01*
X124885Y7120D01*
X124914Y7070D01*
X124976Y7012D01*
X125030Y6948D01*
X125079Y6916D01*
X125122Y6876D01*
X125197Y6837D01*
X125267Y6790D01*
X125323Y6773D01*
X125375Y6746D01*
X125443Y6735D01*
X125538Y6705D01*
X125638Y6702D01*
X125706Y6691D01*
X206294Y6691D01*
X206352Y6699D01*
X206410Y6697D01*
X206492Y6719D01*
X206576Y6731D01*
X206629Y6754D01*
X206685Y6769D01*
X206758Y6812D01*
X206835Y6847D01*
X206880Y6885D01*
X206930Y6914D01*
X206988Y6976D01*
X207052Y7030D01*
X207084Y7079D01*
X207124Y7122D01*
X207163Y7197D01*
X207210Y7267D01*
X207227Y7323D01*
X207254Y7375D01*
X207265Y7443D01*
X207295Y7538D01*
X207298Y7638D01*
X207309Y7706D01*
X207309Y234010D01*
X207301Y234068D01*
X207303Y234126D01*
X207281Y234208D01*
X207269Y234292D01*
X207246Y234345D01*
X207231Y234401D01*
X207188Y234474D01*
X207153Y234551D01*
X207115Y234596D01*
X207086Y234646D01*
X207024Y234704D01*
X206970Y234768D01*
X206921Y234800D01*
X206878Y234840D01*
X206803Y234879D01*
X206733Y234926D01*
X206677Y234943D01*
X206625Y234970D01*
X206557Y234981D01*
X206462Y235011D01*
X206362Y235014D01*
X206294Y235025D01*
X189168Y235025D01*
X188275Y235918D01*
X188275Y251244D01*
X188267Y251302D01*
X188269Y251360D01*
X188247Y251442D01*
X188235Y251526D01*
X188212Y251579D01*
X188197Y251635D01*
X188154Y251708D01*
X188119Y251785D01*
X188081Y251830D01*
X188052Y251880D01*
X187990Y251938D01*
X187936Y252002D01*
X187887Y252034D01*
X187844Y252074D01*
X187769Y252113D01*
X187699Y252160D01*
X187643Y252177D01*
X187591Y252204D01*
X187523Y252215D01*
X187428Y252245D01*
X187328Y252248D01*
X187260Y252259D01*
X187115Y252259D01*
X187028Y252247D01*
X186941Y252244D01*
X186888Y252227D01*
X186834Y252219D01*
X186754Y252184D01*
X186671Y252157D01*
X186631Y252129D01*
X186574Y252103D01*
X186461Y252007D01*
X186397Y251962D01*
X185905Y251469D01*
X167523Y251469D01*
X167436Y251457D01*
X167349Y251454D01*
X167296Y251437D01*
X167241Y251429D01*
X167162Y251394D01*
X167078Y251367D01*
X167039Y251339D01*
X166982Y251313D01*
X166869Y251217D01*
X166805Y251172D01*
X163292Y247659D01*
X143323Y247659D01*
X143236Y247647D01*
X143149Y247644D01*
X143096Y247627D01*
X143041Y247619D01*
X142962Y247584D01*
X142878Y247557D01*
X142839Y247529D01*
X142782Y247503D01*
X142669Y247407D01*
X142605Y247362D01*
X139802Y244559D01*
X139623Y244559D01*
X139536Y244547D01*
X139449Y244544D01*
X139396Y244527D01*
X139341Y244519D01*
X139262Y244484D01*
X139178Y244457D01*
X139139Y244429D01*
X139082Y244403D01*
X138969Y244307D01*
X138905Y244262D01*
X138052Y243409D01*
X94423Y243409D01*
X94336Y243397D01*
X94249Y243394D01*
X94196Y243377D01*
X94141Y243369D01*
X94062Y243334D01*
X93978Y243307D01*
X93939Y243279D01*
X93882Y243253D01*
X93769Y243157D01*
X93705Y243112D01*
X90602Y240009D01*
X70699Y240009D01*
X70613Y239997D01*
X70525Y239994D01*
X70473Y239977D01*
X70418Y239969D01*
X70338Y239934D01*
X70255Y239907D01*
X70216Y239879D01*
X70159Y239853D01*
X70045Y239757D01*
X69982Y239712D01*
X67007Y236737D01*
X49130Y236737D01*
X49043Y236725D01*
X48956Y236722D01*
X48903Y236705D01*
X48849Y236697D01*
X48769Y236662D01*
X48686Y236635D01*
X48646Y236607D01*
X48589Y236581D01*
X48476Y236485D01*
X48412Y236440D01*
X43122Y231149D01*
X35472Y231149D01*
X35414Y231141D01*
X35356Y231143D01*
X35274Y231121D01*
X35191Y231109D01*
X35137Y231086D01*
X35081Y231071D01*
X35008Y231028D01*
X34931Y230993D01*
X34886Y230955D01*
X34836Y230926D01*
X34778Y230864D01*
X34714Y230810D01*
X34682Y230761D01*
X34642Y230718D01*
X34603Y230643D01*
X34557Y230573D01*
X34539Y230517D01*
X34512Y230465D01*
X34501Y230397D01*
X34471Y230302D01*
X34468Y230202D01*
X34457Y230134D01*
X34457Y213795D01*
X34469Y213708D01*
X34472Y213621D01*
X34489Y213568D01*
X34497Y213513D01*
X34532Y213434D01*
X34559Y213350D01*
X34587Y213311D01*
X34613Y213254D01*
X34709Y213141D01*
X34754Y213077D01*
X39839Y207992D01*
X39839Y205542D01*
X39836Y205506D01*
X39823Y205428D01*
X39823Y171053D01*
X38922Y170152D01*
X38870Y170082D01*
X38810Y170018D01*
X38784Y169969D01*
X38751Y169925D01*
X38720Y169843D01*
X38680Y169765D01*
X38672Y169718D01*
X38650Y169659D01*
X38638Y169511D01*
X38625Y169434D01*
X38625Y169004D01*
X34724Y165104D01*
X34672Y165034D01*
X34612Y164970D01*
X34587Y164921D01*
X34554Y164877D01*
X34522Y164795D01*
X34483Y164717D01*
X34475Y164670D01*
X34452Y164611D01*
X34440Y164463D01*
X34427Y164386D01*
X34427Y163612D01*
X22838Y152023D01*
X22786Y151953D01*
X22726Y151889D01*
X22700Y151839D01*
X22667Y151795D01*
X22636Y151714D01*
X22596Y151636D01*
X22588Y151588D01*
X22566Y151530D01*
X22554Y151382D01*
X22541Y151305D01*
X22541Y129666D01*
X22553Y129580D01*
X22556Y129492D01*
X22573Y129440D01*
X22581Y129385D01*
X22616Y129305D01*
X22643Y129222D01*
X22671Y129182D01*
X22697Y129125D01*
X22767Y129043D01*
X22788Y129007D01*
X22813Y128983D01*
X22838Y128948D01*
X24799Y126988D01*
X24799Y123012D01*
X21988Y120201D01*
X18012Y120201D01*
X15201Y123012D01*
X15201Y126988D01*
X17162Y128948D01*
X17172Y128962D01*
X17178Y128967D01*
X17197Y128994D01*
X17214Y129018D01*
X17274Y129082D01*
X17300Y129131D01*
X17333Y129176D01*
X17364Y129257D01*
X17404Y129335D01*
X17412Y129383D01*
X17434Y129441D01*
X17446Y129589D01*
X17459Y129666D01*
X17459Y153830D01*
X29064Y165435D01*
X29117Y165505D01*
X29177Y165569D01*
X29202Y165618D01*
X29235Y165662D01*
X29266Y165744D01*
X29306Y165822D01*
X29314Y165869D01*
X29336Y165928D01*
X29343Y166010D01*
X29348Y166024D01*
X29349Y166078D01*
X29362Y166153D01*
X29362Y166882D01*
X30448Y167968D01*
X30465Y167992D01*
X30488Y168011D01*
X30550Y168105D01*
X30619Y168195D01*
X30629Y168223D01*
X30645Y168247D01*
X30679Y168355D01*
X30720Y168461D01*
X30722Y168490D01*
X30731Y168518D01*
X30734Y168632D01*
X30743Y168744D01*
X30738Y168773D01*
X30738Y168802D01*
X30710Y168912D01*
X30687Y169023D01*
X30674Y169049D01*
X30666Y169077D01*
X30609Y169175D01*
X30556Y169275D01*
X30536Y169297D01*
X30521Y169322D01*
X30439Y169399D01*
X30361Y169481D01*
X30335Y169496D01*
X30314Y169516D01*
X30213Y169568D01*
X30115Y169625D01*
X30087Y169632D01*
X30061Y169646D01*
X29983Y169659D01*
X29840Y169695D01*
X29777Y169693D01*
X29730Y169701D01*
X29512Y169701D01*
X26701Y172512D01*
X26701Y175285D01*
X26689Y175372D01*
X26686Y175459D01*
X26669Y175512D01*
X26661Y175567D01*
X26626Y175646D01*
X26599Y175730D01*
X26571Y175769D01*
X26545Y175826D01*
X26449Y175939D01*
X26446Y175944D01*
X26434Y175965D01*
X26426Y175972D01*
X26404Y176003D01*
X22987Y179420D01*
X22987Y179818D01*
X22975Y179905D01*
X22972Y179992D01*
X22955Y180045D01*
X22947Y180099D01*
X22912Y180179D01*
X22885Y180262D01*
X22857Y180302D01*
X22831Y180359D01*
X22735Y180472D01*
X22690Y180536D01*
X12841Y190384D01*
X12841Y235483D01*
X13845Y236486D01*
X13897Y236556D01*
X13957Y236620D01*
X13982Y236669D01*
X14016Y236714D01*
X14047Y236795D01*
X14087Y236873D01*
X14095Y236921D01*
X14117Y236979D01*
X14125Y237083D01*
X14128Y237091D01*
X14129Y237125D01*
X14129Y237127D01*
X14142Y237204D01*
X14142Y243161D01*
X21943Y250963D01*
X34494Y250963D01*
X34580Y250975D01*
X34668Y250978D01*
X34721Y250995D01*
X34775Y251003D01*
X34855Y251038D01*
X34938Y251065D01*
X34978Y251093D01*
X35035Y251119D01*
X35148Y251215D01*
X35212Y251260D01*
X37646Y253694D01*
X37687Y253749D01*
X37736Y253797D01*
X37772Y253862D01*
X37817Y253922D01*
X37841Y253985D01*
X37875Y254045D01*
X37892Y254117D01*
X37918Y254187D01*
X37924Y254255D01*
X37939Y254322D01*
X37936Y254396D01*
X37942Y254471D01*
X37928Y254537D01*
X37925Y254605D01*
X37903Y254664D01*
X37886Y254749D01*
X37833Y254850D01*
X37807Y254920D01*
X37432Y255569D01*
X37259Y256216D01*
X37259Y260000D01*
X37251Y260058D01*
X37253Y260116D01*
X37231Y260198D01*
X37219Y260282D01*
X37196Y260335D01*
X37181Y260391D01*
X37138Y260464D01*
X37103Y260541D01*
X37065Y260586D01*
X37036Y260636D01*
X36974Y260694D01*
X36920Y260758D01*
X36871Y260790D01*
X36828Y260830D01*
X36753Y260869D01*
X36683Y260916D01*
X36627Y260933D01*
X36575Y260960D01*
X36507Y260971D01*
X36412Y261001D01*
X36312Y261004D01*
X36244Y261015D01*
X35140Y261015D01*
X35082Y261007D01*
X35024Y261009D01*
X34942Y260987D01*
X34858Y260975D01*
X34805Y260952D01*
X34749Y260937D01*
X34676Y260894D01*
X34599Y260859D01*
X34554Y260821D01*
X34504Y260792D01*
X34446Y260730D01*
X34382Y260676D01*
X34350Y260627D01*
X34310Y260584D01*
X34271Y260509D01*
X34224Y260439D01*
X34207Y260383D01*
X34180Y260331D01*
X34169Y260263D01*
X34139Y260168D01*
X34136Y260068D01*
X34125Y260000D01*
X34125Y255918D01*
X33232Y255025D01*
X20681Y255025D01*
X20594Y255013D01*
X20507Y255010D01*
X20454Y254993D01*
X20400Y254985D01*
X20320Y254950D01*
X20236Y254923D01*
X20197Y254895D01*
X20140Y254869D01*
X20027Y254773D01*
X19963Y254728D01*
X13730Y248495D01*
X13116Y248495D01*
X13029Y248483D01*
X12941Y248480D01*
X12889Y248463D01*
X12834Y248455D01*
X12754Y248419D01*
X12671Y248393D01*
X12632Y248365D01*
X12575Y248339D01*
X12461Y248243D01*
X12398Y248198D01*
X8100Y243900D01*
X8048Y243830D01*
X7988Y243766D01*
X7962Y243717D01*
X7929Y243673D01*
X7898Y243591D01*
X7858Y243513D01*
X7850Y243466D01*
X7828Y243407D01*
X7816Y243260D01*
X7803Y243182D01*
X7803Y239481D01*
X7815Y239394D01*
X7818Y239307D01*
X7835Y239254D01*
X7843Y239200D01*
X7878Y239120D01*
X7905Y239037D01*
X7933Y238997D01*
X7959Y238940D01*
X8055Y238827D01*
X8100Y238763D01*
X10303Y236561D01*
X10303Y189753D01*
X10315Y189667D01*
X10318Y189579D01*
X10335Y189527D01*
X10343Y189472D01*
X10378Y189392D01*
X10405Y189309D01*
X10433Y189270D01*
X10459Y189213D01*
X10555Y189099D01*
X10600Y189036D01*
X14243Y185393D01*
X14243Y183101D01*
X14255Y183014D01*
X14258Y182927D01*
X14275Y182874D01*
X14283Y182819D01*
X14318Y182739D01*
X14345Y182656D01*
X14373Y182617D01*
X14399Y182560D01*
X14495Y182447D01*
X14540Y182383D01*
X14827Y182096D01*
X14897Y182044D01*
X14961Y181984D01*
X15010Y181958D01*
X15054Y181925D01*
X15136Y181894D01*
X15214Y181854D01*
X15261Y181846D01*
X15320Y181824D01*
X15467Y181812D01*
X15545Y181799D01*
X17638Y181799D01*
X20449Y178988D01*
X20449Y175012D01*
X17638Y172201D01*
X13662Y172201D01*
X12374Y173490D01*
X12350Y173507D01*
X12331Y173530D01*
X12237Y173593D01*
X12147Y173661D01*
X12119Y173671D01*
X12095Y173687D01*
X11987Y173722D01*
X11881Y173762D01*
X11852Y173764D01*
X11824Y173773D01*
X11710Y173776D01*
X11598Y173785D01*
X11569Y173780D01*
X11540Y173780D01*
X11430Y173752D01*
X11319Y173730D01*
X11293Y173716D01*
X11265Y173709D01*
X11167Y173651D01*
X11067Y173599D01*
X11045Y173578D01*
X11020Y173563D01*
X10943Y173481D01*
X10861Y173403D01*
X10846Y173377D01*
X10826Y173356D01*
X10774Y173255D01*
X10717Y173157D01*
X10710Y173129D01*
X10696Y173103D01*
X10683Y173026D01*
X10647Y172882D01*
X10649Y172819D01*
X10641Y172772D01*
X10641Y113810D01*
X10645Y113781D01*
X10642Y113752D01*
X10665Y113641D01*
X10681Y113529D01*
X10693Y113502D01*
X10698Y113473D01*
X10751Y113372D01*
X10797Y113269D01*
X10816Y113247D01*
X10829Y113221D01*
X10907Y113139D01*
X10980Y113052D01*
X11005Y113036D01*
X11025Y113015D01*
X11123Y112957D01*
X11217Y112895D01*
X11245Y112886D01*
X11270Y112871D01*
X11380Y112843D01*
X11488Y112809D01*
X11518Y112808D01*
X11546Y112801D01*
X11659Y112805D01*
X11772Y112802D01*
X11801Y112809D01*
X11830Y112810D01*
X11938Y112845D01*
X12047Y112873D01*
X12073Y112888D01*
X12101Y112897D01*
X12165Y112943D01*
X12292Y113019D01*
X12335Y113064D01*
X12374Y113092D01*
X13012Y113731D01*
X16988Y113731D01*
X19799Y110920D01*
X19799Y106944D01*
X16988Y104133D01*
X13012Y104133D01*
X12374Y104772D01*
X12350Y104789D01*
X12331Y104812D01*
X12237Y104875D01*
X12147Y104943D01*
X12119Y104953D01*
X12095Y104969D01*
X11987Y105004D01*
X11881Y105044D01*
X11852Y105046D01*
X11824Y105055D01*
X11710Y105058D01*
X11598Y105067D01*
X11569Y105062D01*
X11540Y105062D01*
X11430Y105034D01*
X11319Y105012D01*
X11293Y104998D01*
X11265Y104991D01*
X11167Y104933D01*
X11067Y104881D01*
X11045Y104860D01*
X11020Y104845D01*
X10943Y104763D01*
X10861Y104685D01*
X10846Y104659D01*
X10826Y104638D01*
X10774Y104537D01*
X10717Y104439D01*
X10710Y104411D01*
X10696Y104385D01*
X10683Y104308D01*
X10647Y104164D01*
X10649Y104101D01*
X10641Y104054D01*
X10641Y103780D01*
X10653Y103694D01*
X10656Y103606D01*
X10673Y103554D01*
X10681Y103499D01*
X10716Y103419D01*
X10743Y103336D01*
X10771Y103296D01*
X10797Y103239D01*
X10893Y103126D01*
X10938Y103062D01*
X11263Y102738D01*
X11263Y98762D01*
X8452Y95951D01*
X4206Y95951D01*
X4148Y95943D01*
X4090Y95945D01*
X4008Y95923D01*
X3924Y95911D01*
X3871Y95888D01*
X3815Y95873D01*
X3742Y95830D01*
X3665Y95795D01*
X3620Y95757D01*
X3570Y95728D01*
X3512Y95666D01*
X3448Y95612D01*
X3416Y95563D01*
X3376Y95520D01*
X3337Y95445D01*
X3290Y95375D01*
X3273Y95319D01*
X3246Y95267D01*
X3235Y95199D01*
X3205Y95104D01*
X3202Y95004D01*
X3191Y94936D01*
X3191Y706D01*
X3199Y648D01*
X3197Y590D01*
X3211Y538D01*
X3219Y508D01*
X3231Y424D01*
X3254Y371D01*
X3269Y315D01*
X3312Y242D01*
X3347Y165D01*
X3385Y120D01*
X3414Y70D01*
X3476Y12D01*
X3530Y-52D01*
X3579Y-84D01*
X3622Y-124D01*
X3697Y-163D01*
X3767Y-210D01*
X3823Y-227D01*
X3875Y-254D01*
X3943Y-265D01*
X4038Y-295D01*
X4138Y-298D01*
X4206Y-309D01*
X93794Y-309D01*
X93852Y-301D01*
G37*
D10*
X500Y-3000D02*
X500Y232500D01*
X-2000Y232500D01*
X-2000Y304000D01*
X181200Y304000D01*
X213000Y272700D01*
X213000Y232500D01*
X210000Y232500D01*
X210000Y4000D01*
X122000Y4000D01*
X122000Y163000D01*
X109000Y163000D01*
X109000Y180000D01*
X97500Y180000D01*
X97500Y-3000D01*
X500Y-3000D01*
D11*
X199300Y254800D03*
D12*
X174300Y276800D03*
X149300Y276800D03*
D13*
X124300Y277800D03*
X99300Y277800D03*
D12*
X74300Y276800D03*
X49300Y276800D03*
D14*
X25100Y276800D03*
D15*
X8100Y276800D03*
D16*
X204100Y10350D03*
X160950Y57100D03*
X203115Y37092D03*
X203800Y75800D03*
D17*
X49300Y276800D02*
X50402Y277929D01*
D18*
X6464Y17150D03*
X23048Y166250D03*
X114950Y274950D03*
X59750Y274600D03*
D17*
X53731Y274600D01*
X50402Y277929D01*
D18*
X203986Y20650D03*
X139852Y99900D03*
X175600Y135750D03*
X108900Y239186D03*
X154500Y240950D03*
X204036Y197036D03*
X165650Y241050D03*
D19*
X49300Y271100D02*
X49300Y276800D01*
X49300Y271100D02*
X37500Y259300D01*
D18*
X37500Y259300D03*
D17*
X121450Y274950D02*
X124300Y277800D01*
X121450Y274950D02*
X114950Y274950D01*
D18*
X50250Y218450D03*
X191900Y197200D03*
X180198Y171150D03*
D20*
X145722Y171150D01*
X117164Y199708D01*
X61039Y86518D02*
X57782Y83261D01*
X57782Y78655D01*
X61039Y75398D01*
X66450Y103676D02*
X66708Y103934D01*
X66450Y103676D02*
X66450Y86518D01*
X61039Y86518D01*
X61039Y75398D02*
X64939Y75398D01*
X68697Y71640D01*
X76875Y71640D02*
X79945Y74710D01*
X84551Y74710D01*
X87808Y71453D01*
X87808Y71192D01*
X89550Y69450D01*
X89550Y17300D01*
X89800Y17050D01*
D18*
X89800Y17050D03*
D20*
X76875Y71640D02*
X68697Y71640D01*
D18*
X71050Y179800D03*
D20*
X71050Y179184D02*
X73784Y176450D01*
X73784Y129560D02*
X69647Y129560D01*
X66708Y121379D02*
X66708Y103934D01*
X66708Y121379D02*
X66390Y121697D01*
X66390Y126303D01*
X69647Y129560D01*
X71050Y179184D02*
X71050Y179800D01*
X73784Y176450D02*
X73784Y129560D01*
X75258Y199708D02*
X117164Y199708D01*
X71050Y189444D02*
X70847Y189647D01*
X71050Y189444D02*
X71050Y179800D01*
X70847Y195297D02*
X75258Y199708D01*
X70847Y195297D02*
X70847Y189647D01*
D16*
X140700Y89650D03*
D17*
X136050Y89650D01*
X130410Y95290D02*
X130410Y98228D01*
X128178Y100460D01*
X130410Y95290D02*
X136050Y89650D01*
X86594Y265094D02*
X99300Y277800D01*
X86594Y265094D02*
X86594Y259500D01*
X86594Y255393D01*
X84673Y253472D01*
X64702Y253472D01*
X61430Y250200D01*
X22085Y193015D02*
X19192Y193015D01*
X22085Y193015D02*
X24750Y190350D01*
D18*
X24750Y190350D03*
X154450Y18150D03*
D17*
X128178Y44422D01*
X128178Y100460D01*
X125960Y102678D01*
D18*
X91536Y160594D03*
D17*
X125960Y165440D02*
X125960Y102678D01*
D18*
X88598Y259570D03*
D21*
X86664Y259570D01*
X86594Y259500D01*
D18*
X139598Y214898D03*
D21*
X106548Y214898D01*
X106250Y214600D01*
D18*
X106250Y214600D03*
D17*
X61430Y250200D02*
X43133Y250200D01*
X37545Y244612D01*
X24574Y244612D01*
X19192Y232852D02*
X19192Y193015D01*
X19192Y232852D02*
X20493Y234153D01*
X20493Y240531D02*
X24574Y244612D01*
X20493Y240531D02*
X20493Y234153D01*
X93540Y181640D02*
X95860Y183960D01*
X112960Y181640D02*
X112960Y178440D01*
X112960Y181640D02*
X110640Y183960D01*
X95860Y183960D01*
X93540Y181640D02*
X93540Y166272D01*
X91536Y164268D01*
X91536Y160594D01*
X110002Y267098D02*
X99300Y277800D01*
X110002Y267098D02*
X110002Y259700D01*
D18*
X110002Y259700D03*
D17*
X112960Y178440D02*
X125960Y165440D01*
D18*
X174150Y179803D03*
X82248Y69150D03*
D20*
X54734Y77392D02*
X54734Y84523D01*
X54734Y77392D02*
X59777Y72350D01*
X63677Y72350D01*
X67434Y68592D01*
X63402Y104939D02*
X63660Y105197D01*
X63402Y104939D02*
X63402Y93191D01*
X54734Y84523D01*
X67434Y68592D02*
X78138Y68592D01*
X78696Y69150D01*
X82248Y69150D01*
X63660Y105197D02*
X63660Y120116D01*
X144918Y179048D02*
X145673Y179803D01*
X144918Y179048D02*
X142134Y179048D01*
X65952Y130176D02*
X63342Y127566D01*
X63342Y120434D01*
X63660Y120116D01*
X142134Y179048D02*
X118388Y202794D01*
X168616Y179803D02*
X174150Y179803D01*
X159847Y178690D02*
X158734Y179803D01*
X145673Y179803D01*
X159847Y178690D02*
X167503Y178690D01*
X168616Y179803D01*
X65952Y177035D02*
X65490Y177497D01*
X65490Y182400D01*
X65952Y177035D02*
X65952Y130176D01*
X66650Y196850D02*
X72594Y202794D01*
X66650Y196850D02*
X66650Y183560D01*
X65490Y182400D01*
X72594Y202794D02*
X118388Y202794D01*
D18*
X173350Y96900D03*
D20*
X170500Y94050D02*
X158229Y94050D01*
X154440Y90260D01*
D18*
X154440Y90260D03*
D20*
X170500Y94050D02*
X173350Y96900D01*
X79880Y110980D02*
X79243Y110343D01*
D18*
X75943Y110343D03*
D20*
X182800Y117350D02*
X194700Y105450D01*
D18*
X194700Y105450D03*
D20*
X137812Y117350D02*
X135650Y119512D01*
X137812Y117350D02*
X182800Y117350D01*
X135650Y119512D02*
X135650Y172600D01*
X114638Y193612D01*
X88070Y193612D01*
X84479Y190021D02*
X79880Y185422D01*
X79880Y180000D02*
X79880Y175000D01*
X79880Y110980D01*
X79880Y180000D02*
X79880Y185422D01*
X79243Y110343D02*
X75943Y110343D01*
D18*
X15000Y108932D03*
D22*
X79880Y180000D03*
D18*
X84479Y190021D03*
D20*
X88070Y193612D01*
X185000Y120398D02*
X191876Y113522D01*
X194700Y113522D01*
D18*
X194700Y113522D03*
D20*
X185000Y120398D02*
X139075Y120398D01*
X138698Y120775D01*
X138698Y173863D01*
X115901Y196660D01*
D18*
X73600Y102271D03*
D20*
X73600Y104822D01*
X70383Y108040D01*
X70383Y121848D01*
X76832Y128297D01*
X76650Y194450D02*
X78860Y196660D01*
X76650Y194450D02*
X76832Y194268D01*
X78860Y196660D02*
X115901Y196660D01*
X76832Y194268D02*
X76832Y190000D01*
X76832Y128297D01*
D22*
X76832Y190000D03*
D20*
X76407Y190425D01*
X76407Y191950D01*
D18*
X76407Y191950D03*
D21*
X8100Y102386D02*
X6464Y100750D01*
D18*
X6464Y100750D03*
D21*
X8100Y102386D02*
X8100Y182914D01*
X4206Y186808D01*
X8100Y252522D02*
X8100Y276800D01*
X8100Y252522D02*
X1706Y246128D01*
X4206Y234035D02*
X4206Y186808D01*
X4206Y234035D02*
X1706Y236535D01*
X1706Y246128D01*
D18*
X15650Y177000D03*
D21*
X25100Y257988D02*
X25100Y276800D01*
X15650Y177680D02*
X15650Y177000D01*
X24678Y257566D02*
X25100Y257988D01*
X11702Y181628D02*
X15650Y177680D01*
X11702Y181628D02*
X11702Y184341D01*
X7762Y188281D01*
X11643Y251036D02*
X12678Y251036D01*
X19208Y257566D01*
X24678Y257566D01*
X11643Y251036D02*
X5262Y244655D01*
X5262Y238008D02*
X7762Y235508D01*
X7762Y188281D01*
X5262Y238008D02*
X5262Y244655D01*
D18*
X31500Y174500D03*
D21*
X59852Y254010D02*
X61340Y255498D01*
X61340Y263840D01*
X74300Y276800D01*
X25528Y181291D02*
X25528Y180472D01*
X25528Y181291D02*
X15382Y191437D01*
X25528Y180472D02*
X31500Y174500D01*
X41555Y254010D02*
X59852Y254010D01*
X41555Y254010D02*
X35967Y248422D01*
X22996Y248422D01*
X15382Y234431D02*
X15382Y191437D01*
X15382Y234431D02*
X16683Y235731D01*
X16683Y242109D02*
X22996Y248422D01*
X16683Y242109D02*
X16683Y235731D01*
X136340Y263840D02*
X149300Y276800D01*
X136340Y263840D02*
X136340Y255498D01*
X134598Y253756D01*
X90677Y253756D01*
X86583Y249662D01*
X66281Y249662D01*
X63009Y246390D01*
X23002Y201598D02*
X25450Y199150D01*
D18*
X25450Y199150D03*
D21*
X44711Y246390D02*
X63009Y246390D01*
X44711Y246390D02*
X39123Y240802D01*
X26152Y240802D01*
X23002Y231274D02*
X23002Y201598D01*
X23002Y231274D02*
X24303Y232575D01*
X24303Y238953D02*
X26152Y240802D01*
X24303Y238953D02*
X24303Y232575D01*
X161340Y263840D02*
X174300Y276800D01*
X161340Y263840D02*
X161340Y255498D01*
X159598Y253756D01*
X136221Y250200D02*
X92150Y250200D01*
X139777Y253756D02*
X159598Y253756D01*
X139777Y253756D02*
X136221Y250200D01*
X92150Y250200D02*
X88056Y246106D01*
X67754Y246106D01*
X64482Y242834D01*
X29508Y206508D02*
X26558Y209458D01*
D18*
X29508Y206508D03*
D21*
X46184Y242834D02*
X64482Y242834D01*
X46184Y242834D02*
X40596Y237246D01*
X26558Y229801D02*
X26558Y209458D01*
X27859Y231102D02*
X27859Y234889D01*
X27859Y231102D02*
X26558Y229801D01*
X30215Y237246D02*
X40596Y237246D01*
X30215Y237246D02*
X27859Y234889D01*
X185642Y254800D02*
X199300Y254800D01*
X185642Y254800D02*
X184852Y254010D01*
X166050Y254010D01*
X162240Y250200D01*
X141850Y250200D01*
X138750Y247100D01*
X138150Y247100D01*
X137000Y245950D01*
X92950Y245950D01*
X89550Y242550D01*
X20000Y152778D02*
X20000Y125000D01*
X20000Y152778D02*
X31886Y164664D01*
X69227Y242550D02*
X89550Y242550D01*
X69227Y242550D02*
X65955Y239278D01*
D23*
X37298Y172098D02*
X36100Y170900D01*
X36100Y170050D01*
X37298Y172098D02*
X37298Y206917D01*
X36100Y170050D02*
X31886Y165836D01*
X31886Y164664D01*
D18*
X20000Y125000D03*
D21*
X47657Y239278D02*
X65955Y239278D01*
X47657Y239278D02*
X42069Y233690D01*
X31916Y233690D01*
X31916Y212322D01*
X37298Y206940D02*
X37298Y206917D01*
X37298Y206940D02*
X31916Y212322D01*
D18*
X37950Y97500D03*
D17*
X48764Y101032D02*
X52318Y104587D01*
X41482Y101032D02*
X37950Y97500D01*
X41482Y101032D02*
X48764Y101032D01*
X59786Y119336D02*
X59786Y129039D01*
X60000Y129253D01*
X59786Y119336D02*
X52318Y111868D01*
X52318Y104587D01*
X60000Y131300D02*
X62200Y133500D01*
X60000Y131300D02*
X60000Y129253D01*
X133100Y194300D02*
X121050Y206350D01*
X89600Y206350D01*
X133100Y194300D02*
X133100Y193650D01*
X142500Y184250D01*
D18*
X162150Y184250D03*
D17*
X142500Y184250D01*
D18*
X88900Y212000D03*
D21*
X88900Y207050D01*
X89600Y206350D01*
D17*
X63700Y206350D01*
X56200Y198850D01*
X56200Y172050D01*
X62200Y166050D01*
X62200Y133500D01*
D18*
X71000Y77200D03*
D20*
X131337Y105352D02*
X137441Y105352D01*
X137749Y105660D01*
X85976Y92176D02*
X71000Y77200D01*
X129516Y107173D02*
X131337Y105352D01*
D18*
X185450Y98850D03*
D20*
X178640Y105660D02*
X137749Y105660D01*
X178640Y105660D02*
X185450Y98850D01*
X129516Y107173D02*
X129516Y170113D01*
X112113Y187516D01*
X85976Y120000D02*
X85976Y92176D01*
X85976Y120000D02*
X94048Y128072D01*
X94048Y150000D01*
X85976Y158072D01*
X89984Y183113D02*
X94387Y187516D01*
X112113Y187516D01*
X85976Y163737D02*
X85976Y158072D01*
X85976Y163737D02*
X89984Y167745D01*
X89984Y183113D01*
X132600Y108400D02*
X136178Y108400D01*
X136486Y108708D01*
D18*
X63342Y80958D03*
D20*
X132600Y108400D02*
X132600Y112489D01*
X78446Y94583D02*
X76967Y94583D01*
X78446Y94583D02*
X82928Y99065D01*
X132564Y112525D02*
X132600Y112489D01*
D18*
X191083Y93067D03*
D20*
X191010Y93140D01*
X191010Y101153D01*
X187753Y104410D02*
X185590Y104410D01*
X187753Y104410D02*
X191010Y101153D01*
X181292Y108708D02*
X136486Y108708D01*
X181292Y108708D02*
X185590Y104410D01*
X132564Y112525D02*
X132564Y171376D01*
X113376Y190564D01*
X76967Y94583D02*
X69498Y87114D01*
X69498Y84451D01*
X67713Y82665D01*
X65050Y82665D01*
X86936Y184376D02*
X93124Y190564D01*
X82928Y165000D02*
X82928Y99065D01*
X93124Y190564D02*
X113376Y190564D01*
X93124Y190564D02*
X86936Y184376D01*
X86936Y169008D02*
X82928Y165000D01*
X86936Y169008D02*
X86936Y184376D01*
X65050Y82665D02*
X63342Y80958D01*
D18*
X188900Y161798D03*
D20*
X186790Y163908D02*
X186790Y185000D01*
X186790Y163908D02*
X188900Y161798D01*
X186790Y185000D02*
X181700Y190090D01*
X181700Y195213D01*
X181790Y195303D01*
X181790Y199931D01*
D18*
X194100Y207250D03*
D20*
X189610Y202760D01*
X189597Y202760D01*
X186768Y199931D01*
X181790Y199931D01*
M02*
