G04 EAGLE Gerber RS-274X export*
G75*
%MOMM*%
%FSLAX34Y34*%
%LPD*%
%INSilk bottom*%
%IPPOS*%
%AMOC8*
5,1,8,0,0,1.08239X$1,22.5*%
G01*
%ADD10C,0.177800*%
%ADD11C,0.000000*%


D10*
X27907Y233911D02*
X36211Y229759D01*
X27907Y225607D01*
X27907Y220814D02*
X27907Y218738D01*
X36211Y218738D01*
X36211Y220814D02*
X36211Y216662D01*
X23754Y218738D02*
X21678Y218738D01*
X27907Y212082D02*
X36211Y212082D01*
X32059Y212082D02*
X27907Y207930D01*
X27907Y205854D01*
X25830Y199092D02*
X34135Y199092D01*
X36211Y197016D01*
X27907Y197016D02*
X27907Y201168D01*
X27907Y192436D02*
X34135Y192436D01*
X36211Y190360D01*
X36211Y184132D01*
X27907Y184132D01*
X27907Y177263D02*
X27907Y173111D01*
X29983Y171035D01*
X36211Y171035D01*
X36211Y177263D01*
X34135Y179339D01*
X32059Y177263D01*
X32059Y171035D01*
X23754Y166242D02*
X23754Y164166D01*
X36211Y164166D01*
X36211Y166242D02*
X36211Y162090D01*
X23754Y151282D02*
X25830Y149206D01*
X23754Y151282D02*
X23754Y155434D01*
X25830Y157510D01*
X34135Y157510D01*
X36211Y155434D01*
X36211Y151282D01*
X34135Y149206D01*
X29983Y149206D01*
X29983Y153358D01*
X27907Y144413D02*
X27907Y142337D01*
X36211Y142337D01*
X36211Y144413D02*
X36211Y140261D01*
X23754Y142337D02*
X21678Y142337D01*
X27907Y135682D02*
X36211Y135682D01*
X27907Y135682D02*
X27907Y133606D01*
X29983Y131529D01*
X36211Y131529D01*
X29983Y131529D02*
X27907Y129453D01*
X29983Y127377D01*
X36211Y127377D01*
X36211Y122584D02*
X23754Y122584D01*
X36211Y122584D02*
X36211Y116356D01*
X34135Y114280D01*
X29983Y114280D01*
X27907Y116356D01*
X27907Y122584D01*
X27907Y107411D02*
X27907Y103259D01*
X29983Y101183D01*
X36211Y101183D01*
X36211Y107411D01*
X34135Y109487D01*
X32059Y107411D01*
X32059Y101183D01*
X23754Y96390D02*
X23754Y94314D01*
X36211Y94314D01*
X36211Y96390D02*
X36211Y92238D01*
X27907Y74561D02*
X36211Y70409D01*
X27907Y66257D01*
X25830Y61464D02*
X23754Y59388D01*
X23754Y55236D01*
X25830Y53159D01*
X27907Y53159D01*
X29983Y55236D01*
X29983Y57312D01*
X29983Y55236D02*
X32059Y53159D01*
X34135Y53159D01*
X36211Y55236D01*
X36211Y59388D01*
X34135Y61464D01*
X47754Y233111D02*
X60211Y233111D01*
X60211Y226883D01*
X58135Y224807D01*
X49830Y224807D01*
X47754Y226883D01*
X47754Y233111D01*
X60211Y217938D02*
X60211Y213785D01*
X60211Y217938D02*
X58135Y220014D01*
X53983Y220014D01*
X51907Y217938D01*
X51907Y213785D01*
X53983Y211709D01*
X56059Y211709D01*
X56059Y220014D01*
X60211Y206917D02*
X60211Y200688D01*
X58135Y198612D01*
X56059Y200688D01*
X56059Y204840D01*
X53983Y206917D01*
X51907Y204840D01*
X51907Y198612D01*
X51907Y193819D02*
X51907Y191743D01*
X60211Y191743D01*
X60211Y193819D02*
X60211Y189667D01*
X47754Y191743D02*
X45678Y191743D01*
X64363Y180936D02*
X64363Y178859D01*
X62287Y176783D01*
X51907Y176783D01*
X51907Y183012D01*
X53983Y185088D01*
X58135Y185088D01*
X60211Y183012D01*
X60211Y176783D01*
X60211Y171991D02*
X51907Y171991D01*
X51907Y165762D01*
X53983Y163686D01*
X60211Y163686D01*
X60211Y156817D02*
X60211Y152665D01*
X60211Y156817D02*
X58135Y158893D01*
X53983Y158893D01*
X51907Y156817D01*
X51907Y152665D01*
X53983Y150589D01*
X56059Y150589D01*
X56059Y158893D01*
X60211Y137492D02*
X47754Y137492D01*
X60211Y137492D02*
X60211Y143720D01*
X58135Y145796D01*
X53983Y145796D01*
X51907Y143720D01*
X51907Y137492D01*
X47754Y119602D02*
X60211Y119602D01*
X60211Y113373D01*
X58135Y111297D01*
X53983Y111297D01*
X51907Y113373D01*
X51907Y119602D01*
X51907Y106504D02*
X58135Y106504D01*
X60211Y104428D01*
X60211Y98200D01*
X62287Y98200D02*
X51907Y98200D01*
X62287Y98200D02*
X64363Y100276D01*
X64363Y102352D01*
X72754Y233511D02*
X74830Y233511D01*
X78983Y229359D01*
X74830Y225207D01*
X72754Y225207D01*
X78983Y229359D02*
X85211Y229359D01*
X85211Y218338D02*
X85211Y214185D01*
X83135Y212109D01*
X78983Y212109D01*
X76907Y214185D01*
X76907Y218338D01*
X78983Y220414D01*
X83135Y220414D01*
X85211Y218338D01*
X85211Y207317D02*
X85211Y201088D01*
X83135Y199012D01*
X81059Y201088D01*
X81059Y205240D01*
X78983Y207317D01*
X76907Y205240D01*
X76907Y199012D01*
X72754Y194219D02*
X85211Y194219D01*
X78983Y194219D02*
X76907Y192143D01*
X76907Y187991D01*
X78983Y185915D01*
X85211Y185915D01*
X76907Y181122D02*
X76907Y179046D01*
X85211Y179046D01*
X85211Y181122D02*
X85211Y176970D01*
X72754Y179046D02*
X70678Y179046D01*
X76907Y170314D02*
X76907Y166162D01*
X78983Y164086D01*
X85211Y164086D01*
X85211Y170314D01*
X83135Y172391D01*
X81059Y170314D01*
X81059Y164086D01*
X85211Y159293D02*
X72754Y159293D01*
X81059Y159293D02*
X85211Y153065D01*
X81059Y159293D02*
X76907Y153065D01*
X76907Y148379D02*
X76907Y146303D01*
X85211Y146303D01*
X85211Y148379D02*
X85211Y144227D01*
X72754Y146303D02*
X70678Y146303D01*
X72754Y120322D02*
X74830Y118246D01*
X72754Y120322D02*
X72754Y124474D01*
X74830Y126550D01*
X76907Y126550D01*
X78983Y124474D01*
X78983Y120322D01*
X81059Y118246D01*
X83135Y118246D01*
X85211Y120322D01*
X85211Y124474D01*
X83135Y126550D01*
X76907Y111377D02*
X76907Y107225D01*
X78983Y105148D01*
X85211Y105148D01*
X85211Y111377D01*
X83135Y113453D01*
X81059Y111377D01*
X81059Y105148D01*
X83135Y98280D02*
X74830Y98280D01*
X83135Y98280D02*
X85211Y96203D01*
X76907Y96203D02*
X76907Y100356D01*
X85211Y89548D02*
X85211Y85396D01*
X83135Y83320D01*
X78983Y83320D01*
X76907Y85396D01*
X76907Y89548D01*
X78983Y91624D01*
X83135Y91624D01*
X85211Y89548D01*
D11*
X11500Y72500D02*
X11500Y1000D01*
X11500Y72500D02*
X1000Y72500D01*
X1000Y241500D01*
X-3000Y241500D01*
X-3000Y296000D01*
X181500Y296000D01*
X214000Y263500D01*
X214000Y224500D01*
X210000Y224500D01*
X210000Y69500D01*
X107500Y69500D01*
X96000Y72500D02*
X79500Y72500D01*
X79500Y1000D01*
X11500Y1000D01*
X107500Y69500D02*
X107500Y171000D01*
X96000Y171000D01*
X96000Y72500D01*
M02*
