M48
;GenerationSoftware,Autodesk,EAGLE,9.2.0*%
;CreationDate,2018-10-24T00:00:23Z*%
FMAT,2
ICI,OFF
METRIC,TZ,000.000
T2C0.305
T1C0.350
%
G90
M71
T1
X3875Y5185
X1291Y16060
X1755Y2515
X5250Y14585
X9019Y10535
X5720Y8660
X6320Y6730
X2495Y5175
X7369Y3227
X7000Y4000
X7034Y1875
X4909Y16245
X7219Y1015
X4653Y15376
T2
X7747Y17708
X4960Y18523
X11360Y26975
X8626Y8550
X8440Y13285
X659Y20883
X6528Y18532
X3928Y1858
X3085Y17185
X14921Y14187
X11023Y28450
X10300Y20010
X9770Y22730
X11000Y25500
X2522Y5960
X2295Y17241
X2770Y12680
X8842Y19210
X13059Y14187
X5053Y1275
X3607Y16335
X1275Y19395
X15980Y23280
X20441Y19090
X20441Y22378
X11309Y14187
X11893Y14681
X14159Y14187
X14790Y21980
X18559Y14187
X19659Y14187
X1070Y10170
X13510Y28700
X2235Y21932
X19199Y21671
X15683Y14187
X19130Y17800
X860Y8260
X4000Y25000
X6000Y27000
X2109Y23320
X2550Y18003
X1337Y21350
M30