G04 EAGLE Gerber RS-274X export*
G75*
%MOMM*%
%FSLAX34Y34*%
%LPD*%
%INBottom layer*%
%IPPOS*%
%AMOC8*
5,1,8,0,0,1.08239X$1,22.5*%
G01*
%ADD10C,0.000000*%
%ADD11R,1.900000X3.650000*%
%ADD12R,1.900000X4.050000*%
%ADD13R,1.900000X4.250000*%
%ADD14R,1.500000X4.050000*%
%ADD15R,1.300000X4.050000*%
%ADD16C,0.609600*%
%ADD17C,0.254000*%
%ADD18C,0.203200*%
%ADD19C,0.654800*%
%ADD20C,0.152400*%


D10*
X11500Y1000D02*
X11500Y72500D01*
X1000Y72500D01*
X1000Y241500D01*
X-3000Y241500D01*
X-3000Y296000D01*
X181500Y296000D01*
X214000Y263500D01*
X214000Y224500D01*
X210000Y224500D01*
X210000Y69500D01*
X107500Y69500D01*
X96000Y72500D02*
X79500Y72500D01*
X79500Y1000D01*
X11500Y1000D01*
X107500Y69500D02*
X107500Y171000D01*
X96000Y171000D01*
X96000Y72500D01*
D11*
X199300Y246800D03*
D12*
X174300Y268800D03*
X149300Y268800D03*
D13*
X124300Y269800D03*
X99300Y269800D03*
D12*
X74300Y268800D03*
X49300Y268800D03*
D14*
X25100Y268800D03*
D15*
X8100Y268800D03*
D16*
X130588Y141872D03*
D17*
X124772Y147688D01*
X124772Y149226D01*
X62006Y247393D02*
X62006Y256094D01*
X110276Y237628D02*
X120638Y237628D01*
X110276Y237628D02*
X106212Y241692D01*
X121272Y152726D02*
X124772Y149226D01*
X121272Y221329D02*
X120638Y221963D01*
X120638Y237628D01*
D16*
X159800Y232800D03*
D18*
X147900Y220900D01*
X147900Y219800D01*
D16*
X147900Y219800D03*
D17*
X121272Y197629D02*
X121272Y152726D01*
X121272Y197629D02*
X120638Y198263D01*
X120638Y219937D01*
X121272Y220571D01*
X121272Y221329D01*
D16*
X135100Y287000D03*
D17*
X135100Y280600D01*
D16*
X191985Y216708D03*
D17*
X191985Y178685D01*
X191300Y178000D01*
D16*
X191300Y178000D03*
X8600Y82600D03*
D17*
X8600Y80788D01*
D16*
X40000Y250000D03*
X60000Y270000D03*
D17*
X49300Y268800D02*
X62006Y256094D01*
X49300Y268800D02*
X40000Y259500D01*
X40000Y250000D01*
X49300Y268800D02*
X58800Y268800D01*
X60000Y270000D01*
D16*
X21086Y233200D03*
D17*
X6588Y208834D02*
X6588Y208500D01*
X6588Y170834D01*
X4810Y169056D01*
X4810Y160000D01*
X4810Y84578D01*
X8600Y80788D01*
D16*
X77472Y177078D03*
D17*
X6686Y208342D02*
X6686Y208402D01*
X6588Y208500D01*
X62006Y247393D02*
X63643Y245756D01*
X86959Y241692D02*
X106212Y241692D01*
X82895Y245756D02*
X63643Y245756D01*
X82895Y245756D02*
X86959Y241692D01*
X49864Y184970D02*
X49864Y184864D01*
X49864Y184970D02*
X49600Y185234D01*
D16*
X49600Y185234D03*
D17*
X124300Y269800D02*
X135100Y280600D01*
X124300Y269800D02*
X124100Y269600D01*
X113750Y269600D01*
X113600Y269750D01*
D16*
X113600Y269750D03*
X86262Y85500D03*
X84400Y132850D03*
X6588Y208834D03*
X65278Y185322D03*
D17*
X67578Y185322D01*
X75822Y177078D01*
X15310Y74078D02*
X15310Y27390D01*
X15310Y74078D02*
X8600Y80788D01*
D19*
X12910Y160598D03*
D18*
X12312Y160000D01*
X4810Y160000D01*
D17*
X75822Y177078D02*
X77472Y177078D01*
X86262Y96388D02*
X86262Y85500D01*
X80450Y102200D02*
X80450Y129850D01*
X80450Y102200D02*
X86262Y96388D01*
X81400Y129850D02*
X80450Y129850D01*
X81400Y129850D02*
X84400Y132850D01*
D19*
X17550Y25150D03*
D17*
X15310Y27390D01*
D18*
X6588Y208834D02*
X6588Y218702D01*
X21086Y233200D01*
D16*
X39283Y18583D03*
D20*
X39866Y19166D01*
X48109Y19166D01*
D16*
X30850Y171850D03*
D20*
X51234Y22291D02*
X48109Y19166D01*
D16*
X25216Y59600D03*
D20*
X23330Y59600D01*
X51234Y36445D02*
X51234Y22291D01*
X51234Y36445D02*
X51184Y36495D01*
X51184Y38709D01*
X48496Y41397D01*
X30850Y165670D02*
X30850Y171850D01*
X30850Y165670D02*
X30736Y165556D01*
X37917Y153633D02*
X37917Y143261D01*
X48936Y132242D01*
X30736Y160814D02*
X30736Y165556D01*
X30736Y160814D02*
X37917Y153633D01*
X48496Y50000D02*
X48496Y41397D01*
X48496Y50000D02*
X46646Y51850D01*
X38750Y51850D01*
D19*
X38750Y51850D03*
D20*
X48496Y50000D02*
X48496Y98670D01*
X55558Y105732D01*
X55558Y132242D01*
X48936Y132242D01*
D16*
X149208Y141872D03*
D17*
X147430Y143650D01*
X147430Y144292D01*
X129400Y162322D01*
X125644Y245756D02*
X113643Y245756D01*
X99300Y260099D01*
X99300Y269800D01*
D16*
X110228Y284500D03*
D18*
X99300Y273572D01*
X99300Y269800D01*
D17*
X128766Y225330D02*
X129400Y224696D01*
X128766Y225330D02*
X128766Y242634D01*
X125644Y245756D01*
X129400Y200996D02*
X129400Y162322D01*
X129400Y200996D02*
X128766Y201630D01*
X128766Y216570D01*
X129400Y217204D01*
X129400Y224696D01*
D16*
X103000Y200100D03*
D17*
X99600Y225400D02*
X97700Y227300D01*
D16*
X97700Y227300D03*
X110000Y255000D03*
D17*
X99300Y265700D01*
D18*
X99300Y269800D01*
D16*
X12750Y193950D03*
X22950Y172414D03*
X27700Y126800D03*
D17*
X22950Y172414D02*
X20182Y175182D01*
X20000Y191550D02*
X17600Y193950D01*
X12750Y193950D01*
D16*
X88422Y192098D03*
D17*
X87874Y191550D01*
X20000Y191550D01*
X103000Y200100D02*
X103000Y180450D01*
X92190Y107354D02*
X90186Y105350D01*
D19*
X90186Y105350D03*
D17*
X94422Y174810D02*
X97360Y174810D01*
X94422Y174810D02*
X92190Y172578D01*
X92190Y107354D01*
X97360Y174810D02*
X103000Y180450D01*
X20182Y191368D02*
X20000Y191550D01*
X20182Y177090D02*
X20182Y175182D01*
X20182Y177090D02*
X19658Y177614D01*
X19658Y182454D01*
X20182Y182978D01*
X20182Y191368D01*
D18*
X103000Y200100D02*
X103000Y222000D01*
X99600Y225400D01*
D17*
X27700Y158821D02*
X27700Y126800D01*
X25008Y170356D02*
X22950Y172414D01*
X25008Y161513D02*
X27700Y158821D01*
X25008Y161513D02*
X25008Y170356D01*
D16*
X50528Y12750D03*
X36070Y163346D03*
D20*
X40965Y158451D01*
X40965Y144524D01*
X50199Y135290D01*
X54232Y39972D02*
X54232Y38268D01*
X54750Y37750D01*
X54232Y39972D02*
X51544Y42660D01*
X54750Y37750D02*
X54750Y16972D01*
X50528Y12750D01*
X51544Y42660D02*
X51544Y97407D01*
X58606Y104469D01*
X58606Y135290D01*
X50199Y135290D01*
D19*
X52502Y145850D03*
X57202Y86600D03*
D20*
X57252Y86650D01*
X57252Y98805D01*
X61654Y103207D02*
X61654Y137636D01*
X61654Y103207D02*
X57252Y98805D01*
X61654Y137636D02*
X53440Y145850D01*
X52502Y145850D01*
D16*
X204412Y190900D03*
D20*
X204412Y223780D01*
D16*
X204412Y223780D03*
X113088Y141872D03*
D17*
X15000Y240000D02*
X8100Y246900D01*
X8100Y268800D01*
X15000Y240000D02*
X43505Y240000D01*
X113088Y194319D02*
X113088Y141872D01*
X113088Y194319D02*
X112510Y194897D01*
X112510Y229208D01*
X44991Y238514D02*
X43505Y240000D01*
X59390Y238514D02*
X60276Y237628D01*
X59390Y238514D02*
X44991Y238514D01*
X106939Y229208D02*
X112510Y229208D01*
X83593Y233564D02*
X79529Y237628D01*
X60276Y237628D01*
X102583Y233564D02*
X106939Y229208D01*
X102583Y233564D02*
X83593Y233564D01*
D16*
X118930Y146806D03*
D17*
X117152Y148584D01*
X25936Y244064D02*
X25000Y245000D01*
X25000Y268700D01*
X25100Y268800D01*
X25936Y244064D02*
X45189Y244064D01*
X117152Y196002D02*
X117152Y148584D01*
X117152Y196002D02*
X116574Y196580D01*
X116574Y233372D01*
X46675Y242578D02*
X45189Y244064D01*
X61073Y242578D02*
X61959Y241692D01*
X61073Y242578D02*
X46675Y242578D01*
X108523Y233372D02*
X116574Y233372D01*
X85276Y237628D02*
X81212Y241692D01*
X61959Y241692D01*
X104267Y237628D02*
X108523Y233372D01*
X104267Y237628D02*
X85276Y237628D01*
D16*
X141588Y141872D03*
D17*
X138850Y141872D01*
X127700Y153022D01*
X122608Y241692D02*
X111959Y241692D01*
X107895Y245756D01*
X79070Y264030D02*
X74300Y268800D01*
X82815Y267775D02*
X87006Y267775D01*
X82815Y267775D02*
X79070Y264030D01*
X125336Y159996D02*
X127700Y157632D01*
X127700Y153022D01*
X125336Y223013D02*
X124702Y223647D01*
X124702Y239598D01*
X122608Y241692D01*
X125336Y199313D02*
X125336Y159996D01*
X125336Y199313D02*
X124702Y199947D01*
X124702Y218253D01*
X125336Y218887D01*
X125336Y223013D01*
X107895Y245756D02*
X88643Y245756D01*
X87006Y247393D01*
X87006Y267775D01*
D16*
X156828Y141872D03*
D17*
X149300Y258300D02*
X149300Y268800D01*
X151628Y147714D02*
X155050Y144292D01*
X151628Y147714D02*
X149755Y147714D01*
X133464Y164005D01*
X155050Y144292D02*
X155050Y143650D01*
X156828Y141872D01*
X140820Y249820D02*
X149300Y258300D01*
X140820Y249820D02*
X139021Y249820D01*
X132830Y227013D02*
X133464Y226379D01*
X132830Y227013D02*
X132830Y243629D01*
X139021Y249820D01*
X133464Y202679D02*
X133464Y164005D01*
X133464Y202679D02*
X132830Y203313D01*
X132830Y214887D01*
X133464Y215521D01*
X133464Y226379D01*
D16*
X185588Y141872D03*
D17*
X174100Y259200D02*
X174100Y268600D01*
X174300Y268800D01*
X183073Y141872D02*
X185588Y141872D01*
X183073Y141872D02*
X182137Y140936D01*
X151438Y151778D02*
X137528Y165688D01*
X166026Y140936D02*
X182137Y140936D01*
X166026Y140936D02*
X155184Y151778D01*
X151438Y151778D01*
X160656Y245756D02*
X140705Y245756D01*
X160656Y245756D02*
X174100Y259200D01*
X137528Y228063D02*
X136894Y228697D01*
X136894Y241945D01*
X140705Y245756D01*
X137528Y204363D02*
X137528Y165688D01*
X137528Y204363D02*
X136894Y204997D01*
X136894Y213203D01*
X137528Y213837D01*
X137528Y228063D01*
D16*
X196588Y141872D03*
D17*
X183168Y147714D02*
X180454Y145000D01*
X190746Y147714D02*
X196588Y141872D01*
X190746Y147714D02*
X183168Y147714D01*
X180454Y145000D02*
X167709Y145000D01*
X153350Y155842D02*
X141592Y167600D01*
X156867Y155842D02*
X167709Y145000D01*
X156867Y155842D02*
X153350Y155842D01*
X142388Y241692D02*
X194192Y241692D01*
X199300Y246800D01*
X141592Y229746D02*
X140958Y230380D01*
X140958Y240262D01*
X142388Y241692D01*
X141592Y206046D02*
X141592Y167600D01*
X141592Y206046D02*
X140958Y206680D01*
X140958Y211520D01*
X141592Y212154D01*
X141592Y229746D01*
X11206Y101194D02*
X10700Y101700D01*
D16*
X10700Y101700D03*
D17*
X11206Y101194D02*
X11206Y88256D01*
X14442Y85020D02*
X14442Y80694D01*
X14442Y85020D02*
X11206Y88256D01*
X19374Y75762D02*
X19374Y55000D01*
X19374Y75762D02*
X14442Y80694D01*
D19*
X24950Y51754D03*
D17*
X22620Y51754D01*
X19374Y55000D01*
D16*
X22350Y219322D03*
D20*
X41822Y199850D01*
X97666Y199850D02*
X97666Y197891D01*
X84320Y199850D02*
X41822Y199850D01*
X91894Y200480D02*
X92524Y199850D01*
X97666Y199850D01*
X84950Y200480D02*
X84320Y199850D01*
X84950Y200480D02*
X91894Y200480D01*
X75000Y42863D02*
X75560Y42303D01*
X75560Y37601D01*
D19*
X73686Y32270D03*
D20*
X73686Y35727D01*
X75560Y37601D01*
X75000Y42863D02*
X75000Y95000D01*
X96804Y197029D02*
X97666Y197891D01*
X96804Y188626D02*
X91261Y183083D01*
X96804Y188626D02*
X96804Y197029D01*
X87178Y176757D02*
X87178Y149400D01*
X91261Y180840D02*
X91261Y183083D01*
X91261Y180840D02*
X87178Y176757D01*
X87178Y149400D02*
X84316Y146538D01*
X84316Y146250D01*
X78550Y140484D01*
X77394Y97394D02*
X75000Y95000D01*
X78550Y132979D02*
X78550Y140484D01*
X78550Y132979D02*
X76894Y131323D01*
X76894Y100727D01*
X77394Y100227D01*
X77394Y97394D01*
D16*
X13366Y213500D03*
D20*
X23861Y213500D01*
X40559Y196802D02*
X81098Y196802D01*
X82600Y195300D01*
X40559Y196802D02*
X23861Y213500D01*
X86213Y197432D02*
X90631Y197432D01*
X86213Y197432D02*
X84081Y195300D01*
X82600Y195300D01*
X71700Y41700D02*
X70000Y40000D01*
D19*
X70000Y40000D03*
D20*
X71700Y80303D02*
X71906Y80509D01*
X71700Y80303D02*
X71700Y41700D01*
X71906Y80509D02*
X71906Y96217D01*
X93756Y189889D02*
X93756Y194307D01*
X90631Y197432D01*
X93756Y189889D02*
X88213Y184345D01*
X88213Y182102D01*
X84130Y178020D01*
X84130Y150663D01*
X81268Y147800D01*
X81268Y147513D02*
X75502Y141747D01*
X81268Y147513D02*
X81268Y147800D01*
X74346Y98657D02*
X71906Y96217D01*
X74346Y98657D02*
X74346Y98964D01*
X73846Y99464D01*
X73846Y132586D01*
X75502Y134242D01*
X75502Y141747D01*
X74488Y26710D02*
X71383Y26710D01*
X74488Y26710D02*
X76198Y25000D01*
X71383Y26710D02*
X61650Y36443D01*
X76198Y25000D02*
X76198Y18750D01*
D19*
X70336Y18750D03*
D20*
X61650Y36443D02*
X61650Y42085D01*
X70336Y18750D02*
X76198Y18750D01*
D19*
X49094Y162453D03*
D20*
X57640Y74390D02*
X57640Y46095D01*
X61650Y42085D01*
X57640Y74390D02*
X65604Y82354D01*
X65604Y82828D01*
X65810Y83034D01*
X65810Y98742D01*
X50000Y162453D02*
X49094Y162453D01*
X67750Y100682D02*
X65810Y98742D01*
X67750Y144703D02*
X50000Y162453D01*
X67750Y144703D02*
X67750Y100682D01*
X61864Y83136D02*
X54592Y75864D01*
X58050Y19886D02*
X67036Y10900D01*
D19*
X72186Y10150D03*
D20*
X58050Y19886D02*
X58050Y40874D01*
X67036Y10900D02*
X71436Y10900D01*
D19*
X46525Y153756D03*
D20*
X54592Y75864D02*
X54592Y44332D01*
X58050Y40874D01*
X61864Y83136D02*
X61864Y83399D01*
X62762Y84297D01*
X62762Y100004D01*
X64702Y101944D01*
X71436Y10900D02*
X72186Y10150D01*
X48871Y151410D02*
X46525Y153756D01*
X48871Y151410D02*
X54805Y151410D01*
X64702Y141513D01*
X64702Y101944D01*
D16*
X25500Y180034D03*
D19*
X63200Y67298D03*
D20*
X63200Y74991D01*
X68652Y80443D01*
X68652Y81566D01*
X68858Y81772D01*
X68858Y97479D01*
X70798Y99419D01*
X28350Y177184D02*
X25500Y180034D01*
X42226Y177184D02*
X70798Y148612D01*
X42226Y177184D02*
X28350Y177184D01*
X70798Y148612D02*
X70798Y99419D01*
M02*
