G04 EAGLE Gerber RS-274X export*
G75*
%MOMM*%
%FSLAX34Y34*%
%LPD*%
%INTop Layer*%
%IPPOS*%
%AMOC8*
5,1,8,0,0,1.08239X$1,22.5*%
G01*
%ADD10C,0.000000*%
%ADD11C,0.250000*%
%ADD12R,3.400000X3.400000*%
%ADD13R,0.500000X0.600000*%
%ADD14R,0.600000X0.500000*%
%ADD15C,0.500000*%
%ADD16R,5.600000X4.800000*%
%ADD17R,0.800000X1.400000*%
%ADD18C,0.050000*%
%ADD19R,1.590000X1.750000*%
%ADD20C,0.048000*%
%ADD21R,1.000000X1.400000*%
%ADD22R,0.600000X1.400000*%
%ADD23R,0.550000X1.100000*%
%ADD24R,0.450000X1.200000*%
%ADD25R,0.500000X1.200000*%
%ADD26R,0.500000X1.100000*%
%ADD27R,0.800000X2.000000*%
%ADD28R,1.000000X0.240000*%
%ADD29R,1.000000X0.500000*%
%ADD30C,0.254000*%
%ADD31C,0.609600*%
%ADD32C,0.203200*%
%ADD33C,0.304800*%
%ADD34C,0.654800*%
%ADD35C,0.152400*%


D10*
X11500Y1000D02*
X11500Y72500D01*
X1000Y72500D01*
X1000Y241500D01*
X-3000Y241500D01*
X-3000Y296000D01*
X181500Y296000D01*
X214000Y263500D01*
X214000Y224500D01*
X210000Y224500D01*
X210000Y69500D01*
X107500Y69500D01*
X96000Y72500D02*
X79500Y72500D01*
X79500Y1000D01*
X11500Y1000D01*
X107500Y69500D02*
X107500Y171000D01*
X96000Y171000D01*
X96000Y72500D01*
D11*
X28100Y218500D02*
X16600Y218500D01*
D12*
X49600Y201000D03*
D11*
X28100Y213500D02*
X16600Y213500D01*
X16600Y208500D02*
X28100Y208500D01*
X28100Y203500D02*
X16600Y203500D01*
X16600Y198500D02*
X28100Y198500D01*
X28100Y193500D02*
X16600Y193500D01*
X16600Y188500D02*
X28100Y188500D01*
X28100Y183500D02*
X16600Y183500D01*
X32100Y179500D02*
X32100Y168000D01*
X37100Y168000D02*
X37100Y179500D01*
X42100Y179500D02*
X42100Y168000D01*
X47100Y168000D02*
X47100Y179500D01*
X52100Y179500D02*
X52100Y168000D01*
X57100Y168000D02*
X57100Y179500D01*
X62100Y179500D02*
X62100Y168000D01*
X67100Y168000D02*
X67100Y179500D01*
X71100Y183500D02*
X82600Y183500D01*
X82600Y188500D02*
X71100Y188500D01*
X71100Y193500D02*
X82600Y193500D01*
X82600Y198500D02*
X71100Y198500D01*
X71100Y203500D02*
X82600Y203500D01*
X82600Y208500D02*
X71100Y208500D01*
X71100Y213500D02*
X82600Y213500D01*
X82600Y218500D02*
X71100Y218500D01*
X67100Y222500D02*
X67100Y234000D01*
X62100Y234000D02*
X62100Y222500D01*
X57100Y222500D02*
X57100Y234000D01*
X52100Y234000D02*
X52100Y222500D01*
X47100Y222500D02*
X47100Y234000D01*
X42100Y234000D02*
X42100Y222500D01*
X37100Y222500D02*
X37100Y234000D01*
X32100Y234000D02*
X32100Y222500D01*
D13*
X47550Y83200D03*
X47550Y95200D03*
D14*
X77450Y83150D03*
X65450Y83150D03*
D13*
X85850Y85300D03*
X85850Y97300D03*
X22950Y160414D03*
X22950Y172414D03*
D15*
X88100Y216950D02*
X97100Y216950D01*
D16*
X135600Y197900D03*
D15*
X97100Y204250D02*
X88100Y204250D01*
X88100Y191550D02*
X97100Y191550D01*
X97100Y178850D02*
X88100Y178850D01*
X174100Y178850D02*
X183100Y178850D01*
X183100Y191550D02*
X174100Y191550D01*
X174100Y204250D02*
X183100Y204250D01*
X183100Y216950D02*
X174100Y216950D01*
D14*
X161100Y232800D03*
X173100Y232800D03*
D17*
X191300Y204000D03*
X191300Y178000D03*
X203300Y178000D03*
X203300Y204000D03*
D14*
X191985Y216708D03*
X203985Y216708D03*
D18*
X55250Y129750D02*
X43550Y129750D01*
X43550Y131250D01*
X55250Y131250D01*
X55250Y129750D01*
X55250Y130225D02*
X43550Y130225D01*
X43550Y130700D02*
X55250Y130700D01*
X55250Y131175D02*
X43550Y131175D01*
D19*
X68300Y120500D03*
D18*
X55250Y125750D02*
X43550Y125750D01*
X43550Y127250D01*
X55250Y127250D01*
X55250Y125750D01*
X55250Y126225D02*
X43550Y126225D01*
X43550Y126700D02*
X55250Y126700D01*
X55250Y127175D02*
X43550Y127175D01*
X43550Y121750D02*
X55250Y121750D01*
X43550Y121750D02*
X43550Y123250D01*
X55250Y123250D01*
X55250Y121750D01*
X55250Y122225D02*
X43550Y122225D01*
X43550Y122700D02*
X55250Y122700D01*
X55250Y123175D02*
X43550Y123175D01*
X43550Y117750D02*
X55250Y117750D01*
X43550Y117750D02*
X43550Y119250D01*
X55250Y119250D01*
X55250Y117750D01*
X55250Y118225D02*
X43550Y118225D01*
X43550Y118700D02*
X55250Y118700D01*
X55250Y119175D02*
X43550Y119175D01*
X43550Y113750D02*
X55250Y113750D01*
X43550Y113750D02*
X43550Y115250D01*
X55250Y115250D01*
X55250Y113750D01*
X55250Y114225D02*
X43550Y114225D01*
X43550Y114700D02*
X55250Y114700D01*
X55250Y115175D02*
X43550Y115175D01*
X43550Y109750D02*
X55250Y109750D01*
X43550Y109750D02*
X43550Y111250D01*
X55250Y111250D01*
X55250Y109750D01*
X55250Y110225D02*
X43550Y110225D01*
X43550Y110700D02*
X55250Y110700D01*
X55250Y111175D02*
X43550Y111175D01*
X59050Y107450D02*
X59050Y95750D01*
X57550Y95750D01*
X57550Y107450D01*
X59050Y107450D01*
X59050Y96225D02*
X57550Y96225D01*
X57550Y96700D02*
X59050Y96700D01*
X59050Y97175D02*
X57550Y97175D01*
X57550Y97650D02*
X59050Y97650D01*
X59050Y98125D02*
X57550Y98125D01*
X57550Y98600D02*
X59050Y98600D01*
X59050Y99075D02*
X57550Y99075D01*
X57550Y99550D02*
X59050Y99550D01*
X59050Y100025D02*
X57550Y100025D01*
X57550Y100500D02*
X59050Y100500D01*
X59050Y100975D02*
X57550Y100975D01*
X57550Y101450D02*
X59050Y101450D01*
X59050Y101925D02*
X57550Y101925D01*
X57550Y102400D02*
X59050Y102400D01*
X59050Y102875D02*
X57550Y102875D01*
X57550Y103350D02*
X59050Y103350D01*
X59050Y103825D02*
X57550Y103825D01*
X57550Y104300D02*
X59050Y104300D01*
X59050Y104775D02*
X57550Y104775D01*
X57550Y105250D02*
X59050Y105250D01*
X59050Y105725D02*
X57550Y105725D01*
X57550Y106200D02*
X59050Y106200D01*
X59050Y106675D02*
X57550Y106675D01*
X57550Y107150D02*
X59050Y107150D01*
X63050Y107450D02*
X63050Y95750D01*
X61550Y95750D01*
X61550Y107450D01*
X63050Y107450D01*
X63050Y96225D02*
X61550Y96225D01*
X61550Y96700D02*
X63050Y96700D01*
X63050Y97175D02*
X61550Y97175D01*
X61550Y97650D02*
X63050Y97650D01*
X63050Y98125D02*
X61550Y98125D01*
X61550Y98600D02*
X63050Y98600D01*
X63050Y99075D02*
X61550Y99075D01*
X61550Y99550D02*
X63050Y99550D01*
X63050Y100025D02*
X61550Y100025D01*
X61550Y100500D02*
X63050Y100500D01*
X63050Y100975D02*
X61550Y100975D01*
X61550Y101450D02*
X63050Y101450D01*
X63050Y101925D02*
X61550Y101925D01*
X61550Y102400D02*
X63050Y102400D01*
X63050Y102875D02*
X61550Y102875D01*
X61550Y103350D02*
X63050Y103350D01*
X63050Y103825D02*
X61550Y103825D01*
X61550Y104300D02*
X63050Y104300D01*
X63050Y104775D02*
X61550Y104775D01*
X61550Y105250D02*
X63050Y105250D01*
X63050Y105725D02*
X61550Y105725D01*
X61550Y106200D02*
X63050Y106200D01*
X63050Y106675D02*
X61550Y106675D01*
X61550Y107150D02*
X63050Y107150D01*
X67050Y107450D02*
X67050Y95750D01*
X65550Y95750D01*
X65550Y107450D01*
X67050Y107450D01*
X67050Y96225D02*
X65550Y96225D01*
X65550Y96700D02*
X67050Y96700D01*
X67050Y97175D02*
X65550Y97175D01*
X65550Y97650D02*
X67050Y97650D01*
X67050Y98125D02*
X65550Y98125D01*
X65550Y98600D02*
X67050Y98600D01*
X67050Y99075D02*
X65550Y99075D01*
X65550Y99550D02*
X67050Y99550D01*
X67050Y100025D02*
X65550Y100025D01*
X65550Y100500D02*
X67050Y100500D01*
X67050Y100975D02*
X65550Y100975D01*
X65550Y101450D02*
X67050Y101450D01*
X67050Y101925D02*
X65550Y101925D01*
X65550Y102400D02*
X67050Y102400D01*
X67050Y102875D02*
X65550Y102875D01*
X65550Y103350D02*
X67050Y103350D01*
X67050Y103825D02*
X65550Y103825D01*
X65550Y104300D02*
X67050Y104300D01*
X67050Y104775D02*
X65550Y104775D01*
X65550Y105250D02*
X67050Y105250D01*
X67050Y105725D02*
X65550Y105725D01*
X65550Y106200D02*
X67050Y106200D01*
X67050Y106675D02*
X65550Y106675D01*
X65550Y107150D02*
X67050Y107150D01*
X71050Y107450D02*
X71050Y95750D01*
X69550Y95750D01*
X69550Y107450D01*
X71050Y107450D01*
X71050Y96225D02*
X69550Y96225D01*
X69550Y96700D02*
X71050Y96700D01*
X71050Y97175D02*
X69550Y97175D01*
X69550Y97650D02*
X71050Y97650D01*
X71050Y98125D02*
X69550Y98125D01*
X69550Y98600D02*
X71050Y98600D01*
X71050Y99075D02*
X69550Y99075D01*
X69550Y99550D02*
X71050Y99550D01*
X71050Y100025D02*
X69550Y100025D01*
X69550Y100500D02*
X71050Y100500D01*
X71050Y100975D02*
X69550Y100975D01*
X69550Y101450D02*
X71050Y101450D01*
X71050Y101925D02*
X69550Y101925D01*
X69550Y102400D02*
X71050Y102400D01*
X71050Y102875D02*
X69550Y102875D01*
X69550Y103350D02*
X71050Y103350D01*
X71050Y103825D02*
X69550Y103825D01*
X69550Y104300D02*
X71050Y104300D01*
X71050Y104775D02*
X69550Y104775D01*
X69550Y105250D02*
X71050Y105250D01*
X71050Y105725D02*
X69550Y105725D01*
X69550Y106200D02*
X71050Y106200D01*
X71050Y106675D02*
X69550Y106675D01*
X69550Y107150D02*
X71050Y107150D01*
X75050Y107450D02*
X75050Y95750D01*
X73550Y95750D01*
X73550Y107450D01*
X75050Y107450D01*
X75050Y96225D02*
X73550Y96225D01*
X73550Y96700D02*
X75050Y96700D01*
X75050Y97175D02*
X73550Y97175D01*
X73550Y97650D02*
X75050Y97650D01*
X75050Y98125D02*
X73550Y98125D01*
X73550Y98600D02*
X75050Y98600D01*
X75050Y99075D02*
X73550Y99075D01*
X73550Y99550D02*
X75050Y99550D01*
X75050Y100025D02*
X73550Y100025D01*
X73550Y100500D02*
X75050Y100500D01*
X75050Y100975D02*
X73550Y100975D01*
X73550Y101450D02*
X75050Y101450D01*
X75050Y101925D02*
X73550Y101925D01*
X73550Y102400D02*
X75050Y102400D01*
X75050Y102875D02*
X73550Y102875D01*
X73550Y103350D02*
X75050Y103350D01*
X75050Y103825D02*
X73550Y103825D01*
X73550Y104300D02*
X75050Y104300D01*
X75050Y104775D02*
X73550Y104775D01*
X73550Y105250D02*
X75050Y105250D01*
X75050Y105725D02*
X73550Y105725D01*
X73550Y106200D02*
X75050Y106200D01*
X75050Y106675D02*
X73550Y106675D01*
X73550Y107150D02*
X75050Y107150D01*
X79050Y107450D02*
X79050Y95750D01*
X77550Y95750D01*
X77550Y107450D01*
X79050Y107450D01*
X79050Y96225D02*
X77550Y96225D01*
X77550Y96700D02*
X79050Y96700D01*
X79050Y97175D02*
X77550Y97175D01*
X77550Y97650D02*
X79050Y97650D01*
X79050Y98125D02*
X77550Y98125D01*
X77550Y98600D02*
X79050Y98600D01*
X79050Y99075D02*
X77550Y99075D01*
X77550Y99550D02*
X79050Y99550D01*
X79050Y100025D02*
X77550Y100025D01*
X77550Y100500D02*
X79050Y100500D01*
X79050Y100975D02*
X77550Y100975D01*
X77550Y101450D02*
X79050Y101450D01*
X79050Y101925D02*
X77550Y101925D01*
X77550Y102400D02*
X79050Y102400D01*
X79050Y102875D02*
X77550Y102875D01*
X77550Y103350D02*
X79050Y103350D01*
X79050Y103825D02*
X77550Y103825D01*
X77550Y104300D02*
X79050Y104300D01*
X79050Y104775D02*
X77550Y104775D01*
X77550Y105250D02*
X79050Y105250D01*
X79050Y105725D02*
X77550Y105725D01*
X77550Y106200D02*
X79050Y106200D01*
X79050Y106675D02*
X77550Y106675D01*
X77550Y107150D02*
X79050Y107150D01*
X81350Y111250D02*
X93050Y111250D01*
X93050Y109750D01*
X81350Y109750D01*
X81350Y111250D01*
X81350Y110225D02*
X93050Y110225D01*
X93050Y110700D02*
X81350Y110700D01*
X81350Y111175D02*
X93050Y111175D01*
X93050Y115250D02*
X81350Y115250D01*
X93050Y115250D02*
X93050Y113750D01*
X81350Y113750D01*
X81350Y115250D01*
X81350Y114225D02*
X93050Y114225D01*
X93050Y114700D02*
X81350Y114700D01*
X81350Y115175D02*
X93050Y115175D01*
X93050Y119250D02*
X81350Y119250D01*
X93050Y119250D02*
X93050Y117750D01*
X81350Y117750D01*
X81350Y119250D01*
X81350Y118225D02*
X93050Y118225D01*
X93050Y118700D02*
X81350Y118700D01*
X81350Y119175D02*
X93050Y119175D01*
X93050Y123250D02*
X81350Y123250D01*
X93050Y123250D02*
X93050Y121750D01*
X81350Y121750D01*
X81350Y123250D01*
X81350Y122225D02*
X93050Y122225D01*
X93050Y122700D02*
X81350Y122700D01*
X81350Y123175D02*
X93050Y123175D01*
X93050Y127250D02*
X81350Y127250D01*
X93050Y127250D02*
X93050Y125750D01*
X81350Y125750D01*
X81350Y127250D01*
X81350Y126225D02*
X93050Y126225D01*
X93050Y126700D02*
X81350Y126700D01*
X81350Y127175D02*
X93050Y127175D01*
X93050Y131250D02*
X81350Y131250D01*
X93050Y131250D02*
X93050Y129750D01*
X81350Y129750D01*
X81350Y131250D01*
X81350Y130225D02*
X93050Y130225D01*
X93050Y130700D02*
X81350Y130700D01*
X81350Y131175D02*
X93050Y131175D01*
X77550Y133550D02*
X77550Y145250D01*
X79050Y145250D01*
X79050Y133550D01*
X77550Y133550D01*
X77550Y134025D02*
X79050Y134025D01*
X79050Y134500D02*
X77550Y134500D01*
X77550Y134975D02*
X79050Y134975D01*
X79050Y135450D02*
X77550Y135450D01*
X77550Y135925D02*
X79050Y135925D01*
X79050Y136400D02*
X77550Y136400D01*
X77550Y136875D02*
X79050Y136875D01*
X79050Y137350D02*
X77550Y137350D01*
X77550Y137825D02*
X79050Y137825D01*
X79050Y138300D02*
X77550Y138300D01*
X77550Y138775D02*
X79050Y138775D01*
X79050Y139250D02*
X77550Y139250D01*
X77550Y139725D02*
X79050Y139725D01*
X79050Y140200D02*
X77550Y140200D01*
X77550Y140675D02*
X79050Y140675D01*
X79050Y141150D02*
X77550Y141150D01*
X77550Y141625D02*
X79050Y141625D01*
X79050Y142100D02*
X77550Y142100D01*
X77550Y142575D02*
X79050Y142575D01*
X79050Y143050D02*
X77550Y143050D01*
X77550Y143525D02*
X79050Y143525D01*
X79050Y144000D02*
X77550Y144000D01*
X77550Y144475D02*
X79050Y144475D01*
X79050Y144950D02*
X77550Y144950D01*
X73550Y145250D02*
X73550Y133550D01*
X73550Y145250D02*
X75050Y145250D01*
X75050Y133550D01*
X73550Y133550D01*
X73550Y134025D02*
X75050Y134025D01*
X75050Y134500D02*
X73550Y134500D01*
X73550Y134975D02*
X75050Y134975D01*
X75050Y135450D02*
X73550Y135450D01*
X73550Y135925D02*
X75050Y135925D01*
X75050Y136400D02*
X73550Y136400D01*
X73550Y136875D02*
X75050Y136875D01*
X75050Y137350D02*
X73550Y137350D01*
X73550Y137825D02*
X75050Y137825D01*
X75050Y138300D02*
X73550Y138300D01*
X73550Y138775D02*
X75050Y138775D01*
X75050Y139250D02*
X73550Y139250D01*
X73550Y139725D02*
X75050Y139725D01*
X75050Y140200D02*
X73550Y140200D01*
X73550Y140675D02*
X75050Y140675D01*
X75050Y141150D02*
X73550Y141150D01*
X73550Y141625D02*
X75050Y141625D01*
X75050Y142100D02*
X73550Y142100D01*
X73550Y142575D02*
X75050Y142575D01*
X75050Y143050D02*
X73550Y143050D01*
X73550Y143525D02*
X75050Y143525D01*
X75050Y144000D02*
X73550Y144000D01*
X73550Y144475D02*
X75050Y144475D01*
X75050Y144950D02*
X73550Y144950D01*
X69550Y145250D02*
X69550Y133550D01*
X69550Y145250D02*
X71050Y145250D01*
X71050Y133550D01*
X69550Y133550D01*
X69550Y134025D02*
X71050Y134025D01*
X71050Y134500D02*
X69550Y134500D01*
X69550Y134975D02*
X71050Y134975D01*
X71050Y135450D02*
X69550Y135450D01*
X69550Y135925D02*
X71050Y135925D01*
X71050Y136400D02*
X69550Y136400D01*
X69550Y136875D02*
X71050Y136875D01*
X71050Y137350D02*
X69550Y137350D01*
X69550Y137825D02*
X71050Y137825D01*
X71050Y138300D02*
X69550Y138300D01*
X69550Y138775D02*
X71050Y138775D01*
X71050Y139250D02*
X69550Y139250D01*
X69550Y139725D02*
X71050Y139725D01*
X71050Y140200D02*
X69550Y140200D01*
X69550Y140675D02*
X71050Y140675D01*
X71050Y141150D02*
X69550Y141150D01*
X69550Y141625D02*
X71050Y141625D01*
X71050Y142100D02*
X69550Y142100D01*
X69550Y142575D02*
X71050Y142575D01*
X71050Y143050D02*
X69550Y143050D01*
X69550Y143525D02*
X71050Y143525D01*
X71050Y144000D02*
X69550Y144000D01*
X69550Y144475D02*
X71050Y144475D01*
X71050Y144950D02*
X69550Y144950D01*
X65550Y145250D02*
X65550Y133550D01*
X65550Y145250D02*
X67050Y145250D01*
X67050Y133550D01*
X65550Y133550D01*
X65550Y134025D02*
X67050Y134025D01*
X67050Y134500D02*
X65550Y134500D01*
X65550Y134975D02*
X67050Y134975D01*
X67050Y135450D02*
X65550Y135450D01*
X65550Y135925D02*
X67050Y135925D01*
X67050Y136400D02*
X65550Y136400D01*
X65550Y136875D02*
X67050Y136875D01*
X67050Y137350D02*
X65550Y137350D01*
X65550Y137825D02*
X67050Y137825D01*
X67050Y138300D02*
X65550Y138300D01*
X65550Y138775D02*
X67050Y138775D01*
X67050Y139250D02*
X65550Y139250D01*
X65550Y139725D02*
X67050Y139725D01*
X67050Y140200D02*
X65550Y140200D01*
X65550Y140675D02*
X67050Y140675D01*
X67050Y141150D02*
X65550Y141150D01*
X65550Y141625D02*
X67050Y141625D01*
X67050Y142100D02*
X65550Y142100D01*
X65550Y142575D02*
X67050Y142575D01*
X67050Y143050D02*
X65550Y143050D01*
X65550Y143525D02*
X67050Y143525D01*
X67050Y144000D02*
X65550Y144000D01*
X65550Y144475D02*
X67050Y144475D01*
X67050Y144950D02*
X65550Y144950D01*
X61550Y145250D02*
X61550Y133550D01*
X61550Y145250D02*
X63050Y145250D01*
X63050Y133550D01*
X61550Y133550D01*
X61550Y134025D02*
X63050Y134025D01*
X63050Y134500D02*
X61550Y134500D01*
X61550Y134975D02*
X63050Y134975D01*
X63050Y135450D02*
X61550Y135450D01*
X61550Y135925D02*
X63050Y135925D01*
X63050Y136400D02*
X61550Y136400D01*
X61550Y136875D02*
X63050Y136875D01*
X63050Y137350D02*
X61550Y137350D01*
X61550Y137825D02*
X63050Y137825D01*
X63050Y138300D02*
X61550Y138300D01*
X61550Y138775D02*
X63050Y138775D01*
X63050Y139250D02*
X61550Y139250D01*
X61550Y139725D02*
X63050Y139725D01*
X63050Y140200D02*
X61550Y140200D01*
X61550Y140675D02*
X63050Y140675D01*
X63050Y141150D02*
X61550Y141150D01*
X61550Y141625D02*
X63050Y141625D01*
X63050Y142100D02*
X61550Y142100D01*
X61550Y142575D02*
X63050Y142575D01*
X63050Y143050D02*
X61550Y143050D01*
X61550Y143525D02*
X63050Y143525D01*
X63050Y144000D02*
X61550Y144000D01*
X61550Y144475D02*
X63050Y144475D01*
X63050Y144950D02*
X61550Y144950D01*
D20*
X57540Y145260D02*
X57540Y133540D01*
X57540Y145260D02*
X59060Y145260D01*
X59060Y133540D01*
X57540Y133540D01*
X57540Y133996D02*
X59060Y133996D01*
X59060Y134452D02*
X57540Y134452D01*
X57540Y134908D02*
X59060Y134908D01*
X59060Y135364D02*
X57540Y135364D01*
X57540Y135820D02*
X59060Y135820D01*
X59060Y136276D02*
X57540Y136276D01*
X57540Y136732D02*
X59060Y136732D01*
X59060Y137188D02*
X57540Y137188D01*
X57540Y137644D02*
X59060Y137644D01*
X59060Y138100D02*
X57540Y138100D01*
X57540Y138556D02*
X59060Y138556D01*
X59060Y139012D02*
X57540Y139012D01*
X57540Y139468D02*
X59060Y139468D01*
X59060Y139924D02*
X57540Y139924D01*
X57540Y140380D02*
X59060Y140380D01*
X59060Y140836D02*
X57540Y140836D01*
X57540Y141292D02*
X59060Y141292D01*
X59060Y141748D02*
X57540Y141748D01*
X57540Y142204D02*
X59060Y142204D01*
X59060Y142660D02*
X57540Y142660D01*
X57540Y143116D02*
X59060Y143116D01*
X59060Y143572D02*
X57540Y143572D01*
X57540Y144028D02*
X59060Y144028D01*
X59060Y144484D02*
X57540Y144484D01*
X57540Y144940D02*
X59060Y144940D01*
D14*
X136100Y232800D03*
X148100Y232800D03*
D21*
X8600Y82600D03*
D22*
X25600Y82600D03*
X25600Y109600D03*
X6600Y109600D03*
D14*
X24500Y59600D03*
X36500Y59600D03*
D23*
X201000Y78000D03*
D24*
X190000Y150000D03*
X179000Y150000D03*
D25*
X171500Y153600D03*
X142500Y153600D03*
D24*
X135000Y150000D03*
X124000Y150000D03*
D23*
X113000Y78000D03*
D26*
X135200Y78000D03*
X157000Y78000D03*
X178800Y78000D03*
D27*
X151500Y127300D03*
X140500Y127300D03*
X129500Y127300D03*
X118500Y127300D03*
X162500Y127300D03*
X173500Y127300D03*
X184500Y127300D03*
X195500Y127300D03*
D28*
X60500Y20500D03*
X60500Y24500D03*
X60500Y28500D03*
X60500Y32500D03*
X60500Y36500D03*
X30500Y36500D03*
X30500Y32500D03*
X30500Y28500D03*
X30500Y24500D03*
X30500Y20500D03*
D29*
X60100Y13000D03*
X60100Y44000D03*
X30900Y44000D03*
X30900Y13000D03*
D13*
X70700Y60950D03*
X70700Y48950D03*
D21*
X18200Y148800D03*
X27700Y126800D03*
X8700Y126800D03*
D14*
X61500Y62450D03*
X49500Y62450D03*
D13*
X12800Y160450D03*
X12800Y172450D03*
D30*
X130588Y145588D02*
X135000Y150000D01*
X130588Y145588D02*
X130588Y141872D01*
D31*
X130588Y141872D03*
D30*
X189737Y178000D02*
X191300Y178000D01*
X135600Y197900D02*
X124300Y209200D01*
X124300Y269750D01*
X146800Y209100D02*
X136350Y198650D01*
X135600Y197900D01*
D31*
X159800Y232800D03*
X147900Y219800D03*
D32*
X147900Y210200D01*
X146800Y209100D01*
X139512Y229388D02*
X136100Y232800D01*
X139512Y229388D02*
X139512Y227985D01*
X142785Y224712D01*
X142988Y224712D01*
X147900Y219800D01*
D30*
X178894Y229799D02*
X191985Y216708D01*
X178894Y229799D02*
X178894Y236457D01*
X177257Y238094D01*
X176906Y238094D01*
D31*
X135100Y287000D03*
D33*
X112400Y198650D02*
X92600Y178850D01*
X112400Y198650D02*
X136350Y198650D01*
D30*
X176906Y238094D02*
X141764Y273236D01*
X141764Y280483D01*
X135247Y287000D01*
X135100Y287000D01*
D31*
X191985Y216708D03*
X191300Y178000D03*
X8600Y82600D03*
X40000Y250000D03*
D30*
X60000Y270000D02*
X113350Y270000D01*
D31*
X60000Y270000D03*
X21086Y233200D03*
D30*
X23200Y233200D02*
X40000Y250000D01*
X23200Y233200D02*
X21086Y233200D01*
X77472Y177078D02*
X90828Y177078D01*
D31*
X77472Y177078D03*
D30*
X22914Y160450D02*
X12800Y160450D01*
X22914Y160450D02*
X22950Y160414D01*
D31*
X49600Y185234D03*
D30*
X49600Y201000D01*
X113600Y269750D02*
X113350Y270000D01*
X113600Y269750D02*
X124300Y269750D01*
D31*
X113600Y269750D03*
D30*
X92600Y178850D02*
X92190Y178440D01*
X92190Y150000D02*
X77995Y150000D01*
X77450Y92706D02*
X77450Y83150D01*
X74506Y101394D02*
X74300Y101600D01*
X74506Y101394D02*
X74506Y94489D01*
X76289Y92706D01*
X77450Y92706D01*
D31*
X86262Y85500D03*
X84400Y132850D03*
D30*
X85850Y85300D02*
X83700Y83150D01*
X77450Y83150D01*
D31*
X6588Y208834D03*
D30*
X15786Y207658D02*
X16628Y208500D01*
X15786Y207658D02*
X7764Y207658D01*
X6588Y208834D01*
X22350Y208500D02*
X42100Y208500D01*
X49600Y201000D02*
X65278Y185322D01*
D31*
X65278Y185322D03*
D30*
X49600Y201000D02*
X42100Y208500D01*
X47550Y83200D02*
X54318Y76432D01*
D32*
X12800Y160450D02*
X12800Y160488D01*
X12910Y160598D01*
D34*
X12910Y160598D03*
D30*
X54318Y76432D02*
X70233Y76432D01*
X70233Y61417D02*
X70700Y60950D01*
X70732Y76432D02*
X70233Y76432D01*
X70732Y76432D02*
X77450Y83150D01*
X70233Y76432D02*
X70233Y61417D01*
X85850Y85300D02*
X86062Y85300D01*
X86262Y85500D01*
X90828Y177078D02*
X92600Y178850D01*
X77995Y150000D02*
X74300Y146305D01*
X74300Y139400D01*
X159800Y232800D02*
X161100Y232800D01*
X92190Y140640D02*
X84400Y132850D01*
X86750Y130500D02*
X87200Y130500D01*
X86750Y130500D02*
X84400Y132850D01*
X30500Y24500D02*
X18200Y24500D01*
X17550Y25150D01*
D34*
X17550Y25150D03*
D30*
X92190Y140640D02*
X92190Y150000D01*
X92190Y150000D01*
X92190Y175716D01*
X90828Y177078D01*
D35*
X37366Y20500D02*
X30500Y20500D01*
X37366Y20500D02*
X39283Y18583D01*
D31*
X39283Y18583D03*
X30850Y171850D03*
D35*
X32100Y173100D01*
X32100Y173750D01*
X25216Y59600D02*
X24500Y59600D01*
D31*
X25216Y59600D03*
D34*
X38750Y51850D03*
D35*
X32250Y51850D01*
X30510Y53590D01*
X30510Y54057D01*
X27253Y57314D01*
X26786Y57314D01*
X24500Y59600D01*
D31*
X149208Y141872D03*
D30*
X150986Y144292D02*
X154408Y147714D01*
X150986Y144292D02*
X150986Y143650D01*
X149208Y141872D01*
X165614Y147714D02*
X171500Y153600D01*
X165614Y147714D02*
X154408Y147714D01*
X191300Y204000D02*
X203300Y204000D01*
X191300Y204000D02*
X191050Y204250D01*
X178600Y204250D01*
X203300Y204000D02*
X203300Y216023D01*
X203985Y216708D01*
X178600Y216950D02*
X178600Y204250D01*
D31*
X110228Y284500D03*
D30*
X173100Y232800D02*
X174830Y231070D01*
X174830Y228116D01*
X178600Y224346D01*
X178600Y216950D01*
D31*
X103000Y200100D03*
X97700Y227300D03*
D30*
X110000Y239600D01*
X110000Y255000D01*
D31*
X110000Y255000D03*
D30*
X169942Y235958D02*
X173100Y232800D01*
X169942Y235958D02*
X169942Y237720D01*
X137700Y273283D02*
X137700Y273800D01*
X137700Y269962D02*
X169942Y237720D01*
X129245Y281738D02*
X126862Y281738D01*
X125100Y283500D01*
X137700Y273283D02*
X137700Y269962D01*
X137700Y273283D02*
X129245Y281738D01*
X125100Y283500D02*
X111228Y283500D01*
X110228Y284500D01*
X22350Y193500D02*
X13200Y193500D01*
X12750Y193950D01*
D31*
X12750Y193950D03*
X22950Y172414D03*
X27700Y126800D03*
X88422Y192098D03*
D30*
X100437Y200100D02*
X103000Y200100D01*
X100437Y200100D02*
X99293Y198956D01*
X95280Y198956D01*
X88422Y192098D01*
D32*
X92052Y192098D02*
X92600Y191550D01*
X92052Y192098D02*
X88422Y192098D01*
D30*
X85850Y109150D02*
X85850Y105000D01*
X85850Y97300D01*
D32*
X40000Y130500D02*
X31400Y130500D01*
X40000Y130500D02*
X49400Y130500D01*
X31400Y130500D02*
X27700Y126800D01*
D30*
X62094Y101394D02*
X62300Y101600D01*
X62094Y101394D02*
X62094Y94489D01*
X60311Y92706D01*
X56289Y92706D01*
X53795Y95200D02*
X50000Y95200D01*
X47550Y95200D01*
X53795Y95200D02*
X56289Y92706D01*
X40000Y105200D02*
X40000Y130500D01*
X40000Y105200D02*
X50000Y95200D01*
X47550Y95200D02*
X36500Y84150D01*
X36500Y59600D01*
X85850Y109150D02*
X87200Y110500D01*
D34*
X90186Y105350D03*
D30*
X89836Y105000D01*
X85850Y105000D01*
D31*
X50528Y12750D03*
D35*
X57786Y17786D02*
X60500Y20500D01*
X57786Y17786D02*
X54153Y17786D01*
X52814Y16447D01*
X52814Y15036D01*
X50528Y12750D01*
X37100Y164376D02*
X37100Y173750D01*
X37100Y164376D02*
X36070Y163346D01*
D31*
X36070Y163346D03*
D32*
X70300Y101600D02*
X70300Y88000D01*
X65450Y83150D01*
D35*
X66300Y139400D02*
X66300Y172950D01*
X67100Y173750D01*
D34*
X52502Y145850D03*
D35*
X52502Y149839D01*
D34*
X57202Y86600D03*
D35*
X66300Y91148D02*
X66300Y101600D01*
X52100Y167310D02*
X52100Y173750D01*
X52100Y167310D02*
X54654Y164756D01*
X54654Y151991D01*
X52502Y149839D01*
X66300Y91148D02*
X63088Y87936D01*
X61503Y87936D01*
X60167Y86600D01*
X57202Y86600D01*
X58300Y139400D02*
X58300Y172550D01*
X57100Y173750D01*
X62300Y173550D02*
X62300Y139400D01*
X62300Y173550D02*
X62100Y173750D01*
X203300Y178000D02*
X203300Y189788D01*
X204412Y190900D01*
D31*
X204412Y190900D03*
X204412Y223780D03*
D35*
X210698Y230066D01*
X210698Y262132D01*
X180132Y292698D01*
X37100Y239557D02*
X37100Y228250D01*
X48570Y251027D02*
X48570Y274735D01*
X66533Y292698D01*
X180132Y292698D01*
X48570Y251027D02*
X37100Y239557D01*
X88637Y244952D02*
X89400Y244189D01*
X88637Y244952D02*
X60163Y244952D01*
X57100Y241889D01*
X57100Y228250D01*
X89318Y230772D02*
X89400Y230854D01*
X89400Y244189D01*
X89318Y220232D02*
X92600Y216950D01*
X89318Y220232D02*
X89318Y230772D01*
X168934Y201216D02*
X178600Y191550D01*
X168934Y201216D02*
X168934Y224109D01*
X151522Y236222D02*
X148100Y232800D01*
X151522Y236222D02*
X151522Y241522D01*
X166386Y226657D02*
X168934Y224109D01*
X166386Y226657D02*
X166386Y236247D01*
X151522Y241522D02*
X133048Y259995D01*
X164499Y238134D02*
X166386Y236247D01*
X164499Y238134D02*
X154909Y238134D01*
X133048Y259995D02*
X133048Y272906D01*
X127772Y278182D01*
X118672Y278182D01*
X118472Y278382D01*
X151522Y241522D02*
X154909Y238134D01*
X56528Y278382D02*
X51618Y273472D01*
X43564Y229714D02*
X42100Y228250D01*
X51618Y249764D02*
X51618Y273472D01*
X43564Y241710D02*
X43564Y229714D01*
X43564Y241710D02*
X51618Y249764D01*
X56528Y278382D02*
X118472Y278382D01*
X101886Y218932D02*
X101886Y213536D01*
X92600Y204250D01*
X93100Y244800D02*
X89900Y248000D01*
X58900Y248000D01*
X52100Y241200D01*
X52100Y228250D01*
X98852Y221966D02*
X101886Y218932D01*
X98852Y221966D02*
X95491Y221966D01*
X92366Y225091D01*
X92366Y229509D01*
X93100Y230243D01*
X93100Y244800D01*
X165886Y191564D02*
X178600Y178850D01*
X165886Y191564D02*
X165886Y222847D01*
X161267Y227466D01*
X146104Y227466D01*
X140047Y237586D02*
X133800Y237586D01*
X145556Y228014D02*
X146104Y227466D01*
X145556Y228014D02*
X144153Y228014D01*
X142814Y229353D01*
X142814Y234819D01*
X140047Y237586D01*
X133800Y237586D02*
X129634Y241752D01*
X129634Y272009D01*
X126509Y275134D01*
X47100Y235000D02*
X47100Y228250D01*
X117409Y275134D02*
X126509Y275134D01*
X117409Y275134D02*
X117209Y275334D01*
X57791Y275334D02*
X54666Y272209D01*
X49052Y236952D02*
X47100Y235000D01*
X49052Y236952D02*
X49052Y242887D01*
X54666Y248501D01*
X54666Y272209D01*
X57791Y275334D02*
X117209Y275334D01*
X24464Y73314D02*
X17850Y66700D01*
X24464Y73314D02*
X29547Y73314D01*
X30886Y74653D01*
X19034Y136009D02*
X15909Y139134D01*
X7350Y139134D01*
X19034Y116166D02*
X25600Y109600D01*
X19034Y116166D02*
X19034Y136009D01*
X15743Y198500D02*
X14959Y199284D01*
X15743Y198500D02*
X22350Y198500D01*
X9684Y199284D02*
X7350Y196950D01*
X9684Y199284D02*
X14959Y199284D01*
X7350Y196950D02*
X7350Y139134D01*
X22016Y100237D02*
X22016Y95819D01*
X25600Y103821D02*
X25600Y109600D01*
X25600Y103821D02*
X22016Y100237D01*
X30886Y90547D02*
X30886Y74653D01*
X30886Y90547D02*
X29547Y91886D01*
X25949Y91886D01*
X22016Y95819D01*
X24563Y32500D02*
X30500Y32500D01*
X24563Y32500D02*
X17850Y39213D01*
X17850Y66700D01*
X22350Y203500D02*
X8752Y203500D01*
X15986Y92214D02*
X25600Y82600D01*
X14802Y67963D02*
X14802Y37950D01*
X25600Y78761D02*
X25600Y82600D01*
X25600Y78761D02*
X14802Y67963D01*
X14647Y136086D02*
X4302Y136086D01*
X14647Y136086D02*
X15986Y134747D01*
X4302Y199050D02*
X8752Y203500D01*
X15986Y134747D02*
X15986Y103957D01*
X16034Y103909D01*
X16034Y99491D01*
X15986Y99443D01*
X15986Y92214D01*
X4302Y136086D02*
X4302Y199050D01*
X24252Y28500D02*
X30500Y28500D01*
X24252Y28500D02*
X14802Y37950D01*
D31*
X113088Y141872D03*
D30*
X113000Y114849D02*
X113000Y78000D01*
X113000Y114849D02*
X111706Y116143D01*
X111706Y140490D01*
X113088Y141872D01*
X120806Y146806D02*
X124000Y150000D01*
X120806Y146806D02*
X118930Y146806D01*
D31*
X118930Y146806D03*
D30*
X142500Y142784D02*
X142500Y153600D01*
X142500Y142784D02*
X141588Y141872D01*
D31*
X141588Y141872D03*
X156828Y141872D03*
D30*
X176794Y147794D02*
X179000Y150000D01*
X176794Y147794D02*
X176794Y146443D01*
X172223Y141872D01*
X156828Y141872D01*
X185588Y145588D02*
X190000Y150000D01*
X185588Y145588D02*
X185588Y141872D01*
D31*
X185588Y141872D03*
X196588Y141872D03*
D30*
X201000Y114849D02*
X201000Y78000D01*
X201000Y114849D02*
X202294Y116143D01*
X202294Y138457D01*
X200657Y140094D01*
X198366Y140094D01*
X196588Y141872D01*
D31*
X10700Y101700D03*
D30*
X6600Y105800D01*
X6600Y109600D01*
X6600Y124700D01*
X8700Y126800D01*
X49500Y62450D02*
X52306Y59644D01*
X52306Y50000D02*
X52306Y40343D01*
X52306Y50000D02*
X52306Y59644D01*
X69650Y50000D02*
X70700Y48950D01*
X69650Y50000D02*
X52306Y50000D01*
X32706Y38706D02*
X30500Y36500D01*
X32706Y38706D02*
X37057Y38706D01*
X38694Y40343D01*
X52306Y40343D01*
D34*
X24950Y51754D03*
D30*
X28294Y38706D02*
X30500Y36500D01*
X28294Y38706D02*
X24743Y38706D01*
X23106Y40343D01*
X23106Y47657D01*
X24950Y49501D02*
X24950Y51754D01*
X24950Y49501D02*
X23106Y47657D01*
D35*
X22350Y218500D02*
X22350Y219322D01*
D31*
X22350Y219322D03*
D35*
X60500Y32500D02*
X73456Y32500D01*
X73686Y32270D01*
D34*
X73686Y32270D03*
D35*
X22350Y213500D02*
X13366Y213500D01*
D31*
X13366Y213500D03*
D34*
X70000Y40000D03*
D35*
X66500Y36500D01*
X60500Y36500D01*
X47100Y165211D02*
X47100Y173750D01*
D34*
X70336Y18750D03*
D35*
X70336Y20097D01*
X66447Y23986D01*
X49476Y162835D02*
X47100Y165211D01*
X49476Y162835D02*
X49094Y162453D01*
D34*
X49094Y162453D03*
D35*
X61014Y23986D02*
X66447Y23986D01*
X61014Y23986D02*
X60500Y24500D01*
D34*
X72186Y10150D03*
D35*
X61014Y27986D02*
X60500Y28500D01*
X75896Y21053D02*
X75896Y16447D01*
X72186Y12737D01*
X72186Y10150D01*
X68963Y27986D02*
X61014Y27986D01*
X68963Y27986D02*
X75896Y21053D01*
X42100Y158181D02*
X42100Y173750D01*
X42100Y158181D02*
X46525Y153756D01*
D34*
X46525Y153756D03*
D30*
X22350Y188500D02*
X15606Y188500D01*
X10906Y183800D01*
X10906Y174344D01*
X12800Y172450D01*
X26607Y166208D02*
X28244Y164571D01*
X19042Y166208D02*
X12800Y172450D01*
X28244Y164571D02*
X28244Y162790D01*
X26808Y149158D02*
X26750Y149100D01*
X26607Y166208D02*
X19042Y166208D01*
X18500Y149100D02*
X26750Y149100D01*
X18500Y149100D02*
X18200Y148800D01*
X28244Y162790D02*
X33614Y157420D01*
X33614Y152580D01*
X30192Y149158D01*
X26808Y149158D01*
D35*
X25500Y180350D02*
X22350Y183500D01*
X25500Y180350D02*
X25500Y180034D01*
D31*
X25500Y180034D03*
D34*
X63200Y67298D03*
D35*
X61500Y65598D02*
X61500Y62450D01*
X61500Y65598D02*
X63200Y67298D01*
M02*
