G04 EAGLE Gerber RS-274X export*
G75*
%MOMM*%
%FSLAX34Y34*%
%LPD*%
%AMOC8*
5,1,8,0,0,1.08239X$1,22.5*%
G01*
%ADD10C,0.152400*%
%ADD11C,0.203200*%
%ADD12C,1.508000*%
%ADD13C,1.950000*%
%ADD14R,0.400000X1.350000*%
%ADD15R,2.100000X1.600000*%
%ADD16R,0.800000X0.800000*%
%ADD17R,0.600000X0.700000*%
%ADD18C,1.900000*%
%ADD19C,0.609600*%
%ADD20C,0.254000*%
%ADD21C,0.200000*%

G36*
X61056Y3318D02*
X61056Y3318D01*
X61153Y3328D01*
X61177Y3338D01*
X61203Y3342D01*
X61289Y3388D01*
X61378Y3428D01*
X61398Y3445D01*
X61421Y3458D01*
X61488Y3528D01*
X61559Y3594D01*
X61572Y3617D01*
X61590Y3636D01*
X61631Y3724D01*
X61678Y3810D01*
X61683Y3835D01*
X61694Y3859D01*
X61704Y3956D01*
X61722Y4052D01*
X61718Y4078D01*
X61721Y4103D01*
X61700Y4199D01*
X61686Y4295D01*
X61674Y4318D01*
X61668Y4344D01*
X61618Y4427D01*
X61574Y4514D01*
X61556Y4533D01*
X61542Y4555D01*
X61468Y4618D01*
X61399Y4686D01*
X61370Y4702D01*
X61355Y4715D01*
X61325Y4727D01*
X61252Y4767D01*
X59623Y5442D01*
X56452Y8613D01*
X54735Y12757D01*
X54735Y17243D01*
X56452Y21387D01*
X59623Y24558D01*
X63767Y26275D01*
X68253Y26275D01*
X72397Y24558D01*
X74675Y22280D01*
X74733Y22238D01*
X74785Y22189D01*
X74832Y22167D01*
X74874Y22137D01*
X74943Y22116D01*
X75008Y22085D01*
X75060Y22080D01*
X75110Y22064D01*
X75181Y22066D01*
X75252Y22058D01*
X75303Y22069D01*
X75355Y22071D01*
X75423Y22095D01*
X75493Y22110D01*
X75538Y22137D01*
X75586Y22155D01*
X75642Y22200D01*
X75704Y22237D01*
X75738Y22276D01*
X75778Y22309D01*
X75817Y22369D01*
X75864Y22424D01*
X75883Y22472D01*
X75911Y22516D01*
X75929Y22585D01*
X75956Y22652D01*
X75964Y22723D01*
X75972Y22754D01*
X75970Y22777D01*
X75974Y22818D01*
X75974Y27963D01*
X76347Y28336D01*
X127673Y28336D01*
X128046Y27963D01*
X128046Y22818D01*
X128057Y22748D01*
X128059Y22676D01*
X128077Y22627D01*
X128085Y22576D01*
X128119Y22512D01*
X128144Y22445D01*
X128176Y22404D01*
X128201Y22358D01*
X128253Y22309D01*
X128297Y22253D01*
X128341Y22225D01*
X128379Y22189D01*
X128444Y22159D01*
X128504Y22120D01*
X128555Y22107D01*
X128602Y22085D01*
X128673Y22077D01*
X128743Y22060D01*
X128795Y22064D01*
X128846Y22058D01*
X128917Y22073D01*
X128988Y22079D01*
X129036Y22099D01*
X129087Y22110D01*
X129148Y22147D01*
X129214Y22175D01*
X129270Y22220D01*
X129298Y22237D01*
X129313Y22254D01*
X129345Y22280D01*
X131623Y24558D01*
X135767Y26275D01*
X140253Y26275D01*
X144397Y24558D01*
X147568Y21387D01*
X149285Y17243D01*
X149285Y12757D01*
X147568Y8613D01*
X144397Y5442D01*
X142768Y4767D01*
X142685Y4716D01*
X142599Y4670D01*
X142582Y4652D01*
X142559Y4638D01*
X142497Y4562D01*
X142430Y4492D01*
X142419Y4468D01*
X142402Y4448D01*
X142368Y4357D01*
X142326Y4269D01*
X142324Y4243D01*
X142314Y4219D01*
X142310Y4121D01*
X142299Y4025D01*
X142305Y3999D01*
X142304Y3973D01*
X142331Y3879D01*
X142352Y3784D01*
X142365Y3762D01*
X142372Y3737D01*
X142428Y3657D01*
X142478Y3573D01*
X142498Y3556D01*
X142513Y3535D01*
X142591Y3476D01*
X142665Y3413D01*
X142689Y3403D01*
X142710Y3388D01*
X142802Y3358D01*
X142893Y3321D01*
X142925Y3318D01*
X142944Y3312D01*
X142977Y3312D01*
X143060Y3303D01*
X227957Y3303D01*
X228048Y3317D01*
X228138Y3325D01*
X228168Y3337D01*
X228200Y3342D01*
X228281Y3385D01*
X228365Y3421D01*
X228397Y3447D01*
X228418Y3458D01*
X228440Y3481D01*
X228496Y3526D01*
X228527Y3557D01*
X230000Y3557D01*
X230026Y3561D01*
X230075Y3560D01*
X231183Y3670D01*
X231210Y3677D01*
X231239Y3677D01*
X231400Y3724D01*
X233448Y4572D01*
X233504Y4607D01*
X233564Y4632D01*
X233629Y4684D01*
X233657Y4702D01*
X233670Y4717D01*
X233695Y4737D01*
X235263Y6305D01*
X235301Y6358D01*
X235347Y6405D01*
X235387Y6478D01*
X235406Y6505D01*
X235412Y6523D01*
X235428Y6552D01*
X236276Y8600D01*
X236283Y8628D01*
X236296Y8653D01*
X236330Y8817D01*
X236440Y9925D01*
X236438Y9952D01*
X236443Y10000D01*
X236443Y11473D01*
X236474Y11504D01*
X236527Y11578D01*
X236587Y11648D01*
X236599Y11678D01*
X236618Y11704D01*
X236645Y11791D01*
X236679Y11876D01*
X236683Y11917D01*
X236690Y11939D01*
X236689Y11971D01*
X236697Y12043D01*
X236697Y187957D01*
X236683Y188048D01*
X236675Y188138D01*
X236663Y188168D01*
X236658Y188200D01*
X236615Y188281D01*
X236579Y188365D01*
X236553Y188397D01*
X236542Y188418D01*
X236519Y188440D01*
X236474Y188496D01*
X236443Y188527D01*
X236443Y190000D01*
X236439Y190026D01*
X236440Y190075D01*
X236330Y191183D01*
X236323Y191210D01*
X236323Y191239D01*
X236276Y191400D01*
X235428Y193448D01*
X235393Y193504D01*
X235368Y193564D01*
X235316Y193629D01*
X235298Y193657D01*
X235283Y193670D01*
X235263Y193695D01*
X233695Y195263D01*
X233642Y195301D01*
X233595Y195347D01*
X233522Y195387D01*
X233495Y195406D01*
X233477Y195412D01*
X233448Y195428D01*
X231400Y196276D01*
X231372Y196283D01*
X231347Y196296D01*
X231183Y196330D01*
X230075Y196440D01*
X230048Y196438D01*
X230000Y196443D01*
X228527Y196443D01*
X228496Y196474D01*
X228422Y196527D01*
X228352Y196587D01*
X228322Y196599D01*
X228296Y196618D01*
X228209Y196645D01*
X228124Y196679D01*
X228083Y196683D01*
X228061Y196690D01*
X228029Y196689D01*
X227957Y196697D01*
X144811Y196697D01*
X144740Y196686D01*
X144669Y196684D01*
X144620Y196666D01*
X144568Y196658D01*
X144505Y196624D01*
X144438Y196599D01*
X144397Y196567D01*
X144351Y196542D01*
X144302Y196491D01*
X144246Y196446D01*
X144217Y196402D01*
X144182Y196364D01*
X144151Y196299D01*
X144113Y196239D01*
X144100Y196188D01*
X144078Y196141D01*
X144070Y196070D01*
X144053Y196000D01*
X144057Y195948D01*
X144051Y195897D01*
X144066Y195826D01*
X144072Y195755D01*
X144092Y195707D01*
X144103Y195656D01*
X144140Y195595D01*
X144168Y195529D01*
X144213Y195473D01*
X144229Y195445D01*
X144247Y195430D01*
X144273Y195398D01*
X180527Y159143D01*
X180621Y159076D01*
X180716Y159005D01*
X180722Y159003D01*
X180727Y159000D01*
X180838Y158966D01*
X180950Y158929D01*
X180956Y158929D01*
X180962Y158927D01*
X181079Y158930D01*
X181196Y158932D01*
X181203Y158934D01*
X181208Y158934D01*
X181225Y158940D01*
X181357Y158978D01*
X183497Y159865D01*
X187103Y159865D01*
X190435Y158485D01*
X192985Y155935D01*
X194365Y152603D01*
X194365Y148997D01*
X192985Y145665D01*
X191880Y144560D01*
X191838Y144502D01*
X191789Y144450D01*
X191767Y144403D01*
X191736Y144361D01*
X191715Y144292D01*
X191685Y144227D01*
X191679Y144175D01*
X191664Y144125D01*
X191666Y144054D01*
X191658Y143983D01*
X191669Y143932D01*
X191670Y143880D01*
X191695Y143812D01*
X191710Y143742D01*
X191737Y143697D01*
X191755Y143649D01*
X191800Y143593D01*
X191836Y143531D01*
X191876Y143497D01*
X191908Y143457D01*
X191969Y143418D01*
X192023Y143371D01*
X192071Y143352D01*
X192115Y143324D01*
X192185Y143306D01*
X192251Y143279D01*
X192323Y143271D01*
X192354Y143263D01*
X192377Y143265D01*
X192418Y143261D01*
X196410Y143261D01*
X198112Y141559D01*
X205927Y133743D01*
X206022Y133675D01*
X206116Y133605D01*
X206122Y133603D01*
X206127Y133600D01*
X206238Y133566D01*
X206350Y133529D01*
X206356Y133529D01*
X206362Y133527D01*
X206479Y133530D01*
X206596Y133532D01*
X206603Y133534D01*
X206608Y133534D01*
X206625Y133540D01*
X206757Y133578D01*
X208897Y134465D01*
X212503Y134465D01*
X215835Y133085D01*
X218385Y130535D01*
X219765Y127203D01*
X219765Y123597D01*
X218385Y120265D01*
X215835Y117715D01*
X212503Y116335D01*
X208897Y116335D01*
X205565Y117715D01*
X203015Y120265D01*
X201635Y123597D01*
X201635Y127203D01*
X202522Y129343D01*
X202548Y129457D01*
X202577Y129570D01*
X202576Y129577D01*
X202578Y129583D01*
X202567Y129699D01*
X202558Y129816D01*
X202555Y129821D01*
X202555Y129828D01*
X202507Y129935D01*
X202462Y130042D01*
X202457Y130048D01*
X202455Y130052D01*
X202442Y130066D01*
X202357Y130173D01*
X194541Y137988D01*
X194467Y138041D01*
X194398Y138101D01*
X194368Y138113D01*
X194341Y138132D01*
X194254Y138159D01*
X194170Y138193D01*
X194129Y138197D01*
X194106Y138204D01*
X194074Y138203D01*
X194003Y138211D01*
X180086Y138211D01*
X179060Y139237D01*
X179002Y139278D01*
X178950Y139328D01*
X178903Y139350D01*
X178861Y139380D01*
X178792Y139401D01*
X178727Y139431D01*
X178675Y139437D01*
X178625Y139452D01*
X178554Y139451D01*
X178483Y139458D01*
X178432Y139447D01*
X178380Y139446D01*
X178312Y139421D01*
X178242Y139406D01*
X178197Y139380D01*
X178149Y139362D01*
X178093Y139317D01*
X178031Y139280D01*
X177997Y139240D01*
X177957Y139208D01*
X177918Y139148D01*
X177871Y139093D01*
X177852Y139045D01*
X177824Y139001D01*
X177806Y138932D01*
X177779Y138865D01*
X177771Y138794D01*
X177763Y138763D01*
X177765Y138739D01*
X177761Y138698D01*
X177761Y132518D01*
X177772Y132447D01*
X177774Y132376D01*
X177792Y132327D01*
X177800Y132275D01*
X177834Y132212D01*
X177859Y132145D01*
X177891Y132104D01*
X177916Y132058D01*
X177968Y132009D01*
X178012Y131953D01*
X178056Y131924D01*
X178094Y131889D01*
X178159Y131858D01*
X178219Y131820D01*
X178270Y131807D01*
X178317Y131785D01*
X178388Y131777D01*
X178458Y131759D01*
X178510Y131764D01*
X178561Y131758D01*
X178632Y131773D01*
X178703Y131779D01*
X178751Y131799D01*
X178802Y131810D01*
X178863Y131847D01*
X178929Y131875D01*
X178985Y131920D01*
X179013Y131936D01*
X179028Y131954D01*
X179060Y131980D01*
X180165Y133085D01*
X183497Y134465D01*
X187103Y134465D01*
X190435Y133085D01*
X192985Y130535D01*
X194365Y127203D01*
X194365Y123597D01*
X192985Y120265D01*
X190435Y117715D01*
X187103Y116335D01*
X183497Y116335D01*
X180165Y117715D01*
X179060Y118820D01*
X179002Y118862D01*
X178950Y118911D01*
X178903Y118933D01*
X178861Y118964D01*
X178792Y118985D01*
X178727Y119015D01*
X178675Y119021D01*
X178625Y119036D01*
X178554Y119034D01*
X178483Y119042D01*
X178432Y119031D01*
X178380Y119030D01*
X178312Y119005D01*
X178242Y118990D01*
X178197Y118963D01*
X178149Y118945D01*
X178093Y118900D01*
X178031Y118864D01*
X177997Y118824D01*
X177957Y118792D01*
X177918Y118731D01*
X177871Y118677D01*
X177852Y118629D01*
X177824Y118585D01*
X177806Y118515D01*
X177779Y118449D01*
X177771Y118377D01*
X177763Y118346D01*
X177765Y118323D01*
X177761Y118282D01*
X177761Y107118D01*
X177772Y107047D01*
X177774Y106976D01*
X177792Y106927D01*
X177800Y106875D01*
X177834Y106812D01*
X177859Y106745D01*
X177891Y106704D01*
X177916Y106658D01*
X177968Y106609D01*
X178012Y106553D01*
X178056Y106524D01*
X178094Y106489D01*
X178159Y106458D01*
X178219Y106420D01*
X178270Y106407D01*
X178317Y106385D01*
X178388Y106377D01*
X178458Y106359D01*
X178510Y106364D01*
X178561Y106358D01*
X178632Y106373D01*
X178703Y106379D01*
X178751Y106399D01*
X178802Y106410D01*
X178863Y106447D01*
X178929Y106475D01*
X178985Y106520D01*
X179013Y106536D01*
X179028Y106554D01*
X179060Y106580D01*
X180165Y107685D01*
X183497Y109065D01*
X187103Y109065D01*
X190435Y107685D01*
X192985Y105135D01*
X194365Y101803D01*
X194365Y98197D01*
X192985Y94865D01*
X190435Y92315D01*
X187103Y90935D01*
X185540Y90935D01*
X185470Y90924D01*
X185398Y90922D01*
X185349Y90904D01*
X185298Y90896D01*
X185234Y90862D01*
X185167Y90837D01*
X185126Y90805D01*
X185080Y90780D01*
X185031Y90728D01*
X184975Y90684D01*
X184947Y90640D01*
X184911Y90602D01*
X184881Y90537D01*
X184842Y90477D01*
X184829Y90426D01*
X184807Y90379D01*
X184799Y90308D01*
X184782Y90238D01*
X184786Y90186D01*
X184780Y90135D01*
X184795Y90064D01*
X184801Y89993D01*
X184821Y89945D01*
X184832Y89894D01*
X184869Y89833D01*
X184897Y89767D01*
X184942Y89711D01*
X184959Y89683D01*
X184976Y89668D01*
X185002Y89636D01*
X187825Y86813D01*
X187825Y83874D01*
X187844Y83760D01*
X187861Y83644D01*
X187863Y83638D01*
X187864Y83632D01*
X187919Y83529D01*
X187972Y83424D01*
X187977Y83420D01*
X187980Y83414D01*
X188064Y83335D01*
X188148Y83252D01*
X188154Y83248D01*
X188158Y83245D01*
X188175Y83237D01*
X188295Y83171D01*
X190435Y82285D01*
X192985Y79735D01*
X194365Y76403D01*
X194365Y72797D01*
X192985Y69465D01*
X190435Y66915D01*
X187103Y65535D01*
X183497Y65535D01*
X180165Y66915D01*
X177615Y69465D01*
X176235Y72797D01*
X176235Y76403D01*
X177615Y79735D01*
X180165Y82285D01*
X182305Y83171D01*
X182405Y83233D01*
X182505Y83293D01*
X182509Y83297D01*
X182514Y83301D01*
X182589Y83390D01*
X182665Y83480D01*
X182667Y83485D01*
X182671Y83490D01*
X182713Y83598D01*
X182757Y83708D01*
X182758Y83715D01*
X182759Y83720D01*
X182760Y83738D01*
X182775Y83874D01*
X182775Y84406D01*
X182761Y84496D01*
X182753Y84587D01*
X182741Y84617D01*
X182736Y84649D01*
X182693Y84730D01*
X182657Y84814D01*
X182631Y84846D01*
X182620Y84866D01*
X182597Y84889D01*
X182552Y84944D01*
X172711Y94786D01*
X172711Y140286D01*
X172697Y140377D01*
X172689Y140467D01*
X172677Y140497D01*
X172672Y140529D01*
X172629Y140610D01*
X172593Y140694D01*
X172567Y140726D01*
X172556Y140747D01*
X172533Y140769D01*
X172488Y140825D01*
X169187Y144126D01*
X169187Y153810D01*
X169173Y153900D01*
X169165Y153991D01*
X169153Y154021D01*
X169148Y154053D01*
X169105Y154133D01*
X169069Y154217D01*
X169043Y154249D01*
X169032Y154270D01*
X169009Y154292D01*
X168964Y154348D01*
X160658Y162654D01*
X160600Y162696D01*
X160548Y162745D01*
X160501Y162767D01*
X160459Y162798D01*
X160390Y162819D01*
X160325Y162849D01*
X160273Y162855D01*
X160223Y162870D01*
X160152Y162868D01*
X160081Y162876D01*
X160030Y162865D01*
X159978Y162864D01*
X159910Y162839D01*
X159840Y162824D01*
X159795Y162797D01*
X159747Y162779D01*
X159691Y162734D01*
X159629Y162698D01*
X159595Y162658D01*
X159555Y162626D01*
X159516Y162565D01*
X159469Y162511D01*
X159450Y162462D01*
X159422Y162419D01*
X159404Y162349D01*
X159377Y162283D01*
X159369Y162211D01*
X159361Y162180D01*
X159363Y162157D01*
X159359Y162116D01*
X159359Y67081D01*
X157372Y65094D01*
X157330Y65036D01*
X157281Y64984D01*
X157259Y64937D01*
X157228Y64895D01*
X157207Y64826D01*
X157177Y64761D01*
X157171Y64709D01*
X157156Y64659D01*
X157158Y64588D01*
X157150Y64517D01*
X157161Y64466D01*
X157162Y64414D01*
X157187Y64346D01*
X157202Y64276D01*
X157229Y64231D01*
X157247Y64183D01*
X157292Y64127D01*
X157328Y64065D01*
X157368Y64031D01*
X157401Y63991D01*
X157461Y63952D01*
X157515Y63905D01*
X157564Y63886D01*
X157608Y63858D01*
X157677Y63840D01*
X157744Y63813D01*
X157815Y63805D01*
X157846Y63797D01*
X157869Y63799D01*
X157910Y63795D01*
X171513Y63795D01*
X171603Y63809D01*
X171694Y63817D01*
X171723Y63829D01*
X171755Y63834D01*
X171836Y63877D01*
X171920Y63913D01*
X171952Y63939D01*
X171973Y63950D01*
X171995Y63973D01*
X172051Y64018D01*
X173606Y65573D01*
X177394Y65573D01*
X180073Y62894D01*
X180073Y59106D01*
X177394Y56427D01*
X173606Y56427D01*
X172051Y57982D01*
X171977Y58035D01*
X171907Y58095D01*
X171877Y58107D01*
X171851Y58126D01*
X171764Y58153D01*
X171679Y58187D01*
X171638Y58191D01*
X171616Y58198D01*
X171584Y58197D01*
X171513Y58205D01*
X135733Y58205D01*
X135643Y58191D01*
X135552Y58183D01*
X135522Y58171D01*
X135490Y58166D01*
X135410Y58123D01*
X135326Y58087D01*
X135294Y58061D01*
X135273Y58050D01*
X135251Y58027D01*
X135195Y57982D01*
X128537Y51324D01*
X128495Y51266D01*
X128445Y51214D01*
X128423Y51167D01*
X128393Y51125D01*
X128372Y51056D01*
X128342Y50991D01*
X128336Y50939D01*
X128321Y50889D01*
X128323Y50818D01*
X128315Y50747D01*
X128326Y50696D01*
X128327Y50644D01*
X128352Y50576D01*
X128367Y50506D01*
X128394Y50461D01*
X128412Y50413D01*
X128456Y50357D01*
X128493Y50295D01*
X128533Y50261D01*
X128565Y50221D01*
X128626Y50182D01*
X128680Y50135D01*
X128728Y50116D01*
X128772Y50088D01*
X128842Y50070D01*
X128908Y50043D01*
X128980Y50035D01*
X129011Y50027D01*
X129034Y50029D01*
X129075Y50025D01*
X144142Y50025D01*
X145035Y49132D01*
X145035Y31868D01*
X144142Y30975D01*
X121878Y30975D01*
X120985Y31868D01*
X120985Y41935D01*
X120974Y42006D01*
X120972Y42078D01*
X120954Y42127D01*
X120946Y42178D01*
X120912Y42241D01*
X120887Y42309D01*
X120855Y42349D01*
X120830Y42395D01*
X120778Y42445D01*
X120734Y42501D01*
X120690Y42529D01*
X120652Y42565D01*
X120587Y42595D01*
X120527Y42634D01*
X120476Y42646D01*
X120429Y42668D01*
X120358Y42676D01*
X120288Y42694D01*
X120236Y42690D01*
X120185Y42695D01*
X120114Y42680D01*
X120043Y42675D01*
X119995Y42654D01*
X119944Y42643D01*
X119883Y42606D01*
X119817Y42578D01*
X119761Y42533D01*
X119733Y42517D01*
X119718Y42499D01*
X119686Y42473D01*
X118758Y41545D01*
X118705Y41471D01*
X118645Y41402D01*
X118633Y41372D01*
X118614Y41346D01*
X118587Y41258D01*
X118553Y41174D01*
X118549Y41133D01*
X118542Y41110D01*
X118543Y41078D01*
X118535Y41007D01*
X118535Y34368D01*
X117642Y33475D01*
X112378Y33475D01*
X112298Y33555D01*
X112282Y33567D01*
X112270Y33583D01*
X112192Y33633D01*
X112181Y33642D01*
X112173Y33645D01*
X112099Y33699D01*
X112080Y33705D01*
X112063Y33716D01*
X111962Y33741D01*
X111863Y33771D01*
X111843Y33771D01*
X111824Y33776D01*
X111721Y33768D01*
X111618Y33765D01*
X111599Y33758D01*
X111579Y33757D01*
X111484Y33716D01*
X111387Y33681D01*
X111371Y33668D01*
X111353Y33660D01*
X111276Y33599D01*
X111274Y33598D01*
X111272Y33596D01*
X111222Y33555D01*
X111142Y33475D01*
X105878Y33475D01*
X105798Y33555D01*
X105782Y33567D01*
X105770Y33583D01*
X105692Y33633D01*
X105681Y33642D01*
X105673Y33645D01*
X105599Y33699D01*
X105580Y33705D01*
X105563Y33716D01*
X105462Y33741D01*
X105363Y33771D01*
X105343Y33771D01*
X105324Y33776D01*
X105221Y33768D01*
X105118Y33765D01*
X105099Y33758D01*
X105079Y33757D01*
X104984Y33716D01*
X104887Y33681D01*
X104871Y33668D01*
X104853Y33660D01*
X104776Y33599D01*
X104774Y33598D01*
X104772Y33596D01*
X104722Y33555D01*
X104642Y33475D01*
X99378Y33475D01*
X99298Y33555D01*
X99282Y33567D01*
X99270Y33583D01*
X99192Y33633D01*
X99181Y33642D01*
X99173Y33645D01*
X99099Y33699D01*
X99080Y33705D01*
X99063Y33716D01*
X98962Y33741D01*
X98863Y33771D01*
X98843Y33771D01*
X98824Y33776D01*
X98721Y33768D01*
X98618Y33765D01*
X98599Y33758D01*
X98579Y33757D01*
X98484Y33716D01*
X98387Y33681D01*
X98371Y33668D01*
X98353Y33660D01*
X98276Y33599D01*
X98274Y33598D01*
X98272Y33596D01*
X98222Y33555D01*
X98142Y33475D01*
X93394Y33475D01*
X93304Y33461D01*
X93213Y33453D01*
X93183Y33441D01*
X93151Y33436D01*
X93070Y33393D01*
X92986Y33357D01*
X92954Y33331D01*
X92934Y33320D01*
X92911Y33297D01*
X92855Y33252D01*
X92570Y32967D01*
X91991Y32632D01*
X91344Y32459D01*
X90009Y32459D01*
X90009Y41512D01*
X90006Y41531D01*
X90008Y41551D01*
X89986Y41653D01*
X89970Y41755D01*
X89969Y41756D01*
X89981Y41783D01*
X89983Y41803D01*
X89991Y41821D01*
X90009Y41988D01*
X90009Y51041D01*
X91344Y51041D01*
X91909Y50889D01*
X91976Y50883D01*
X92042Y50866D01*
X92098Y50871D01*
X92154Y50865D01*
X92220Y50880D01*
X92287Y50885D01*
X92339Y50907D01*
X92393Y50920D01*
X92451Y50955D01*
X92513Y50982D01*
X92575Y51031D01*
X92603Y51048D01*
X92617Y51064D01*
X92644Y51087D01*
X100288Y58731D01*
X105210Y58731D01*
X105301Y58745D01*
X105391Y58753D01*
X105421Y58765D01*
X105453Y58770D01*
X105534Y58813D01*
X105618Y58849D01*
X105650Y58875D01*
X105671Y58886D01*
X105693Y58909D01*
X105749Y58954D01*
X107152Y60357D01*
X109012Y62217D01*
X119714Y62217D01*
X119804Y62231D01*
X119895Y62239D01*
X119925Y62251D01*
X119957Y62256D01*
X120038Y62299D01*
X120122Y62335D01*
X120154Y62361D01*
X120174Y62372D01*
X120197Y62395D01*
X120253Y62440D01*
X123719Y65906D01*
X123760Y65964D01*
X123810Y66016D01*
X123832Y66063D01*
X123862Y66105D01*
X123883Y66174D01*
X123913Y66239D01*
X123919Y66291D01*
X123935Y66341D01*
X123933Y66412D01*
X123941Y66483D01*
X123930Y66534D01*
X123928Y66586D01*
X123904Y66654D01*
X123888Y66724D01*
X123862Y66769D01*
X123844Y66817D01*
X123799Y66873D01*
X123762Y66935D01*
X123723Y66969D01*
X123690Y67009D01*
X123630Y67048D01*
X123575Y67095D01*
X123527Y67114D01*
X123483Y67142D01*
X123414Y67160D01*
X123347Y67187D01*
X123276Y67195D01*
X123245Y67203D01*
X123221Y67201D01*
X123180Y67205D01*
X61473Y67205D01*
X61383Y67191D01*
X61292Y67183D01*
X61262Y67171D01*
X61230Y67166D01*
X61149Y67123D01*
X61066Y67087D01*
X61033Y67061D01*
X61013Y67050D01*
X60991Y67027D01*
X60935Y66982D01*
X59955Y66003D01*
X59887Y65908D01*
X59817Y65814D01*
X59815Y65808D01*
X59812Y65803D01*
X59778Y65692D01*
X59741Y65580D01*
X59741Y65574D01*
X59739Y65568D01*
X59742Y65451D01*
X59743Y65334D01*
X59746Y65327D01*
X59746Y65322D01*
X59752Y65305D01*
X59790Y65173D01*
X61025Y62193D01*
X61025Y57807D01*
X59346Y53755D01*
X56245Y50654D01*
X52193Y48975D01*
X47807Y48975D01*
X43755Y50654D01*
X40654Y53755D01*
X38975Y57807D01*
X38975Y62193D01*
X40654Y66245D01*
X43755Y69346D01*
X47807Y71025D01*
X52193Y71025D01*
X55173Y69790D01*
X55287Y69764D01*
X55400Y69735D01*
X55407Y69735D01*
X55413Y69734D01*
X55529Y69745D01*
X55646Y69754D01*
X55651Y69757D01*
X55658Y69757D01*
X55765Y69805D01*
X55872Y69850D01*
X55878Y69855D01*
X55882Y69857D01*
X55896Y69870D01*
X56003Y69955D01*
X56982Y70935D01*
X58842Y72795D01*
X96274Y72795D01*
X96345Y72806D01*
X96417Y72808D01*
X96466Y72826D01*
X96517Y72834D01*
X96580Y72868D01*
X96648Y72893D01*
X96688Y72925D01*
X96734Y72950D01*
X96784Y73001D01*
X96840Y73046D01*
X96868Y73090D01*
X96904Y73128D01*
X96934Y73193D01*
X96973Y73253D01*
X96986Y73304D01*
X97007Y73351D01*
X97015Y73422D01*
X97033Y73492D01*
X97029Y73544D01*
X97035Y73595D01*
X97019Y73666D01*
X97014Y73737D01*
X96993Y73785D01*
X96982Y73836D01*
X96945Y73897D01*
X96917Y73963D01*
X96873Y74019D01*
X96856Y74047D01*
X96838Y74062D01*
X96813Y74094D01*
X96467Y74440D01*
X96132Y75019D01*
X95959Y75666D01*
X95959Y78477D01*
X101738Y78477D01*
X101758Y78480D01*
X101777Y78478D01*
X101879Y78500D01*
X101981Y78517D01*
X101998Y78526D01*
X102018Y78530D01*
X102107Y78583D01*
X102198Y78632D01*
X102212Y78646D01*
X102229Y78656D01*
X102296Y78735D01*
X102367Y78810D01*
X102376Y78828D01*
X102389Y78843D01*
X102428Y78939D01*
X102471Y79033D01*
X102473Y79053D01*
X102481Y79071D01*
X102499Y79238D01*
X102499Y80001D01*
X102501Y80001D01*
X102501Y79238D01*
X102504Y79218D01*
X102502Y79199D01*
X102524Y79097D01*
X102541Y78995D01*
X102550Y78978D01*
X102554Y78958D01*
X102607Y78869D01*
X102656Y78778D01*
X102670Y78764D01*
X102680Y78747D01*
X102759Y78680D01*
X102834Y78609D01*
X102852Y78600D01*
X102867Y78587D01*
X102963Y78548D01*
X103057Y78505D01*
X103077Y78503D01*
X103095Y78495D01*
X103262Y78477D01*
X109041Y78477D01*
X109041Y75666D01*
X108868Y75019D01*
X108533Y74440D01*
X108187Y74094D01*
X108146Y74036D01*
X108096Y73984D01*
X108074Y73937D01*
X108044Y73895D01*
X108023Y73826D01*
X107993Y73761D01*
X107987Y73709D01*
X107971Y73659D01*
X107973Y73588D01*
X107965Y73517D01*
X107977Y73466D01*
X107978Y73414D01*
X108002Y73346D01*
X108018Y73276D01*
X108044Y73231D01*
X108062Y73183D01*
X108107Y73127D01*
X108144Y73065D01*
X108183Y73031D01*
X108216Y72991D01*
X108276Y72952D01*
X108331Y72905D01*
X108379Y72886D01*
X108423Y72858D01*
X108492Y72840D01*
X108559Y72813D01*
X108630Y72805D01*
X108661Y72797D01*
X108685Y72799D01*
X108726Y72795D01*
X124545Y72795D01*
X124635Y72809D01*
X124726Y72817D01*
X124756Y72829D01*
X124788Y72834D01*
X124868Y72877D01*
X124952Y72913D01*
X124984Y72939D01*
X125005Y72950D01*
X125027Y72973D01*
X125083Y73018D01*
X126192Y74127D01*
X127971Y75906D01*
X128013Y75964D01*
X128062Y76016D01*
X128084Y76063D01*
X128115Y76105D01*
X128136Y76174D01*
X128166Y76239D01*
X128172Y76291D01*
X128187Y76341D01*
X128185Y76412D01*
X128193Y76483D01*
X128182Y76534D01*
X128181Y76586D01*
X128156Y76654D01*
X128141Y76724D01*
X128114Y76769D01*
X128096Y76817D01*
X128051Y76873D01*
X128015Y76935D01*
X127975Y76969D01*
X127943Y77009D01*
X127882Y77048D01*
X127828Y77095D01*
X127780Y77114D01*
X127736Y77142D01*
X127666Y77160D01*
X127600Y77187D01*
X127528Y77195D01*
X127497Y77203D01*
X127474Y77201D01*
X127433Y77205D01*
X123786Y77205D01*
X123766Y77202D01*
X123747Y77204D01*
X123645Y77182D01*
X123543Y77166D01*
X123526Y77156D01*
X123506Y77152D01*
X123417Y77099D01*
X123326Y77050D01*
X123312Y77036D01*
X123295Y77026D01*
X123228Y76947D01*
X123156Y76872D01*
X123148Y76854D01*
X123135Y76839D01*
X123096Y76743D01*
X123053Y76649D01*
X123051Y76629D01*
X123043Y76611D01*
X123025Y76444D01*
X123025Y75368D01*
X122132Y74475D01*
X112868Y74475D01*
X111975Y75368D01*
X111975Y84632D01*
X112868Y85525D01*
X122132Y85525D01*
X123025Y84632D01*
X123025Y83556D01*
X123028Y83536D01*
X123026Y83517D01*
X123048Y83415D01*
X123064Y83313D01*
X123074Y83296D01*
X123078Y83276D01*
X123131Y83187D01*
X123180Y83096D01*
X123194Y83082D01*
X123204Y83065D01*
X123283Y82998D01*
X123358Y82926D01*
X123376Y82918D01*
X123391Y82905D01*
X123487Y82866D01*
X123581Y82823D01*
X123601Y82821D01*
X123619Y82813D01*
X123786Y82795D01*
X129714Y82795D01*
X129734Y82798D01*
X129753Y82796D01*
X129855Y82818D01*
X129957Y82834D01*
X129974Y82844D01*
X129994Y82848D01*
X130083Y82901D01*
X130174Y82950D01*
X130188Y82964D01*
X130205Y82974D01*
X130272Y83053D01*
X130344Y83128D01*
X130352Y83146D01*
X130365Y83161D01*
X130404Y83257D01*
X130447Y83351D01*
X130449Y83371D01*
X130457Y83389D01*
X130475Y83556D01*
X130475Y84132D01*
X131368Y85025D01*
X138632Y85025D01*
X139462Y84195D01*
X139478Y84183D01*
X139490Y84167D01*
X139567Y84118D01*
X139582Y84106D01*
X139591Y84102D01*
X139661Y84051D01*
X139680Y84045D01*
X139697Y84034D01*
X139798Y84009D01*
X139897Y83979D01*
X139916Y83979D01*
X139936Y83974D01*
X140039Y83982D01*
X140142Y83985D01*
X140161Y83992D01*
X140181Y83993D01*
X140276Y84034D01*
X140373Y84069D01*
X140389Y84082D01*
X140407Y84090D01*
X140480Y84148D01*
X140484Y84150D01*
X140487Y84154D01*
X140538Y84195D01*
X141368Y85025D01*
X141444Y85025D01*
X141464Y85028D01*
X141483Y85026D01*
X141585Y85048D01*
X141687Y85064D01*
X141704Y85074D01*
X141724Y85078D01*
X141813Y85131D01*
X141904Y85180D01*
X141918Y85194D01*
X141935Y85204D01*
X142002Y85283D01*
X142074Y85358D01*
X142082Y85376D01*
X142095Y85391D01*
X142134Y85487D01*
X142177Y85581D01*
X142179Y85601D01*
X142187Y85619D01*
X142205Y85786D01*
X142205Y114214D01*
X142202Y114234D01*
X142204Y114253D01*
X142182Y114355D01*
X142166Y114457D01*
X142156Y114474D01*
X142152Y114494D01*
X142099Y114583D01*
X142050Y114674D01*
X142036Y114688D01*
X142026Y114705D01*
X141947Y114772D01*
X141872Y114844D01*
X141854Y114852D01*
X141839Y114865D01*
X141743Y114904D01*
X141649Y114947D01*
X141629Y114949D01*
X141611Y114957D01*
X141444Y114975D01*
X141368Y114975D01*
X140538Y115805D01*
X140522Y115817D01*
X140510Y115833D01*
X140422Y115889D01*
X140339Y115949D01*
X140320Y115955D01*
X140303Y115966D01*
X140202Y115991D01*
X140103Y116021D01*
X140084Y116021D01*
X140064Y116026D01*
X139961Y116018D01*
X139858Y116015D01*
X139839Y116008D01*
X139819Y116007D01*
X139724Y115966D01*
X139627Y115931D01*
X139611Y115918D01*
X139593Y115910D01*
X139462Y115805D01*
X138632Y114975D01*
X131368Y114975D01*
X130475Y115868D01*
X130475Y116444D01*
X130472Y116464D01*
X130474Y116483D01*
X130452Y116585D01*
X130436Y116687D01*
X130426Y116704D01*
X130422Y116724D01*
X130369Y116813D01*
X130320Y116904D01*
X130306Y116918D01*
X130296Y116935D01*
X130217Y117002D01*
X130142Y117074D01*
X130124Y117082D01*
X130109Y117095D01*
X130013Y117134D01*
X129919Y117177D01*
X129899Y117179D01*
X129881Y117187D01*
X129714Y117205D01*
X123786Y117205D01*
X123766Y117202D01*
X123747Y117204D01*
X123645Y117182D01*
X123543Y117166D01*
X123526Y117156D01*
X123506Y117152D01*
X123417Y117099D01*
X123326Y117050D01*
X123312Y117036D01*
X123295Y117026D01*
X123228Y116947D01*
X123156Y116872D01*
X123148Y116854D01*
X123135Y116839D01*
X123096Y116743D01*
X123053Y116649D01*
X123051Y116629D01*
X123043Y116611D01*
X123025Y116444D01*
X123025Y115368D01*
X122132Y114475D01*
X112868Y114475D01*
X111975Y115368D01*
X111975Y123685D01*
X111964Y123756D01*
X111962Y123828D01*
X111944Y123877D01*
X111936Y123928D01*
X111902Y123991D01*
X111877Y124059D01*
X111845Y124099D01*
X111820Y124145D01*
X111768Y124195D01*
X111724Y124251D01*
X111680Y124279D01*
X111642Y124315D01*
X111577Y124345D01*
X111517Y124384D01*
X111466Y124396D01*
X111419Y124418D01*
X111348Y124426D01*
X111278Y124444D01*
X111226Y124440D01*
X111175Y124445D01*
X111104Y124430D01*
X111033Y124425D01*
X110985Y124404D01*
X110934Y124393D01*
X110873Y124356D01*
X110807Y124328D01*
X110751Y124283D01*
X110723Y124267D01*
X110708Y124249D01*
X110676Y124223D01*
X108248Y121795D01*
X108200Y121729D01*
X108196Y121725D01*
X108194Y121721D01*
X108135Y121652D01*
X108123Y121622D01*
X108104Y121596D01*
X108077Y121508D01*
X108043Y121424D01*
X108039Y121383D01*
X108032Y121361D01*
X108033Y121328D01*
X108025Y121257D01*
X108025Y115368D01*
X107132Y114475D01*
X101243Y114475D01*
X101153Y114461D01*
X101062Y114453D01*
X101032Y114441D01*
X101000Y114436D01*
X100920Y114393D01*
X100836Y114357D01*
X100804Y114331D01*
X100783Y114320D01*
X100761Y114297D01*
X100705Y114252D01*
X73658Y87205D01*
X61284Y87205D01*
X61169Y87186D01*
X61053Y87169D01*
X61048Y87167D01*
X61041Y87166D01*
X60939Y87111D01*
X60834Y87058D01*
X60829Y87053D01*
X60824Y87050D01*
X60744Y86966D01*
X60662Y86882D01*
X60658Y86876D01*
X60655Y86872D01*
X60647Y86855D01*
X60581Y86735D01*
X59346Y83755D01*
X56245Y80654D01*
X52193Y78975D01*
X47807Y78975D01*
X43755Y80654D01*
X40654Y83755D01*
X38975Y87807D01*
X38975Y92193D01*
X40654Y96245D01*
X43755Y99346D01*
X47807Y101025D01*
X52193Y101025D01*
X56245Y99346D01*
X59346Y96245D01*
X60581Y93265D01*
X60642Y93165D01*
X60702Y93065D01*
X60707Y93061D01*
X60710Y93056D01*
X60800Y92981D01*
X60889Y92905D01*
X60895Y92903D01*
X60900Y92899D01*
X61008Y92857D01*
X61117Y92813D01*
X61125Y92812D01*
X61130Y92811D01*
X61148Y92810D01*
X61284Y92795D01*
X71027Y92795D01*
X71117Y92809D01*
X71208Y92817D01*
X71238Y92829D01*
X71270Y92834D01*
X71350Y92877D01*
X71434Y92913D01*
X71466Y92939D01*
X71487Y92950D01*
X71509Y92973D01*
X71565Y93018D01*
X96752Y118205D01*
X96805Y118279D01*
X96865Y118348D01*
X96877Y118378D01*
X96896Y118404D01*
X96923Y118491D01*
X96957Y118576D01*
X96961Y118617D01*
X96968Y118639D01*
X96967Y118672D01*
X96975Y118743D01*
X96975Y124632D01*
X97868Y125525D01*
X103757Y125525D01*
X103847Y125539D01*
X103938Y125547D01*
X103968Y125559D01*
X104000Y125564D01*
X104080Y125607D01*
X104164Y125643D01*
X104196Y125669D01*
X104217Y125680D01*
X104239Y125703D01*
X104295Y125748D01*
X106982Y128435D01*
X107035Y128509D01*
X107095Y128578D01*
X107107Y128608D01*
X107126Y128634D01*
X107153Y128721D01*
X107187Y128806D01*
X107191Y128847D01*
X107198Y128869D01*
X107197Y128902D01*
X107205Y128973D01*
X107205Y153714D01*
X107202Y153734D01*
X107204Y153753D01*
X107182Y153855D01*
X107166Y153957D01*
X107156Y153974D01*
X107152Y153994D01*
X107099Y154083D01*
X107050Y154174D01*
X107036Y154188D01*
X107026Y154205D01*
X106947Y154272D01*
X106872Y154344D01*
X106854Y154352D01*
X106839Y154365D01*
X106743Y154404D01*
X106649Y154447D01*
X106629Y154449D01*
X106611Y154457D01*
X106444Y154475D01*
X97868Y154475D01*
X96975Y155368D01*
X96975Y156444D01*
X96972Y156464D01*
X96974Y156483D01*
X96952Y156585D01*
X96936Y156687D01*
X96926Y156704D01*
X96922Y156724D01*
X96869Y156813D01*
X96820Y156904D01*
X96806Y156918D01*
X96796Y156935D01*
X96717Y157002D01*
X96642Y157074D01*
X96624Y157082D01*
X96609Y157095D01*
X96513Y157134D01*
X96419Y157177D01*
X96399Y157179D01*
X96381Y157187D01*
X96214Y157205D01*
X91473Y157205D01*
X91383Y157191D01*
X91292Y157183D01*
X91262Y157171D01*
X91230Y157166D01*
X91150Y157123D01*
X91066Y157087D01*
X91034Y157061D01*
X91013Y157050D01*
X90991Y157027D01*
X90935Y156982D01*
X80935Y146982D01*
X59955Y126003D01*
X59887Y125908D01*
X59817Y125814D01*
X59815Y125808D01*
X59812Y125803D01*
X59778Y125692D01*
X59741Y125580D01*
X59741Y125574D01*
X59739Y125568D01*
X59742Y125451D01*
X59743Y125334D01*
X59746Y125327D01*
X59746Y125322D01*
X59752Y125305D01*
X59790Y125173D01*
X61025Y122193D01*
X61025Y117807D01*
X59346Y113755D01*
X56245Y110654D01*
X52193Y108975D01*
X47807Y108975D01*
X43755Y110654D01*
X40654Y113755D01*
X38975Y117807D01*
X38975Y122193D01*
X40654Y126245D01*
X43755Y129346D01*
X47807Y131025D01*
X52193Y131025D01*
X55173Y129790D01*
X55287Y129764D01*
X55400Y129735D01*
X55407Y129735D01*
X55413Y129734D01*
X55529Y129745D01*
X55646Y129754D01*
X55651Y129757D01*
X55658Y129757D01*
X55765Y129805D01*
X55872Y129850D01*
X55878Y129855D01*
X55882Y129857D01*
X55896Y129870D01*
X56003Y129955D01*
X76982Y150935D01*
X77035Y151009D01*
X77095Y151078D01*
X77107Y151108D01*
X77126Y151134D01*
X77153Y151221D01*
X77187Y151306D01*
X77191Y151347D01*
X77198Y151369D01*
X77197Y151402D01*
X77205Y151473D01*
X77205Y159574D01*
X77191Y159664D01*
X77183Y159755D01*
X77171Y159784D01*
X77166Y159816D01*
X77123Y159897D01*
X77087Y159981D01*
X77061Y160013D01*
X77050Y160034D01*
X77027Y160056D01*
X76982Y160112D01*
X73141Y163953D01*
X73141Y205334D01*
X73127Y205425D01*
X73119Y205515D01*
X73107Y205545D01*
X73102Y205577D01*
X73059Y205658D01*
X73023Y205742D01*
X72997Y205774D01*
X72986Y205795D01*
X72963Y205817D01*
X72918Y205873D01*
X69235Y209556D01*
X69235Y232666D01*
X69232Y232686D01*
X69234Y232705D01*
X69212Y232807D01*
X69196Y232909D01*
X69186Y232926D01*
X69182Y232946D01*
X69129Y233035D01*
X69080Y233126D01*
X69066Y233140D01*
X69056Y233157D01*
X68977Y233224D01*
X68902Y233296D01*
X68884Y233304D01*
X68869Y233317D01*
X68773Y233356D01*
X68679Y233399D01*
X68659Y233401D01*
X68641Y233409D01*
X68474Y233427D01*
X66606Y233427D01*
X63927Y236106D01*
X63927Y239894D01*
X66606Y242573D01*
X70394Y242573D01*
X73073Y239894D01*
X73073Y237695D01*
X73087Y237605D01*
X73095Y237514D01*
X73107Y237484D01*
X73112Y237452D01*
X73155Y237372D01*
X73191Y237288D01*
X73217Y237255D01*
X73228Y237235D01*
X73251Y237213D01*
X73296Y237157D01*
X74128Y236325D01*
X74186Y236283D01*
X74238Y236233D01*
X74285Y236211D01*
X74327Y236181D01*
X74396Y236160D01*
X74461Y236130D01*
X74513Y236124D01*
X74563Y236109D01*
X74634Y236111D01*
X74705Y236103D01*
X74756Y236114D01*
X74808Y236115D01*
X74876Y236140D01*
X74946Y236155D01*
X74991Y236182D01*
X75039Y236200D01*
X75095Y236244D01*
X75157Y236281D01*
X75191Y236321D01*
X75231Y236353D01*
X75270Y236414D01*
X75317Y236468D01*
X75336Y236516D01*
X75364Y236560D01*
X75382Y236630D01*
X75409Y236696D01*
X75417Y236767D01*
X75425Y236799D01*
X75423Y236822D01*
X75427Y236863D01*
X75427Y239394D01*
X78106Y242073D01*
X81894Y242073D01*
X84573Y239394D01*
X84573Y235606D01*
X83018Y234051D01*
X82965Y233977D01*
X82905Y233907D01*
X82893Y233877D01*
X82874Y233851D01*
X82847Y233764D01*
X82813Y233679D01*
X82809Y233638D01*
X82802Y233616D01*
X82803Y233584D01*
X82795Y233513D01*
X82795Y230334D01*
X82798Y230314D01*
X82796Y230295D01*
X82818Y230193D01*
X82834Y230091D01*
X82844Y230074D01*
X82848Y230054D01*
X82901Y229965D01*
X82950Y229874D01*
X82964Y229860D01*
X82974Y229843D01*
X83053Y229776D01*
X83128Y229704D01*
X83146Y229696D01*
X83161Y229683D01*
X83257Y229644D01*
X83351Y229601D01*
X83371Y229599D01*
X83389Y229591D01*
X83556Y229573D01*
X84894Y229573D01*
X87573Y226894D01*
X87573Y223106D01*
X86839Y222372D01*
X86797Y222314D01*
X86748Y222262D01*
X86726Y222215D01*
X86696Y222173D01*
X86674Y222104D01*
X86644Y222039D01*
X86639Y221987D01*
X86623Y221937D01*
X86625Y221866D01*
X86617Y221795D01*
X86628Y221744D01*
X86630Y221692D01*
X86654Y221624D01*
X86669Y221554D01*
X86696Y221509D01*
X86714Y221461D01*
X86759Y221405D01*
X86796Y221343D01*
X86835Y221309D01*
X86868Y221269D01*
X86928Y221230D01*
X86982Y221183D01*
X87031Y221164D01*
X87075Y221136D01*
X87144Y221118D01*
X87211Y221091D01*
X87282Y221083D01*
X87313Y221075D01*
X87336Y221077D01*
X87377Y221073D01*
X87894Y221073D01*
X90573Y218394D01*
X90573Y216195D01*
X90587Y216105D01*
X90595Y216014D01*
X90607Y215984D01*
X90612Y215952D01*
X90655Y215872D01*
X90691Y215788D01*
X90717Y215756D01*
X90728Y215735D01*
X90751Y215713D01*
X90796Y215657D01*
X113302Y193151D01*
X113360Y193109D01*
X113412Y193059D01*
X113459Y193037D01*
X113501Y193007D01*
X113570Y192986D01*
X113635Y192956D01*
X113687Y192950D01*
X113737Y192935D01*
X113808Y192937D01*
X113879Y192929D01*
X113930Y192940D01*
X113982Y192941D01*
X114050Y192966D01*
X114120Y192981D01*
X114165Y193008D01*
X114213Y193026D01*
X114269Y193070D01*
X114331Y193107D01*
X114365Y193147D01*
X114405Y193179D01*
X114444Y193240D01*
X114491Y193294D01*
X114510Y193342D01*
X114538Y193386D01*
X114556Y193456D01*
X114583Y193522D01*
X114591Y193594D01*
X114599Y193625D01*
X114597Y193648D01*
X114601Y193689D01*
X114601Y197211D01*
X114587Y197301D01*
X114579Y197392D01*
X114567Y197422D01*
X114562Y197454D01*
X114519Y197535D01*
X114483Y197618D01*
X114457Y197651D01*
X114446Y197671D01*
X114423Y197693D01*
X114378Y197749D01*
X89475Y222652D01*
X89475Y232743D01*
X89461Y232833D01*
X89453Y232924D01*
X89441Y232953D01*
X89436Y232985D01*
X89393Y233066D01*
X89357Y233150D01*
X89331Y233182D01*
X89320Y233203D01*
X89297Y233225D01*
X89252Y233281D01*
X87427Y235106D01*
X87427Y238894D01*
X90106Y241573D01*
X93894Y241573D01*
X96573Y238894D01*
X96573Y235106D01*
X94748Y233281D01*
X94695Y233207D01*
X94635Y233137D01*
X94623Y233107D01*
X94604Y233081D01*
X94577Y232994D01*
X94543Y232909D01*
X94539Y232868D01*
X94532Y232846D01*
X94533Y232814D01*
X94525Y232743D01*
X94525Y225059D01*
X94539Y224969D01*
X94547Y224878D01*
X94559Y224849D01*
X94564Y224817D01*
X94607Y224736D01*
X94643Y224652D01*
X94669Y224620D01*
X94680Y224599D01*
X94703Y224577D01*
X94748Y224521D01*
X99176Y220093D01*
X99234Y220051D01*
X99286Y220002D01*
X99333Y219980D01*
X99375Y219949D01*
X99444Y219928D01*
X99509Y219898D01*
X99561Y219892D01*
X99611Y219877D01*
X99682Y219879D01*
X99753Y219871D01*
X99804Y219882D01*
X99856Y219883D01*
X99924Y219908D01*
X99994Y219923D01*
X100039Y219950D01*
X100087Y219968D01*
X100143Y220013D01*
X100205Y220050D01*
X100239Y220089D01*
X100279Y220122D01*
X100318Y220182D01*
X100365Y220236D01*
X100384Y220285D01*
X100412Y220329D01*
X100430Y220398D01*
X100457Y220465D01*
X100465Y220536D01*
X100473Y220567D01*
X100471Y220590D01*
X100475Y220631D01*
X100475Y233243D01*
X100461Y233333D01*
X100453Y233424D01*
X100441Y233453D01*
X100436Y233485D01*
X100393Y233566D01*
X100357Y233650D01*
X100331Y233682D01*
X100320Y233703D01*
X100297Y233725D01*
X100252Y233781D01*
X98427Y235606D01*
X98427Y239394D01*
X101106Y242073D01*
X104894Y242073D01*
X107573Y239394D01*
X107573Y235606D01*
X105748Y233781D01*
X105695Y233707D01*
X105635Y233637D01*
X105623Y233607D01*
X105604Y233581D01*
X105577Y233494D01*
X105543Y233409D01*
X105539Y233368D01*
X105532Y233346D01*
X105533Y233314D01*
X105525Y233243D01*
X105525Y219043D01*
X105539Y218953D01*
X105547Y218862D01*
X105559Y218832D01*
X105564Y218800D01*
X105607Y218720D01*
X105643Y218636D01*
X105669Y218604D01*
X105680Y218583D01*
X105703Y218561D01*
X105748Y218505D01*
X120398Y203855D01*
X120456Y203813D01*
X120508Y203764D01*
X120555Y203742D01*
X120597Y203711D01*
X120666Y203690D01*
X120731Y203660D01*
X120783Y203654D01*
X120833Y203639D01*
X120904Y203641D01*
X120975Y203633D01*
X121026Y203644D01*
X121078Y203645D01*
X121146Y203670D01*
X121216Y203685D01*
X121261Y203712D01*
X121309Y203730D01*
X121365Y203775D01*
X121427Y203811D01*
X121461Y203851D01*
X121501Y203883D01*
X121540Y203944D01*
X121587Y203998D01*
X121606Y204047D01*
X121634Y204090D01*
X121652Y204160D01*
X121679Y204226D01*
X121687Y204298D01*
X121695Y204329D01*
X121693Y204352D01*
X121697Y204393D01*
X121697Y297617D01*
X121697Y297621D01*
X121697Y299301D01*
X121693Y299327D01*
X121694Y299375D01*
X121693Y299382D01*
X121686Y299410D01*
X121685Y299438D01*
X121661Y299522D01*
X121658Y299544D01*
X121652Y299555D01*
X121639Y299600D01*
X121633Y299613D01*
X121631Y299617D01*
X121630Y299619D01*
X121618Y299638D01*
X121610Y299664D01*
X121577Y299714D01*
X121569Y299734D01*
X121545Y299764D01*
X121518Y299805D01*
X121514Y299810D01*
X121508Y299816D01*
X121504Y299822D01*
X121489Y299835D01*
X121464Y299865D01*
X121450Y299879D01*
X121450Y299880D01*
X112054Y309275D01*
X112051Y309277D01*
X110864Y310465D01*
X110864Y310466D01*
X109823Y311506D01*
X108697Y314229D01*
X108697Y315701D01*
X108697Y357000D01*
X108693Y357026D01*
X108694Y357075D01*
X108618Y357842D01*
X108611Y357870D01*
X108610Y357898D01*
X108564Y358059D01*
X107976Y359478D01*
X107941Y359534D01*
X107916Y359594D01*
X107864Y359659D01*
X107846Y359687D01*
X107831Y359700D01*
X107811Y359725D01*
X106725Y360811D01*
X106672Y360849D01*
X106625Y360895D01*
X106552Y360935D01*
X106525Y360954D01*
X106507Y360960D01*
X106478Y360976D01*
X105059Y361564D01*
X105032Y361570D01*
X105007Y361583D01*
X104842Y361618D01*
X104075Y361694D01*
X104048Y361692D01*
X104000Y361697D01*
X23000Y361697D01*
X22974Y361693D01*
X22925Y361694D01*
X22158Y361618D01*
X22130Y361611D01*
X22102Y361610D01*
X21941Y361564D01*
X20522Y360976D01*
X20466Y360941D01*
X20406Y360916D01*
X20341Y360864D01*
X20313Y360846D01*
X20300Y360831D01*
X20275Y360811D01*
X19189Y359725D01*
X19151Y359672D01*
X19105Y359625D01*
X19065Y359552D01*
X19046Y359525D01*
X19040Y359507D01*
X19024Y359478D01*
X18436Y358059D01*
X18430Y358032D01*
X18417Y358007D01*
X18382Y357842D01*
X18306Y357075D01*
X18308Y357048D01*
X18303Y357000D01*
X18303Y327257D01*
X18314Y327187D01*
X18316Y327115D01*
X18334Y327066D01*
X18342Y327015D01*
X18376Y326951D01*
X18401Y326884D01*
X18433Y326843D01*
X18458Y326797D01*
X18510Y326748D01*
X18554Y326692D01*
X18598Y326664D01*
X18636Y326628D01*
X18701Y326598D01*
X18761Y326559D01*
X18812Y326546D01*
X18859Y326524D01*
X18930Y326516D01*
X19000Y326499D01*
X19052Y326503D01*
X19103Y326497D01*
X19174Y326512D01*
X19245Y326518D01*
X19293Y326538D01*
X19344Y326549D01*
X19383Y326573D01*
X23244Y326573D01*
X25923Y323894D01*
X25939Y323882D01*
X25951Y323867D01*
X26039Y323811D01*
X26122Y323751D01*
X26141Y323745D01*
X26158Y323734D01*
X26259Y323709D01*
X26358Y323678D01*
X26377Y323679D01*
X26397Y323674D01*
X26500Y323682D01*
X26603Y323685D01*
X26622Y323691D01*
X26642Y323693D01*
X26737Y323733D01*
X26834Y323769D01*
X26850Y323782D01*
X26868Y323789D01*
X26999Y323894D01*
X28106Y325001D01*
X31894Y325001D01*
X34573Y322322D01*
X34573Y318863D01*
X34584Y318792D01*
X34586Y318720D01*
X34604Y318671D01*
X34612Y318620D01*
X34646Y318557D01*
X34671Y318489D01*
X34703Y318449D01*
X34728Y318403D01*
X34780Y318353D01*
X34824Y318297D01*
X34868Y318269D01*
X34906Y318233D01*
X34971Y318203D01*
X35031Y318164D01*
X35082Y318152D01*
X35129Y318130D01*
X35200Y318122D01*
X35270Y318104D01*
X35322Y318108D01*
X35373Y318103D01*
X35444Y318118D01*
X35515Y318123D01*
X35563Y318144D01*
X35614Y318155D01*
X35675Y318192D01*
X35741Y318220D01*
X35797Y318265D01*
X35825Y318281D01*
X35840Y318299D01*
X35872Y318325D01*
X36704Y319157D01*
X36757Y319231D01*
X36817Y319300D01*
X36829Y319330D01*
X36848Y319356D01*
X36875Y319444D01*
X36909Y319528D01*
X36913Y319569D01*
X36920Y319592D01*
X36919Y319624D01*
X36927Y319695D01*
X36927Y321894D01*
X39606Y324573D01*
X43394Y324573D01*
X46073Y321894D01*
X46073Y318572D01*
X46084Y318502D01*
X46086Y318430D01*
X46104Y318381D01*
X46112Y318330D01*
X46146Y318266D01*
X46171Y318199D01*
X46203Y318158D01*
X46228Y318112D01*
X46279Y318063D01*
X46324Y318007D01*
X46368Y317979D01*
X46406Y317943D01*
X46471Y317913D01*
X46531Y317874D01*
X46582Y317861D01*
X46629Y317839D01*
X46700Y317831D01*
X46770Y317814D01*
X46822Y317818D01*
X46873Y317812D01*
X46944Y317827D01*
X47015Y317833D01*
X47063Y317853D01*
X47114Y317864D01*
X47175Y317901D01*
X47241Y317929D01*
X47297Y317974D01*
X47325Y317991D01*
X47340Y318008D01*
X47372Y318034D01*
X47704Y318366D01*
X47757Y318440D01*
X47817Y318510D01*
X47829Y318540D01*
X47848Y318566D01*
X47875Y318653D01*
X47909Y318738D01*
X47913Y318779D01*
X47920Y318801D01*
X47919Y318833D01*
X47927Y318905D01*
X47927Y321822D01*
X50606Y324501D01*
X54394Y324501D01*
X57073Y321822D01*
X57073Y319363D01*
X57084Y319292D01*
X57086Y319220D01*
X57104Y319171D01*
X57112Y319120D01*
X57146Y319057D01*
X57171Y318989D01*
X57203Y318949D01*
X57228Y318903D01*
X57279Y318853D01*
X57324Y318797D01*
X57368Y318769D01*
X57406Y318733D01*
X57471Y318703D01*
X57531Y318664D01*
X57582Y318652D01*
X57629Y318630D01*
X57700Y318622D01*
X57770Y318604D01*
X57822Y318608D01*
X57873Y318603D01*
X57944Y318618D01*
X58015Y318623D01*
X58063Y318644D01*
X58114Y318655D01*
X58175Y318692D01*
X58241Y318720D01*
X58297Y318765D01*
X58325Y318781D01*
X58340Y318799D01*
X58372Y318825D01*
X58704Y319157D01*
X58757Y319231D01*
X58817Y319300D01*
X58829Y319330D01*
X58848Y319356D01*
X58875Y319443D01*
X58909Y319528D01*
X58913Y319569D01*
X58920Y319591D01*
X58919Y319624D01*
X58927Y319695D01*
X58927Y321894D01*
X61606Y324573D01*
X65394Y324573D01*
X68073Y321894D01*
X68073Y319363D01*
X68084Y319292D01*
X68086Y319220D01*
X68104Y319171D01*
X68112Y319120D01*
X68146Y319057D01*
X68171Y318989D01*
X68203Y318949D01*
X68228Y318903D01*
X68279Y318853D01*
X68324Y318797D01*
X68368Y318769D01*
X68406Y318733D01*
X68471Y318703D01*
X68531Y318664D01*
X68582Y318652D01*
X68629Y318630D01*
X68700Y318622D01*
X68770Y318604D01*
X68822Y318608D01*
X68873Y318603D01*
X68944Y318618D01*
X69015Y318623D01*
X69063Y318644D01*
X69114Y318655D01*
X69175Y318692D01*
X69241Y318720D01*
X69297Y318765D01*
X69325Y318781D01*
X69340Y318799D01*
X69372Y318825D01*
X69704Y319157D01*
X69757Y319231D01*
X69817Y319300D01*
X69829Y319330D01*
X69848Y319356D01*
X69875Y319443D01*
X69909Y319528D01*
X69913Y319569D01*
X69920Y319592D01*
X69919Y319624D01*
X69927Y319695D01*
X69927Y321894D01*
X72606Y324573D01*
X76394Y324573D01*
X79212Y321755D01*
X79228Y321743D01*
X79240Y321728D01*
X79328Y321672D01*
X79411Y321612D01*
X79430Y321606D01*
X79447Y321595D01*
X79548Y321570D01*
X79647Y321539D01*
X79666Y321540D01*
X79686Y321535D01*
X79789Y321543D01*
X79892Y321546D01*
X79911Y321552D01*
X79931Y321554D01*
X80026Y321594D01*
X80123Y321630D01*
X80139Y321643D01*
X80157Y321650D01*
X80288Y321755D01*
X83106Y324573D01*
X86894Y324573D01*
X89573Y321894D01*
X89573Y318644D01*
X89584Y318574D01*
X89586Y318502D01*
X89604Y318453D01*
X89612Y318402D01*
X89646Y318338D01*
X89671Y318271D01*
X89703Y318230D01*
X89728Y318184D01*
X89779Y318135D01*
X89824Y318079D01*
X89868Y318051D01*
X89906Y318015D01*
X89971Y317985D01*
X90031Y317946D01*
X90082Y317933D01*
X90129Y317911D01*
X90200Y317903D01*
X90270Y317886D01*
X90322Y317890D01*
X90373Y317884D01*
X90444Y317899D01*
X90515Y317905D01*
X90563Y317925D01*
X90614Y317936D01*
X90675Y317973D01*
X90741Y318001D01*
X90797Y318046D01*
X90825Y318063D01*
X90840Y318080D01*
X90872Y318106D01*
X91204Y318438D01*
X91257Y318512D01*
X91317Y318582D01*
X91329Y318612D01*
X91348Y318638D01*
X91375Y318725D01*
X91409Y318810D01*
X91413Y318851D01*
X91420Y318873D01*
X91419Y318905D01*
X91427Y318977D01*
X91427Y321894D01*
X94106Y324573D01*
X97894Y324573D01*
X100573Y321894D01*
X100573Y318106D01*
X97894Y315427D01*
X94977Y315427D01*
X94886Y315413D01*
X94796Y315405D01*
X94766Y315393D01*
X94734Y315388D01*
X94653Y315345D01*
X94569Y315309D01*
X94537Y315283D01*
X94516Y315272D01*
X94506Y315261D01*
X94504Y315260D01*
X94492Y315247D01*
X94438Y315204D01*
X74447Y295213D01*
X47048Y295213D01*
X47028Y295210D01*
X47009Y295212D01*
X46907Y295190D01*
X46805Y295174D01*
X46788Y295164D01*
X46768Y295160D01*
X46679Y295107D01*
X46588Y295058D01*
X46574Y295044D01*
X46557Y295034D01*
X46490Y294955D01*
X46418Y294880D01*
X46410Y294862D01*
X46397Y294847D01*
X46358Y294751D01*
X46315Y294657D01*
X46313Y294637D01*
X46305Y294619D01*
X46287Y294452D01*
X46287Y187053D01*
X33510Y174276D01*
X33457Y174202D01*
X33397Y174132D01*
X33385Y174102D01*
X33366Y174076D01*
X33339Y173989D01*
X33305Y173904D01*
X33301Y173863D01*
X33294Y173841D01*
X33295Y173809D01*
X33287Y173737D01*
X33287Y129495D01*
X33301Y129405D01*
X33309Y129314D01*
X33321Y129285D01*
X33326Y129253D01*
X33369Y129172D01*
X33405Y129088D01*
X33431Y129056D01*
X33442Y129035D01*
X33465Y129013D01*
X33510Y128957D01*
X35573Y126894D01*
X35573Y123106D01*
X32894Y120427D01*
X31377Y120427D01*
X31307Y120416D01*
X31235Y120414D01*
X31186Y120396D01*
X31135Y120388D01*
X31071Y120354D01*
X31004Y120329D01*
X30963Y120297D01*
X30917Y120272D01*
X30868Y120220D01*
X30812Y120176D01*
X30784Y120132D01*
X30748Y120094D01*
X30718Y120029D01*
X30679Y119969D01*
X30666Y119918D01*
X30644Y119871D01*
X30636Y119800D01*
X30619Y119730D01*
X30623Y119678D01*
X30617Y119627D01*
X30632Y119556D01*
X30638Y119485D01*
X30658Y119437D01*
X30669Y119386D01*
X30706Y119325D01*
X30734Y119259D01*
X30779Y119203D01*
X30796Y119175D01*
X30813Y119160D01*
X30839Y119128D01*
X32573Y117394D01*
X32573Y113606D01*
X29894Y110927D01*
X26079Y110927D01*
X26047Y110942D01*
X26005Y110972D01*
X25936Y110994D01*
X25871Y111024D01*
X25819Y111029D01*
X25770Y111045D01*
X25698Y111043D01*
X25627Y111051D01*
X25576Y111040D01*
X25524Y111038D01*
X25456Y111014D01*
X25386Y110999D01*
X25341Y110972D01*
X25293Y110954D01*
X25237Y110909D01*
X25175Y110872D01*
X25141Y110833D01*
X25101Y110800D01*
X25062Y110740D01*
X25015Y110686D01*
X24996Y110637D01*
X24968Y110593D01*
X24950Y110524D01*
X24923Y110457D01*
X24915Y110386D01*
X24907Y110355D01*
X24909Y110332D01*
X24905Y110291D01*
X24905Y109834D01*
X24908Y109814D01*
X24906Y109795D01*
X24928Y109693D01*
X24944Y109591D01*
X24954Y109574D01*
X24958Y109554D01*
X25011Y109465D01*
X25060Y109374D01*
X25074Y109360D01*
X25084Y109343D01*
X25163Y109276D01*
X25238Y109204D01*
X25256Y109196D01*
X25271Y109183D01*
X25367Y109144D01*
X25461Y109101D01*
X25481Y109099D01*
X25499Y109091D01*
X25666Y109073D01*
X25894Y109073D01*
X28573Y106394D01*
X28573Y102606D01*
X25894Y99927D01*
X22106Y99927D01*
X22094Y99939D01*
X22036Y99981D01*
X21984Y100030D01*
X21937Y100052D01*
X21895Y100082D01*
X21826Y100104D01*
X21761Y100134D01*
X21709Y100139D01*
X21659Y100155D01*
X21588Y100153D01*
X21517Y100161D01*
X21466Y100150D01*
X21414Y100148D01*
X21346Y100124D01*
X21276Y100109D01*
X21231Y100082D01*
X21183Y100064D01*
X21127Y100019D01*
X21065Y99982D01*
X21031Y99943D01*
X20991Y99910D01*
X20952Y99850D01*
X20905Y99796D01*
X20886Y99747D01*
X20858Y99703D01*
X20840Y99634D01*
X20813Y99567D01*
X20805Y99496D01*
X20797Y99465D01*
X20799Y99442D01*
X20795Y99401D01*
X20795Y98973D01*
X20809Y98883D01*
X20817Y98792D01*
X20829Y98762D01*
X20834Y98730D01*
X20877Y98650D01*
X20913Y98566D01*
X20939Y98534D01*
X20950Y98513D01*
X20973Y98491D01*
X21018Y98435D01*
X21657Y97796D01*
X21731Y97743D01*
X21800Y97683D01*
X21830Y97671D01*
X21856Y97652D01*
X21943Y97625D01*
X22028Y97591D01*
X22069Y97587D01*
X22091Y97580D01*
X22124Y97581D01*
X22195Y97573D01*
X24394Y97573D01*
X27073Y94894D01*
X27073Y91106D01*
X24394Y88427D01*
X20606Y88427D01*
X18030Y91003D01*
X17972Y91045D01*
X17920Y91094D01*
X17873Y91116D01*
X17831Y91146D01*
X17762Y91168D01*
X17697Y91198D01*
X17645Y91203D01*
X17595Y91219D01*
X17524Y91217D01*
X17453Y91225D01*
X17402Y91214D01*
X17350Y91212D01*
X17282Y91188D01*
X17212Y91173D01*
X17167Y91146D01*
X17119Y91128D01*
X17063Y91083D01*
X17001Y91046D01*
X16967Y91007D01*
X16927Y90974D01*
X16888Y90914D01*
X16841Y90860D01*
X16822Y90811D01*
X16794Y90767D01*
X16776Y90698D01*
X16749Y90631D01*
X16741Y90560D01*
X16733Y90529D01*
X16735Y90506D01*
X16731Y90465D01*
X16731Y87834D01*
X16734Y87814D01*
X16732Y87795D01*
X16754Y87693D01*
X16770Y87591D01*
X16780Y87574D01*
X16784Y87554D01*
X16837Y87465D01*
X16886Y87374D01*
X16900Y87360D01*
X16910Y87343D01*
X16989Y87276D01*
X17064Y87204D01*
X17082Y87196D01*
X17097Y87183D01*
X17193Y87144D01*
X17287Y87101D01*
X17307Y87099D01*
X17325Y87091D01*
X17492Y87073D01*
X19094Y87073D01*
X21773Y84394D01*
X21773Y80606D01*
X19094Y77927D01*
X15306Y77927D01*
X15094Y78139D01*
X15036Y78181D01*
X14984Y78230D01*
X14937Y78252D01*
X14895Y78282D01*
X14826Y78304D01*
X14761Y78334D01*
X14709Y78339D01*
X14660Y78355D01*
X14588Y78353D01*
X14517Y78361D01*
X14466Y78350D01*
X14414Y78348D01*
X14346Y78324D01*
X14276Y78309D01*
X14231Y78282D01*
X14183Y78264D01*
X14127Y78219D01*
X14065Y78182D01*
X14031Y78143D01*
X13991Y78110D01*
X13952Y78050D01*
X13905Y77995D01*
X13886Y77947D01*
X13858Y77903D01*
X13840Y77834D01*
X13813Y77767D01*
X13805Y77696D01*
X13797Y77665D01*
X13799Y77642D01*
X13795Y77601D01*
X13795Y76399D01*
X13806Y76329D01*
X13808Y76257D01*
X13826Y76208D01*
X13835Y76157D01*
X13868Y76093D01*
X13893Y76026D01*
X13925Y75985D01*
X13950Y75939D01*
X14002Y75890D01*
X14046Y75834D01*
X14090Y75806D01*
X14128Y75770D01*
X14193Y75740D01*
X14253Y75701D01*
X14304Y75688D01*
X14351Y75666D01*
X14422Y75658D01*
X14492Y75641D01*
X14544Y75645D01*
X14595Y75639D01*
X14666Y75654D01*
X14737Y75660D01*
X14785Y75680D01*
X14836Y75691D01*
X14897Y75728D01*
X14963Y75756D01*
X15019Y75801D01*
X15047Y75818D01*
X15062Y75835D01*
X15094Y75861D01*
X15306Y76073D01*
X19094Y76073D01*
X21773Y73394D01*
X21773Y69606D01*
X19094Y66927D01*
X15306Y66927D01*
X13751Y68482D01*
X13677Y68535D01*
X13607Y68595D01*
X13577Y68607D01*
X13551Y68626D01*
X13464Y68653D01*
X13379Y68687D01*
X13338Y68691D01*
X13316Y68698D01*
X13284Y68697D01*
X13213Y68705D01*
X10160Y68705D01*
X10140Y68702D01*
X10121Y68704D01*
X10019Y68682D01*
X9917Y68666D01*
X9900Y68656D01*
X9880Y68652D01*
X9791Y68599D01*
X9700Y68550D01*
X9686Y68536D01*
X9669Y68526D01*
X9602Y68447D01*
X9530Y68372D01*
X9522Y68354D01*
X9509Y68339D01*
X9470Y68243D01*
X9427Y68149D01*
X9425Y68129D01*
X9417Y68111D01*
X9399Y67944D01*
X9399Y65834D01*
X9402Y65814D01*
X9400Y65795D01*
X9422Y65693D01*
X9438Y65591D01*
X9448Y65574D01*
X9452Y65554D01*
X9505Y65465D01*
X9554Y65374D01*
X9568Y65360D01*
X9578Y65343D01*
X9657Y65276D01*
X9732Y65204D01*
X9750Y65196D01*
X9765Y65183D01*
X9861Y65144D01*
X9955Y65101D01*
X9975Y65099D01*
X9993Y65091D01*
X10160Y65073D01*
X11394Y65073D01*
X14073Y62394D01*
X14073Y58606D01*
X11394Y55927D01*
X7589Y55927D01*
X7540Y55974D01*
X7493Y55996D01*
X7451Y56026D01*
X7382Y56048D01*
X7317Y56078D01*
X7265Y56083D01*
X7216Y56099D01*
X7144Y56097D01*
X7073Y56105D01*
X7022Y56094D01*
X6970Y56092D01*
X6902Y56068D01*
X6832Y56053D01*
X6787Y56026D01*
X6739Y56008D01*
X6683Y55963D01*
X6621Y55926D01*
X6587Y55887D01*
X6547Y55854D01*
X6508Y55794D01*
X6461Y55740D01*
X6442Y55691D01*
X6414Y55647D01*
X6396Y55578D01*
X6369Y55511D01*
X6361Y55440D01*
X6353Y55409D01*
X6355Y55386D01*
X6351Y55345D01*
X6351Y54699D01*
X6365Y54608D01*
X6373Y54518D01*
X6385Y54488D01*
X6390Y54456D01*
X6433Y54375D01*
X6469Y54291D01*
X6495Y54259D01*
X6506Y54238D01*
X6529Y54216D01*
X6574Y54160D01*
X6938Y53796D01*
X7012Y53743D01*
X7082Y53683D01*
X7112Y53671D01*
X7138Y53652D01*
X7225Y53625D01*
X7310Y53591D01*
X7351Y53587D01*
X7373Y53580D01*
X7405Y53581D01*
X7477Y53573D01*
X10394Y53573D01*
X13073Y50894D01*
X13073Y47106D01*
X10394Y44427D01*
X6606Y44427D01*
X4602Y46431D01*
X4544Y46473D01*
X4492Y46522D01*
X4445Y46544D01*
X4403Y46574D01*
X4334Y46596D01*
X4269Y46626D01*
X4217Y46631D01*
X4167Y46647D01*
X4096Y46645D01*
X4025Y46653D01*
X3974Y46642D01*
X3922Y46640D01*
X3854Y46616D01*
X3784Y46601D01*
X3739Y46574D01*
X3691Y46556D01*
X3635Y46511D01*
X3573Y46474D01*
X3539Y46435D01*
X3499Y46402D01*
X3460Y46342D01*
X3413Y46288D01*
X3394Y46239D01*
X3366Y46195D01*
X3348Y46126D01*
X3321Y46059D01*
X3313Y45988D01*
X3305Y45957D01*
X3307Y45934D01*
X3303Y45893D01*
X3303Y12043D01*
X3317Y11952D01*
X3325Y11862D01*
X3337Y11832D01*
X3342Y11800D01*
X3385Y11719D01*
X3421Y11635D01*
X3447Y11603D01*
X3458Y11582D01*
X3481Y11560D01*
X3526Y11504D01*
X3557Y11473D01*
X3557Y10000D01*
X3561Y9974D01*
X3560Y9925D01*
X3670Y8817D01*
X3677Y8790D01*
X3677Y8761D01*
X3724Y8600D01*
X4572Y6552D01*
X4607Y6496D01*
X4632Y6436D01*
X4684Y6371D01*
X4702Y6343D01*
X4717Y6330D01*
X4737Y6305D01*
X6305Y4737D01*
X6358Y4699D01*
X6405Y4653D01*
X6478Y4613D01*
X6505Y4594D01*
X6523Y4588D01*
X6552Y4572D01*
X8600Y3724D01*
X8628Y3717D01*
X8653Y3704D01*
X8817Y3670D01*
X9925Y3560D01*
X9952Y3562D01*
X10000Y3557D01*
X11473Y3557D01*
X11504Y3526D01*
X11578Y3473D01*
X11648Y3413D01*
X11678Y3401D01*
X11704Y3382D01*
X11791Y3355D01*
X11876Y3321D01*
X11917Y3317D01*
X11939Y3310D01*
X11971Y3311D01*
X12043Y3303D01*
X60960Y3303D01*
X61056Y3318D01*
G37*
%LPC*%
G36*
X59878Y30975D02*
X59878Y30975D01*
X58985Y31868D01*
X58985Y49132D01*
X59878Y50025D01*
X82142Y50025D01*
X83060Y49106D01*
X83074Y49020D01*
X83086Y48999D01*
X83091Y48975D01*
X83143Y48890D01*
X83190Y48803D01*
X83207Y48786D01*
X83220Y48766D01*
X83296Y48702D01*
X83368Y48633D01*
X83390Y48623D01*
X83408Y48608D01*
X83501Y48572D01*
X83591Y48530D01*
X83615Y48527D01*
X83637Y48518D01*
X83737Y48514D01*
X83835Y48503D01*
X83859Y48508D01*
X83883Y48507D01*
X83979Y48534D01*
X84076Y48555D01*
X84097Y48567D01*
X84120Y48574D01*
X84202Y48630D01*
X84287Y48681D01*
X84303Y48699D01*
X84322Y48713D01*
X84382Y48793D01*
X84447Y48868D01*
X84456Y48890D01*
X84470Y48910D01*
X84531Y49066D01*
X84642Y49481D01*
X84977Y50060D01*
X85450Y50533D01*
X86029Y50868D01*
X86676Y51041D01*
X88011Y51041D01*
X88011Y41988D01*
X88014Y41969D01*
X88012Y41949D01*
X88034Y41847D01*
X88050Y41745D01*
X88051Y41744D01*
X88039Y41717D01*
X88037Y41697D01*
X88029Y41679D01*
X88011Y41512D01*
X88011Y32459D01*
X86676Y32459D01*
X86029Y32632D01*
X85450Y32967D01*
X84977Y33440D01*
X84642Y34019D01*
X84531Y34434D01*
X84521Y34456D01*
X84517Y34480D01*
X84471Y34568D01*
X84430Y34658D01*
X84414Y34676D01*
X84402Y34697D01*
X84330Y34766D01*
X84263Y34838D01*
X84242Y34850D01*
X84224Y34867D01*
X84134Y34909D01*
X84047Y34956D01*
X84023Y34960D01*
X84001Y34970D01*
X83902Y34981D01*
X83804Y34998D01*
X83780Y34995D01*
X83757Y34997D01*
X83660Y34976D01*
X83561Y34961D01*
X83540Y34950D01*
X83516Y34945D01*
X83431Y34894D01*
X83343Y34849D01*
X83326Y34831D01*
X83305Y34819D01*
X83240Y34743D01*
X83171Y34672D01*
X83161Y34650D01*
X83145Y34632D01*
X83108Y34540D01*
X83065Y34450D01*
X83062Y34426D01*
X83053Y34404D01*
X83035Y34237D01*
X83035Y31868D01*
X82142Y30975D01*
X59878Y30975D01*
G37*
%LPD*%
%LPC*%
G36*
X208897Y141735D02*
X208897Y141735D01*
X205565Y143115D01*
X203015Y145665D01*
X201635Y148997D01*
X201635Y152603D01*
X203015Y155935D01*
X205565Y158485D01*
X208897Y159865D01*
X212503Y159865D01*
X215835Y158485D01*
X218385Y155935D01*
X219765Y152603D01*
X219765Y148997D01*
X218385Y145665D01*
X215835Y143115D01*
X212503Y141735D01*
X208897Y141735D01*
G37*
%LPD*%
%LPC*%
G36*
X208897Y90935D02*
X208897Y90935D01*
X205565Y92315D01*
X203015Y94865D01*
X201635Y98197D01*
X201635Y101803D01*
X203015Y105135D01*
X205565Y107685D01*
X208897Y109065D01*
X212503Y109065D01*
X215835Y107685D01*
X218385Y105135D01*
X219765Y101803D01*
X219765Y98197D01*
X218385Y94865D01*
X215835Y92315D01*
X212503Y90935D01*
X208897Y90935D01*
G37*
%LPD*%
%LPC*%
G36*
X208897Y65535D02*
X208897Y65535D01*
X205565Y66915D01*
X203015Y69465D01*
X201635Y72797D01*
X201635Y76403D01*
X203015Y79735D01*
X205565Y82285D01*
X208897Y83665D01*
X212503Y83665D01*
X215835Y82285D01*
X218385Y79735D01*
X219765Y76403D01*
X219765Y72797D01*
X218385Y69465D01*
X215835Y66915D01*
X212503Y65535D01*
X208897Y65535D01*
G37*
%LPD*%
%LPC*%
G36*
X208897Y40135D02*
X208897Y40135D01*
X205565Y41515D01*
X203015Y44065D01*
X201635Y47397D01*
X201635Y51003D01*
X203015Y54335D01*
X205565Y56885D01*
X208897Y58265D01*
X212503Y58265D01*
X215835Y56885D01*
X218385Y54335D01*
X219765Y51003D01*
X219765Y47397D01*
X218385Y44065D01*
X215835Y41515D01*
X212503Y40135D01*
X208897Y40135D01*
G37*
%LPD*%
%LPC*%
G36*
X183497Y40135D02*
X183497Y40135D01*
X180165Y41515D01*
X177615Y44065D01*
X176235Y47397D01*
X176235Y51003D01*
X177615Y54335D01*
X180165Y56885D01*
X183497Y58265D01*
X187103Y58265D01*
X190435Y56885D01*
X192985Y54335D01*
X194365Y51003D01*
X194365Y47397D01*
X192985Y44065D01*
X190435Y41515D01*
X187103Y40135D01*
X183497Y40135D01*
G37*
%LPD*%
%LPC*%
G36*
X51523Y151523D02*
X51523Y151523D01*
X51523Y161950D01*
X52819Y161744D01*
X54622Y161159D01*
X56311Y160298D01*
X57844Y159184D01*
X59184Y157844D01*
X60298Y156311D01*
X61159Y154622D01*
X61744Y152819D01*
X61950Y151523D01*
X51523Y151523D01*
G37*
%LPD*%
%LPC*%
G36*
X38050Y151523D02*
X38050Y151523D01*
X38256Y152819D01*
X38841Y154622D01*
X39702Y156311D01*
X40816Y157844D01*
X42156Y159184D01*
X43689Y160298D01*
X45378Y161159D01*
X47181Y161744D01*
X48477Y161950D01*
X48477Y151523D01*
X38050Y151523D01*
G37*
%LPD*%
%LPC*%
G36*
X51523Y148477D02*
X51523Y148477D01*
X61950Y148477D01*
X61744Y147181D01*
X61159Y145378D01*
X60298Y143689D01*
X59184Y142156D01*
X57844Y140816D01*
X56311Y139702D01*
X54622Y138841D01*
X52819Y138256D01*
X51523Y138050D01*
X51523Y148477D01*
G37*
%LPD*%
%LPC*%
G36*
X47181Y138256D02*
X47181Y138256D01*
X45378Y138841D01*
X43689Y139702D01*
X42156Y140816D01*
X40816Y142156D01*
X39702Y143689D01*
X38841Y145378D01*
X38256Y147181D01*
X38050Y148477D01*
X48477Y148477D01*
X48477Y138050D01*
X47181Y138256D01*
G37*
%LPD*%
%LPC*%
G36*
X104023Y81523D02*
X104023Y81523D01*
X104023Y86541D01*
X106834Y86541D01*
X107481Y86368D01*
X108060Y86033D01*
X108533Y85560D01*
X108868Y84981D01*
X109041Y84334D01*
X109041Y81523D01*
X104023Y81523D01*
G37*
%LPD*%
%LPC*%
G36*
X95959Y81523D02*
X95959Y81523D01*
X95959Y84334D01*
X96132Y84981D01*
X96467Y85560D01*
X96940Y86033D01*
X97519Y86368D01*
X98166Y86541D01*
X100977Y86541D01*
X100977Y81523D01*
X95959Y81523D01*
G37*
%LPD*%
%LPC*%
G36*
X49999Y149999D02*
X49999Y149999D01*
X49999Y150001D01*
X50001Y150001D01*
X50001Y149999D01*
X49999Y149999D01*
G37*
%LPD*%
D10*
X0Y10000D02*
X0Y190000D01*
X10000Y200000D02*
X15000Y200000D01*
X15000Y357000D01*
X23000Y365000D02*
X104000Y365000D01*
X112000Y357000D02*
X112000Y315700D01*
X113200Y312800D02*
X123800Y302200D01*
X125000Y299300D02*
X125000Y200000D01*
X230000Y200000D01*
X240000Y190000D02*
X240000Y10000D01*
X230000Y0D02*
X10000Y0D01*
X15000Y357000D02*
X15002Y357193D01*
X15009Y357387D01*
X15021Y357579D01*
X15037Y357772D01*
X15058Y357964D01*
X15084Y358156D01*
X15114Y358347D01*
X15149Y358537D01*
X15188Y358726D01*
X15232Y358915D01*
X15281Y359102D01*
X15334Y359288D01*
X15392Y359472D01*
X15454Y359655D01*
X15520Y359837D01*
X15591Y360017D01*
X15666Y360195D01*
X15745Y360371D01*
X15829Y360546D01*
X15916Y360718D01*
X16008Y360888D01*
X16104Y361056D01*
X16204Y361221D01*
X16308Y361384D01*
X16416Y361545D01*
X16528Y361702D01*
X16643Y361857D01*
X16763Y362009D01*
X16885Y362159D01*
X17012Y362305D01*
X17142Y362448D01*
X17275Y362588D01*
X17412Y362725D01*
X17552Y362858D01*
X17695Y362988D01*
X17841Y363115D01*
X17991Y363237D01*
X18143Y363357D01*
X18298Y363472D01*
X18455Y363584D01*
X18616Y363692D01*
X18779Y363796D01*
X18944Y363896D01*
X19112Y363992D01*
X19282Y364084D01*
X19454Y364171D01*
X19629Y364255D01*
X19805Y364334D01*
X19983Y364409D01*
X20163Y364480D01*
X20345Y364546D01*
X20528Y364608D01*
X20712Y364666D01*
X20898Y364719D01*
X21085Y364768D01*
X21274Y364812D01*
X21463Y364851D01*
X21653Y364886D01*
X21844Y364916D01*
X22036Y364942D01*
X22228Y364963D01*
X22421Y364979D01*
X22613Y364991D01*
X22807Y364998D01*
X23000Y365000D01*
X104000Y365000D02*
X104193Y364998D01*
X104387Y364991D01*
X104579Y364979D01*
X104772Y364963D01*
X104964Y364942D01*
X105156Y364916D01*
X105347Y364886D01*
X105537Y364851D01*
X105726Y364812D01*
X105915Y364768D01*
X106102Y364719D01*
X106288Y364666D01*
X106472Y364608D01*
X106655Y364546D01*
X106837Y364480D01*
X107017Y364409D01*
X107195Y364334D01*
X107371Y364255D01*
X107546Y364171D01*
X107718Y364084D01*
X107888Y363992D01*
X108056Y363896D01*
X108221Y363796D01*
X108384Y363692D01*
X108545Y363584D01*
X108702Y363472D01*
X108857Y363357D01*
X109009Y363237D01*
X109159Y363115D01*
X109305Y362988D01*
X109448Y362858D01*
X109588Y362725D01*
X109725Y362588D01*
X109858Y362448D01*
X109988Y362305D01*
X110115Y362159D01*
X110237Y362009D01*
X110357Y361857D01*
X110472Y361702D01*
X110584Y361545D01*
X110692Y361384D01*
X110796Y361221D01*
X110896Y361056D01*
X110992Y360888D01*
X111084Y360718D01*
X111171Y360546D01*
X111255Y360371D01*
X111334Y360195D01*
X111409Y360017D01*
X111480Y359837D01*
X111546Y359655D01*
X111608Y359472D01*
X111666Y359288D01*
X111719Y359102D01*
X111768Y358915D01*
X111812Y358726D01*
X111851Y358537D01*
X111886Y358347D01*
X111916Y358156D01*
X111942Y357964D01*
X111963Y357772D01*
X111979Y357579D01*
X111991Y357387D01*
X111998Y357193D01*
X112000Y357000D01*
X112000Y315700D02*
X112002Y315577D01*
X112007Y315453D01*
X112017Y315329D01*
X112030Y315206D01*
X112046Y315083D01*
X112067Y314961D01*
X112091Y314840D01*
X112119Y314719D01*
X112150Y314599D01*
X112185Y314480D01*
X112224Y314363D01*
X112266Y314246D01*
X112312Y314131D01*
X112361Y314017D01*
X112413Y313905D01*
X112469Y313794D01*
X112528Y313686D01*
X112591Y313579D01*
X112656Y313474D01*
X112725Y313371D01*
X112797Y313270D01*
X112872Y313171D01*
X112950Y313075D01*
X113030Y312981D01*
X113114Y312889D01*
X113200Y312800D01*
X123800Y302200D02*
X123886Y302111D01*
X123970Y302019D01*
X124050Y301925D01*
X124128Y301829D01*
X124203Y301730D01*
X124275Y301629D01*
X124344Y301526D01*
X124409Y301421D01*
X124472Y301314D01*
X124531Y301206D01*
X124587Y301095D01*
X124639Y300983D01*
X124688Y300869D01*
X124734Y300754D01*
X124776Y300637D01*
X124815Y300520D01*
X124850Y300401D01*
X124881Y300281D01*
X124909Y300160D01*
X124933Y300039D01*
X124954Y299917D01*
X124970Y299794D01*
X124983Y299671D01*
X124993Y299547D01*
X124998Y299423D01*
X125000Y299300D01*
D11*
X0Y10000D02*
X3Y9758D01*
X12Y9517D01*
X26Y9276D01*
X47Y9035D01*
X73Y8795D01*
X105Y8555D01*
X143Y8316D01*
X186Y8079D01*
X236Y7842D01*
X291Y7607D01*
X351Y7373D01*
X418Y7141D01*
X489Y6910D01*
X567Y6681D01*
X650Y6454D01*
X738Y6229D01*
X832Y6006D01*
X931Y5786D01*
X1036Y5568D01*
X1145Y5353D01*
X1260Y5140D01*
X1380Y4930D01*
X1505Y4724D01*
X1635Y4520D01*
X1770Y4319D01*
X1910Y4122D01*
X2054Y3928D01*
X2203Y3738D01*
X2357Y3552D01*
X2515Y3369D01*
X2677Y3190D01*
X2844Y3015D01*
X3015Y2844D01*
X3190Y2677D01*
X3369Y2515D01*
X3552Y2357D01*
X3738Y2203D01*
X3928Y2054D01*
X4122Y1910D01*
X4319Y1770D01*
X4520Y1635D01*
X4724Y1505D01*
X4930Y1380D01*
X5140Y1260D01*
X5353Y1145D01*
X5568Y1036D01*
X5786Y931D01*
X6006Y832D01*
X6229Y738D01*
X6454Y650D01*
X6681Y567D01*
X6910Y489D01*
X7141Y418D01*
X7373Y351D01*
X7607Y291D01*
X7842Y236D01*
X8079Y186D01*
X8316Y143D01*
X8555Y105D01*
X8795Y73D01*
X9035Y47D01*
X9276Y26D01*
X9517Y12D01*
X9758Y3D01*
X10000Y0D01*
D10*
X0Y190000D02*
X3Y190242D01*
X12Y190483D01*
X26Y190724D01*
X47Y190965D01*
X73Y191205D01*
X105Y191445D01*
X143Y191684D01*
X186Y191921D01*
X236Y192158D01*
X291Y192393D01*
X351Y192627D01*
X418Y192859D01*
X489Y193090D01*
X567Y193319D01*
X650Y193546D01*
X738Y193771D01*
X832Y193994D01*
X931Y194214D01*
X1036Y194432D01*
X1145Y194647D01*
X1260Y194860D01*
X1380Y195070D01*
X1505Y195276D01*
X1635Y195480D01*
X1770Y195681D01*
X1910Y195878D01*
X2054Y196072D01*
X2203Y196262D01*
X2357Y196448D01*
X2515Y196631D01*
X2677Y196810D01*
X2844Y196985D01*
X3015Y197156D01*
X3190Y197323D01*
X3369Y197485D01*
X3552Y197643D01*
X3738Y197797D01*
X3928Y197946D01*
X4122Y198090D01*
X4319Y198230D01*
X4520Y198365D01*
X4724Y198495D01*
X4930Y198620D01*
X5140Y198740D01*
X5353Y198855D01*
X5568Y198964D01*
X5786Y199069D01*
X6006Y199168D01*
X6229Y199262D01*
X6454Y199350D01*
X6681Y199433D01*
X6910Y199511D01*
X7141Y199582D01*
X7373Y199649D01*
X7607Y199709D01*
X7842Y199764D01*
X8079Y199814D01*
X8316Y199857D01*
X8555Y199895D01*
X8795Y199927D01*
X9035Y199953D01*
X9276Y199974D01*
X9517Y199988D01*
X9758Y199997D01*
X10000Y200000D01*
D11*
X230000Y200000D02*
X230242Y199997D01*
X230483Y199988D01*
X230724Y199974D01*
X230965Y199953D01*
X231205Y199927D01*
X231445Y199895D01*
X231684Y199857D01*
X231921Y199814D01*
X232158Y199764D01*
X232393Y199709D01*
X232627Y199649D01*
X232859Y199582D01*
X233090Y199511D01*
X233319Y199433D01*
X233546Y199350D01*
X233771Y199262D01*
X233994Y199168D01*
X234214Y199069D01*
X234432Y198964D01*
X234647Y198855D01*
X234860Y198740D01*
X235070Y198620D01*
X235276Y198495D01*
X235480Y198365D01*
X235681Y198230D01*
X235878Y198090D01*
X236072Y197946D01*
X236262Y197797D01*
X236448Y197643D01*
X236631Y197485D01*
X236810Y197323D01*
X236985Y197156D01*
X237156Y196985D01*
X237323Y196810D01*
X237485Y196631D01*
X237643Y196448D01*
X237797Y196262D01*
X237946Y196072D01*
X238090Y195878D01*
X238230Y195681D01*
X238365Y195480D01*
X238495Y195276D01*
X238620Y195070D01*
X238740Y194860D01*
X238855Y194647D01*
X238964Y194432D01*
X239069Y194214D01*
X239168Y193994D01*
X239262Y193771D01*
X239350Y193546D01*
X239433Y193319D01*
X239511Y193090D01*
X239582Y192859D01*
X239649Y192627D01*
X239709Y192393D01*
X239764Y192158D01*
X239814Y191921D01*
X239857Y191684D01*
X239895Y191445D01*
X239927Y191205D01*
X239953Y190965D01*
X239974Y190724D01*
X239988Y190483D01*
X239997Y190242D01*
X240000Y190000D01*
X240000Y10000D02*
X239997Y9758D01*
X239988Y9517D01*
X239974Y9276D01*
X239953Y9035D01*
X239927Y8795D01*
X239895Y8555D01*
X239857Y8316D01*
X239814Y8079D01*
X239764Y7842D01*
X239709Y7607D01*
X239649Y7373D01*
X239582Y7141D01*
X239511Y6910D01*
X239433Y6681D01*
X239350Y6454D01*
X239262Y6229D01*
X239168Y6006D01*
X239069Y5786D01*
X238964Y5568D01*
X238855Y5353D01*
X238740Y5140D01*
X238620Y4930D01*
X238495Y4724D01*
X238365Y4520D01*
X238230Y4319D01*
X238090Y4122D01*
X237946Y3928D01*
X237797Y3738D01*
X237643Y3552D01*
X237485Y3369D01*
X237323Y3190D01*
X237156Y3015D01*
X236985Y2844D01*
X236810Y2677D01*
X236631Y2515D01*
X236448Y2357D01*
X236262Y2203D01*
X236072Y2054D01*
X235878Y1910D01*
X235681Y1770D01*
X235480Y1635D01*
X235276Y1505D01*
X235070Y1380D01*
X234860Y1260D01*
X234647Y1145D01*
X234432Y1036D01*
X234214Y931D01*
X233994Y832D01*
X233771Y738D01*
X233546Y650D01*
X233319Y567D01*
X233090Y489D01*
X232859Y418D01*
X232627Y351D01*
X232393Y291D01*
X232158Y236D01*
X231921Y186D01*
X231684Y143D01*
X231445Y105D01*
X231205Y73D01*
X230965Y47D01*
X230724Y26D01*
X230483Y12D01*
X230242Y3D01*
X230000Y0D01*
D12*
X210700Y49200D03*
X185300Y49200D03*
X210700Y74600D03*
X185300Y74600D03*
X210700Y100000D03*
X185300Y100000D03*
X210700Y125400D03*
X185300Y125400D03*
X210700Y150800D03*
X185300Y150800D03*
D13*
X138010Y15000D03*
X66010Y15000D03*
D14*
X89010Y41750D03*
X95510Y41750D03*
X102010Y41750D03*
X108510Y41750D03*
X115010Y41750D03*
D15*
X71010Y40500D03*
X133010Y40500D03*
D16*
X117500Y80000D03*
X102500Y80000D03*
X117500Y160000D03*
X102500Y160000D03*
X117500Y120000D03*
X102500Y120000D03*
D17*
X145000Y80000D03*
X135000Y80000D03*
X145000Y160000D03*
X135000Y160000D03*
X145000Y120000D03*
X135000Y120000D03*
D18*
X50000Y150000D03*
X50000Y120000D03*
X50000Y90000D03*
X50000Y60000D03*
D19*
X58000Y237500D03*
X83000Y225000D03*
D20*
X95510Y50000D02*
X95510Y41750D01*
X106683Y55936D02*
X110169Y59422D01*
X106683Y55936D02*
X101446Y55936D01*
X95510Y50000D01*
X110862Y183376D02*
X132371Y183376D01*
X80158Y214080D02*
X80158Y218920D01*
X83000Y221762D01*
X83000Y225000D01*
X80158Y214080D02*
X110862Y183376D01*
X152500Y163247D02*
X152500Y69922D01*
X152500Y163247D02*
X132371Y183376D01*
X152500Y69922D02*
X151706Y69128D01*
X130893Y69128D01*
X121187Y59422D01*
X110169Y59422D01*
D19*
X86000Y216500D03*
D20*
X102010Y50000D02*
X102010Y41750D01*
X115060Y187440D02*
X86000Y216500D01*
X115060Y187440D02*
X134054Y187440D01*
X111853Y55358D02*
X108367Y51872D01*
X103882Y51872D01*
X102010Y50000D01*
X156564Y164931D02*
X134054Y187440D01*
X156564Y164931D02*
X156564Y68239D01*
X153389Y65064D01*
X132577Y65064D01*
X122871Y55358D01*
X111853Y55358D01*
D19*
X103000Y237500D03*
D11*
X120682Y200000D02*
X120682Y195682D01*
X130000Y195682D01*
D21*
X140418Y195682D01*
X175236Y146631D02*
X181131Y140736D01*
X175236Y146631D02*
X175236Y154969D01*
X178184Y157916D01*
X140418Y195682D01*
X195364Y140736D02*
X210700Y125400D01*
X195364Y140736D02*
X181131Y140736D01*
X120682Y200000D02*
X103000Y217682D01*
X103000Y237500D01*
D19*
X92000Y237000D03*
D11*
X117126Y192126D02*
X118002Y191250D01*
X135633Y191250D01*
D21*
X185300Y85767D02*
X185300Y74600D01*
X185300Y85767D02*
X175236Y95831D01*
X175236Y141648D01*
X171712Y145172D01*
X171712Y155171D01*
X135633Y191250D01*
X117126Y192126D02*
X117126Y198572D01*
X92000Y223698D02*
X92000Y237000D01*
X92000Y223698D02*
X117126Y198572D01*
D20*
X102500Y160000D02*
X90000Y160000D01*
D19*
X68500Y238000D03*
D20*
X90000Y160000D02*
X80000Y150000D01*
X50000Y120000D01*
X78317Y162730D02*
X75936Y165111D01*
X75936Y206807D01*
X72030Y210713D01*
X78317Y162730D02*
X80000Y162730D01*
X72030Y234470D02*
X68500Y238000D01*
X72030Y234470D02*
X72030Y210713D01*
X80000Y162730D02*
X80000Y150000D01*
X117500Y80000D02*
X135000Y80000D01*
X135000Y160000D02*
X117500Y160000D01*
X117500Y120000D02*
X135000Y120000D01*
D19*
X96000Y320000D03*
D10*
X73500Y297500D01*
X44000Y297500D01*
X44000Y188000D01*
X31000Y175000D01*
X31000Y125000D01*
D19*
X31000Y125000D03*
X85000Y320000D03*
D10*
X40500Y300000D02*
X40500Y189500D01*
D19*
X28000Y115500D03*
D10*
X65548Y300548D02*
X85000Y320000D01*
X65548Y300548D02*
X42737Y300548D01*
X42189Y300000D01*
X40500Y300000D01*
X25666Y174666D02*
X25666Y117834D01*
X25666Y174666D02*
X40500Y189500D01*
X25666Y117834D02*
X28000Y115500D01*
D19*
X74500Y320000D03*
X24000Y104500D03*
D20*
X36844Y303410D02*
X38881Y303410D01*
X36844Y303410D02*
X36844Y190873D01*
X58604Y304104D02*
X74500Y320000D01*
X58604Y304104D02*
X39575Y304104D01*
X38881Y303410D01*
X22110Y176139D02*
X22110Y106390D01*
X22110Y176139D02*
X36844Y190873D01*
X22110Y106390D02*
X24000Y104500D01*
D19*
X63500Y320000D03*
D20*
X18000Y181500D02*
X18500Y181000D01*
X18000Y181500D02*
X18000Y97500D01*
X22500Y93000D01*
D19*
X22500Y93000D03*
D20*
X32780Y307474D02*
X37198Y307474D01*
X32780Y307474D02*
X32780Y192556D01*
X21224Y181000D01*
X18500Y181000D01*
X51668Y308168D02*
X63500Y320000D01*
X51668Y308168D02*
X37892Y308168D01*
X37198Y307474D01*
D19*
X52500Y319928D03*
X17200Y82500D03*
D10*
X14478Y183007D02*
X14478Y185522D01*
X14478Y183007D02*
X14444Y182973D01*
X14444Y85256D01*
X17200Y82500D01*
X29224Y309594D02*
X30660Y311030D01*
X35725Y311030D01*
X29224Y309594D02*
X29224Y194029D01*
X20717Y185522D01*
X14478Y185522D01*
X44296Y311724D02*
X52500Y319928D01*
X44296Y311724D02*
X36419Y311724D01*
X35725Y311030D01*
D19*
X41500Y320000D03*
D20*
X25668Y195581D02*
X19165Y189078D01*
X11000Y71500D02*
X11000Y71500D01*
X17200Y71500D01*
D19*
X17200Y71500D03*
D20*
X11000Y71500D02*
X11000Y83671D01*
X10888Y184446D02*
X10922Y184480D01*
X10888Y184446D02*
X10888Y83783D01*
X11000Y83671D01*
X25668Y311067D02*
X29187Y314586D01*
X25668Y311067D02*
X25668Y195581D01*
X29187Y314586D02*
X34252Y314586D01*
X36780Y315280D02*
X41500Y320000D01*
X36780Y315280D02*
X34946Y315280D01*
X34252Y314586D01*
X10924Y187120D02*
X10922Y186933D01*
X10922Y184480D01*
X12881Y189078D02*
X19165Y189078D01*
X12881Y189078D02*
X10924Y187120D01*
D19*
X30000Y320428D03*
D10*
X7112Y62888D02*
X9500Y60500D01*
D19*
X9500Y60500D03*
D10*
X17692Y192634D02*
X22112Y197054D01*
X26684Y317112D02*
X30000Y320428D01*
X26684Y317112D02*
X25554Y317112D01*
X22112Y313670D02*
X22112Y197054D01*
X22112Y313670D02*
X25554Y317112D01*
X17692Y192634D02*
X11263Y192634D01*
X7407Y188778D01*
X7407Y188632D01*
X7381Y188606D01*
X7366Y186949D01*
X7336Y186919D01*
X7112Y186653D02*
X7112Y62888D01*
X7336Y186877D02*
X7336Y186919D01*
X7336Y186877D02*
X7112Y186653D01*
D19*
X21350Y322000D03*
D10*
X4064Y53436D02*
X8500Y49000D01*
D19*
X8500Y49000D03*
D10*
X21350Y318690D02*
X21350Y322000D01*
X21350Y318690D02*
X19064Y316404D01*
X19064Y198317D01*
X4359Y189895D02*
X4318Y188211D01*
X4064Y187957D01*
X4064Y53436D01*
X16429Y195682D02*
X19064Y198317D01*
X16429Y195682D02*
X10000Y195682D01*
X4359Y190041D01*
X4359Y189895D01*
D19*
X175500Y61000D03*
X124500Y176500D03*
D20*
X145000Y160000D02*
X145000Y120000D01*
X139157Y73706D02*
X138706Y73706D01*
X139157Y73706D02*
X140794Y75343D01*
X140794Y75794D01*
X145000Y80000D01*
X145000Y120000D01*
X130500Y170500D02*
X124500Y176500D01*
X60000Y70000D02*
X50000Y60000D01*
X140794Y164206D02*
X140794Y164657D01*
X140794Y164206D02*
X145000Y160000D01*
X134951Y170500D02*
X130500Y170500D01*
X134951Y170500D02*
X140794Y164657D01*
X134260Y61000D02*
X175500Y61000D01*
X119716Y46456D02*
X115010Y41750D01*
X119716Y46456D02*
X119716Y49657D01*
X121353Y51294D01*
X124554Y51294D01*
X134260Y61000D01*
X126018Y70000D02*
X60000Y70000D01*
X126018Y70000D02*
X129210Y73192D01*
X138192Y73192D01*
X138706Y73706D01*
X102500Y120000D02*
X72500Y90000D01*
X50000Y90000D01*
D19*
X80000Y237500D03*
D20*
X80000Y230262D01*
X76094Y212397D02*
X80000Y208491D01*
X80000Y166794D01*
X76094Y226356D02*
X80000Y230262D01*
X76094Y226356D02*
X76094Y212397D01*
X110000Y127500D02*
X102500Y120000D01*
X109294Y165157D02*
X107657Y166794D01*
X109294Y165157D02*
X109294Y160706D01*
X110000Y160000D01*
X107657Y166794D02*
X80000Y166794D01*
X110000Y160000D02*
X110000Y130000D01*
X110000Y127500D01*
M02*
