G04 EAGLE Gerber RS-274X export*
G75*
%MOMM*%
%FSLAX34Y34*%
%LPD*%
%AMOC8*
5,1,8,0,0,1.08239X$1,22.5*%
G01*
%ADD10C,0.152400*%
%ADD11C,0.203200*%
%ADD12C,1.508000*%
%ADD13C,1.950000*%
%ADD14R,0.800000X2.900000*%
%ADD15R,0.800000X3.200000*%
%ADD16R,0.800000X3.300000*%
%ADD17R,3.330000X0.700000*%
%ADD18R,1.100000X0.700000*%
%ADD19R,1.830000X1.140000*%
%ADD20R,2.800000X0.860000*%
%ADD21C,0.254000*%
%ADD22C,0.609600*%

G36*
X61056Y3318D02*
X61056Y3318D01*
X61153Y3328D01*
X61177Y3338D01*
X61203Y3342D01*
X61289Y3388D01*
X61378Y3428D01*
X61397Y3445D01*
X61421Y3458D01*
X61488Y3528D01*
X61559Y3594D01*
X61572Y3617D01*
X61590Y3636D01*
X61631Y3724D01*
X61678Y3810D01*
X61683Y3835D01*
X61694Y3859D01*
X61704Y3956D01*
X61722Y4052D01*
X61718Y4078D01*
X61721Y4103D01*
X61700Y4199D01*
X61686Y4295D01*
X61674Y4318D01*
X61668Y4344D01*
X61618Y4427D01*
X61574Y4514D01*
X61556Y4533D01*
X61542Y4555D01*
X61468Y4618D01*
X61399Y4686D01*
X61370Y4702D01*
X61355Y4715D01*
X61325Y4727D01*
X61252Y4767D01*
X59623Y5442D01*
X56452Y8613D01*
X54735Y12757D01*
X54735Y17243D01*
X56452Y21387D01*
X59623Y24558D01*
X63767Y26275D01*
X68253Y26275D01*
X72397Y24558D01*
X75568Y21387D01*
X77285Y17243D01*
X77285Y12757D01*
X75568Y8613D01*
X72397Y5442D01*
X70768Y4767D01*
X70685Y4716D01*
X70599Y4670D01*
X70582Y4652D01*
X70559Y4638D01*
X70497Y4562D01*
X70430Y4492D01*
X70419Y4468D01*
X70402Y4448D01*
X70368Y4357D01*
X70326Y4269D01*
X70324Y4243D01*
X70314Y4219D01*
X70310Y4121D01*
X70299Y4025D01*
X70305Y3999D01*
X70304Y3973D01*
X70331Y3879D01*
X70352Y3784D01*
X70365Y3762D01*
X70372Y3737D01*
X70428Y3657D01*
X70478Y3573D01*
X70498Y3556D01*
X70513Y3535D01*
X70591Y3476D01*
X70665Y3413D01*
X70689Y3403D01*
X70710Y3388D01*
X70802Y3358D01*
X70893Y3321D01*
X70925Y3318D01*
X70944Y3312D01*
X70977Y3312D01*
X71060Y3303D01*
X132960Y3303D01*
X133056Y3318D01*
X133153Y3328D01*
X133177Y3338D01*
X133203Y3342D01*
X133289Y3388D01*
X133378Y3428D01*
X133397Y3445D01*
X133421Y3458D01*
X133488Y3528D01*
X133559Y3594D01*
X133572Y3617D01*
X133590Y3636D01*
X133631Y3724D01*
X133678Y3810D01*
X133683Y3835D01*
X133694Y3859D01*
X133704Y3956D01*
X133722Y4052D01*
X133718Y4078D01*
X133721Y4103D01*
X133700Y4199D01*
X133686Y4295D01*
X133674Y4318D01*
X133668Y4344D01*
X133618Y4427D01*
X133574Y4514D01*
X133556Y4533D01*
X133542Y4555D01*
X133468Y4618D01*
X133399Y4686D01*
X133370Y4702D01*
X133355Y4715D01*
X133325Y4727D01*
X133252Y4767D01*
X131623Y5442D01*
X128452Y8613D01*
X126735Y12757D01*
X126735Y17243D01*
X128452Y21387D01*
X131623Y24558D01*
X135767Y26275D01*
X140253Y26275D01*
X144397Y24558D01*
X147568Y21387D01*
X149285Y17243D01*
X149285Y12757D01*
X147568Y8613D01*
X144397Y5442D01*
X142768Y4767D01*
X142685Y4716D01*
X142599Y4670D01*
X142582Y4652D01*
X142559Y4638D01*
X142497Y4562D01*
X142430Y4492D01*
X142419Y4468D01*
X142402Y4448D01*
X142368Y4357D01*
X142326Y4269D01*
X142324Y4243D01*
X142314Y4219D01*
X142310Y4121D01*
X142299Y4025D01*
X142305Y3999D01*
X142304Y3973D01*
X142331Y3879D01*
X142352Y3784D01*
X142365Y3762D01*
X142372Y3737D01*
X142428Y3657D01*
X142478Y3573D01*
X142498Y3556D01*
X142513Y3535D01*
X142591Y3476D01*
X142665Y3413D01*
X142689Y3403D01*
X142710Y3388D01*
X142802Y3358D01*
X142893Y3321D01*
X142925Y3318D01*
X142944Y3312D01*
X142977Y3312D01*
X143060Y3303D01*
X227957Y3303D01*
X228048Y3317D01*
X228138Y3325D01*
X228168Y3337D01*
X228200Y3342D01*
X228281Y3385D01*
X228365Y3421D01*
X228397Y3447D01*
X228418Y3458D01*
X228440Y3481D01*
X228496Y3526D01*
X228527Y3557D01*
X230000Y3557D01*
X230026Y3561D01*
X230075Y3560D01*
X231183Y3670D01*
X231210Y3677D01*
X231239Y3677D01*
X231400Y3724D01*
X233448Y4572D01*
X233504Y4607D01*
X233564Y4632D01*
X233629Y4684D01*
X233657Y4702D01*
X233670Y4717D01*
X233695Y4737D01*
X235263Y6305D01*
X235301Y6358D01*
X235347Y6405D01*
X235387Y6478D01*
X235406Y6505D01*
X235412Y6523D01*
X235428Y6552D01*
X236276Y8600D01*
X236283Y8628D01*
X236296Y8653D01*
X236330Y8817D01*
X236440Y9925D01*
X236438Y9952D01*
X236443Y10000D01*
X236443Y11473D01*
X236474Y11504D01*
X236527Y11578D01*
X236587Y11648D01*
X236599Y11678D01*
X236618Y11704D01*
X236645Y11791D01*
X236679Y11876D01*
X236683Y11917D01*
X236690Y11939D01*
X236689Y11971D01*
X236697Y12043D01*
X236697Y187957D01*
X236683Y188048D01*
X236675Y188138D01*
X236663Y188168D01*
X236658Y188200D01*
X236615Y188281D01*
X236579Y188365D01*
X236553Y188397D01*
X236542Y188418D01*
X236519Y188440D01*
X236474Y188496D01*
X236443Y188527D01*
X236443Y190000D01*
X236439Y190026D01*
X236440Y190075D01*
X236330Y191183D01*
X236323Y191210D01*
X236323Y191239D01*
X236276Y191400D01*
X235428Y193448D01*
X235393Y193504D01*
X235368Y193564D01*
X235316Y193629D01*
X235298Y193657D01*
X235283Y193670D01*
X235263Y193695D01*
X233695Y195263D01*
X233642Y195301D01*
X233595Y195347D01*
X233522Y195387D01*
X233495Y195406D01*
X233477Y195412D01*
X233448Y195428D01*
X231400Y196276D01*
X231372Y196283D01*
X231347Y196296D01*
X231183Y196330D01*
X230075Y196440D01*
X230048Y196438D01*
X230000Y196443D01*
X228527Y196443D01*
X228496Y196474D01*
X228422Y196527D01*
X228352Y196587D01*
X228322Y196599D01*
X228296Y196618D01*
X228209Y196645D01*
X228124Y196679D01*
X228083Y196683D01*
X228061Y196690D01*
X228029Y196689D01*
X227957Y196697D01*
X123632Y196697D01*
X121697Y198632D01*
X121697Y238062D01*
X121686Y238133D01*
X121684Y238205D01*
X121666Y238254D01*
X121658Y238305D01*
X121624Y238368D01*
X121599Y238436D01*
X121567Y238477D01*
X121542Y238523D01*
X121491Y238572D01*
X121446Y238628D01*
X121402Y238656D01*
X121364Y238692D01*
X121299Y238722D01*
X121239Y238761D01*
X121188Y238774D01*
X121141Y238796D01*
X121070Y238803D01*
X121000Y238821D01*
X120948Y238817D01*
X120897Y238823D01*
X120826Y238807D01*
X120755Y238802D01*
X120707Y238781D01*
X120656Y238770D01*
X120595Y238733D01*
X120585Y238729D01*
X109474Y238729D01*
X108872Y239331D01*
X108814Y239373D01*
X108762Y239422D01*
X108715Y239444D01*
X108673Y239474D01*
X108604Y239495D01*
X108539Y239526D01*
X108487Y239531D01*
X108437Y239547D01*
X108366Y239545D01*
X108295Y239553D01*
X108244Y239542D01*
X108192Y239540D01*
X108124Y239516D01*
X108054Y239500D01*
X108009Y239474D01*
X107961Y239456D01*
X107905Y239411D01*
X107843Y239374D01*
X107809Y239335D01*
X107769Y239302D01*
X107730Y239242D01*
X107683Y239187D01*
X107664Y239139D01*
X107636Y239095D01*
X107618Y239026D01*
X107591Y238959D01*
X107583Y238888D01*
X107575Y238857D01*
X107577Y238833D01*
X107573Y238792D01*
X107573Y235606D01*
X104894Y232927D01*
X101106Y232927D01*
X98427Y235606D01*
X98427Y238714D01*
X98424Y238734D01*
X98426Y238753D01*
X98404Y238855D01*
X98388Y238957D01*
X98378Y238974D01*
X98374Y238994D01*
X98321Y239083D01*
X98272Y239174D01*
X98258Y239188D01*
X98248Y239205D01*
X98169Y239272D01*
X98094Y239344D01*
X98076Y239352D01*
X98061Y239365D01*
X97965Y239404D01*
X97871Y239447D01*
X97851Y239449D01*
X97833Y239457D01*
X97666Y239475D01*
X97334Y239475D01*
X97314Y239472D01*
X97295Y239474D01*
X97193Y239452D01*
X97091Y239436D01*
X97074Y239426D01*
X97054Y239422D01*
X96965Y239369D01*
X96874Y239320D01*
X96860Y239306D01*
X96843Y239296D01*
X96776Y239217D01*
X96704Y239142D01*
X96696Y239124D01*
X96683Y239109D01*
X96644Y239013D01*
X96601Y238919D01*
X96599Y238899D01*
X96591Y238881D01*
X96573Y238714D01*
X96573Y235106D01*
X93894Y232427D01*
X90106Y232427D01*
X87427Y235106D01*
X87427Y238714D01*
X87424Y238734D01*
X87426Y238753D01*
X87404Y238855D01*
X87388Y238957D01*
X87378Y238974D01*
X87374Y238994D01*
X87321Y239083D01*
X87272Y239174D01*
X87258Y239188D01*
X87248Y239205D01*
X87169Y239272D01*
X87094Y239344D01*
X87076Y239352D01*
X87061Y239365D01*
X86965Y239404D01*
X86871Y239447D01*
X86851Y239449D01*
X86833Y239457D01*
X86666Y239475D01*
X86368Y239475D01*
X86038Y239805D01*
X86022Y239817D01*
X86010Y239833D01*
X85923Y239889D01*
X85839Y239949D01*
X85820Y239955D01*
X85803Y239966D01*
X85702Y239991D01*
X85603Y240021D01*
X85584Y240021D01*
X85564Y240026D01*
X85461Y240018D01*
X85358Y240015D01*
X85339Y240008D01*
X85319Y240007D01*
X85224Y239966D01*
X85127Y239931D01*
X85111Y239918D01*
X85093Y239910D01*
X84962Y239805D01*
X84796Y239639D01*
X84743Y239565D01*
X84683Y239496D01*
X84671Y239466D01*
X84652Y239440D01*
X84625Y239353D01*
X84591Y239268D01*
X84587Y239227D01*
X84580Y239205D01*
X84581Y239172D01*
X84573Y239101D01*
X84573Y235606D01*
X81894Y232927D01*
X78106Y232927D01*
X75427Y235606D01*
X75427Y239101D01*
X75413Y239191D01*
X75405Y239282D01*
X75393Y239312D01*
X75388Y239344D01*
X75345Y239424D01*
X75309Y239508D01*
X75283Y239541D01*
X75272Y239561D01*
X75249Y239583D01*
X75204Y239639D01*
X75038Y239805D01*
X75022Y239817D01*
X75010Y239833D01*
X74922Y239889D01*
X74839Y239949D01*
X74820Y239955D01*
X74803Y239966D01*
X74702Y239991D01*
X74604Y240021D01*
X74584Y240021D01*
X74564Y240026D01*
X74461Y240018D01*
X74358Y240015D01*
X74339Y240008D01*
X74319Y240007D01*
X74224Y239966D01*
X74127Y239931D01*
X74111Y239918D01*
X74093Y239910D01*
X73962Y239805D01*
X73592Y239436D01*
X73591Y239436D01*
X73574Y239426D01*
X73554Y239422D01*
X73465Y239369D01*
X73374Y239320D01*
X73360Y239306D01*
X73343Y239296D01*
X73276Y239217D01*
X73204Y239142D01*
X73196Y239124D01*
X73183Y239109D01*
X73144Y239013D01*
X73101Y238919D01*
X73099Y238899D01*
X73091Y238881D01*
X73073Y238714D01*
X73073Y236106D01*
X70394Y233427D01*
X66606Y233427D01*
X63872Y236161D01*
X63814Y236203D01*
X63762Y236252D01*
X63715Y236274D01*
X63673Y236304D01*
X63604Y236326D01*
X63539Y236356D01*
X63487Y236361D01*
X63437Y236377D01*
X63366Y236375D01*
X63295Y236383D01*
X63244Y236372D01*
X63192Y236370D01*
X63124Y236346D01*
X63054Y236331D01*
X63009Y236304D01*
X62961Y236286D01*
X62905Y236241D01*
X62843Y236204D01*
X62809Y236165D01*
X62769Y236132D01*
X62730Y236072D01*
X62683Y236018D01*
X62664Y235969D01*
X62636Y235925D01*
X62618Y235856D01*
X62591Y235789D01*
X62583Y235718D01*
X62575Y235687D01*
X62577Y235664D01*
X62573Y235623D01*
X62573Y235606D01*
X59850Y232883D01*
X59795Y232854D01*
X59728Y232829D01*
X59687Y232797D01*
X59641Y232772D01*
X59592Y232720D01*
X59536Y232676D01*
X59507Y232632D01*
X59472Y232594D01*
X59441Y232529D01*
X59403Y232469D01*
X59390Y232418D01*
X59368Y232371D01*
X59360Y232300D01*
X59342Y232230D01*
X59347Y232178D01*
X59341Y232127D01*
X59356Y232056D01*
X59362Y231985D01*
X59382Y231937D01*
X59393Y231886D01*
X59430Y231825D01*
X59458Y231759D01*
X59503Y231703D01*
X59519Y231675D01*
X59537Y231660D01*
X59563Y231628D01*
X63173Y228018D01*
X63247Y227965D01*
X63316Y227905D01*
X63346Y227893D01*
X63373Y227874D01*
X63460Y227847D01*
X63544Y227813D01*
X63585Y227809D01*
X63608Y227802D01*
X63640Y227803D01*
X63711Y227795D01*
X79013Y227795D01*
X79103Y227809D01*
X79194Y227817D01*
X79223Y227829D01*
X79255Y227834D01*
X79336Y227877D01*
X79420Y227913D01*
X79452Y227939D01*
X79473Y227950D01*
X79495Y227973D01*
X79551Y228018D01*
X81106Y229573D01*
X84894Y229573D01*
X87573Y226894D01*
X87573Y223106D01*
X86839Y222372D01*
X86797Y222314D01*
X86748Y222262D01*
X86726Y222215D01*
X86696Y222173D01*
X86674Y222104D01*
X86644Y222039D01*
X86639Y221987D01*
X86623Y221937D01*
X86625Y221866D01*
X86617Y221795D01*
X86628Y221744D01*
X86630Y221692D01*
X86654Y221624D01*
X86669Y221554D01*
X86696Y221509D01*
X86714Y221461D01*
X86759Y221405D01*
X86796Y221343D01*
X86835Y221309D01*
X86868Y221269D01*
X86928Y221230D01*
X86982Y221183D01*
X87031Y221164D01*
X87075Y221136D01*
X87144Y221118D01*
X87211Y221091D01*
X87282Y221083D01*
X87313Y221075D01*
X87336Y221077D01*
X87377Y221073D01*
X87894Y221073D01*
X90573Y218394D01*
X90573Y214606D01*
X87894Y211927D01*
X84106Y211927D01*
X82551Y213482D01*
X82477Y213535D01*
X82407Y213595D01*
X82377Y213607D01*
X82351Y213626D01*
X82264Y213653D01*
X82179Y213687D01*
X82138Y213691D01*
X82116Y213698D01*
X82084Y213697D01*
X82013Y213705D01*
X62342Y213705D01*
X36795Y239252D01*
X36721Y239305D01*
X36652Y239365D01*
X36622Y239377D01*
X36596Y239396D01*
X36509Y239423D01*
X36424Y239457D01*
X36383Y239461D01*
X36361Y239468D01*
X36328Y239467D01*
X36257Y239475D01*
X31782Y239475D01*
X31715Y239464D01*
X31647Y239463D01*
X31594Y239445D01*
X31539Y239436D01*
X31479Y239404D01*
X31415Y239381D01*
X31371Y239347D01*
X31322Y239320D01*
X31275Y239271D01*
X31222Y239230D01*
X31175Y239166D01*
X31152Y239142D01*
X31143Y239123D01*
X31122Y239095D01*
X31033Y238940D01*
X30560Y238467D01*
X29981Y238132D01*
X29334Y237959D01*
X26523Y237959D01*
X26523Y256238D01*
X26520Y256258D01*
X26522Y256277D01*
X26500Y256379D01*
X26483Y256481D01*
X26474Y256498D01*
X26470Y256518D01*
X26417Y256607D01*
X26368Y256698D01*
X26354Y256712D01*
X26344Y256729D01*
X26265Y256796D01*
X26190Y256867D01*
X26172Y256876D01*
X26157Y256889D01*
X26061Y256928D01*
X25967Y256971D01*
X25947Y256973D01*
X25929Y256981D01*
X25762Y256999D01*
X24238Y256999D01*
X24218Y256996D01*
X24199Y256998D01*
X24097Y256976D01*
X23995Y256959D01*
X23978Y256950D01*
X23958Y256946D01*
X23869Y256893D01*
X23778Y256844D01*
X23764Y256830D01*
X23747Y256820D01*
X23680Y256741D01*
X23609Y256666D01*
X23600Y256648D01*
X23587Y256633D01*
X23548Y256537D01*
X23505Y256443D01*
X23503Y256423D01*
X23495Y256405D01*
X23477Y256238D01*
X23477Y237959D01*
X20666Y237959D01*
X20019Y238132D01*
X19445Y238464D01*
X19355Y238498D01*
X19269Y238538D01*
X19241Y238541D01*
X19215Y238551D01*
X19119Y238555D01*
X19025Y238565D01*
X18997Y238559D01*
X18969Y238560D01*
X18877Y238533D01*
X18784Y238513D01*
X18760Y238498D01*
X18733Y238490D01*
X18655Y238436D01*
X18573Y238387D01*
X18555Y238365D01*
X18532Y238349D01*
X18475Y238272D01*
X18413Y238200D01*
X18403Y238174D01*
X18386Y238151D01*
X18357Y238060D01*
X18321Y237972D01*
X18317Y237936D01*
X18311Y237917D01*
X18311Y237884D01*
X18303Y237805D01*
X18303Y198632D01*
X16368Y196697D01*
X10000Y196697D01*
X9974Y196693D01*
X9925Y196694D01*
X8767Y196580D01*
X8740Y196572D01*
X8712Y196572D01*
X8551Y196525D01*
X6411Y195639D01*
X6355Y195604D01*
X6295Y195579D01*
X6230Y195527D01*
X6202Y195509D01*
X6189Y195494D01*
X6164Y195474D01*
X4526Y193836D01*
X4488Y193783D01*
X4442Y193736D01*
X4402Y193663D01*
X4383Y193636D01*
X4377Y193618D01*
X4361Y193589D01*
X3475Y191449D01*
X3468Y191422D01*
X3455Y191397D01*
X3420Y191233D01*
X3306Y190075D01*
X3308Y190048D01*
X3303Y190000D01*
X3303Y52107D01*
X3314Y52037D01*
X3316Y51965D01*
X3334Y51916D01*
X3342Y51865D01*
X3376Y51801D01*
X3401Y51734D01*
X3433Y51693D01*
X3458Y51647D01*
X3510Y51598D01*
X3554Y51542D01*
X3598Y51514D01*
X3636Y51478D01*
X3701Y51448D01*
X3761Y51409D01*
X3812Y51396D01*
X3859Y51374D01*
X3930Y51366D01*
X4000Y51349D01*
X4052Y51353D01*
X4103Y51347D01*
X4174Y51362D01*
X4245Y51368D01*
X4293Y51388D01*
X4344Y51399D01*
X4405Y51436D01*
X4471Y51464D01*
X4527Y51509D01*
X4555Y51526D01*
X4570Y51543D01*
X4602Y51569D01*
X6606Y53573D01*
X10394Y53573D01*
X12457Y51510D01*
X12531Y51457D01*
X12601Y51397D01*
X12631Y51385D01*
X12657Y51366D01*
X12744Y51339D01*
X12829Y51305D01*
X12870Y51301D01*
X12892Y51294D01*
X12924Y51295D01*
X12995Y51287D01*
X31414Y51287D01*
X31434Y51290D01*
X31453Y51288D01*
X31555Y51310D01*
X31657Y51326D01*
X31674Y51336D01*
X31694Y51340D01*
X31783Y51393D01*
X31874Y51442D01*
X31888Y51456D01*
X31905Y51466D01*
X31972Y51545D01*
X32044Y51620D01*
X32052Y51638D01*
X32065Y51653D01*
X32104Y51749D01*
X32147Y51843D01*
X32149Y51863D01*
X32157Y51881D01*
X32175Y52048D01*
X32175Y52632D01*
X33005Y53462D01*
X33017Y53478D01*
X33033Y53490D01*
X33089Y53578D01*
X33149Y53661D01*
X33155Y53680D01*
X33166Y53697D01*
X33191Y53798D01*
X33221Y53897D01*
X33221Y53916D01*
X33226Y53936D01*
X33218Y54039D01*
X33215Y54142D01*
X33208Y54161D01*
X33207Y54181D01*
X33166Y54276D01*
X33131Y54373D01*
X33118Y54389D01*
X33110Y54407D01*
X33005Y54538D01*
X32175Y55368D01*
X32175Y57452D01*
X32172Y57472D01*
X32174Y57491D01*
X32152Y57593D01*
X32136Y57695D01*
X32126Y57712D01*
X32122Y57732D01*
X32069Y57821D01*
X32020Y57912D01*
X32006Y57926D01*
X31996Y57943D01*
X31917Y58010D01*
X31842Y58082D01*
X31824Y58090D01*
X31809Y58103D01*
X31713Y58142D01*
X31619Y58185D01*
X31599Y58187D01*
X31581Y58195D01*
X31414Y58213D01*
X13995Y58213D01*
X13905Y58199D01*
X13814Y58191D01*
X13785Y58179D01*
X13753Y58174D01*
X13672Y58131D01*
X13588Y58095D01*
X13556Y58069D01*
X13535Y58058D01*
X13513Y58035D01*
X13457Y57990D01*
X11394Y55927D01*
X7606Y55927D01*
X4927Y58606D01*
X4927Y62394D01*
X7606Y65073D01*
X11394Y65073D01*
X13457Y63010D01*
X13531Y62957D01*
X13601Y62897D01*
X13631Y62885D01*
X13657Y62866D01*
X13744Y62839D01*
X13829Y62805D01*
X13870Y62801D01*
X13892Y62794D01*
X13924Y62795D01*
X13995Y62787D01*
X31414Y62787D01*
X31434Y62790D01*
X31453Y62788D01*
X31555Y62810D01*
X31657Y62826D01*
X31674Y62836D01*
X31694Y62840D01*
X31783Y62893D01*
X31874Y62942D01*
X31888Y62956D01*
X31905Y62966D01*
X31972Y63045D01*
X32044Y63120D01*
X32052Y63138D01*
X32065Y63153D01*
X32104Y63249D01*
X32147Y63343D01*
X32149Y63363D01*
X32157Y63381D01*
X32175Y63548D01*
X32175Y63632D01*
X33005Y64462D01*
X33017Y64478D01*
X33033Y64490D01*
X33089Y64578D01*
X33149Y64661D01*
X33155Y64680D01*
X33166Y64697D01*
X33191Y64798D01*
X33221Y64897D01*
X33221Y64916D01*
X33226Y64936D01*
X33218Y65039D01*
X33215Y65142D01*
X33208Y65161D01*
X33207Y65181D01*
X33166Y65276D01*
X33131Y65373D01*
X33118Y65389D01*
X33110Y65407D01*
X33005Y65538D01*
X32175Y66368D01*
X32175Y67944D01*
X32172Y67964D01*
X32174Y67983D01*
X32152Y68085D01*
X32136Y68187D01*
X32126Y68204D01*
X32122Y68224D01*
X32069Y68313D01*
X32020Y68404D01*
X32006Y68418D01*
X31996Y68435D01*
X31917Y68502D01*
X31842Y68574D01*
X31824Y68582D01*
X31809Y68595D01*
X31713Y68634D01*
X31619Y68677D01*
X31599Y68679D01*
X31581Y68687D01*
X31414Y68705D01*
X21187Y68705D01*
X21097Y68691D01*
X21006Y68683D01*
X20977Y68671D01*
X20945Y68666D01*
X20864Y68623D01*
X20780Y68587D01*
X20748Y68561D01*
X20727Y68550D01*
X20705Y68527D01*
X20649Y68482D01*
X19094Y66927D01*
X15306Y66927D01*
X12627Y69606D01*
X12627Y73394D01*
X15306Y76073D01*
X19094Y76073D01*
X20649Y74518D01*
X20723Y74465D01*
X20793Y74405D01*
X20823Y74393D01*
X20849Y74374D01*
X20936Y74347D01*
X21021Y74313D01*
X21062Y74309D01*
X21084Y74302D01*
X21116Y74303D01*
X21187Y74295D01*
X31523Y74295D01*
X31613Y74309D01*
X31704Y74317D01*
X31734Y74329D01*
X31766Y74334D01*
X31847Y74377D01*
X31930Y74413D01*
X31963Y74439D01*
X31983Y74450D01*
X32005Y74473D01*
X32061Y74518D01*
X33005Y75462D01*
X33017Y75478D01*
X33033Y75490D01*
X33089Y75578D01*
X33149Y75661D01*
X33155Y75680D01*
X33166Y75697D01*
X33191Y75798D01*
X33221Y75897D01*
X33221Y75916D01*
X33226Y75936D01*
X33218Y76039D01*
X33215Y76142D01*
X33208Y76161D01*
X33207Y76181D01*
X33166Y76276D01*
X33131Y76373D01*
X33118Y76389D01*
X33110Y76407D01*
X33005Y76538D01*
X32175Y77368D01*
X32175Y79452D01*
X32174Y79462D01*
X32174Y79467D01*
X32172Y79475D01*
X32174Y79491D01*
X32152Y79593D01*
X32136Y79695D01*
X32126Y79712D01*
X32122Y79732D01*
X32069Y79821D01*
X32020Y79912D01*
X32006Y79926D01*
X31996Y79943D01*
X31917Y80010D01*
X31842Y80082D01*
X31824Y80090D01*
X31809Y80103D01*
X31713Y80142D01*
X31619Y80185D01*
X31599Y80187D01*
X31581Y80195D01*
X31414Y80213D01*
X21695Y80213D01*
X21605Y80199D01*
X21514Y80191D01*
X21485Y80179D01*
X21453Y80174D01*
X21372Y80131D01*
X21288Y80095D01*
X21256Y80069D01*
X21235Y80058D01*
X21213Y80035D01*
X21211Y80034D01*
X21208Y80031D01*
X21157Y79990D01*
X19094Y77927D01*
X15306Y77927D01*
X12627Y80606D01*
X12627Y84394D01*
X15306Y87073D01*
X19094Y87073D01*
X21157Y85010D01*
X21231Y84957D01*
X21301Y84897D01*
X21331Y84885D01*
X21357Y84866D01*
X21444Y84839D01*
X21529Y84805D01*
X21570Y84801D01*
X21592Y84794D01*
X21624Y84795D01*
X21695Y84787D01*
X31414Y84787D01*
X31434Y84790D01*
X31453Y84788D01*
X31555Y84810D01*
X31657Y84826D01*
X31674Y84836D01*
X31694Y84840D01*
X31783Y84893D01*
X31874Y84942D01*
X31888Y84956D01*
X31905Y84966D01*
X31972Y85045D01*
X32044Y85120D01*
X32052Y85138D01*
X32065Y85153D01*
X32104Y85249D01*
X32147Y85343D01*
X32149Y85363D01*
X32157Y85381D01*
X32175Y85548D01*
X32175Y85632D01*
X33005Y86462D01*
X33017Y86478D01*
X33033Y86490D01*
X33089Y86578D01*
X33149Y86661D01*
X33155Y86680D01*
X33166Y86697D01*
X33191Y86798D01*
X33221Y86897D01*
X33221Y86916D01*
X33226Y86936D01*
X33218Y87039D01*
X33215Y87142D01*
X33208Y87161D01*
X33207Y87181D01*
X33166Y87276D01*
X33131Y87373D01*
X33118Y87389D01*
X33110Y87407D01*
X33005Y87538D01*
X32175Y88368D01*
X32175Y89444D01*
X32172Y89464D01*
X32174Y89483D01*
X32152Y89585D01*
X32136Y89687D01*
X32126Y89704D01*
X32122Y89724D01*
X32069Y89813D01*
X32020Y89904D01*
X32006Y89918D01*
X31996Y89935D01*
X31917Y90002D01*
X31842Y90074D01*
X31824Y90082D01*
X31809Y90095D01*
X31713Y90134D01*
X31619Y90177D01*
X31599Y90179D01*
X31581Y90187D01*
X31414Y90205D01*
X26487Y90205D01*
X26397Y90191D01*
X26306Y90183D01*
X26277Y90171D01*
X26245Y90166D01*
X26164Y90123D01*
X26080Y90087D01*
X26048Y90061D01*
X26027Y90050D01*
X26005Y90027D01*
X25949Y89982D01*
X24394Y88427D01*
X20606Y88427D01*
X17927Y91106D01*
X17927Y94894D01*
X20606Y97573D01*
X24394Y97573D01*
X25949Y96018D01*
X26023Y95965D01*
X26093Y95905D01*
X26123Y95893D01*
X26149Y95874D01*
X26236Y95847D01*
X26321Y95813D01*
X26362Y95809D01*
X26384Y95802D01*
X26416Y95803D01*
X26487Y95795D01*
X31414Y95795D01*
X31434Y95798D01*
X31453Y95796D01*
X31555Y95818D01*
X31657Y95834D01*
X31674Y95844D01*
X31694Y95848D01*
X31783Y95901D01*
X31874Y95950D01*
X31888Y95964D01*
X31905Y95974D01*
X31972Y96053D01*
X32044Y96128D01*
X32052Y96146D01*
X32065Y96161D01*
X32104Y96257D01*
X32147Y96351D01*
X32149Y96371D01*
X32157Y96389D01*
X32175Y96556D01*
X32175Y96632D01*
X33005Y97462D01*
X33017Y97478D01*
X33033Y97490D01*
X33089Y97578D01*
X33149Y97661D01*
X33155Y97680D01*
X33166Y97697D01*
X33191Y97798D01*
X33221Y97897D01*
X33221Y97916D01*
X33226Y97936D01*
X33218Y98039D01*
X33215Y98142D01*
X33208Y98161D01*
X33207Y98181D01*
X33166Y98276D01*
X33131Y98373D01*
X33118Y98389D01*
X33110Y98407D01*
X33005Y98538D01*
X32175Y99368D01*
X32175Y100944D01*
X32172Y100964D01*
X32174Y100983D01*
X32152Y101085D01*
X32136Y101187D01*
X32126Y101204D01*
X32122Y101224D01*
X32069Y101313D01*
X32020Y101404D01*
X32006Y101418D01*
X31996Y101435D01*
X31917Y101502D01*
X31842Y101574D01*
X31824Y101582D01*
X31809Y101595D01*
X31713Y101634D01*
X31619Y101677D01*
X31599Y101679D01*
X31581Y101687D01*
X31414Y101705D01*
X27987Y101705D01*
X27897Y101691D01*
X27806Y101683D01*
X27777Y101671D01*
X27745Y101666D01*
X27664Y101623D01*
X27580Y101587D01*
X27548Y101561D01*
X27527Y101550D01*
X27505Y101527D01*
X27449Y101482D01*
X25894Y99927D01*
X22106Y99927D01*
X19427Y102606D01*
X19427Y106394D01*
X22106Y109073D01*
X25894Y109073D01*
X27449Y107518D01*
X27523Y107465D01*
X27593Y107405D01*
X27623Y107393D01*
X27649Y107374D01*
X27736Y107347D01*
X27821Y107313D01*
X27862Y107309D01*
X27884Y107302D01*
X27916Y107303D01*
X27987Y107295D01*
X31523Y107295D01*
X31613Y107309D01*
X31704Y107317D01*
X31734Y107329D01*
X31766Y107334D01*
X31847Y107377D01*
X31930Y107413D01*
X31963Y107439D01*
X31983Y107450D01*
X32005Y107473D01*
X32061Y107518D01*
X33005Y108462D01*
X33017Y108478D01*
X33033Y108490D01*
X33089Y108577D01*
X33149Y108661D01*
X33155Y108681D01*
X33166Y108697D01*
X33191Y108798D01*
X33221Y108897D01*
X33221Y108916D01*
X33226Y108936D01*
X33218Y109039D01*
X33215Y109142D01*
X33208Y109161D01*
X33207Y109181D01*
X33166Y109276D01*
X33130Y109373D01*
X33118Y109389D01*
X33110Y109407D01*
X33005Y109538D01*
X32175Y110368D01*
X32175Y111371D01*
X32164Y111441D01*
X32162Y111513D01*
X32144Y111562D01*
X32136Y111613D01*
X32102Y111677D01*
X32077Y111744D01*
X32045Y111785D01*
X32020Y111831D01*
X31968Y111880D01*
X31924Y111936D01*
X31880Y111964D01*
X31842Y112000D01*
X31777Y112030D01*
X31717Y112069D01*
X31666Y112082D01*
X31619Y112104D01*
X31548Y112112D01*
X31478Y112129D01*
X31426Y112125D01*
X31375Y112131D01*
X31304Y112116D01*
X31233Y112110D01*
X31185Y112090D01*
X31134Y112079D01*
X31073Y112042D01*
X31007Y112014D01*
X30951Y111969D01*
X30923Y111952D01*
X30908Y111935D01*
X30876Y111909D01*
X29894Y110927D01*
X26106Y110927D01*
X23427Y113606D01*
X23427Y117394D01*
X26106Y120073D01*
X27623Y120073D01*
X27693Y120084D01*
X27765Y120086D01*
X27814Y120104D01*
X27865Y120112D01*
X27929Y120146D01*
X27996Y120171D01*
X28037Y120203D01*
X28083Y120228D01*
X28132Y120280D01*
X28188Y120324D01*
X28216Y120368D01*
X28252Y120406D01*
X28282Y120471D01*
X28321Y120531D01*
X28334Y120582D01*
X28356Y120629D01*
X28364Y120700D01*
X28381Y120770D01*
X28377Y120822D01*
X28383Y120873D01*
X28368Y120944D01*
X28362Y121015D01*
X28342Y121063D01*
X28331Y121114D01*
X28294Y121175D01*
X28266Y121241D01*
X28221Y121297D01*
X28204Y121325D01*
X28187Y121340D01*
X28161Y121372D01*
X26427Y123106D01*
X26427Y126894D01*
X29106Y129573D01*
X31801Y129573D01*
X31891Y129587D01*
X31982Y129595D01*
X32012Y129607D01*
X32044Y129612D01*
X32125Y129655D01*
X32208Y129691D01*
X32241Y129717D01*
X32261Y129728D01*
X32283Y129751D01*
X32339Y129796D01*
X33068Y130525D01*
X45332Y130525D01*
X46225Y129632D01*
X46225Y121368D01*
X45395Y120538D01*
X45383Y120522D01*
X45367Y120510D01*
X45311Y120422D01*
X45251Y120339D01*
X45245Y120320D01*
X45234Y120303D01*
X45209Y120202D01*
X45179Y120103D01*
X45179Y120084D01*
X45174Y120064D01*
X45182Y119961D01*
X45185Y119858D01*
X45192Y119839D01*
X45193Y119819D01*
X45234Y119724D01*
X45269Y119627D01*
X45282Y119611D01*
X45290Y119593D01*
X45395Y119462D01*
X46225Y118632D01*
X46225Y110368D01*
X45395Y109538D01*
X45383Y109522D01*
X45367Y109510D01*
X45311Y109422D01*
X45251Y109339D01*
X45245Y109320D01*
X45234Y109303D01*
X45209Y109202D01*
X45179Y109103D01*
X45179Y109084D01*
X45174Y109064D01*
X45182Y108961D01*
X45185Y108858D01*
X45192Y108839D01*
X45193Y108819D01*
X45234Y108724D01*
X45269Y108627D01*
X45282Y108611D01*
X45290Y108593D01*
X45395Y108462D01*
X46225Y107632D01*
X46225Y99368D01*
X45395Y98538D01*
X45383Y98522D01*
X45367Y98510D01*
X45311Y98422D01*
X45251Y98339D01*
X45245Y98320D01*
X45234Y98303D01*
X45209Y98202D01*
X45179Y98103D01*
X45179Y98084D01*
X45174Y98064D01*
X45182Y97961D01*
X45185Y97858D01*
X45192Y97839D01*
X45193Y97819D01*
X45234Y97724D01*
X45269Y97627D01*
X45282Y97611D01*
X45290Y97593D01*
X45395Y97462D01*
X46225Y96632D01*
X46225Y88368D01*
X45395Y87538D01*
X45383Y87522D01*
X45367Y87510D01*
X45311Y87422D01*
X45251Y87339D01*
X45245Y87320D01*
X45234Y87303D01*
X45209Y87202D01*
X45179Y87103D01*
X45179Y87084D01*
X45174Y87064D01*
X45182Y86961D01*
X45185Y86858D01*
X45192Y86839D01*
X45193Y86819D01*
X45234Y86724D01*
X45269Y86627D01*
X45282Y86611D01*
X45290Y86593D01*
X45395Y86462D01*
X46225Y85632D01*
X46225Y77368D01*
X45395Y76538D01*
X45383Y76522D01*
X45367Y76510D01*
X45311Y76422D01*
X45251Y76339D01*
X45245Y76320D01*
X45234Y76303D01*
X45209Y76202D01*
X45179Y76103D01*
X45179Y76084D01*
X45174Y76064D01*
X45182Y75961D01*
X45185Y75858D01*
X45192Y75839D01*
X45193Y75819D01*
X45234Y75724D01*
X45269Y75627D01*
X45282Y75611D01*
X45290Y75593D01*
X45395Y75462D01*
X46225Y74632D01*
X46225Y66368D01*
X45395Y65538D01*
X45383Y65522D01*
X45367Y65510D01*
X45311Y65422D01*
X45251Y65339D01*
X45245Y65320D01*
X45234Y65303D01*
X45209Y65202D01*
X45179Y65103D01*
X45179Y65084D01*
X45174Y65064D01*
X45182Y64961D01*
X45185Y64858D01*
X45192Y64839D01*
X45193Y64819D01*
X45234Y64724D01*
X45269Y64627D01*
X45282Y64611D01*
X45290Y64593D01*
X45395Y64462D01*
X46225Y63632D01*
X46225Y55368D01*
X45395Y54538D01*
X45383Y54522D01*
X45367Y54510D01*
X45311Y54422D01*
X45251Y54339D01*
X45245Y54320D01*
X45234Y54303D01*
X45209Y54202D01*
X45179Y54103D01*
X45179Y54084D01*
X45174Y54064D01*
X45182Y53961D01*
X45185Y53858D01*
X45192Y53839D01*
X45193Y53819D01*
X45234Y53724D01*
X45269Y53627D01*
X45282Y53611D01*
X45290Y53593D01*
X45395Y53462D01*
X46225Y52632D01*
X46225Y44368D01*
X45881Y44024D01*
X45839Y43966D01*
X45789Y43914D01*
X45767Y43867D01*
X45737Y43825D01*
X45716Y43756D01*
X45686Y43691D01*
X45680Y43639D01*
X45665Y43589D01*
X45667Y43518D01*
X45659Y43447D01*
X45670Y43396D01*
X45671Y43344D01*
X45696Y43276D01*
X45711Y43206D01*
X45738Y43161D01*
X45755Y43113D01*
X45800Y43057D01*
X45837Y42995D01*
X45877Y42961D01*
X45909Y42921D01*
X45969Y42882D01*
X46024Y42835D01*
X46072Y42816D01*
X46116Y42788D01*
X46185Y42770D01*
X46252Y42743D01*
X46323Y42735D01*
X46355Y42727D01*
X46378Y42729D01*
X46419Y42725D01*
X58103Y42725D01*
X58123Y42728D01*
X58142Y42726D01*
X58244Y42748D01*
X58346Y42764D01*
X58363Y42774D01*
X58383Y42778D01*
X58472Y42831D01*
X58563Y42880D01*
X58577Y42894D01*
X58594Y42904D01*
X58661Y42983D01*
X58733Y43058D01*
X58741Y43076D01*
X58754Y43091D01*
X58793Y43187D01*
X58836Y43281D01*
X58838Y43301D01*
X58846Y43319D01*
X58864Y43486D01*
X58864Y170263D01*
X59237Y170636D01*
X133364Y170636D01*
X133454Y170650D01*
X133545Y170658D01*
X133575Y170670D01*
X133607Y170675D01*
X133688Y170718D01*
X133771Y170754D01*
X133804Y170780D01*
X133824Y170791D01*
X133846Y170814D01*
X133902Y170859D01*
X134568Y171525D01*
X169132Y171525D01*
X170025Y170632D01*
X170025Y162368D01*
X169566Y161910D01*
X169554Y161893D01*
X169539Y161881D01*
X169483Y161794D01*
X169422Y161710D01*
X169417Y161691D01*
X169406Y161674D01*
X169380Y161574D01*
X169350Y161475D01*
X169351Y161455D01*
X169346Y161436D01*
X169354Y161333D01*
X169356Y161229D01*
X169363Y161210D01*
X169365Y161190D01*
X169405Y161095D01*
X169441Y160998D01*
X169453Y160982D01*
X169461Y160964D01*
X169566Y160833D01*
X170136Y160263D01*
X170136Y41706D01*
X170135Y41705D01*
X170123Y41675D01*
X170104Y41649D01*
X170077Y41562D01*
X170043Y41477D01*
X170039Y41436D01*
X170032Y41414D01*
X170033Y41382D01*
X170025Y41310D01*
X170025Y32768D01*
X169132Y31875D01*
X134568Y31875D01*
X133960Y32484D01*
X133944Y32496D01*
X133931Y32511D01*
X133844Y32567D01*
X133760Y32628D01*
X133741Y32633D01*
X133724Y32644D01*
X133624Y32669D01*
X133525Y32700D01*
X133505Y32699D01*
X133486Y32704D01*
X133383Y32696D01*
X133279Y32694D01*
X133260Y32687D01*
X133240Y32685D01*
X133145Y32645D01*
X133048Y32609D01*
X133032Y32597D01*
X133014Y32589D01*
X132883Y32484D01*
X132763Y32364D01*
X60436Y32364D01*
X60346Y32350D01*
X60255Y32342D01*
X60225Y32330D01*
X60193Y32325D01*
X60112Y32282D01*
X60029Y32246D01*
X59996Y32220D01*
X59976Y32209D01*
X59954Y32186D01*
X59898Y32141D01*
X58832Y31075D01*
X29568Y31075D01*
X28675Y31968D01*
X28675Y41832D01*
X29568Y42725D01*
X31981Y42725D01*
X32052Y42736D01*
X32124Y42738D01*
X32173Y42756D01*
X32224Y42764D01*
X32287Y42798D01*
X32355Y42823D01*
X32395Y42855D01*
X32441Y42880D01*
X32491Y42932D01*
X32547Y42976D01*
X32575Y43020D01*
X32611Y43058D01*
X32641Y43123D01*
X32680Y43183D01*
X32692Y43234D01*
X32714Y43281D01*
X32722Y43352D01*
X32740Y43422D01*
X32736Y43474D01*
X32741Y43525D01*
X32726Y43596D01*
X32721Y43667D01*
X32700Y43715D01*
X32689Y43766D01*
X32652Y43827D01*
X32624Y43893D01*
X32579Y43949D01*
X32563Y43977D01*
X32545Y43992D01*
X32519Y44024D01*
X32175Y44368D01*
X32175Y45952D01*
X32173Y45964D01*
X32174Y45972D01*
X32173Y45979D01*
X32174Y45991D01*
X32152Y46093D01*
X32136Y46195D01*
X32126Y46212D01*
X32122Y46232D01*
X32069Y46321D01*
X32020Y46412D01*
X32006Y46426D01*
X31996Y46443D01*
X31917Y46510D01*
X31842Y46582D01*
X31824Y46590D01*
X31809Y46603D01*
X31713Y46642D01*
X31619Y46685D01*
X31599Y46687D01*
X31581Y46695D01*
X31414Y46713D01*
X12995Y46713D01*
X12905Y46699D01*
X12814Y46691D01*
X12785Y46679D01*
X12753Y46674D01*
X12672Y46631D01*
X12588Y46595D01*
X12556Y46569D01*
X12535Y46558D01*
X12518Y46540D01*
X12516Y46539D01*
X12509Y46532D01*
X12457Y46490D01*
X10394Y44427D01*
X6606Y44427D01*
X4602Y46431D01*
X4544Y46473D01*
X4492Y46522D01*
X4445Y46544D01*
X4403Y46574D01*
X4334Y46596D01*
X4269Y46626D01*
X4217Y46631D01*
X4167Y46647D01*
X4096Y46645D01*
X4025Y46653D01*
X3974Y46642D01*
X3922Y46640D01*
X3854Y46616D01*
X3784Y46601D01*
X3739Y46574D01*
X3691Y46556D01*
X3635Y46511D01*
X3573Y46474D01*
X3539Y46435D01*
X3499Y46402D01*
X3460Y46342D01*
X3413Y46288D01*
X3394Y46239D01*
X3366Y46195D01*
X3348Y46126D01*
X3321Y46059D01*
X3313Y45988D01*
X3305Y45957D01*
X3307Y45934D01*
X3303Y45893D01*
X3303Y12043D01*
X3317Y11952D01*
X3325Y11862D01*
X3337Y11832D01*
X3342Y11800D01*
X3385Y11719D01*
X3421Y11635D01*
X3447Y11603D01*
X3458Y11582D01*
X3481Y11560D01*
X3526Y11504D01*
X3557Y11473D01*
X3557Y10000D01*
X3561Y9974D01*
X3560Y9925D01*
X3670Y8817D01*
X3677Y8790D01*
X3677Y8761D01*
X3724Y8600D01*
X4572Y6552D01*
X4607Y6496D01*
X4632Y6436D01*
X4684Y6371D01*
X4702Y6343D01*
X4717Y6330D01*
X4737Y6305D01*
X6305Y4737D01*
X6358Y4699D01*
X6405Y4653D01*
X6478Y4613D01*
X6505Y4594D01*
X6523Y4588D01*
X6552Y4572D01*
X8600Y3724D01*
X8628Y3717D01*
X8653Y3704D01*
X8817Y3670D01*
X9925Y3560D01*
X9952Y3562D01*
X10000Y3557D01*
X11473Y3557D01*
X11504Y3526D01*
X11578Y3473D01*
X11648Y3413D01*
X11678Y3401D01*
X11704Y3382D01*
X11791Y3355D01*
X11876Y3321D01*
X11917Y3317D01*
X11939Y3310D01*
X11971Y3311D01*
X12043Y3303D01*
X60960Y3303D01*
X61056Y3318D01*
G37*
%LPC*%
G36*
X29568Y157075D02*
X29568Y157075D01*
X28675Y157968D01*
X28675Y170632D01*
X29568Y171525D01*
X49132Y171525D01*
X50025Y170632D01*
X50025Y157968D01*
X49132Y157075D01*
X29568Y157075D01*
G37*
%LPD*%
%LPC*%
G36*
X183497Y141735D02*
X183497Y141735D01*
X180165Y143115D01*
X177615Y145665D01*
X176235Y148997D01*
X176235Y152603D01*
X177615Y155935D01*
X180165Y158485D01*
X183497Y159865D01*
X187103Y159865D01*
X190435Y158485D01*
X192985Y155935D01*
X194365Y152603D01*
X194365Y148997D01*
X192985Y145665D01*
X190435Y143115D01*
X187103Y141735D01*
X183497Y141735D01*
G37*
%LPD*%
%LPC*%
G36*
X208897Y116335D02*
X208897Y116335D01*
X205565Y117715D01*
X203015Y120265D01*
X201635Y123597D01*
X201635Y127203D01*
X203015Y130535D01*
X205565Y133085D01*
X208897Y134465D01*
X212503Y134465D01*
X215835Y133085D01*
X218385Y130535D01*
X219765Y127203D01*
X219765Y123597D01*
X218385Y120265D01*
X215835Y117715D01*
X212503Y116335D01*
X208897Y116335D01*
G37*
%LPD*%
%LPC*%
G36*
X183497Y116335D02*
X183497Y116335D01*
X180165Y117715D01*
X177615Y120265D01*
X176235Y123597D01*
X176235Y127203D01*
X177615Y130535D01*
X180165Y133085D01*
X183497Y134465D01*
X187103Y134465D01*
X190435Y133085D01*
X192985Y130535D01*
X194365Y127203D01*
X194365Y123597D01*
X192985Y120265D01*
X190435Y117715D01*
X187103Y116335D01*
X183497Y116335D01*
G37*
%LPD*%
%LPC*%
G36*
X208897Y90935D02*
X208897Y90935D01*
X205565Y92315D01*
X203015Y94865D01*
X201635Y98197D01*
X201635Y101803D01*
X203015Y105135D01*
X205565Y107685D01*
X208897Y109065D01*
X212503Y109065D01*
X215835Y107685D01*
X218385Y105135D01*
X219765Y101803D01*
X219765Y98197D01*
X218385Y94865D01*
X215835Y92315D01*
X212503Y90935D01*
X208897Y90935D01*
G37*
%LPD*%
%LPC*%
G36*
X183497Y90935D02*
X183497Y90935D01*
X180165Y92315D01*
X177615Y94865D01*
X176235Y98197D01*
X176235Y101803D01*
X177615Y105135D01*
X180165Y107685D01*
X183497Y109065D01*
X187103Y109065D01*
X190435Y107685D01*
X192985Y105135D01*
X194365Y101803D01*
X194365Y98197D01*
X192985Y94865D01*
X190435Y92315D01*
X187103Y90935D01*
X183497Y90935D01*
G37*
%LPD*%
%LPC*%
G36*
X183497Y65535D02*
X183497Y65535D01*
X180165Y66915D01*
X177615Y69465D01*
X176235Y72797D01*
X176235Y76403D01*
X177615Y79735D01*
X180165Y82285D01*
X183497Y83665D01*
X187103Y83665D01*
X190435Y82285D01*
X192985Y79735D01*
X194365Y76403D01*
X194365Y72797D01*
X192985Y69465D01*
X190435Y66915D01*
X187103Y65535D01*
X183497Y65535D01*
G37*
%LPD*%
%LPC*%
G36*
X208897Y40135D02*
X208897Y40135D01*
X205565Y41515D01*
X203015Y44065D01*
X201635Y47397D01*
X201635Y51003D01*
X203015Y54335D01*
X205565Y56885D01*
X208897Y58265D01*
X212503Y58265D01*
X215835Y56885D01*
X218385Y54335D01*
X219765Y51003D01*
X219765Y47397D01*
X218385Y44065D01*
X215835Y41515D01*
X212503Y40135D01*
X208897Y40135D01*
G37*
%LPD*%
%LPC*%
G36*
X212223Y76123D02*
X212223Y76123D01*
X212223Y84565D01*
X213061Y84433D01*
X214570Y83942D01*
X215983Y83222D01*
X217267Y82289D01*
X218389Y81167D01*
X219322Y79883D01*
X220042Y78470D01*
X220533Y76961D01*
X220665Y76123D01*
X212223Y76123D01*
G37*
%LPD*%
%LPC*%
G36*
X212223Y152323D02*
X212223Y152323D01*
X212223Y160765D01*
X213061Y160633D01*
X214570Y160142D01*
X215983Y159422D01*
X217267Y158489D01*
X218389Y157367D01*
X219322Y156083D01*
X220042Y154670D01*
X220533Y153161D01*
X220665Y152323D01*
X212223Y152323D01*
G37*
%LPD*%
%LPC*%
G36*
X186823Y50723D02*
X186823Y50723D01*
X186823Y59165D01*
X187661Y59033D01*
X189170Y58542D01*
X190583Y57822D01*
X191867Y56889D01*
X192989Y55767D01*
X193922Y54483D01*
X194642Y53070D01*
X195133Y51561D01*
X195265Y50723D01*
X186823Y50723D01*
G37*
%LPD*%
%LPC*%
G36*
X200735Y76123D02*
X200735Y76123D01*
X200867Y76961D01*
X201358Y78470D01*
X202078Y79883D01*
X203011Y81167D01*
X204133Y82289D01*
X205417Y83222D01*
X206830Y83942D01*
X208339Y84433D01*
X209177Y84565D01*
X209177Y76123D01*
X200735Y76123D01*
G37*
%LPD*%
%LPC*%
G36*
X200735Y152323D02*
X200735Y152323D01*
X200867Y153161D01*
X201358Y154670D01*
X202078Y156083D01*
X203011Y157367D01*
X204133Y158489D01*
X205417Y159422D01*
X206830Y160142D01*
X208339Y160633D01*
X209177Y160765D01*
X209177Y152323D01*
X200735Y152323D01*
G37*
%LPD*%
%LPC*%
G36*
X212223Y149277D02*
X212223Y149277D01*
X220665Y149277D01*
X220533Y148439D01*
X220042Y146930D01*
X219322Y145517D01*
X218389Y144233D01*
X217267Y143111D01*
X215983Y142178D01*
X214570Y141458D01*
X213061Y140967D01*
X212223Y140835D01*
X212223Y149277D01*
G37*
%LPD*%
%LPC*%
G36*
X212223Y73077D02*
X212223Y73077D01*
X220665Y73077D01*
X220533Y72239D01*
X220042Y70730D01*
X219322Y69317D01*
X218389Y68033D01*
X217267Y66911D01*
X215983Y65978D01*
X214570Y65258D01*
X213061Y64767D01*
X212223Y64635D01*
X212223Y73077D01*
G37*
%LPD*%
%LPC*%
G36*
X175335Y50723D02*
X175335Y50723D01*
X175467Y51561D01*
X175958Y53070D01*
X176678Y54483D01*
X177611Y55767D01*
X178733Y56889D01*
X180017Y57822D01*
X181430Y58542D01*
X182939Y59033D01*
X183777Y59165D01*
X183777Y50723D01*
X175335Y50723D01*
G37*
%LPD*%
%LPC*%
G36*
X186823Y47677D02*
X186823Y47677D01*
X195265Y47677D01*
X195133Y46839D01*
X194642Y45330D01*
X193922Y43917D01*
X192989Y42633D01*
X191867Y41511D01*
X190583Y40578D01*
X189170Y39858D01*
X187661Y39367D01*
X186823Y39235D01*
X186823Y47677D01*
G37*
%LPD*%
%LPC*%
G36*
X208339Y140967D02*
X208339Y140967D01*
X206830Y141458D01*
X205417Y142178D01*
X204133Y143111D01*
X203011Y144233D01*
X202078Y145517D01*
X201358Y146930D01*
X200867Y148439D01*
X200735Y149277D01*
X209177Y149277D01*
X209177Y140835D01*
X208339Y140967D01*
G37*
%LPD*%
%LPC*%
G36*
X208339Y64767D02*
X208339Y64767D01*
X206830Y65258D01*
X205417Y65978D01*
X204133Y66911D01*
X203011Y68033D01*
X202078Y69317D01*
X201358Y70730D01*
X200867Y72239D01*
X200735Y73077D01*
X209177Y73077D01*
X209177Y64635D01*
X208339Y64767D01*
G37*
%LPD*%
%LPC*%
G36*
X182939Y39367D02*
X182939Y39367D01*
X181430Y39858D01*
X180017Y40578D01*
X178733Y41511D01*
X177611Y42633D01*
X176678Y43917D01*
X175958Y45330D01*
X175467Y46839D01*
X175335Y47677D01*
X183777Y47677D01*
X183777Y39235D01*
X182939Y39367D01*
G37*
%LPD*%
%LPC*%
G36*
X210699Y150799D02*
X210699Y150799D01*
X210699Y150801D01*
X210701Y150801D01*
X210701Y150799D01*
X210699Y150799D01*
G37*
%LPD*%
%LPC*%
G36*
X210699Y74599D02*
X210699Y74599D01*
X210699Y74601D01*
X210701Y74601D01*
X210701Y74599D01*
X210699Y74599D01*
G37*
%LPD*%
%LPC*%
G36*
X185299Y49199D02*
X185299Y49199D01*
X185299Y49201D01*
X185301Y49201D01*
X185301Y49199D01*
X185299Y49199D01*
G37*
%LPD*%
D10*
X0Y10000D02*
X0Y190000D01*
X10000Y200000D02*
X15000Y200000D01*
X15000Y357000D01*
X23000Y365000D02*
X104000Y365000D01*
X112000Y357000D02*
X112000Y315700D01*
X113200Y312800D02*
X123800Y302200D01*
X125000Y299300D02*
X125000Y200000D01*
X230000Y200000D01*
X240000Y190000D02*
X240000Y10000D01*
X230000Y0D02*
X10000Y0D01*
X15000Y357000D02*
X15002Y357193D01*
X15009Y357387D01*
X15021Y357579D01*
X15037Y357772D01*
X15058Y357964D01*
X15084Y358156D01*
X15114Y358347D01*
X15149Y358537D01*
X15188Y358726D01*
X15232Y358915D01*
X15281Y359102D01*
X15334Y359288D01*
X15392Y359472D01*
X15454Y359655D01*
X15520Y359837D01*
X15591Y360017D01*
X15666Y360195D01*
X15745Y360371D01*
X15829Y360546D01*
X15916Y360718D01*
X16008Y360888D01*
X16104Y361056D01*
X16204Y361221D01*
X16308Y361384D01*
X16416Y361545D01*
X16528Y361702D01*
X16643Y361857D01*
X16763Y362009D01*
X16885Y362159D01*
X17012Y362305D01*
X17142Y362448D01*
X17275Y362588D01*
X17412Y362725D01*
X17552Y362858D01*
X17695Y362988D01*
X17841Y363115D01*
X17991Y363237D01*
X18143Y363357D01*
X18298Y363472D01*
X18455Y363584D01*
X18616Y363692D01*
X18779Y363796D01*
X18944Y363896D01*
X19112Y363992D01*
X19282Y364084D01*
X19454Y364171D01*
X19629Y364255D01*
X19805Y364334D01*
X19983Y364409D01*
X20163Y364480D01*
X20345Y364546D01*
X20528Y364608D01*
X20712Y364666D01*
X20898Y364719D01*
X21085Y364768D01*
X21274Y364812D01*
X21463Y364851D01*
X21653Y364886D01*
X21844Y364916D01*
X22036Y364942D01*
X22228Y364963D01*
X22421Y364979D01*
X22613Y364991D01*
X22807Y364998D01*
X23000Y365000D01*
X104000Y365000D02*
X104193Y364998D01*
X104387Y364991D01*
X104579Y364979D01*
X104772Y364963D01*
X104964Y364942D01*
X105156Y364916D01*
X105347Y364886D01*
X105537Y364851D01*
X105726Y364812D01*
X105915Y364768D01*
X106102Y364719D01*
X106288Y364666D01*
X106472Y364608D01*
X106655Y364546D01*
X106837Y364480D01*
X107017Y364409D01*
X107195Y364334D01*
X107371Y364255D01*
X107546Y364171D01*
X107718Y364084D01*
X107888Y363992D01*
X108056Y363896D01*
X108221Y363796D01*
X108384Y363692D01*
X108545Y363584D01*
X108702Y363472D01*
X108857Y363357D01*
X109009Y363237D01*
X109159Y363115D01*
X109305Y362988D01*
X109448Y362858D01*
X109588Y362725D01*
X109725Y362588D01*
X109858Y362448D01*
X109988Y362305D01*
X110115Y362159D01*
X110237Y362009D01*
X110357Y361857D01*
X110472Y361702D01*
X110584Y361545D01*
X110692Y361384D01*
X110796Y361221D01*
X110896Y361056D01*
X110992Y360888D01*
X111084Y360718D01*
X111171Y360546D01*
X111255Y360371D01*
X111334Y360195D01*
X111409Y360017D01*
X111480Y359837D01*
X111546Y359655D01*
X111608Y359472D01*
X111666Y359288D01*
X111719Y359102D01*
X111768Y358915D01*
X111812Y358726D01*
X111851Y358537D01*
X111886Y358347D01*
X111916Y358156D01*
X111942Y357964D01*
X111963Y357772D01*
X111979Y357579D01*
X111991Y357387D01*
X111998Y357193D01*
X112000Y357000D01*
X112000Y315700D02*
X112002Y315577D01*
X112007Y315453D01*
X112017Y315329D01*
X112030Y315206D01*
X112046Y315083D01*
X112067Y314961D01*
X112091Y314840D01*
X112119Y314719D01*
X112150Y314599D01*
X112185Y314480D01*
X112224Y314363D01*
X112266Y314246D01*
X112312Y314131D01*
X112361Y314017D01*
X112413Y313905D01*
X112469Y313794D01*
X112528Y313686D01*
X112591Y313579D01*
X112656Y313474D01*
X112725Y313371D01*
X112797Y313270D01*
X112872Y313171D01*
X112950Y313075D01*
X113030Y312981D01*
X113114Y312889D01*
X113200Y312800D01*
X123800Y302200D02*
X123886Y302111D01*
X123970Y302019D01*
X124050Y301925D01*
X124128Y301829D01*
X124203Y301730D01*
X124275Y301629D01*
X124344Y301526D01*
X124409Y301421D01*
X124472Y301314D01*
X124531Y301206D01*
X124587Y301095D01*
X124639Y300983D01*
X124688Y300869D01*
X124734Y300754D01*
X124776Y300637D01*
X124815Y300520D01*
X124850Y300401D01*
X124881Y300281D01*
X124909Y300160D01*
X124933Y300039D01*
X124954Y299917D01*
X124970Y299794D01*
X124983Y299671D01*
X124993Y299547D01*
X124998Y299423D01*
X125000Y299300D01*
D11*
X0Y10000D02*
X3Y9758D01*
X12Y9517D01*
X26Y9276D01*
X47Y9035D01*
X73Y8795D01*
X105Y8555D01*
X143Y8316D01*
X186Y8079D01*
X236Y7842D01*
X291Y7607D01*
X351Y7373D01*
X418Y7141D01*
X489Y6910D01*
X567Y6681D01*
X650Y6454D01*
X738Y6229D01*
X832Y6006D01*
X931Y5786D01*
X1036Y5568D01*
X1145Y5353D01*
X1260Y5140D01*
X1380Y4930D01*
X1505Y4724D01*
X1635Y4520D01*
X1770Y4319D01*
X1910Y4122D01*
X2054Y3928D01*
X2203Y3738D01*
X2357Y3552D01*
X2515Y3369D01*
X2677Y3190D01*
X2844Y3015D01*
X3015Y2844D01*
X3190Y2677D01*
X3369Y2515D01*
X3552Y2357D01*
X3738Y2203D01*
X3928Y2054D01*
X4122Y1910D01*
X4319Y1770D01*
X4520Y1635D01*
X4724Y1505D01*
X4930Y1380D01*
X5140Y1260D01*
X5353Y1145D01*
X5568Y1036D01*
X5786Y931D01*
X6006Y832D01*
X6229Y738D01*
X6454Y650D01*
X6681Y567D01*
X6910Y489D01*
X7141Y418D01*
X7373Y351D01*
X7607Y291D01*
X7842Y236D01*
X8079Y186D01*
X8316Y143D01*
X8555Y105D01*
X8795Y73D01*
X9035Y47D01*
X9276Y26D01*
X9517Y12D01*
X9758Y3D01*
X10000Y0D01*
D10*
X0Y190000D02*
X3Y190242D01*
X12Y190483D01*
X26Y190724D01*
X47Y190965D01*
X73Y191205D01*
X105Y191445D01*
X143Y191684D01*
X186Y191921D01*
X236Y192158D01*
X291Y192393D01*
X351Y192627D01*
X418Y192859D01*
X489Y193090D01*
X567Y193319D01*
X650Y193546D01*
X738Y193771D01*
X832Y193994D01*
X931Y194214D01*
X1036Y194432D01*
X1145Y194647D01*
X1260Y194860D01*
X1380Y195070D01*
X1505Y195276D01*
X1635Y195480D01*
X1770Y195681D01*
X1910Y195878D01*
X2054Y196072D01*
X2203Y196262D01*
X2357Y196448D01*
X2515Y196631D01*
X2677Y196810D01*
X2844Y196985D01*
X3015Y197156D01*
X3190Y197323D01*
X3369Y197485D01*
X3552Y197643D01*
X3738Y197797D01*
X3928Y197946D01*
X4122Y198090D01*
X4319Y198230D01*
X4520Y198365D01*
X4724Y198495D01*
X4930Y198620D01*
X5140Y198740D01*
X5353Y198855D01*
X5568Y198964D01*
X5786Y199069D01*
X6006Y199168D01*
X6229Y199262D01*
X6454Y199350D01*
X6681Y199433D01*
X6910Y199511D01*
X7141Y199582D01*
X7373Y199649D01*
X7607Y199709D01*
X7842Y199764D01*
X8079Y199814D01*
X8316Y199857D01*
X8555Y199895D01*
X8795Y199927D01*
X9035Y199953D01*
X9276Y199974D01*
X9517Y199988D01*
X9758Y199997D01*
X10000Y200000D01*
D11*
X230000Y200000D02*
X230242Y199997D01*
X230483Y199988D01*
X230724Y199974D01*
X230965Y199953D01*
X231205Y199927D01*
X231445Y199895D01*
X231684Y199857D01*
X231921Y199814D01*
X232158Y199764D01*
X232393Y199709D01*
X232627Y199649D01*
X232859Y199582D01*
X233090Y199511D01*
X233319Y199433D01*
X233546Y199350D01*
X233771Y199262D01*
X233994Y199168D01*
X234214Y199069D01*
X234432Y198964D01*
X234647Y198855D01*
X234860Y198740D01*
X235070Y198620D01*
X235276Y198495D01*
X235480Y198365D01*
X235681Y198230D01*
X235878Y198090D01*
X236072Y197946D01*
X236262Y197797D01*
X236448Y197643D01*
X236631Y197485D01*
X236810Y197323D01*
X236985Y197156D01*
X237156Y196985D01*
X237323Y196810D01*
X237485Y196631D01*
X237643Y196448D01*
X237797Y196262D01*
X237946Y196072D01*
X238090Y195878D01*
X238230Y195681D01*
X238365Y195480D01*
X238495Y195276D01*
X238620Y195070D01*
X238740Y194860D01*
X238855Y194647D01*
X238964Y194432D01*
X239069Y194214D01*
X239168Y193994D01*
X239262Y193771D01*
X239350Y193546D01*
X239433Y193319D01*
X239511Y193090D01*
X239582Y192859D01*
X239649Y192627D01*
X239709Y192393D01*
X239764Y192158D01*
X239814Y191921D01*
X239857Y191684D01*
X239895Y191445D01*
X239927Y191205D01*
X239953Y190965D01*
X239974Y190724D01*
X239988Y190483D01*
X239997Y190242D01*
X240000Y190000D01*
X240000Y10000D02*
X239997Y9758D01*
X239988Y9517D01*
X239974Y9276D01*
X239953Y9035D01*
X239927Y8795D01*
X239895Y8555D01*
X239857Y8316D01*
X239814Y8079D01*
X239764Y7842D01*
X239709Y7607D01*
X239649Y7373D01*
X239582Y7141D01*
X239511Y6910D01*
X239433Y6681D01*
X239350Y6454D01*
X239262Y6229D01*
X239168Y6006D01*
X239069Y5786D01*
X238964Y5568D01*
X238855Y5353D01*
X238740Y5140D01*
X238620Y4930D01*
X238495Y4724D01*
X238365Y4520D01*
X238230Y4319D01*
X238090Y4122D01*
X237946Y3928D01*
X237797Y3738D01*
X237643Y3552D01*
X237485Y3369D01*
X237323Y3190D01*
X237156Y3015D01*
X236985Y2844D01*
X236810Y2677D01*
X236631Y2515D01*
X236448Y2357D01*
X236262Y2203D01*
X236072Y2054D01*
X235878Y1910D01*
X235681Y1770D01*
X235480Y1635D01*
X235276Y1505D01*
X235070Y1380D01*
X234860Y1260D01*
X234647Y1145D01*
X234432Y1036D01*
X234214Y931D01*
X233994Y832D01*
X233771Y738D01*
X233546Y650D01*
X233319Y567D01*
X233090Y489D01*
X232859Y418D01*
X232627Y351D01*
X232393Y291D01*
X232158Y236D01*
X231921Y186D01*
X231684Y143D01*
X231445Y105D01*
X231205Y73D01*
X230965Y47D01*
X230724Y26D01*
X230483Y12D01*
X230242Y3D01*
X230000Y0D01*
D12*
X210700Y49200D03*
X185300Y49200D03*
X210700Y74600D03*
X185300Y74600D03*
X210700Y100000D03*
X185300Y100000D03*
X210700Y125400D03*
X185300Y125400D03*
X210700Y150800D03*
X185300Y150800D03*
D13*
X138010Y15000D03*
X66010Y15000D03*
D14*
X102000Y339500D03*
X91000Y339500D03*
X80000Y339500D03*
D15*
X69000Y341000D03*
D14*
X58000Y339500D03*
D16*
X47000Y341000D03*
D14*
X36000Y339500D03*
X25000Y339500D03*
X102000Y255500D03*
X91000Y255500D03*
X80000Y255500D03*
X69000Y255500D03*
D16*
X58000Y257000D03*
D14*
X47000Y255500D03*
X36000Y255500D03*
D16*
X25000Y257000D03*
D17*
X151850Y166500D03*
D18*
X39200Y125500D03*
D17*
X151850Y36900D03*
D19*
X39350Y164300D03*
D20*
X44200Y36900D03*
D18*
X39200Y114500D03*
X39200Y103500D03*
X39200Y92500D03*
X39200Y81500D03*
X39200Y70500D03*
X39200Y59500D03*
X39200Y48500D03*
D21*
X58000Y237500D02*
X58000Y257000D01*
D22*
X58000Y237500D03*
X83000Y225000D03*
D21*
X62238Y225000D01*
X47000Y240238D02*
X47000Y255500D01*
X47000Y240238D02*
X62238Y225000D01*
X36000Y244000D02*
X36000Y255500D01*
X63500Y216500D02*
X86000Y216500D01*
D22*
X86000Y216500D03*
D21*
X63500Y216500D02*
X36000Y244000D01*
D11*
X102000Y239500D02*
X102000Y255500D01*
X102000Y239500D02*
X102500Y239000D01*
X102500Y238000D01*
X103000Y237500D01*
D22*
X103000Y237500D03*
D11*
X91000Y238000D02*
X91000Y255500D01*
X91000Y238000D02*
X92000Y237000D01*
D22*
X92000Y237000D03*
D21*
X69000Y238500D02*
X69000Y255500D01*
X69000Y238500D02*
X68500Y238000D01*
D22*
X68500Y238000D03*
X96000Y320000D03*
X31000Y125000D03*
D10*
X38700Y125000D01*
X39200Y125500D01*
X102000Y326000D02*
X102000Y339500D01*
X102000Y326000D02*
X96000Y320000D01*
D22*
X85000Y320000D03*
X28000Y115500D03*
D10*
X38200Y115500D01*
X39200Y114500D01*
X91000Y326000D02*
X91000Y339500D01*
X91000Y326000D02*
X85000Y320000D01*
D22*
X74500Y320000D03*
X24000Y104500D03*
D21*
X38200Y104500D01*
X39200Y103500D01*
X80000Y325500D02*
X80000Y339500D01*
X80000Y325500D02*
X74500Y320000D01*
X69000Y325500D02*
X69000Y341000D01*
X69000Y325500D02*
X63500Y320000D01*
D22*
X63500Y320000D03*
X22500Y93000D03*
D21*
X38700Y93000D01*
X39200Y92500D01*
X58000Y325428D02*
X58000Y339500D01*
X58000Y325428D02*
X52500Y319928D01*
D22*
X52500Y319928D03*
X17200Y82500D03*
D10*
X38200Y82500D01*
X39200Y81500D01*
D21*
X47000Y325500D02*
X47000Y341000D01*
X47000Y325500D02*
X41500Y320000D01*
D22*
X41500Y320000D03*
X17200Y71500D03*
D21*
X38200Y71500D01*
X39200Y70500D01*
D10*
X36000Y326428D02*
X36000Y339500D01*
X36000Y326428D02*
X30000Y320428D01*
D22*
X30000Y320428D03*
X9500Y60500D03*
D10*
X38200Y60500D01*
X39200Y59500D01*
X25000Y325650D02*
X25000Y339500D01*
X25000Y325650D02*
X21350Y322000D01*
D22*
X21350Y322000D03*
X8500Y49000D03*
D10*
X38700Y49000D01*
X39200Y48500D01*
D22*
X175500Y61000D03*
X124500Y176500D03*
D21*
X80000Y237500D02*
X80000Y255500D01*
D22*
X80000Y237500D03*
M02*
