G04 EAGLE Gerber RS-274X export*
G75*
%MOMM*%
%FSLAX34Y34*%
%LPD*%
%INBottom layer*%
%IPPOS*%
%AMOC8*
5,1,8,0,0,1.08239X$1,22.5*%
G01*
%ADD10C,0.152400*%
%ADD11C,1.508000*%
%ADD12R,1.000000X0.240000*%
%ADD13R,1.000000X0.300000*%
%ADD14C,1.950000*%
%ADD15P,1.649562X8X112.500000*%
%ADD16C,0.254000*%
%ADD17C,0.609600*%
%ADD18C,0.203200*%
%ADD19C,0.804800*%

G36*
X106995Y33314D02*
X106995Y33314D01*
X107067Y33316D01*
X107116Y33334D01*
X107167Y33342D01*
X107231Y33376D01*
X107298Y33401D01*
X107339Y33433D01*
X107385Y33458D01*
X107434Y33510D01*
X107490Y33554D01*
X107518Y33598D01*
X107554Y33636D01*
X107584Y33701D01*
X107623Y33761D01*
X107636Y33812D01*
X107658Y33859D01*
X107666Y33930D01*
X107683Y34000D01*
X107679Y34052D01*
X107685Y34103D01*
X107670Y34174D01*
X107664Y34245D01*
X107644Y34293D01*
X107633Y34344D01*
X107596Y34405D01*
X107568Y34471D01*
X107523Y34527D01*
X107506Y34555D01*
X107489Y34570D01*
X107463Y34602D01*
X104452Y37613D01*
X102735Y41757D01*
X102735Y46243D01*
X104452Y50387D01*
X107623Y53558D01*
X111767Y55275D01*
X116253Y55275D01*
X120397Y53558D01*
X123568Y50387D01*
X125285Y46243D01*
X125285Y41757D01*
X123568Y37613D01*
X120557Y34602D01*
X120515Y34544D01*
X120466Y34492D01*
X120444Y34445D01*
X120414Y34403D01*
X120393Y34334D01*
X120362Y34269D01*
X120357Y34217D01*
X120341Y34167D01*
X120343Y34096D01*
X120335Y34025D01*
X120346Y33974D01*
X120348Y33922D01*
X120372Y33854D01*
X120387Y33784D01*
X120414Y33739D01*
X120432Y33691D01*
X120477Y33635D01*
X120514Y33573D01*
X120553Y33539D01*
X120586Y33499D01*
X120646Y33460D01*
X120701Y33413D01*
X120749Y33394D01*
X120793Y33366D01*
X120862Y33348D01*
X120929Y33321D01*
X121000Y33313D01*
X121031Y33305D01*
X121054Y33307D01*
X121095Y33303D01*
X178925Y33303D01*
X178995Y33314D01*
X179067Y33316D01*
X179116Y33334D01*
X179167Y33342D01*
X179231Y33376D01*
X179298Y33401D01*
X179339Y33433D01*
X179385Y33458D01*
X179434Y33510D01*
X179490Y33554D01*
X179518Y33598D01*
X179554Y33636D01*
X179584Y33701D01*
X179623Y33761D01*
X179636Y33812D01*
X179658Y33859D01*
X179666Y33930D01*
X179683Y34000D01*
X179679Y34052D01*
X179685Y34103D01*
X179670Y34174D01*
X179664Y34245D01*
X179644Y34293D01*
X179633Y34344D01*
X179596Y34405D01*
X179568Y34471D01*
X179523Y34527D01*
X179506Y34555D01*
X179489Y34570D01*
X179463Y34602D01*
X176452Y37613D01*
X174735Y41757D01*
X174735Y46243D01*
X176452Y50387D01*
X179623Y53558D01*
X183767Y55275D01*
X188253Y55275D01*
X192397Y53558D01*
X195568Y50387D01*
X197285Y46243D01*
X197285Y41757D01*
X195568Y37613D01*
X192557Y34602D01*
X192515Y34544D01*
X192466Y34492D01*
X192444Y34445D01*
X192414Y34403D01*
X192393Y34334D01*
X192362Y34269D01*
X192357Y34217D01*
X192341Y34167D01*
X192343Y34096D01*
X192335Y34025D01*
X192346Y33974D01*
X192348Y33922D01*
X192372Y33854D01*
X192387Y33784D01*
X192414Y33739D01*
X192432Y33691D01*
X192477Y33635D01*
X192514Y33573D01*
X192553Y33539D01*
X192586Y33499D01*
X192646Y33460D01*
X192701Y33413D01*
X192749Y33394D01*
X192793Y33366D01*
X192862Y33348D01*
X192929Y33321D01*
X193000Y33313D01*
X193031Y33305D01*
X193054Y33307D01*
X193095Y33303D01*
X215936Y33303D01*
X215956Y33306D01*
X215975Y33304D01*
X216077Y33326D01*
X216179Y33342D01*
X216196Y33352D01*
X216216Y33356D01*
X216305Y33409D01*
X216396Y33458D01*
X216410Y33472D01*
X216427Y33482D01*
X216494Y33561D01*
X216566Y33636D01*
X216574Y33654D01*
X216587Y33669D01*
X216626Y33765D01*
X216669Y33859D01*
X216671Y33879D01*
X216679Y33897D01*
X216697Y34064D01*
X216697Y230886D01*
X216694Y230906D01*
X216696Y230925D01*
X216674Y231027D01*
X216658Y231129D01*
X216648Y231146D01*
X216644Y231166D01*
X216591Y231255D01*
X216542Y231346D01*
X216528Y231360D01*
X216518Y231377D01*
X216439Y231444D01*
X216364Y231516D01*
X216346Y231524D01*
X216331Y231537D01*
X216235Y231576D01*
X216141Y231619D01*
X216121Y231621D01*
X216103Y231629D01*
X215936Y231647D01*
X93632Y231647D01*
X91697Y233582D01*
X91697Y338836D01*
X91694Y338856D01*
X91696Y338875D01*
X91674Y338977D01*
X91658Y339079D01*
X91648Y339096D01*
X91644Y339116D01*
X91591Y339205D01*
X91542Y339296D01*
X91528Y339310D01*
X91518Y339327D01*
X91439Y339394D01*
X91364Y339466D01*
X91346Y339474D01*
X91331Y339487D01*
X91235Y339526D01*
X91141Y339569D01*
X91121Y339571D01*
X91103Y339579D01*
X90936Y339597D01*
X4064Y339597D01*
X4044Y339594D01*
X4025Y339596D01*
X3923Y339574D01*
X3821Y339558D01*
X3804Y339548D01*
X3784Y339544D01*
X3695Y339491D01*
X3604Y339442D01*
X3590Y339428D01*
X3573Y339418D01*
X3506Y339339D01*
X3434Y339264D01*
X3426Y339246D01*
X3413Y339231D01*
X3374Y339135D01*
X3331Y339041D01*
X3329Y339021D01*
X3321Y339003D01*
X3303Y338836D01*
X3303Y34064D01*
X3306Y34044D01*
X3304Y34025D01*
X3326Y33923D01*
X3342Y33821D01*
X3352Y33804D01*
X3356Y33784D01*
X3409Y33695D01*
X3458Y33604D01*
X3472Y33590D01*
X3482Y33573D01*
X3561Y33506D01*
X3636Y33434D01*
X3654Y33426D01*
X3669Y33413D01*
X3765Y33374D01*
X3859Y33331D01*
X3879Y33329D01*
X3897Y33321D01*
X4064Y33303D01*
X106925Y33303D01*
X106995Y33314D01*
G37*
%LPC*%
G36*
X53712Y70855D02*
X53712Y70855D01*
X48355Y76212D01*
X48355Y83788D01*
X53712Y89145D01*
X53956Y89145D01*
X54027Y89156D01*
X54098Y89158D01*
X54147Y89176D01*
X54199Y89184D01*
X54262Y89218D01*
X54329Y89243D01*
X54370Y89275D01*
X54416Y89300D01*
X54465Y89352D01*
X54521Y89396D01*
X54550Y89440D01*
X54585Y89478D01*
X54616Y89543D01*
X54654Y89603D01*
X54667Y89654D01*
X54689Y89701D01*
X54697Y89772D01*
X54714Y89842D01*
X54710Y89894D01*
X54716Y89945D01*
X54701Y90016D01*
X54695Y90087D01*
X54675Y90135D01*
X54664Y90186D01*
X54627Y90247D01*
X54599Y90313D01*
X54554Y90369D01*
X54538Y90397D01*
X54520Y90412D01*
X54494Y90444D01*
X44115Y100824D01*
X42403Y102535D01*
X42403Y135771D01*
X42389Y135861D01*
X42381Y135952D01*
X42369Y135982D01*
X42364Y136014D01*
X42321Y136094D01*
X42285Y136178D01*
X42259Y136211D01*
X42248Y136231D01*
X42225Y136253D01*
X42180Y136309D01*
X41161Y137329D01*
X39449Y139040D01*
X39449Y144303D01*
X39435Y144393D01*
X39427Y144484D01*
X39415Y144514D01*
X39410Y144546D01*
X39367Y144627D01*
X39331Y144711D01*
X39305Y144743D01*
X39294Y144763D01*
X39271Y144786D01*
X39226Y144841D01*
X35029Y149039D01*
X35029Y202287D01*
X39226Y206484D01*
X39279Y206558D01*
X39339Y206627D01*
X39351Y206658D01*
X39370Y206684D01*
X39397Y206771D01*
X39431Y206856D01*
X39435Y206897D01*
X39442Y206919D01*
X39441Y206951D01*
X39449Y207022D01*
X39449Y207469D01*
X41161Y209180D01*
X56719Y224738D01*
X56730Y224754D01*
X56746Y224767D01*
X56802Y224854D01*
X56862Y224938D01*
X56868Y224957D01*
X56879Y224974D01*
X56904Y225074D01*
X56934Y225173D01*
X56934Y225193D01*
X56939Y225212D01*
X56931Y225315D01*
X56928Y225419D01*
X56921Y225438D01*
X56920Y225457D01*
X56879Y225552D01*
X56844Y225650D01*
X56831Y225665D01*
X56823Y225684D01*
X56719Y225815D01*
X54927Y227606D01*
X54927Y231394D01*
X56736Y233203D01*
X56789Y233277D01*
X56849Y233347D01*
X56861Y233377D01*
X56880Y233403D01*
X56907Y233490D01*
X56941Y233575D01*
X56945Y233616D01*
X56952Y233638D01*
X56951Y233670D01*
X56959Y233741D01*
X56959Y239132D01*
X56945Y239222D01*
X56937Y239313D01*
X56925Y239343D01*
X56920Y239375D01*
X56877Y239456D01*
X56841Y239540D01*
X56815Y239572D01*
X56804Y239592D01*
X56781Y239615D01*
X56736Y239671D01*
X55625Y240782D01*
X55625Y286215D01*
X57512Y288101D01*
X57565Y288175D01*
X57625Y288245D01*
X57637Y288275D01*
X57655Y288301D01*
X57682Y288388D01*
X57716Y288473D01*
X57721Y288514D01*
X57728Y288536D01*
X57727Y288568D01*
X57735Y288640D01*
X57735Y290777D01*
X59234Y292276D01*
X59276Y292334D01*
X59325Y292386D01*
X59347Y292433D01*
X59377Y292475D01*
X59399Y292544D01*
X59429Y292609D01*
X59434Y292661D01*
X59450Y292711D01*
X59448Y292782D01*
X59456Y292853D01*
X59445Y292904D01*
X59443Y292956D01*
X59419Y293024D01*
X59404Y293094D01*
X59377Y293139D01*
X59359Y293187D01*
X59314Y293243D01*
X59277Y293305D01*
X59238Y293339D01*
X59205Y293379D01*
X59145Y293418D01*
X59091Y293465D01*
X59042Y293484D01*
X58998Y293512D01*
X58929Y293530D01*
X58862Y293557D01*
X58791Y293565D01*
X58760Y293573D01*
X58737Y293571D01*
X58696Y293575D01*
X51068Y293575D01*
X50175Y294468D01*
X50175Y298732D01*
X51068Y299625D01*
X54581Y299625D01*
X54652Y299636D01*
X54724Y299638D01*
X54773Y299656D01*
X54824Y299664D01*
X54887Y299698D01*
X54955Y299723D01*
X54995Y299755D01*
X55041Y299780D01*
X55091Y299831D01*
X55147Y299876D01*
X55175Y299920D01*
X55211Y299958D01*
X55241Y300023D01*
X55280Y300083D01*
X55292Y300134D01*
X55314Y300181D01*
X55322Y300252D01*
X55340Y300322D01*
X55336Y300374D01*
X55341Y300425D01*
X55326Y300496D01*
X55321Y300567D01*
X55300Y300615D01*
X55289Y300666D01*
X55252Y300727D01*
X55224Y300793D01*
X55179Y300849D01*
X55163Y300877D01*
X55145Y300892D01*
X55119Y300924D01*
X54975Y301068D01*
X54975Y320732D01*
X55119Y320876D01*
X55161Y320934D01*
X55211Y320986D01*
X55233Y321033D01*
X55263Y321075D01*
X55284Y321144D01*
X55314Y321209D01*
X55320Y321261D01*
X55335Y321311D01*
X55333Y321382D01*
X55341Y321453D01*
X55330Y321504D01*
X55329Y321556D01*
X55304Y321624D01*
X55289Y321694D01*
X55262Y321739D01*
X55245Y321787D01*
X55200Y321843D01*
X55163Y321905D01*
X55123Y321939D01*
X55091Y321979D01*
X55031Y322018D01*
X54976Y322065D01*
X54928Y322084D01*
X54884Y322112D01*
X54815Y322130D01*
X54748Y322157D01*
X54677Y322165D01*
X54645Y322173D01*
X54622Y322171D01*
X54581Y322175D01*
X51079Y322175D01*
X51009Y322164D01*
X50937Y322162D01*
X50888Y322144D01*
X50837Y322136D01*
X50773Y322102D01*
X50706Y322077D01*
X50665Y322045D01*
X50619Y322020D01*
X50570Y321968D01*
X50514Y321924D01*
X50486Y321880D01*
X50450Y321842D01*
X50420Y321777D01*
X50381Y321717D01*
X50368Y321666D01*
X50346Y321619D01*
X50338Y321548D01*
X50321Y321478D01*
X50325Y321426D01*
X50319Y321375D01*
X50334Y321304D01*
X50340Y321233D01*
X50360Y321185D01*
X50371Y321134D01*
X50408Y321073D01*
X50436Y321007D01*
X50481Y320951D01*
X50498Y320923D01*
X50515Y320908D01*
X50541Y320876D01*
X51753Y319664D01*
X51753Y315876D01*
X50145Y314268D01*
X50133Y314252D01*
X50118Y314240D01*
X50062Y314152D01*
X50002Y314069D01*
X49996Y314050D01*
X49985Y314033D01*
X49960Y313932D01*
X49929Y313833D01*
X49930Y313814D01*
X49925Y313794D01*
X49933Y313691D01*
X49936Y313588D01*
X49942Y313569D01*
X49944Y313549D01*
X49984Y313454D01*
X50020Y313357D01*
X50033Y313341D01*
X50040Y313323D01*
X50145Y313192D01*
X51563Y311774D01*
X51563Y307986D01*
X48884Y305307D01*
X45096Y305307D01*
X42340Y308063D01*
X42282Y308105D01*
X42230Y308154D01*
X42183Y308176D01*
X42141Y308206D01*
X42072Y308228D01*
X42007Y308258D01*
X41955Y308263D01*
X41905Y308279D01*
X41834Y308277D01*
X41763Y308285D01*
X41712Y308274D01*
X41660Y308272D01*
X41592Y308248D01*
X41522Y308233D01*
X41477Y308206D01*
X41429Y308188D01*
X41373Y308143D01*
X41311Y308106D01*
X41277Y308067D01*
X41237Y308034D01*
X41198Y307974D01*
X41151Y307920D01*
X41132Y307871D01*
X41104Y307827D01*
X41086Y307758D01*
X41059Y307691D01*
X41056Y307661D01*
X33500Y307661D01*
X25959Y307661D01*
X25959Y308434D01*
X26132Y309081D01*
X26467Y309660D01*
X26752Y309945D01*
X26805Y310019D01*
X26865Y310089D01*
X26877Y310119D01*
X26896Y310145D01*
X26923Y310232D01*
X26957Y310317D01*
X26961Y310358D01*
X26968Y310380D01*
X26967Y310412D01*
X26975Y310484D01*
X26975Y314068D01*
X26972Y314088D01*
X26974Y314107D01*
X26952Y314209D01*
X26936Y314311D01*
X26926Y314328D01*
X26922Y314348D01*
X26869Y314437D01*
X26820Y314528D01*
X26806Y314542D01*
X26796Y314559D01*
X26717Y314626D01*
X26642Y314698D01*
X26624Y314706D01*
X26609Y314719D01*
X26513Y314758D01*
X26419Y314801D01*
X26399Y314803D01*
X26381Y314811D01*
X26214Y314829D01*
X22888Y314829D01*
X20209Y317508D01*
X20209Y321296D01*
X22888Y323975D01*
X26676Y323975D01*
X28733Y321918D01*
X28807Y321865D01*
X28877Y321805D01*
X28907Y321793D01*
X28933Y321774D01*
X29020Y321747D01*
X29105Y321713D01*
X29146Y321709D01*
X29168Y321702D01*
X29200Y321703D01*
X29272Y321695D01*
X31311Y321695D01*
X31382Y321706D01*
X31454Y321708D01*
X31503Y321726D01*
X31554Y321734D01*
X31617Y321768D01*
X31685Y321793D01*
X31725Y321825D01*
X31771Y321850D01*
X31821Y321901D01*
X31877Y321946D01*
X31905Y321990D01*
X31941Y322028D01*
X31971Y322093D01*
X32010Y322153D01*
X32022Y322204D01*
X32044Y322251D01*
X32052Y322322D01*
X32070Y322392D01*
X32066Y322444D01*
X32071Y322495D01*
X32056Y322566D01*
X32051Y322637D01*
X32030Y322685D01*
X32019Y322736D01*
X31982Y322797D01*
X31954Y322863D01*
X31909Y322919D01*
X31893Y322947D01*
X31875Y322962D01*
X31849Y322994D01*
X31775Y323068D01*
X31775Y327332D01*
X32668Y328225D01*
X43932Y328225D01*
X44825Y327332D01*
X44825Y323104D01*
X44828Y323084D01*
X44826Y323065D01*
X44848Y322963D01*
X44864Y322861D01*
X44874Y322844D01*
X44878Y322824D01*
X44931Y322735D01*
X44980Y322644D01*
X44994Y322630D01*
X45004Y322613D01*
X45083Y322546D01*
X45158Y322474D01*
X45176Y322466D01*
X45191Y322453D01*
X45287Y322414D01*
X45381Y322371D01*
X45401Y322369D01*
X45419Y322361D01*
X45586Y322343D01*
X49241Y322343D01*
X49260Y322341D01*
X49310Y322325D01*
X49382Y322327D01*
X49453Y322319D01*
X49504Y322330D01*
X49556Y322331D01*
X49624Y322356D01*
X49694Y322371D01*
X49738Y322398D01*
X49787Y322416D01*
X49843Y322461D01*
X49905Y322498D01*
X49939Y322537D01*
X49979Y322569D01*
X50018Y322630D01*
X50065Y322684D01*
X50084Y322733D01*
X50112Y322776D01*
X50130Y322846D01*
X50157Y322913D01*
X50165Y322983D01*
X50173Y323015D01*
X50171Y323038D01*
X50175Y323079D01*
X50175Y327332D01*
X51068Y328225D01*
X62332Y328225D01*
X63225Y327332D01*
X63225Y323068D01*
X63081Y322924D01*
X63039Y322866D01*
X62989Y322814D01*
X62967Y322767D01*
X62937Y322725D01*
X62916Y322656D01*
X62886Y322591D01*
X62880Y322539D01*
X62865Y322489D01*
X62867Y322418D01*
X62859Y322347D01*
X62870Y322296D01*
X62871Y322244D01*
X62896Y322176D01*
X62911Y322106D01*
X62938Y322061D01*
X62955Y322013D01*
X63000Y321957D01*
X63037Y321895D01*
X63077Y321861D01*
X63109Y321821D01*
X63169Y321782D01*
X63224Y321735D01*
X63272Y321716D01*
X63316Y321688D01*
X63385Y321670D01*
X63452Y321643D01*
X63523Y321635D01*
X63555Y321627D01*
X63578Y321629D01*
X63619Y321625D01*
X67132Y321625D01*
X67283Y321474D01*
X67357Y321421D01*
X67426Y321361D01*
X67456Y321349D01*
X67482Y321330D01*
X67569Y321303D01*
X67654Y321269D01*
X67695Y321265D01*
X67717Y321258D01*
X67750Y321259D01*
X67821Y321251D01*
X73080Y321251D01*
X82694Y311637D01*
X82768Y311584D01*
X82838Y311524D01*
X82868Y311512D01*
X82894Y311493D01*
X82981Y311466D01*
X83066Y311432D01*
X83107Y311428D01*
X83129Y311421D01*
X83161Y311422D01*
X83233Y311414D01*
X83277Y311414D01*
X84914Y309777D01*
X84914Y226461D01*
X65658Y207205D01*
X63973Y207205D01*
X63883Y207191D01*
X63792Y207183D01*
X63762Y207171D01*
X63730Y207166D01*
X63650Y207123D01*
X63566Y207087D01*
X63534Y207061D01*
X63513Y207050D01*
X63491Y207027D01*
X63435Y206982D01*
X59500Y203047D01*
X59053Y203047D01*
X58963Y203033D01*
X58872Y203025D01*
X58842Y203013D01*
X58810Y203008D01*
X58730Y202965D01*
X58646Y202929D01*
X58614Y202903D01*
X58593Y202892D01*
X58571Y202869D01*
X58515Y202824D01*
X57176Y201485D01*
X57123Y201411D01*
X57063Y201342D01*
X57051Y201312D01*
X57032Y201285D01*
X57005Y201199D01*
X56971Y201114D01*
X56967Y201073D01*
X56960Y201050D01*
X56961Y201018D01*
X56953Y200947D01*
X56953Y200500D01*
X52018Y195565D01*
X51965Y195491D01*
X51905Y195422D01*
X51893Y195392D01*
X51874Y195366D01*
X51847Y195279D01*
X51813Y195194D01*
X51809Y195153D01*
X51802Y195131D01*
X51803Y195098D01*
X51795Y195027D01*
X51795Y192349D01*
X51806Y192278D01*
X51808Y192206D01*
X51826Y192157D01*
X51834Y192106D01*
X51868Y192043D01*
X51893Y191975D01*
X51925Y191935D01*
X51950Y191889D01*
X52001Y191839D01*
X52046Y191783D01*
X52090Y191755D01*
X52128Y191719D01*
X52193Y191689D01*
X52253Y191650D01*
X52304Y191638D01*
X52351Y191616D01*
X52422Y191608D01*
X52492Y191590D01*
X52544Y191594D01*
X52595Y191589D01*
X52666Y191604D01*
X52737Y191609D01*
X52785Y191630D01*
X52836Y191641D01*
X52897Y191678D01*
X52963Y191706D01*
X53019Y191751D01*
X53047Y191767D01*
X53062Y191785D01*
X53094Y191811D01*
X53123Y191839D01*
X54407Y192772D01*
X55820Y193492D01*
X57329Y193983D01*
X58167Y194115D01*
X58167Y184912D01*
X58170Y184892D01*
X58168Y184873D01*
X58190Y184771D01*
X58207Y184669D01*
X58216Y184652D01*
X58220Y184632D01*
X58273Y184543D01*
X58322Y184452D01*
X58336Y184438D01*
X58346Y184421D01*
X58425Y184354D01*
X58500Y184283D01*
X58518Y184274D01*
X58533Y184261D01*
X58629Y184223D01*
X58723Y184179D01*
X58743Y184177D01*
X58761Y184169D01*
X58928Y184151D01*
X59691Y184151D01*
X59691Y184149D01*
X58928Y184149D01*
X58908Y184146D01*
X58889Y184148D01*
X58787Y184126D01*
X58685Y184109D01*
X58668Y184100D01*
X58648Y184096D01*
X58559Y184043D01*
X58468Y183994D01*
X58454Y183980D01*
X58437Y183970D01*
X58370Y183891D01*
X58299Y183816D01*
X58290Y183798D01*
X58277Y183783D01*
X58238Y183687D01*
X58195Y183593D01*
X58193Y183573D01*
X58185Y183555D01*
X58167Y183388D01*
X58167Y174185D01*
X57329Y174317D01*
X55820Y174808D01*
X54407Y175528D01*
X53123Y176461D01*
X53094Y176489D01*
X53036Y176531D01*
X52984Y176581D01*
X52937Y176603D01*
X52895Y176633D01*
X52826Y176654D01*
X52761Y176684D01*
X52709Y176690D01*
X52660Y176705D01*
X52588Y176703D01*
X52517Y176711D01*
X52466Y176700D01*
X52414Y176699D01*
X52346Y176674D01*
X52276Y176659D01*
X52231Y176632D01*
X52183Y176615D01*
X52127Y176570D01*
X52065Y176533D01*
X52031Y176493D01*
X51991Y176461D01*
X51952Y176401D01*
X51905Y176346D01*
X51886Y176298D01*
X51858Y176254D01*
X51840Y176184D01*
X51813Y176118D01*
X51805Y176047D01*
X51797Y176016D01*
X51799Y175992D01*
X51795Y175951D01*
X51795Y165512D01*
X51806Y165441D01*
X51808Y165370D01*
X51826Y165321D01*
X51834Y165269D01*
X51868Y165206D01*
X51893Y165139D01*
X51925Y165098D01*
X51950Y165052D01*
X52002Y165003D01*
X52046Y164947D01*
X52090Y164918D01*
X52128Y164883D01*
X52193Y164852D01*
X52253Y164814D01*
X52304Y164801D01*
X52351Y164779D01*
X52422Y164771D01*
X52492Y164753D01*
X52544Y164758D01*
X52595Y164752D01*
X52666Y164767D01*
X52737Y164773D01*
X52785Y164793D01*
X52836Y164804D01*
X52897Y164841D01*
X52963Y164869D01*
X53019Y164914D01*
X53047Y164930D01*
X53062Y164948D01*
X53094Y164974D01*
X54555Y166435D01*
X57887Y167815D01*
X61493Y167815D01*
X64825Y166435D01*
X67375Y163885D01*
X68755Y160553D01*
X68755Y156947D01*
X67375Y153615D01*
X64825Y151065D01*
X61493Y149685D01*
X61105Y149685D01*
X61034Y149674D01*
X60962Y149672D01*
X60913Y149654D01*
X60862Y149646D01*
X60799Y149612D01*
X60731Y149587D01*
X60691Y149555D01*
X60645Y149530D01*
X60595Y149478D01*
X60539Y149434D01*
X60511Y149390D01*
X60475Y149352D01*
X60445Y149287D01*
X60406Y149227D01*
X60394Y149176D01*
X60372Y149129D01*
X60364Y149058D01*
X60346Y148988D01*
X60350Y148936D01*
X60345Y148885D01*
X60360Y148814D01*
X60365Y148743D01*
X60386Y148695D01*
X60397Y148644D01*
X60434Y148583D01*
X60462Y148517D01*
X60507Y148461D01*
X60523Y148433D01*
X60541Y148418D01*
X60567Y148386D01*
X96109Y112844D01*
X96109Y99929D01*
X94249Y98069D01*
X86545Y90365D01*
X86533Y90348D01*
X86517Y90336D01*
X86461Y90249D01*
X86401Y90165D01*
X86395Y90146D01*
X86384Y90129D01*
X86359Y90029D01*
X86329Y89930D01*
X86329Y89910D01*
X86324Y89891D01*
X86332Y89788D01*
X86335Y89684D01*
X86342Y89665D01*
X86343Y89645D01*
X86384Y89550D01*
X86419Y89453D01*
X86432Y89437D01*
X86440Y89419D01*
X86545Y89288D01*
X92045Y83788D01*
X92045Y76212D01*
X86688Y70855D01*
X79112Y70855D01*
X73755Y76212D01*
X73755Y83788D01*
X79112Y89145D01*
X79344Y89145D01*
X79364Y89148D01*
X79383Y89146D01*
X79485Y89168D01*
X79587Y89184D01*
X79604Y89194D01*
X79624Y89198D01*
X79713Y89251D01*
X79804Y89300D01*
X79818Y89314D01*
X79835Y89324D01*
X79902Y89403D01*
X79974Y89478D01*
X79982Y89496D01*
X79995Y89511D01*
X80034Y89607D01*
X80077Y89701D01*
X80079Y89721D01*
X80087Y89739D01*
X80105Y89906D01*
X80105Y91830D01*
X83231Y94956D01*
X83273Y95014D01*
X83322Y95066D01*
X83344Y95113D01*
X83375Y95155D01*
X83396Y95224D01*
X83426Y95289D01*
X83432Y95341D01*
X83447Y95391D01*
X83445Y95462D01*
X83453Y95533D01*
X83442Y95584D01*
X83441Y95636D01*
X83416Y95704D01*
X83401Y95774D01*
X83374Y95819D01*
X83356Y95867D01*
X83311Y95923D01*
X83275Y95985D01*
X83235Y96019D01*
X83202Y96059D01*
X83142Y96098D01*
X83088Y96145D01*
X83039Y96164D01*
X82995Y96192D01*
X82926Y96210D01*
X82859Y96237D01*
X82788Y96245D01*
X82757Y96253D01*
X82734Y96251D01*
X82693Y96255D01*
X79112Y96255D01*
X73755Y101612D01*
X73755Y109188D01*
X73919Y109352D01*
X73931Y109368D01*
X73946Y109380D01*
X74002Y109467D01*
X74063Y109552D01*
X74069Y109571D01*
X74079Y109587D01*
X74105Y109688D01*
X74135Y109787D01*
X74135Y109807D01*
X74140Y109826D01*
X74131Y109929D01*
X74129Y110033D01*
X74122Y110051D01*
X74120Y110071D01*
X74080Y110166D01*
X74044Y110264D01*
X74032Y110279D01*
X74024Y110297D01*
X73919Y110428D01*
X61340Y123007D01*
X61282Y123049D01*
X61230Y123099D01*
X61183Y123121D01*
X61141Y123151D01*
X61072Y123172D01*
X61007Y123202D01*
X60955Y123208D01*
X60905Y123223D01*
X60834Y123221D01*
X60763Y123229D01*
X60712Y123218D01*
X60660Y123217D01*
X60592Y123192D01*
X60522Y123177D01*
X60478Y123150D01*
X60429Y123132D01*
X60373Y123088D01*
X60311Y123051D01*
X60277Y123011D01*
X60237Y122979D01*
X60198Y122918D01*
X60151Y122864D01*
X60132Y122816D01*
X60104Y122772D01*
X60086Y122702D01*
X60059Y122636D01*
X60051Y122564D01*
X60043Y122533D01*
X60045Y122510D01*
X60041Y122469D01*
X60041Y115306D01*
X60044Y115286D01*
X60042Y115267D01*
X60064Y115165D01*
X60080Y115063D01*
X60090Y115046D01*
X60094Y115026D01*
X60147Y114937D01*
X60196Y114846D01*
X60210Y114832D01*
X60220Y114815D01*
X60299Y114748D01*
X60374Y114676D01*
X60392Y114668D01*
X60407Y114655D01*
X60503Y114616D01*
X60597Y114573D01*
X60617Y114571D01*
X60635Y114563D01*
X60802Y114545D01*
X61288Y114545D01*
X66645Y109188D01*
X66645Y101612D01*
X61288Y96255D01*
X57707Y96255D01*
X57637Y96244D01*
X57565Y96242D01*
X57516Y96224D01*
X57464Y96216D01*
X57401Y96182D01*
X57334Y96157D01*
X57293Y96125D01*
X57247Y96100D01*
X57198Y96048D01*
X57142Y96004D01*
X57114Y95960D01*
X57078Y95922D01*
X57048Y95857D01*
X57009Y95797D01*
X56996Y95746D01*
X56974Y95699D01*
X56966Y95628D01*
X56949Y95558D01*
X56953Y95506D01*
X56947Y95455D01*
X56962Y95384D01*
X56968Y95313D01*
X56988Y95265D01*
X56999Y95214D01*
X57036Y95153D01*
X57064Y95087D01*
X57109Y95031D01*
X57125Y95003D01*
X57143Y94988D01*
X57169Y94956D01*
X60041Y92084D01*
X60041Y89906D01*
X60044Y89886D01*
X60042Y89867D01*
X60064Y89765D01*
X60080Y89663D01*
X60090Y89646D01*
X60094Y89626D01*
X60147Y89537D01*
X60196Y89446D01*
X60210Y89432D01*
X60220Y89415D01*
X60299Y89348D01*
X60374Y89276D01*
X60392Y89268D01*
X60407Y89255D01*
X60503Y89216D01*
X60597Y89173D01*
X60617Y89171D01*
X60635Y89163D01*
X60802Y89145D01*
X61288Y89145D01*
X66645Y83788D01*
X66645Y76212D01*
X61288Y70855D01*
X53712Y70855D01*
G37*
%LPD*%
%LPC*%
G36*
X37571Y284892D02*
X37571Y284892D01*
X34892Y287571D01*
X34892Y288750D01*
X34889Y288770D01*
X34891Y288789D01*
X34869Y288891D01*
X34853Y288993D01*
X34843Y289010D01*
X34839Y289030D01*
X34786Y289119D01*
X34737Y289210D01*
X34723Y289224D01*
X34713Y289241D01*
X34634Y289308D01*
X34559Y289380D01*
X34541Y289388D01*
X34526Y289401D01*
X34430Y289440D01*
X34336Y289483D01*
X34316Y289485D01*
X34298Y289493D01*
X34131Y289511D01*
X30985Y289511D01*
X27711Y292785D01*
X27711Y300017D01*
X27697Y300107D01*
X27689Y300198D01*
X27677Y300228D01*
X27672Y300260D01*
X27629Y300341D01*
X27593Y300424D01*
X27567Y300457D01*
X27556Y300477D01*
X27533Y300499D01*
X27488Y300555D01*
X26975Y301068D01*
X26975Y303316D01*
X26961Y303406D01*
X26953Y303497D01*
X26941Y303527D01*
X26936Y303559D01*
X26893Y303640D01*
X26857Y303724D01*
X26831Y303756D01*
X26820Y303776D01*
X26797Y303799D01*
X26752Y303855D01*
X26467Y304140D01*
X26132Y304719D01*
X25959Y305366D01*
X25959Y306139D01*
X33500Y306139D01*
X41041Y306139D01*
X41041Y305366D01*
X40868Y304719D01*
X40533Y304140D01*
X40248Y303855D01*
X40195Y303781D01*
X40135Y303711D01*
X40123Y303681D01*
X40104Y303655D01*
X40077Y303568D01*
X40043Y303483D01*
X40039Y303442D01*
X40032Y303420D01*
X40033Y303388D01*
X40025Y303316D01*
X40025Y301068D01*
X39881Y300924D01*
X39839Y300866D01*
X39789Y300814D01*
X39767Y300767D01*
X39737Y300725D01*
X39716Y300656D01*
X39686Y300591D01*
X39680Y300539D01*
X39665Y300489D01*
X39667Y300418D01*
X39659Y300347D01*
X39670Y300296D01*
X39671Y300244D01*
X39696Y300176D01*
X39711Y300106D01*
X39738Y300061D01*
X39755Y300013D01*
X39800Y299957D01*
X39837Y299895D01*
X39877Y299861D01*
X39909Y299821D01*
X39969Y299782D01*
X40024Y299735D01*
X40072Y299716D01*
X40116Y299688D01*
X40185Y299670D01*
X40252Y299643D01*
X40323Y299635D01*
X40355Y299627D01*
X40378Y299629D01*
X40419Y299625D01*
X43932Y299625D01*
X44825Y298732D01*
X44825Y294468D01*
X43932Y293575D01*
X43659Y293575D01*
X43589Y293564D01*
X43517Y293562D01*
X43468Y293544D01*
X43417Y293536D01*
X43353Y293502D01*
X43286Y293477D01*
X43245Y293445D01*
X43199Y293420D01*
X43150Y293368D01*
X43094Y293324D01*
X43066Y293280D01*
X43030Y293242D01*
X43000Y293177D01*
X42961Y293117D01*
X42948Y293066D01*
X42926Y293019D01*
X42918Y292948D01*
X42901Y292878D01*
X42905Y292826D01*
X42899Y292775D01*
X42914Y292704D01*
X42920Y292633D01*
X42940Y292585D01*
X42951Y292534D01*
X42988Y292473D01*
X43016Y292407D01*
X43061Y292351D01*
X43078Y292323D01*
X43095Y292308D01*
X43121Y292276D01*
X44038Y291359D01*
X44038Y287571D01*
X41359Y284892D01*
X37571Y284892D01*
G37*
%LPD*%
%LPC*%
G36*
X79112Y45455D02*
X79112Y45455D01*
X73755Y50812D01*
X73755Y58388D01*
X79112Y63745D01*
X86688Y63745D01*
X92045Y58388D01*
X92045Y50812D01*
X86688Y45455D01*
X79112Y45455D01*
G37*
%LPD*%
%LPC*%
G36*
X108687Y175085D02*
X108687Y175085D01*
X105355Y176465D01*
X102805Y179015D01*
X101425Y182347D01*
X101425Y185953D01*
X102805Y189285D01*
X105355Y191835D01*
X108687Y193215D01*
X112293Y193215D01*
X115625Y191835D01*
X118175Y189285D01*
X119555Y185953D01*
X119555Y182347D01*
X118175Y179015D01*
X115625Y176465D01*
X112293Y175085D01*
X108687Y175085D01*
G37*
%LPD*%
%LPC*%
G36*
X134087Y175085D02*
X134087Y175085D01*
X130755Y176465D01*
X128205Y179015D01*
X126825Y182347D01*
X126825Y185953D01*
X128205Y189285D01*
X130755Y191835D01*
X134087Y193215D01*
X137693Y193215D01*
X141025Y191835D01*
X143575Y189285D01*
X144955Y185953D01*
X144955Y182347D01*
X143575Y179015D01*
X141025Y176465D01*
X137693Y175085D01*
X134087Y175085D01*
G37*
%LPD*%
%LPC*%
G36*
X83287Y175085D02*
X83287Y175085D01*
X79955Y176465D01*
X77405Y179015D01*
X76025Y182347D01*
X76025Y185953D01*
X77405Y189285D01*
X79955Y191835D01*
X83287Y193215D01*
X86893Y193215D01*
X90225Y191835D01*
X92775Y189285D01*
X94155Y185953D01*
X94155Y182347D01*
X92775Y179015D01*
X90225Y176465D01*
X86893Y175085D01*
X83287Y175085D01*
G37*
%LPD*%
%LPC*%
G36*
X159487Y175085D02*
X159487Y175085D01*
X156155Y176465D01*
X153605Y179015D01*
X152225Y182347D01*
X152225Y185953D01*
X153605Y189285D01*
X156155Y191835D01*
X159487Y193215D01*
X163093Y193215D01*
X166425Y191835D01*
X168975Y189285D01*
X170355Y185953D01*
X170355Y182347D01*
X168975Y179015D01*
X166425Y176465D01*
X163093Y175085D01*
X159487Y175085D01*
G37*
%LPD*%
%LPC*%
G36*
X134087Y149685D02*
X134087Y149685D01*
X130755Y151065D01*
X128205Y153615D01*
X126825Y156947D01*
X126825Y160553D01*
X128205Y163885D01*
X130755Y166435D01*
X134087Y167815D01*
X137693Y167815D01*
X141025Y166435D01*
X143575Y163885D01*
X144955Y160553D01*
X144955Y156947D01*
X143575Y153615D01*
X141025Y151065D01*
X137693Y149685D01*
X134087Y149685D01*
G37*
%LPD*%
%LPC*%
G36*
X108687Y149685D02*
X108687Y149685D01*
X105355Y151065D01*
X102805Y153615D01*
X101425Y156947D01*
X101425Y160553D01*
X102805Y163885D01*
X105355Y166435D01*
X108687Y167815D01*
X112293Y167815D01*
X115625Y166435D01*
X118175Y163885D01*
X119555Y160553D01*
X119555Y156947D01*
X118175Y153615D01*
X115625Y151065D01*
X112293Y149685D01*
X108687Y149685D01*
G37*
%LPD*%
%LPC*%
G36*
X59023Y56123D02*
X59023Y56123D01*
X59023Y64761D01*
X61709Y64761D01*
X67661Y58809D01*
X67661Y56123D01*
X59023Y56123D01*
G37*
%LPD*%
%LPC*%
G36*
X59023Y53077D02*
X59023Y53077D01*
X67661Y53077D01*
X67661Y50391D01*
X61709Y44439D01*
X59023Y44439D01*
X59023Y53077D01*
G37*
%LPD*%
%LPC*%
G36*
X47339Y56123D02*
X47339Y56123D01*
X47339Y58809D01*
X53291Y64761D01*
X55977Y64761D01*
X55977Y56123D01*
X47339Y56123D01*
G37*
%LPD*%
%LPC*%
G36*
X53291Y44439D02*
X53291Y44439D01*
X47339Y50391D01*
X47339Y53077D01*
X55977Y53077D01*
X55977Y44439D01*
X53291Y44439D01*
G37*
%LPD*%
%LPC*%
G36*
X61213Y185673D02*
X61213Y185673D01*
X61213Y194115D01*
X62051Y193983D01*
X63560Y193492D01*
X64973Y192772D01*
X66257Y191839D01*
X67379Y190717D01*
X68312Y189433D01*
X69032Y188020D01*
X69523Y186511D01*
X69655Y185673D01*
X61213Y185673D01*
G37*
%LPD*%
%LPC*%
G36*
X86613Y160273D02*
X86613Y160273D01*
X86613Y168715D01*
X87451Y168583D01*
X88960Y168092D01*
X90373Y167372D01*
X91657Y166439D01*
X92779Y165317D01*
X93712Y164033D01*
X94432Y162620D01*
X94923Y161111D01*
X95055Y160273D01*
X86613Y160273D01*
G37*
%LPD*%
%LPC*%
G36*
X162813Y160273D02*
X162813Y160273D01*
X162813Y168715D01*
X163651Y168583D01*
X165160Y168092D01*
X166573Y167372D01*
X167857Y166439D01*
X168979Y165317D01*
X169912Y164033D01*
X170632Y162620D01*
X171123Y161111D01*
X171255Y160273D01*
X162813Y160273D01*
G37*
%LPD*%
%LPC*%
G36*
X61213Y182627D02*
X61213Y182627D01*
X69655Y182627D01*
X69523Y181789D01*
X69032Y180280D01*
X68312Y178867D01*
X67379Y177583D01*
X66257Y176461D01*
X64973Y175528D01*
X63560Y174808D01*
X62051Y174317D01*
X61213Y174185D01*
X61213Y182627D01*
G37*
%LPD*%
%LPC*%
G36*
X151325Y160273D02*
X151325Y160273D01*
X151457Y161111D01*
X151948Y162620D01*
X152668Y164033D01*
X153601Y165317D01*
X154723Y166439D01*
X156007Y167372D01*
X157420Y168092D01*
X158929Y168583D01*
X159767Y168715D01*
X159767Y160273D01*
X151325Y160273D01*
G37*
%LPD*%
%LPC*%
G36*
X75125Y160273D02*
X75125Y160273D01*
X75257Y161111D01*
X75748Y162620D01*
X76468Y164033D01*
X77401Y165317D01*
X78523Y166439D01*
X79807Y167372D01*
X81220Y168092D01*
X82729Y168583D01*
X83567Y168715D01*
X83567Y160273D01*
X75125Y160273D01*
G37*
%LPD*%
%LPC*%
G36*
X162813Y157227D02*
X162813Y157227D01*
X171255Y157227D01*
X171123Y156389D01*
X170632Y154880D01*
X169912Y153467D01*
X168979Y152183D01*
X167857Y151061D01*
X166573Y150128D01*
X165160Y149408D01*
X163651Y148917D01*
X162813Y148785D01*
X162813Y157227D01*
G37*
%LPD*%
%LPC*%
G36*
X86613Y157227D02*
X86613Y157227D01*
X95055Y157227D01*
X94923Y156389D01*
X94432Y154880D01*
X93712Y153467D01*
X92779Y152183D01*
X91657Y151061D01*
X90373Y150128D01*
X88960Y149408D01*
X87451Y148917D01*
X86613Y148785D01*
X86613Y157227D01*
G37*
%LPD*%
%LPC*%
G36*
X158929Y148917D02*
X158929Y148917D01*
X157420Y149408D01*
X156007Y150128D01*
X154723Y151061D01*
X153601Y152183D01*
X152668Y153467D01*
X151948Y154880D01*
X151457Y156389D01*
X151325Y157227D01*
X159767Y157227D01*
X159767Y148785D01*
X158929Y148917D01*
G37*
%LPD*%
%LPC*%
G36*
X82729Y148917D02*
X82729Y148917D01*
X81220Y149408D01*
X79807Y150128D01*
X78523Y151061D01*
X77401Y152183D01*
X76468Y153467D01*
X75748Y154880D01*
X75257Y156389D01*
X75125Y157227D01*
X83567Y157227D01*
X83567Y148785D01*
X82729Y148917D01*
G37*
%LPD*%
%LPC*%
G36*
X161289Y158749D02*
X161289Y158749D01*
X161289Y158751D01*
X161291Y158751D01*
X161291Y158749D01*
X161289Y158749D01*
G37*
%LPD*%
%LPC*%
G36*
X85089Y158749D02*
X85089Y158749D01*
X85089Y158751D01*
X85091Y158751D01*
X85091Y158749D01*
X85089Y158749D01*
G37*
%LPD*%
%LPC*%
G36*
X57499Y54599D02*
X57499Y54599D01*
X57499Y54601D01*
X57501Y54601D01*
X57501Y54599D01*
X57499Y54599D01*
G37*
%LPD*%
D10*
X0Y30000D02*
X0Y342900D01*
X95000Y342900D01*
X95000Y234950D01*
X220000Y234950D01*
X220000Y30000D01*
X0Y30000D01*
D11*
X59690Y158750D03*
X59690Y184150D03*
X85090Y158750D03*
X85090Y184150D03*
X110490Y158750D03*
X110490Y184150D03*
X135890Y158750D03*
X135890Y184150D03*
X161290Y158750D03*
X161290Y184150D03*
D12*
X33500Y318900D03*
D13*
X56700Y325200D03*
D12*
X33500Y314900D03*
X33500Y310900D03*
X33500Y306900D03*
X33500Y302900D03*
X61500Y318900D03*
X61500Y314900D03*
X61500Y310900D03*
X61500Y306900D03*
X61500Y302900D03*
D13*
X56700Y296600D03*
X38300Y325200D03*
X38300Y296600D03*
D14*
X186010Y44000D03*
X114010Y44000D03*
D15*
X82900Y54600D03*
X57500Y54600D03*
X82900Y80000D03*
X57500Y80000D03*
X82900Y105400D03*
X57500Y105400D03*
D16*
X33500Y318900D02*
X25284Y318900D01*
X24782Y319402D01*
D17*
X24782Y319402D03*
X47180Y317770D03*
D10*
X33944Y315344D02*
X33500Y314900D01*
X33944Y315344D02*
X39377Y315344D01*
D18*
X44878Y315468D02*
X47180Y317770D01*
X44878Y315468D02*
X39860Y315468D01*
X39552Y315160D01*
X35148Y315160D02*
X35078Y315090D01*
X33690Y315090D01*
X33500Y314900D01*
X35148Y315160D02*
X39552Y315160D01*
D17*
X46990Y309880D03*
D18*
X45970Y310900D02*
X33500Y310900D01*
X45970Y310900D02*
X46990Y309880D01*
D17*
X30480Y261620D03*
D19*
X163000Y87572D03*
D16*
X30506Y293943D02*
X30506Y299257D01*
X30506Y293943D02*
X32143Y292306D01*
X36624Y292306D01*
X39465Y289465D01*
X33500Y302251D02*
X33500Y302900D01*
X33500Y302251D02*
X30506Y299257D01*
D17*
X39465Y289465D03*
D18*
X61500Y301892D02*
X61500Y302900D01*
X61500Y301892D02*
X64240Y299152D01*
X64240Y293689D01*
X60276Y289724D01*
X60276Y287272D02*
X58166Y285162D01*
X60276Y287272D02*
X60276Y289724D01*
X58166Y285162D02*
X58166Y241834D01*
D17*
X59500Y229500D03*
D18*
X59500Y240500D01*
X58166Y241834D01*
X61690Y318710D02*
X61500Y318900D01*
X61690Y318710D02*
X72028Y318710D01*
X82119Y308619D01*
D16*
X56584Y148416D02*
X55410Y148416D01*
X49000Y154826D01*
X49000Y196500D01*
X54158Y201658D01*
X54158Y202420D01*
X57580Y205842D01*
X58342Y205842D01*
X62500Y210000D01*
X64500Y210000D01*
X82119Y227619D02*
X82119Y308619D01*
X82119Y227619D02*
X64500Y210000D01*
X82900Y90672D02*
X82900Y80000D01*
X82900Y90672D02*
X93314Y101086D01*
X93314Y111686D01*
X56584Y148416D01*
X61506Y314894D02*
X61500Y314900D01*
X74791Y310559D02*
X74791Y310200D01*
X77495Y307495D01*
X70456Y314894D02*
X61506Y314894D01*
X70456Y314894D02*
X74791Y310559D01*
X77495Y307495D02*
X77495Y229175D01*
X64866Y216546D01*
X49356Y143772D02*
X61564Y131564D01*
X49356Y143772D02*
X49356Y148722D01*
X44936Y198183D02*
X49500Y202747D01*
X44936Y198183D02*
X44936Y153142D01*
X49356Y148722D01*
X49500Y203509D02*
X62537Y216546D01*
X64866Y216546D01*
X49500Y203509D02*
X49500Y202747D01*
X61564Y126736D02*
X82900Y105400D01*
X61564Y126736D02*
X61564Y131564D01*
D18*
X61760Y310640D02*
X61500Y310900D01*
X61760Y310640D02*
X67552Y310640D01*
X67996Y310196D01*
X69766Y310196D01*
X70981Y308981D01*
X70981Y308240D02*
X72596Y306625D01*
X70981Y308240D02*
X70981Y308981D01*
X72596Y229664D02*
X63288Y220356D01*
X72596Y229664D02*
X72596Y306625D01*
X45546Y147144D02*
X45546Y141566D01*
X41126Y199762D02*
X45546Y204182D01*
X41126Y151564D02*
X45546Y147144D01*
X41126Y151564D02*
X41126Y199762D01*
X45546Y204943D02*
X60959Y220356D01*
X45546Y204943D02*
X45546Y204182D01*
X60959Y220356D02*
X63288Y220356D01*
X57500Y129612D02*
X57500Y105400D01*
X57500Y129612D02*
X45546Y141566D01*
X61690Y306710D02*
X61500Y306900D01*
X61690Y306710D02*
X65708Y306710D01*
X65778Y306640D01*
X61722Y243307D02*
X65088Y239941D01*
X61722Y243307D02*
X61722Y283689D01*
X69040Y305152D02*
X67552Y306640D01*
X65778Y306640D01*
X69040Y291007D02*
X61722Y283689D01*
X69040Y291007D02*
X69040Y305152D01*
X65088Y227185D02*
X61815Y223912D01*
X65088Y227185D02*
X65088Y239941D01*
X41990Y140093D02*
X44944Y137139D01*
X41990Y140093D02*
X41990Y145671D01*
X37570Y201235D02*
X41990Y205655D01*
X37570Y150091D02*
X41990Y145671D01*
X37570Y150091D02*
X37570Y201235D01*
X41990Y206416D02*
X59486Y223912D01*
X41990Y206416D02*
X41990Y205655D01*
X59486Y223912D02*
X61815Y223912D01*
X57500Y91032D02*
X57500Y80000D01*
X57500Y91032D02*
X44944Y103588D01*
X44944Y137139D01*
M02*
