G04 EAGLE Gerber RS-274X export*
G75*
%MOMM*%
%FSLAX34Y34*%
%LPD*%
%AMOC8*
5,1,8,0,0,1.08239X$1,22.5*%
G01*
%ADD10C,0.152400*%
%ADD11C,0.203200*%
%ADD12C,0.177800*%
%ADD13C,0.101600*%
%ADD14R,0.250000X0.225000*%


D10*
X0Y10000D02*
X0Y190000D01*
X10000Y200000D02*
X15000Y200000D01*
X15000Y357000D01*
X23000Y365000D02*
X104000Y365000D01*
X112000Y357000D02*
X112000Y315700D01*
X113200Y312800D02*
X123800Y302200D01*
X125000Y299300D02*
X125000Y200000D01*
X230000Y200000D01*
X240000Y190000D02*
X240000Y10000D01*
X230000Y0D02*
X10000Y0D01*
X15000Y357000D02*
X15002Y357193D01*
X15009Y357387D01*
X15021Y357579D01*
X15037Y357772D01*
X15058Y357964D01*
X15084Y358156D01*
X15114Y358347D01*
X15149Y358537D01*
X15188Y358726D01*
X15232Y358915D01*
X15281Y359102D01*
X15334Y359288D01*
X15392Y359472D01*
X15454Y359655D01*
X15520Y359837D01*
X15591Y360017D01*
X15666Y360195D01*
X15745Y360371D01*
X15829Y360546D01*
X15916Y360718D01*
X16008Y360888D01*
X16104Y361056D01*
X16204Y361221D01*
X16308Y361384D01*
X16416Y361545D01*
X16528Y361702D01*
X16643Y361857D01*
X16763Y362009D01*
X16885Y362159D01*
X17012Y362305D01*
X17142Y362448D01*
X17275Y362588D01*
X17412Y362725D01*
X17552Y362858D01*
X17695Y362988D01*
X17841Y363115D01*
X17991Y363237D01*
X18143Y363357D01*
X18298Y363472D01*
X18455Y363584D01*
X18616Y363692D01*
X18779Y363796D01*
X18944Y363896D01*
X19112Y363992D01*
X19282Y364084D01*
X19454Y364171D01*
X19629Y364255D01*
X19805Y364334D01*
X19983Y364409D01*
X20163Y364480D01*
X20345Y364546D01*
X20528Y364608D01*
X20712Y364666D01*
X20898Y364719D01*
X21085Y364768D01*
X21274Y364812D01*
X21463Y364851D01*
X21653Y364886D01*
X21844Y364916D01*
X22036Y364942D01*
X22228Y364963D01*
X22421Y364979D01*
X22613Y364991D01*
X22807Y364998D01*
X23000Y365000D01*
X104000Y365000D02*
X104193Y364998D01*
X104387Y364991D01*
X104579Y364979D01*
X104772Y364963D01*
X104964Y364942D01*
X105156Y364916D01*
X105347Y364886D01*
X105537Y364851D01*
X105726Y364812D01*
X105915Y364768D01*
X106102Y364719D01*
X106288Y364666D01*
X106472Y364608D01*
X106655Y364546D01*
X106837Y364480D01*
X107017Y364409D01*
X107195Y364334D01*
X107371Y364255D01*
X107546Y364171D01*
X107718Y364084D01*
X107888Y363992D01*
X108056Y363896D01*
X108221Y363796D01*
X108384Y363692D01*
X108545Y363584D01*
X108702Y363472D01*
X108857Y363357D01*
X109009Y363237D01*
X109159Y363115D01*
X109305Y362988D01*
X109448Y362858D01*
X109588Y362725D01*
X109725Y362588D01*
X109858Y362448D01*
X109988Y362305D01*
X110115Y362159D01*
X110237Y362009D01*
X110357Y361857D01*
X110472Y361702D01*
X110584Y361545D01*
X110692Y361384D01*
X110796Y361221D01*
X110896Y361056D01*
X110992Y360888D01*
X111084Y360718D01*
X111171Y360546D01*
X111255Y360371D01*
X111334Y360195D01*
X111409Y360017D01*
X111480Y359837D01*
X111546Y359655D01*
X111608Y359472D01*
X111666Y359288D01*
X111719Y359102D01*
X111768Y358915D01*
X111812Y358726D01*
X111851Y358537D01*
X111886Y358347D01*
X111916Y358156D01*
X111942Y357964D01*
X111963Y357772D01*
X111979Y357579D01*
X111991Y357387D01*
X111998Y357193D01*
X112000Y357000D01*
X112000Y315700D02*
X112002Y315577D01*
X112007Y315453D01*
X112017Y315329D01*
X112030Y315206D01*
X112046Y315083D01*
X112067Y314961D01*
X112091Y314840D01*
X112119Y314719D01*
X112150Y314599D01*
X112185Y314480D01*
X112224Y314363D01*
X112266Y314246D01*
X112312Y314131D01*
X112361Y314017D01*
X112413Y313905D01*
X112469Y313794D01*
X112528Y313686D01*
X112591Y313579D01*
X112656Y313474D01*
X112725Y313371D01*
X112797Y313270D01*
X112872Y313171D01*
X112950Y313075D01*
X113030Y312981D01*
X113114Y312889D01*
X113200Y312800D01*
X123800Y302200D02*
X123886Y302111D01*
X123970Y302019D01*
X124050Y301925D01*
X124128Y301829D01*
X124203Y301730D01*
X124275Y301629D01*
X124344Y301526D01*
X124409Y301421D01*
X124472Y301314D01*
X124531Y301206D01*
X124587Y301095D01*
X124639Y300983D01*
X124688Y300869D01*
X124734Y300754D01*
X124776Y300637D01*
X124815Y300520D01*
X124850Y300401D01*
X124881Y300281D01*
X124909Y300160D01*
X124933Y300039D01*
X124954Y299917D01*
X124970Y299794D01*
X124983Y299671D01*
X124993Y299547D01*
X124998Y299423D01*
X125000Y299300D01*
D11*
X0Y10000D02*
X3Y9758D01*
X12Y9517D01*
X26Y9276D01*
X47Y9035D01*
X73Y8795D01*
X105Y8555D01*
X143Y8316D01*
X186Y8079D01*
X236Y7842D01*
X291Y7607D01*
X351Y7373D01*
X418Y7141D01*
X489Y6910D01*
X567Y6681D01*
X650Y6454D01*
X738Y6229D01*
X832Y6006D01*
X931Y5786D01*
X1036Y5568D01*
X1145Y5353D01*
X1260Y5140D01*
X1380Y4930D01*
X1505Y4724D01*
X1635Y4520D01*
X1770Y4319D01*
X1910Y4122D01*
X2054Y3928D01*
X2203Y3738D01*
X2357Y3552D01*
X2515Y3369D01*
X2677Y3190D01*
X2844Y3015D01*
X3015Y2844D01*
X3190Y2677D01*
X3369Y2515D01*
X3552Y2357D01*
X3738Y2203D01*
X3928Y2054D01*
X4122Y1910D01*
X4319Y1770D01*
X4520Y1635D01*
X4724Y1505D01*
X4930Y1380D01*
X5140Y1260D01*
X5353Y1145D01*
X5568Y1036D01*
X5786Y931D01*
X6006Y832D01*
X6229Y738D01*
X6454Y650D01*
X6681Y567D01*
X6910Y489D01*
X7141Y418D01*
X7373Y351D01*
X7607Y291D01*
X7842Y236D01*
X8079Y186D01*
X8316Y143D01*
X8555Y105D01*
X8795Y73D01*
X9035Y47D01*
X9276Y26D01*
X9517Y12D01*
X9758Y3D01*
X10000Y0D01*
D10*
X0Y190000D02*
X3Y190242D01*
X12Y190483D01*
X26Y190724D01*
X47Y190965D01*
X73Y191205D01*
X105Y191445D01*
X143Y191684D01*
X186Y191921D01*
X236Y192158D01*
X291Y192393D01*
X351Y192627D01*
X418Y192859D01*
X489Y193090D01*
X567Y193319D01*
X650Y193546D01*
X738Y193771D01*
X832Y193994D01*
X931Y194214D01*
X1036Y194432D01*
X1145Y194647D01*
X1260Y194860D01*
X1380Y195070D01*
X1505Y195276D01*
X1635Y195480D01*
X1770Y195681D01*
X1910Y195878D01*
X2054Y196072D01*
X2203Y196262D01*
X2357Y196448D01*
X2515Y196631D01*
X2677Y196810D01*
X2844Y196985D01*
X3015Y197156D01*
X3190Y197323D01*
X3369Y197485D01*
X3552Y197643D01*
X3738Y197797D01*
X3928Y197946D01*
X4122Y198090D01*
X4319Y198230D01*
X4520Y198365D01*
X4724Y198495D01*
X4930Y198620D01*
X5140Y198740D01*
X5353Y198855D01*
X5568Y198964D01*
X5786Y199069D01*
X6006Y199168D01*
X6229Y199262D01*
X6454Y199350D01*
X6681Y199433D01*
X6910Y199511D01*
X7141Y199582D01*
X7373Y199649D01*
X7607Y199709D01*
X7842Y199764D01*
X8079Y199814D01*
X8316Y199857D01*
X8555Y199895D01*
X8795Y199927D01*
X9035Y199953D01*
X9276Y199974D01*
X9517Y199988D01*
X9758Y199997D01*
X10000Y200000D01*
D11*
X230000Y200000D02*
X230242Y199997D01*
X230483Y199988D01*
X230724Y199974D01*
X230965Y199953D01*
X231205Y199927D01*
X231445Y199895D01*
X231684Y199857D01*
X231921Y199814D01*
X232158Y199764D01*
X232393Y199709D01*
X232627Y199649D01*
X232859Y199582D01*
X233090Y199511D01*
X233319Y199433D01*
X233546Y199350D01*
X233771Y199262D01*
X233994Y199168D01*
X234214Y199069D01*
X234432Y198964D01*
X234647Y198855D01*
X234860Y198740D01*
X235070Y198620D01*
X235276Y198495D01*
X235480Y198365D01*
X235681Y198230D01*
X235878Y198090D01*
X236072Y197946D01*
X236262Y197797D01*
X236448Y197643D01*
X236631Y197485D01*
X236810Y197323D01*
X236985Y197156D01*
X237156Y196985D01*
X237323Y196810D01*
X237485Y196631D01*
X237643Y196448D01*
X237797Y196262D01*
X237946Y196072D01*
X238090Y195878D01*
X238230Y195681D01*
X238365Y195480D01*
X238495Y195276D01*
X238620Y195070D01*
X238740Y194860D01*
X238855Y194647D01*
X238964Y194432D01*
X239069Y194214D01*
X239168Y193994D01*
X239262Y193771D01*
X239350Y193546D01*
X239433Y193319D01*
X239511Y193090D01*
X239582Y192859D01*
X239649Y192627D01*
X239709Y192393D01*
X239764Y192158D01*
X239814Y191921D01*
X239857Y191684D01*
X239895Y191445D01*
X239927Y191205D01*
X239953Y190965D01*
X239974Y190724D01*
X239988Y190483D01*
X239997Y190242D01*
X240000Y190000D01*
X240000Y10000D02*
X239997Y9758D01*
X239988Y9517D01*
X239974Y9276D01*
X239953Y9035D01*
X239927Y8795D01*
X239895Y8555D01*
X239857Y8316D01*
X239814Y8079D01*
X239764Y7842D01*
X239709Y7607D01*
X239649Y7373D01*
X239582Y7141D01*
X239511Y6910D01*
X239433Y6681D01*
X239350Y6454D01*
X239262Y6229D01*
X239168Y6006D01*
X239069Y5786D01*
X238964Y5568D01*
X238855Y5353D01*
X238740Y5140D01*
X238620Y4930D01*
X238495Y4724D01*
X238365Y4520D01*
X238230Y4319D01*
X238090Y4122D01*
X237946Y3928D01*
X237797Y3738D01*
X237643Y3552D01*
X237485Y3369D01*
X237323Y3190D01*
X237156Y3015D01*
X236985Y2844D01*
X236810Y2677D01*
X236631Y2515D01*
X236448Y2357D01*
X236262Y2203D01*
X236072Y2054D01*
X235878Y1910D01*
X235681Y1770D01*
X235480Y1635D01*
X235276Y1505D01*
X235070Y1380D01*
X234860Y1260D01*
X234647Y1145D01*
X234432Y1036D01*
X234214Y931D01*
X233994Y832D01*
X233771Y738D01*
X233546Y650D01*
X233319Y567D01*
X233090Y489D01*
X232859Y418D01*
X232627Y351D01*
X232393Y291D01*
X232158Y236D01*
X231921Y186D01*
X231684Y143D01*
X231445Y105D01*
X231205Y73D01*
X230965Y47D01*
X230724Y26D01*
X230483Y12D01*
X230242Y3D01*
X230000Y0D01*
D12*
X54835Y216873D02*
X46538Y214107D01*
X46538Y219639D02*
X54835Y216873D01*
X54835Y224554D02*
X46538Y224554D01*
X43080Y224208D02*
X42389Y224208D01*
X42389Y224900D01*
X43080Y224900D01*
X43080Y224208D01*
X46538Y230418D02*
X54835Y230418D01*
X46538Y230418D02*
X46538Y234567D01*
X47921Y234567D01*
X46538Y237709D02*
X46538Y241858D01*
X42389Y239092D02*
X52761Y239092D01*
X52849Y239094D01*
X52937Y239099D01*
X53024Y239109D01*
X53112Y239122D01*
X53198Y239139D01*
X53284Y239159D01*
X53368Y239183D01*
X53452Y239210D01*
X53534Y239242D01*
X53615Y239276D01*
X53695Y239314D01*
X53772Y239355D01*
X53848Y239400D01*
X53922Y239448D01*
X53994Y239499D01*
X54064Y239552D01*
X54131Y239609D01*
X54196Y239669D01*
X54258Y239731D01*
X54318Y239796D01*
X54375Y239863D01*
X54429Y239933D01*
X54479Y240005D01*
X54527Y240079D01*
X54572Y240155D01*
X54613Y240232D01*
X54651Y240312D01*
X54685Y240393D01*
X54717Y240475D01*
X54744Y240559D01*
X54768Y240643D01*
X54788Y240729D01*
X54805Y240816D01*
X54818Y240903D01*
X54828Y240990D01*
X54833Y241078D01*
X54835Y241166D01*
X54835Y241858D01*
X52761Y247391D02*
X46538Y247391D01*
X52761Y247392D02*
X52849Y247394D01*
X52937Y247399D01*
X53024Y247409D01*
X53112Y247422D01*
X53198Y247439D01*
X53284Y247459D01*
X53368Y247483D01*
X53452Y247510D01*
X53534Y247542D01*
X53615Y247576D01*
X53695Y247614D01*
X53772Y247655D01*
X53848Y247700D01*
X53922Y247748D01*
X53994Y247799D01*
X54064Y247852D01*
X54131Y247909D01*
X54196Y247969D01*
X54258Y248031D01*
X54318Y248096D01*
X54375Y248163D01*
X54428Y248233D01*
X54479Y248305D01*
X54527Y248379D01*
X54572Y248455D01*
X54613Y248532D01*
X54651Y248612D01*
X54685Y248693D01*
X54717Y248775D01*
X54744Y248859D01*
X54768Y248943D01*
X54788Y249029D01*
X54805Y249115D01*
X54818Y249203D01*
X54828Y249290D01*
X54833Y249378D01*
X54835Y249466D01*
X54835Y252923D01*
X46538Y252923D01*
X49995Y261248D02*
X49995Y264360D01*
X49995Y261248D02*
X49997Y261151D01*
X50003Y261053D01*
X50013Y260956D01*
X50026Y260860D01*
X50044Y260764D01*
X50065Y260669D01*
X50091Y260575D01*
X50120Y260482D01*
X50152Y260390D01*
X50189Y260299D01*
X50229Y260211D01*
X50272Y260123D01*
X50319Y260038D01*
X50370Y259955D01*
X50423Y259873D01*
X50480Y259794D01*
X50540Y259717D01*
X50604Y259643D01*
X50670Y259572D01*
X50739Y259503D01*
X50810Y259437D01*
X50884Y259373D01*
X50961Y259313D01*
X51040Y259256D01*
X51122Y259203D01*
X51205Y259152D01*
X51290Y259105D01*
X51378Y259062D01*
X51466Y259022D01*
X51557Y258985D01*
X51649Y258953D01*
X51742Y258924D01*
X51836Y258898D01*
X51931Y258877D01*
X52027Y258859D01*
X52123Y258846D01*
X52220Y258836D01*
X52318Y258830D01*
X52415Y258828D01*
X52512Y258830D01*
X52610Y258836D01*
X52707Y258846D01*
X52803Y258859D01*
X52899Y258877D01*
X52994Y258898D01*
X53088Y258924D01*
X53181Y258953D01*
X53273Y258985D01*
X53364Y259022D01*
X53452Y259062D01*
X53540Y259105D01*
X53625Y259152D01*
X53708Y259203D01*
X53790Y259256D01*
X53869Y259313D01*
X53946Y259373D01*
X54020Y259437D01*
X54091Y259503D01*
X54160Y259572D01*
X54226Y259643D01*
X54290Y259717D01*
X54350Y259794D01*
X54407Y259873D01*
X54460Y259955D01*
X54511Y260038D01*
X54558Y260123D01*
X54601Y260211D01*
X54641Y260299D01*
X54678Y260390D01*
X54710Y260482D01*
X54739Y260575D01*
X54765Y260669D01*
X54786Y260764D01*
X54804Y260860D01*
X54817Y260956D01*
X54827Y261053D01*
X54833Y261151D01*
X54835Y261248D01*
X54835Y264360D01*
X48612Y264360D01*
X48612Y264359D02*
X48524Y264357D01*
X48436Y264352D01*
X48349Y264342D01*
X48261Y264329D01*
X48175Y264312D01*
X48089Y264292D01*
X48005Y264268D01*
X47921Y264241D01*
X47839Y264209D01*
X47758Y264175D01*
X47678Y264137D01*
X47601Y264096D01*
X47525Y264051D01*
X47451Y264003D01*
X47379Y263952D01*
X47309Y263899D01*
X47242Y263842D01*
X47177Y263782D01*
X47115Y263720D01*
X47055Y263655D01*
X46998Y263588D01*
X46945Y263518D01*
X46894Y263446D01*
X46846Y263372D01*
X46801Y263296D01*
X46760Y263219D01*
X46722Y263139D01*
X46688Y263058D01*
X46656Y262976D01*
X46629Y262892D01*
X46605Y262808D01*
X46585Y262722D01*
X46568Y262636D01*
X46555Y262548D01*
X46545Y262461D01*
X46540Y262373D01*
X46538Y262285D01*
X46538Y259520D01*
X42389Y270529D02*
X52761Y270529D01*
X52849Y270531D01*
X52937Y270536D01*
X53024Y270546D01*
X53112Y270559D01*
X53198Y270576D01*
X53284Y270596D01*
X53368Y270620D01*
X53452Y270647D01*
X53534Y270679D01*
X53615Y270713D01*
X53695Y270751D01*
X53772Y270792D01*
X53848Y270837D01*
X53922Y270885D01*
X53994Y270936D01*
X54064Y270989D01*
X54131Y271046D01*
X54196Y271106D01*
X54258Y271168D01*
X54318Y271233D01*
X54375Y271300D01*
X54428Y271370D01*
X54479Y271442D01*
X54527Y271516D01*
X54572Y271592D01*
X54613Y271669D01*
X54651Y271749D01*
X54685Y271830D01*
X54717Y271912D01*
X54744Y271996D01*
X54768Y272080D01*
X54788Y272166D01*
X54805Y272252D01*
X54818Y272340D01*
X54828Y272427D01*
X54833Y272515D01*
X54835Y272603D01*
X47921Y282690D02*
X47921Y284765D01*
X54835Y284765D01*
X54835Y280616D01*
X54833Y280513D01*
X54827Y280409D01*
X54818Y280306D01*
X54804Y280204D01*
X54787Y280102D01*
X54766Y280001D01*
X54741Y279900D01*
X54712Y279801D01*
X54680Y279702D01*
X54644Y279605D01*
X54604Y279510D01*
X54561Y279416D01*
X54514Y279324D01*
X54464Y279233D01*
X54411Y279144D01*
X54354Y279058D01*
X54295Y278973D01*
X54232Y278891D01*
X54166Y278812D01*
X54097Y278735D01*
X54025Y278660D01*
X53950Y278588D01*
X53873Y278519D01*
X53794Y278453D01*
X53712Y278390D01*
X53627Y278331D01*
X53541Y278274D01*
X53452Y278221D01*
X53361Y278171D01*
X53269Y278124D01*
X53175Y278081D01*
X53080Y278041D01*
X52983Y278005D01*
X52884Y277973D01*
X52785Y277944D01*
X52684Y277919D01*
X52583Y277898D01*
X52481Y277881D01*
X52379Y277867D01*
X52276Y277858D01*
X52172Y277852D01*
X52069Y277850D01*
X45155Y277850D01*
X45052Y277852D01*
X44948Y277858D01*
X44845Y277867D01*
X44743Y277881D01*
X44641Y277898D01*
X44540Y277919D01*
X44439Y277944D01*
X44340Y277973D01*
X44241Y278005D01*
X44144Y278041D01*
X44049Y278081D01*
X43955Y278124D01*
X43863Y278171D01*
X43772Y278221D01*
X43683Y278274D01*
X43597Y278331D01*
X43513Y278390D01*
X43430Y278453D01*
X43351Y278519D01*
X43274Y278588D01*
X43199Y278660D01*
X43127Y278735D01*
X43058Y278812D01*
X42992Y278891D01*
X42930Y278973D01*
X42870Y279058D01*
X42813Y279144D01*
X42760Y279233D01*
X42710Y279323D01*
X42663Y279416D01*
X42620Y279510D01*
X42580Y279605D01*
X42544Y279702D01*
X42512Y279801D01*
X42483Y279900D01*
X42458Y280000D01*
X42437Y280102D01*
X42420Y280204D01*
X42406Y280306D01*
X42397Y280409D01*
X42391Y280513D01*
X42389Y280616D01*
X42389Y284765D01*
X46538Y290695D02*
X54835Y290695D01*
X43080Y290350D02*
X42389Y290350D01*
X42389Y291041D01*
X43080Y291041D01*
X43080Y290350D01*
X46538Y296788D02*
X54835Y296788D01*
X46538Y296788D02*
X46538Y303011D01*
X46540Y303099D01*
X46545Y303187D01*
X46555Y303274D01*
X46568Y303362D01*
X46585Y303448D01*
X46605Y303534D01*
X46629Y303618D01*
X46656Y303702D01*
X46688Y303784D01*
X46722Y303865D01*
X46760Y303945D01*
X46801Y304022D01*
X46846Y304098D01*
X46894Y304172D01*
X46945Y304244D01*
X46998Y304314D01*
X47055Y304381D01*
X47115Y304446D01*
X47177Y304508D01*
X47242Y304568D01*
X47309Y304625D01*
X47379Y304678D01*
X47451Y304729D01*
X47525Y304777D01*
X47601Y304822D01*
X47678Y304863D01*
X47758Y304901D01*
X47839Y304935D01*
X47921Y304967D01*
X48005Y304994D01*
X48089Y305018D01*
X48175Y305038D01*
X48261Y305055D01*
X48349Y305068D01*
X48436Y305078D01*
X48524Y305083D01*
X48612Y305085D01*
X54835Y305085D01*
X54835Y300937D02*
X46538Y300937D01*
X42389Y311910D02*
X54835Y311910D01*
X54835Y315368D01*
X54833Y315456D01*
X54828Y315544D01*
X54818Y315631D01*
X54805Y315719D01*
X54788Y315805D01*
X54768Y315891D01*
X54744Y315975D01*
X54717Y316059D01*
X54685Y316141D01*
X54651Y316222D01*
X54613Y316302D01*
X54572Y316379D01*
X54527Y316455D01*
X54479Y316529D01*
X54428Y316601D01*
X54375Y316671D01*
X54318Y316738D01*
X54258Y316803D01*
X54196Y316865D01*
X54131Y316925D01*
X54064Y316982D01*
X53994Y317035D01*
X53922Y317086D01*
X53848Y317134D01*
X53772Y317179D01*
X53695Y317220D01*
X53615Y317258D01*
X53534Y317292D01*
X53452Y317324D01*
X53368Y317351D01*
X53284Y317375D01*
X53198Y317395D01*
X53112Y317412D01*
X53024Y317425D01*
X52937Y317435D01*
X52849Y317440D01*
X52761Y317442D01*
X48612Y317442D01*
X48524Y317440D01*
X48436Y317435D01*
X48349Y317425D01*
X48261Y317412D01*
X48175Y317395D01*
X48089Y317375D01*
X48005Y317351D01*
X47921Y317324D01*
X47839Y317292D01*
X47758Y317258D01*
X47678Y317220D01*
X47601Y317179D01*
X47525Y317134D01*
X47451Y317086D01*
X47379Y317035D01*
X47309Y316982D01*
X47242Y316925D01*
X47177Y316865D01*
X47115Y316803D01*
X47055Y316738D01*
X46998Y316671D01*
X46945Y316601D01*
X46894Y316529D01*
X46846Y316455D01*
X46801Y316379D01*
X46760Y316302D01*
X46722Y316222D01*
X46688Y316141D01*
X46656Y316059D01*
X46629Y315975D01*
X46605Y315891D01*
X46585Y315805D01*
X46568Y315719D01*
X46555Y315631D01*
X46545Y315544D01*
X46540Y315456D01*
X46538Y315368D01*
X46538Y311910D01*
X49995Y325256D02*
X49995Y328368D01*
X49995Y325256D02*
X49997Y325159D01*
X50003Y325061D01*
X50013Y324964D01*
X50026Y324868D01*
X50044Y324772D01*
X50065Y324677D01*
X50091Y324583D01*
X50120Y324490D01*
X50152Y324398D01*
X50189Y324307D01*
X50229Y324219D01*
X50272Y324131D01*
X50319Y324046D01*
X50370Y323963D01*
X50423Y323881D01*
X50480Y323802D01*
X50540Y323725D01*
X50604Y323651D01*
X50670Y323580D01*
X50739Y323511D01*
X50810Y323445D01*
X50884Y323381D01*
X50961Y323321D01*
X51040Y323264D01*
X51122Y323211D01*
X51205Y323160D01*
X51290Y323113D01*
X51378Y323070D01*
X51466Y323030D01*
X51557Y322993D01*
X51649Y322961D01*
X51742Y322932D01*
X51836Y322906D01*
X51931Y322885D01*
X52027Y322867D01*
X52123Y322854D01*
X52220Y322844D01*
X52318Y322838D01*
X52415Y322836D01*
X52512Y322838D01*
X52610Y322844D01*
X52707Y322854D01*
X52803Y322867D01*
X52899Y322885D01*
X52994Y322906D01*
X53088Y322932D01*
X53181Y322961D01*
X53273Y322993D01*
X53364Y323030D01*
X53452Y323070D01*
X53540Y323113D01*
X53625Y323160D01*
X53708Y323211D01*
X53790Y323264D01*
X53869Y323321D01*
X53946Y323381D01*
X54020Y323445D01*
X54091Y323511D01*
X54160Y323580D01*
X54226Y323651D01*
X54290Y323725D01*
X54350Y323802D01*
X54407Y323881D01*
X54460Y323963D01*
X54511Y324046D01*
X54558Y324131D01*
X54601Y324219D01*
X54641Y324307D01*
X54678Y324398D01*
X54710Y324490D01*
X54739Y324583D01*
X54765Y324677D01*
X54786Y324772D01*
X54804Y324868D01*
X54817Y324964D01*
X54827Y325061D01*
X54833Y325159D01*
X54835Y325256D01*
X54835Y328368D01*
X48612Y328368D01*
X48612Y328367D02*
X48524Y328365D01*
X48436Y328360D01*
X48349Y328350D01*
X48261Y328337D01*
X48175Y328320D01*
X48089Y328300D01*
X48005Y328276D01*
X47921Y328249D01*
X47839Y328217D01*
X47758Y328183D01*
X47678Y328145D01*
X47601Y328104D01*
X47525Y328059D01*
X47451Y328011D01*
X47379Y327960D01*
X47309Y327907D01*
X47242Y327850D01*
X47177Y327790D01*
X47115Y327728D01*
X47055Y327663D01*
X46998Y327596D01*
X46945Y327526D01*
X46894Y327454D01*
X46846Y327380D01*
X46801Y327304D01*
X46760Y327227D01*
X46722Y327147D01*
X46688Y327066D01*
X46656Y326984D01*
X46629Y326900D01*
X46605Y326816D01*
X46585Y326730D01*
X46568Y326644D01*
X46555Y326556D01*
X46545Y326469D01*
X46540Y326381D01*
X46538Y326293D01*
X46538Y323528D01*
X42389Y334537D02*
X52761Y334537D01*
X52849Y334539D01*
X52937Y334544D01*
X53024Y334554D01*
X53112Y334567D01*
X53198Y334584D01*
X53284Y334604D01*
X53368Y334628D01*
X53452Y334655D01*
X53534Y334687D01*
X53615Y334721D01*
X53695Y334759D01*
X53772Y334800D01*
X53848Y334845D01*
X53922Y334893D01*
X53994Y334944D01*
X54064Y334997D01*
X54131Y335054D01*
X54196Y335114D01*
X54258Y335176D01*
X54318Y335241D01*
X54375Y335308D01*
X54428Y335378D01*
X54479Y335450D01*
X54527Y335524D01*
X54572Y335600D01*
X54613Y335677D01*
X54651Y335757D01*
X54685Y335838D01*
X54717Y335920D01*
X54744Y336004D01*
X54768Y336088D01*
X54788Y336174D01*
X54805Y336260D01*
X54818Y336348D01*
X54828Y336435D01*
X54833Y336523D01*
X54835Y336611D01*
X67874Y214107D02*
X76171Y214107D01*
X67874Y214107D02*
X67874Y218256D01*
X69257Y218256D01*
X76171Y224621D02*
X76171Y228078D01*
X76171Y224621D02*
X76169Y224533D01*
X76164Y224445D01*
X76154Y224358D01*
X76141Y224270D01*
X76124Y224184D01*
X76104Y224098D01*
X76080Y224014D01*
X76053Y223930D01*
X76021Y223848D01*
X75987Y223767D01*
X75949Y223687D01*
X75908Y223610D01*
X75863Y223534D01*
X75815Y223460D01*
X75764Y223388D01*
X75711Y223318D01*
X75654Y223251D01*
X75594Y223186D01*
X75532Y223124D01*
X75467Y223064D01*
X75400Y223007D01*
X75330Y222954D01*
X75258Y222903D01*
X75184Y222855D01*
X75108Y222810D01*
X75031Y222769D01*
X74951Y222731D01*
X74870Y222697D01*
X74788Y222665D01*
X74704Y222638D01*
X74620Y222614D01*
X74534Y222594D01*
X74448Y222577D01*
X74360Y222564D01*
X74273Y222554D01*
X74185Y222549D01*
X74097Y222547D01*
X74097Y222546D02*
X70639Y222546D01*
X70536Y222548D01*
X70432Y222554D01*
X70329Y222563D01*
X70227Y222577D01*
X70125Y222594D01*
X70024Y222615D01*
X69923Y222640D01*
X69824Y222669D01*
X69725Y222701D01*
X69628Y222737D01*
X69533Y222777D01*
X69439Y222820D01*
X69347Y222867D01*
X69256Y222917D01*
X69167Y222970D01*
X69081Y223027D01*
X68996Y223086D01*
X68914Y223149D01*
X68835Y223215D01*
X68758Y223284D01*
X68683Y223356D01*
X68611Y223431D01*
X68542Y223508D01*
X68476Y223587D01*
X68413Y223669D01*
X68354Y223754D01*
X68297Y223840D01*
X68244Y223929D01*
X68194Y224020D01*
X68147Y224112D01*
X68104Y224206D01*
X68064Y224301D01*
X68028Y224398D01*
X67996Y224497D01*
X67967Y224596D01*
X67942Y224697D01*
X67921Y224798D01*
X67904Y224900D01*
X67890Y225002D01*
X67881Y225105D01*
X67875Y225209D01*
X67873Y225312D01*
X67875Y225415D01*
X67881Y225519D01*
X67890Y225622D01*
X67904Y225724D01*
X67921Y225826D01*
X67942Y225927D01*
X67967Y226028D01*
X67996Y226127D01*
X68028Y226226D01*
X68064Y226323D01*
X68104Y226418D01*
X68147Y226512D01*
X68194Y226604D01*
X68244Y226695D01*
X68297Y226784D01*
X68354Y226870D01*
X68413Y226955D01*
X68476Y227037D01*
X68542Y227116D01*
X68611Y227193D01*
X68683Y227268D01*
X68758Y227340D01*
X68835Y227409D01*
X68914Y227475D01*
X68996Y227538D01*
X69081Y227597D01*
X69167Y227654D01*
X69256Y227707D01*
X69347Y227757D01*
X69439Y227804D01*
X69533Y227847D01*
X69628Y227887D01*
X69725Y227923D01*
X69824Y227955D01*
X69923Y227984D01*
X70024Y228009D01*
X70125Y228030D01*
X70227Y228047D01*
X70329Y228061D01*
X70432Y228070D01*
X70536Y228076D01*
X70639Y228078D01*
X72022Y228078D01*
X72022Y222546D01*
X67874Y233214D02*
X76171Y235980D01*
X67874Y238746D01*
X75480Y243315D02*
X76171Y243315D01*
X75480Y243315D02*
X75480Y244007D01*
X76171Y244007D01*
X76171Y243315D01*
X73405Y249165D02*
X63725Y251931D01*
X73405Y249165D02*
X73405Y256079D01*
X70639Y254005D02*
X76171Y254005D01*
X76171Y261238D02*
X75480Y261238D01*
X75480Y261929D01*
X76171Y261929D01*
X76171Y261238D01*
X66491Y267087D02*
X63725Y270544D01*
X76171Y270544D01*
X76171Y267087D02*
X76171Y274002D01*
X92667Y219639D02*
X92667Y216527D01*
X92669Y216430D01*
X92675Y216332D01*
X92685Y216235D01*
X92698Y216139D01*
X92716Y216043D01*
X92737Y215948D01*
X92763Y215854D01*
X92792Y215761D01*
X92824Y215669D01*
X92861Y215578D01*
X92901Y215490D01*
X92944Y215402D01*
X92991Y215317D01*
X93042Y215234D01*
X93095Y215152D01*
X93152Y215073D01*
X93212Y214996D01*
X93276Y214922D01*
X93342Y214851D01*
X93411Y214782D01*
X93482Y214716D01*
X93556Y214652D01*
X93633Y214592D01*
X93712Y214535D01*
X93794Y214482D01*
X93877Y214431D01*
X93962Y214384D01*
X94050Y214341D01*
X94138Y214301D01*
X94229Y214264D01*
X94321Y214232D01*
X94414Y214203D01*
X94508Y214177D01*
X94603Y214156D01*
X94699Y214138D01*
X94795Y214125D01*
X94892Y214115D01*
X94990Y214109D01*
X95087Y214107D01*
X95184Y214109D01*
X95282Y214115D01*
X95379Y214125D01*
X95475Y214138D01*
X95571Y214156D01*
X95666Y214177D01*
X95760Y214203D01*
X95853Y214232D01*
X95945Y214264D01*
X96036Y214301D01*
X96124Y214341D01*
X96212Y214384D01*
X96297Y214431D01*
X96380Y214482D01*
X96462Y214535D01*
X96541Y214592D01*
X96618Y214652D01*
X96692Y214716D01*
X96763Y214782D01*
X96832Y214851D01*
X96898Y214922D01*
X96962Y214996D01*
X97022Y215073D01*
X97079Y215152D01*
X97132Y215234D01*
X97183Y215317D01*
X97230Y215402D01*
X97273Y215490D01*
X97313Y215578D01*
X97350Y215669D01*
X97382Y215761D01*
X97411Y215854D01*
X97437Y215948D01*
X97458Y216043D01*
X97476Y216139D01*
X97489Y216235D01*
X97499Y216332D01*
X97505Y216430D01*
X97507Y216527D01*
X97507Y219639D01*
X91284Y219639D01*
X91284Y219638D02*
X91196Y219636D01*
X91108Y219631D01*
X91021Y219621D01*
X90933Y219608D01*
X90847Y219591D01*
X90761Y219571D01*
X90677Y219547D01*
X90593Y219520D01*
X90511Y219488D01*
X90430Y219454D01*
X90350Y219416D01*
X90273Y219375D01*
X90197Y219330D01*
X90123Y219282D01*
X90051Y219231D01*
X89981Y219178D01*
X89914Y219121D01*
X89849Y219061D01*
X89787Y218999D01*
X89727Y218934D01*
X89670Y218867D01*
X89617Y218797D01*
X89566Y218725D01*
X89518Y218651D01*
X89473Y218575D01*
X89432Y218498D01*
X89394Y218418D01*
X89360Y218337D01*
X89328Y218255D01*
X89301Y218171D01*
X89277Y218087D01*
X89257Y218001D01*
X89240Y217915D01*
X89227Y217827D01*
X89217Y217740D01*
X89212Y217652D01*
X89210Y217564D01*
X89210Y214799D01*
X85061Y231160D02*
X97507Y231160D01*
X97507Y227703D01*
X97505Y227615D01*
X97500Y227527D01*
X97490Y227440D01*
X97477Y227352D01*
X97460Y227266D01*
X97440Y227180D01*
X97416Y227096D01*
X97389Y227012D01*
X97357Y226930D01*
X97323Y226849D01*
X97285Y226769D01*
X97244Y226692D01*
X97199Y226616D01*
X97151Y226542D01*
X97100Y226470D01*
X97047Y226400D01*
X96990Y226333D01*
X96930Y226268D01*
X96868Y226206D01*
X96803Y226146D01*
X96736Y226089D01*
X96666Y226036D01*
X96594Y225985D01*
X96520Y225937D01*
X96444Y225892D01*
X96367Y225851D01*
X96287Y225813D01*
X96206Y225779D01*
X96124Y225747D01*
X96040Y225720D01*
X95956Y225696D01*
X95870Y225676D01*
X95784Y225659D01*
X95696Y225646D01*
X95609Y225636D01*
X95521Y225631D01*
X95433Y225629D01*
X91284Y225629D01*
X91196Y225631D01*
X91108Y225636D01*
X91021Y225646D01*
X90933Y225659D01*
X90847Y225676D01*
X90761Y225696D01*
X90677Y225720D01*
X90593Y225747D01*
X90511Y225779D01*
X90430Y225813D01*
X90350Y225851D01*
X90273Y225892D01*
X90197Y225937D01*
X90123Y225985D01*
X90051Y226036D01*
X89981Y226089D01*
X89914Y226146D01*
X89849Y226206D01*
X89787Y226268D01*
X89727Y226333D01*
X89670Y226400D01*
X89617Y226470D01*
X89566Y226542D01*
X89518Y226616D01*
X89473Y226692D01*
X89432Y226769D01*
X89394Y226849D01*
X89360Y226930D01*
X89328Y227012D01*
X89301Y227096D01*
X89277Y227180D01*
X89257Y227266D01*
X89240Y227352D01*
X89227Y227440D01*
X89217Y227527D01*
X89212Y227615D01*
X89210Y227703D01*
X89210Y231160D01*
X92667Y239570D02*
X92667Y242682D01*
X92667Y239570D02*
X92669Y239473D01*
X92675Y239375D01*
X92685Y239278D01*
X92698Y239182D01*
X92716Y239086D01*
X92737Y238991D01*
X92763Y238897D01*
X92792Y238804D01*
X92824Y238712D01*
X92861Y238621D01*
X92901Y238533D01*
X92944Y238445D01*
X92991Y238360D01*
X93042Y238277D01*
X93095Y238195D01*
X93152Y238116D01*
X93212Y238039D01*
X93276Y237965D01*
X93342Y237894D01*
X93411Y237825D01*
X93482Y237759D01*
X93556Y237695D01*
X93633Y237635D01*
X93712Y237578D01*
X93794Y237525D01*
X93877Y237474D01*
X93962Y237427D01*
X94050Y237384D01*
X94138Y237344D01*
X94229Y237307D01*
X94321Y237275D01*
X94414Y237246D01*
X94508Y237220D01*
X94603Y237199D01*
X94699Y237181D01*
X94795Y237168D01*
X94892Y237158D01*
X94990Y237152D01*
X95087Y237150D01*
X95184Y237152D01*
X95282Y237158D01*
X95379Y237168D01*
X95475Y237181D01*
X95571Y237199D01*
X95666Y237220D01*
X95760Y237246D01*
X95853Y237275D01*
X95945Y237307D01*
X96036Y237344D01*
X96124Y237384D01*
X96212Y237427D01*
X96297Y237474D01*
X96380Y237525D01*
X96462Y237578D01*
X96541Y237635D01*
X96618Y237695D01*
X96692Y237759D01*
X96763Y237825D01*
X96832Y237894D01*
X96898Y237965D01*
X96962Y238039D01*
X97022Y238116D01*
X97079Y238195D01*
X97132Y238277D01*
X97183Y238360D01*
X97230Y238445D01*
X97273Y238533D01*
X97313Y238621D01*
X97350Y238712D01*
X97382Y238804D01*
X97411Y238897D01*
X97437Y238991D01*
X97458Y239086D01*
X97476Y239182D01*
X97489Y239278D01*
X97499Y239375D01*
X97505Y239473D01*
X97507Y239570D01*
X97507Y242682D01*
X91284Y242682D01*
X91284Y242681D02*
X91196Y242679D01*
X91108Y242674D01*
X91021Y242664D01*
X90933Y242651D01*
X90847Y242634D01*
X90761Y242614D01*
X90677Y242590D01*
X90593Y242563D01*
X90511Y242531D01*
X90430Y242497D01*
X90350Y242459D01*
X90273Y242418D01*
X90197Y242373D01*
X90123Y242325D01*
X90051Y242274D01*
X89981Y242221D01*
X89914Y242164D01*
X89849Y242104D01*
X89787Y242042D01*
X89727Y241977D01*
X89670Y241910D01*
X89617Y241840D01*
X89566Y241768D01*
X89518Y241694D01*
X89473Y241618D01*
X89432Y241541D01*
X89394Y241461D01*
X89360Y241380D01*
X89328Y241298D01*
X89301Y241214D01*
X89277Y241130D01*
X89257Y241044D01*
X89240Y240958D01*
X89227Y240870D01*
X89217Y240783D01*
X89212Y240695D01*
X89210Y240607D01*
X89210Y237842D01*
X89210Y249267D02*
X101656Y249267D01*
X89210Y249267D02*
X89210Y252725D01*
X89212Y252813D01*
X89217Y252901D01*
X89227Y252988D01*
X89240Y253076D01*
X89257Y253162D01*
X89277Y253248D01*
X89301Y253332D01*
X89328Y253416D01*
X89360Y253498D01*
X89394Y253579D01*
X89432Y253659D01*
X89473Y253736D01*
X89518Y253812D01*
X89566Y253886D01*
X89617Y253958D01*
X89670Y254028D01*
X89727Y254095D01*
X89787Y254160D01*
X89849Y254222D01*
X89914Y254282D01*
X89981Y254339D01*
X90051Y254392D01*
X90123Y254443D01*
X90197Y254491D01*
X90273Y254536D01*
X90350Y254577D01*
X90430Y254615D01*
X90511Y254649D01*
X90593Y254681D01*
X90677Y254708D01*
X90761Y254732D01*
X90847Y254752D01*
X90933Y254769D01*
X91021Y254782D01*
X91108Y254792D01*
X91196Y254797D01*
X91284Y254799D01*
X95433Y254799D01*
X95521Y254797D01*
X95609Y254792D01*
X95696Y254782D01*
X95784Y254769D01*
X95870Y254752D01*
X95956Y254732D01*
X96040Y254708D01*
X96124Y254681D01*
X96206Y254649D01*
X96287Y254615D01*
X96367Y254577D01*
X96444Y254536D01*
X96520Y254491D01*
X96594Y254443D01*
X96666Y254392D01*
X96736Y254339D01*
X96803Y254282D01*
X96868Y254222D01*
X96930Y254160D01*
X96990Y254095D01*
X97047Y254028D01*
X97100Y253958D01*
X97151Y253886D01*
X97199Y253812D01*
X97244Y253736D01*
X97285Y253659D01*
X97323Y253579D01*
X97357Y253498D01*
X97389Y253416D01*
X97416Y253332D01*
X97440Y253248D01*
X97460Y253162D01*
X97477Y253076D01*
X97490Y252988D01*
X97500Y252901D01*
X97505Y252813D01*
X97507Y252725D01*
X97507Y249267D01*
X89210Y259130D02*
X89210Y263278D01*
X85061Y260512D02*
X95433Y260512D01*
X95433Y260513D02*
X95521Y260515D01*
X95609Y260520D01*
X95696Y260530D01*
X95784Y260543D01*
X95870Y260560D01*
X95956Y260580D01*
X96040Y260604D01*
X96124Y260631D01*
X96206Y260663D01*
X96287Y260697D01*
X96367Y260735D01*
X96444Y260776D01*
X96520Y260821D01*
X96594Y260869D01*
X96666Y260920D01*
X96736Y260973D01*
X96803Y261030D01*
X96868Y261090D01*
X96930Y261152D01*
X96990Y261217D01*
X97047Y261284D01*
X97101Y261354D01*
X97151Y261426D01*
X97199Y261500D01*
X97244Y261576D01*
X97285Y261653D01*
X97323Y261733D01*
X97357Y261814D01*
X97389Y261896D01*
X97416Y261980D01*
X97440Y262064D01*
X97460Y262150D01*
X97477Y262237D01*
X97490Y262324D01*
X97500Y262411D01*
X97505Y262499D01*
X97507Y262587D01*
X97507Y263278D01*
X97507Y270460D02*
X97507Y273917D01*
X97507Y270460D02*
X97505Y270372D01*
X97500Y270284D01*
X97490Y270197D01*
X97477Y270109D01*
X97460Y270023D01*
X97440Y269937D01*
X97416Y269853D01*
X97389Y269769D01*
X97357Y269687D01*
X97323Y269606D01*
X97285Y269526D01*
X97244Y269449D01*
X97199Y269373D01*
X97151Y269299D01*
X97100Y269227D01*
X97047Y269157D01*
X96990Y269090D01*
X96930Y269025D01*
X96868Y268963D01*
X96803Y268903D01*
X96736Y268846D01*
X96666Y268793D01*
X96594Y268742D01*
X96520Y268694D01*
X96444Y268649D01*
X96367Y268608D01*
X96287Y268570D01*
X96206Y268536D01*
X96124Y268504D01*
X96040Y268477D01*
X95956Y268453D01*
X95870Y268433D01*
X95784Y268416D01*
X95696Y268403D01*
X95609Y268393D01*
X95521Y268388D01*
X95433Y268386D01*
X95433Y268385D02*
X91975Y268385D01*
X91872Y268387D01*
X91768Y268393D01*
X91665Y268402D01*
X91563Y268416D01*
X91461Y268433D01*
X91360Y268454D01*
X91259Y268479D01*
X91160Y268508D01*
X91061Y268540D01*
X90964Y268576D01*
X90869Y268616D01*
X90775Y268659D01*
X90683Y268706D01*
X90592Y268756D01*
X90503Y268809D01*
X90417Y268866D01*
X90332Y268925D01*
X90250Y268988D01*
X90171Y269054D01*
X90094Y269123D01*
X90019Y269195D01*
X89947Y269270D01*
X89878Y269347D01*
X89812Y269426D01*
X89749Y269508D01*
X89690Y269593D01*
X89633Y269679D01*
X89580Y269768D01*
X89530Y269859D01*
X89483Y269951D01*
X89440Y270045D01*
X89400Y270140D01*
X89364Y270237D01*
X89332Y270336D01*
X89303Y270435D01*
X89278Y270536D01*
X89257Y270637D01*
X89240Y270739D01*
X89226Y270841D01*
X89217Y270944D01*
X89211Y271048D01*
X89209Y271151D01*
X89211Y271254D01*
X89217Y271358D01*
X89226Y271461D01*
X89240Y271563D01*
X89257Y271665D01*
X89278Y271766D01*
X89303Y271867D01*
X89332Y271966D01*
X89364Y272065D01*
X89400Y272162D01*
X89440Y272257D01*
X89483Y272351D01*
X89530Y272443D01*
X89580Y272534D01*
X89633Y272623D01*
X89690Y272709D01*
X89749Y272794D01*
X89812Y272876D01*
X89878Y272955D01*
X89947Y273032D01*
X90019Y273107D01*
X90094Y273179D01*
X90171Y273248D01*
X90250Y273314D01*
X90332Y273377D01*
X90417Y273436D01*
X90503Y273493D01*
X90592Y273546D01*
X90683Y273596D01*
X90775Y273643D01*
X90869Y273686D01*
X90964Y273726D01*
X91061Y273762D01*
X91160Y273794D01*
X91259Y273823D01*
X91360Y273848D01*
X91461Y273869D01*
X91563Y273886D01*
X91665Y273900D01*
X91768Y273909D01*
X91872Y273915D01*
X91975Y273917D01*
X93358Y273917D01*
X93358Y268385D01*
X97507Y280002D02*
X89210Y280002D01*
X89210Y284151D01*
X90593Y284151D01*
D11*
X156000Y200000D02*
X156000Y0D01*
X156000Y200000D02*
X240000Y200000D01*
X240000Y159380D01*
X237000Y159380D01*
X237000Y144590D01*
X240000Y144590D01*
X240000Y118830D01*
X224500Y118830D01*
X224500Y81170D01*
X240000Y81170D01*
X240000Y118830D01*
X240000Y81170D02*
X240000Y0D01*
X156000Y0D01*
X165250Y11250D02*
X165250Y188750D01*
X230750Y188750D01*
X230750Y118830D01*
X230750Y81170D02*
X230750Y11250D01*
X165250Y11250D01*
D13*
X183522Y166088D02*
X191311Y177772D01*
X183522Y177772D02*
X191311Y166088D01*
X195601Y175176D02*
X198846Y177772D01*
X198846Y166088D01*
X195601Y166088D02*
X202092Y166088D01*
X86961Y10108D02*
X84364Y10108D01*
X84265Y10110D01*
X84165Y10116D01*
X84066Y10125D01*
X83968Y10138D01*
X83870Y10155D01*
X83772Y10176D01*
X83676Y10201D01*
X83581Y10229D01*
X83487Y10261D01*
X83394Y10296D01*
X83302Y10335D01*
X83212Y10378D01*
X83124Y10423D01*
X83037Y10473D01*
X82953Y10525D01*
X82870Y10581D01*
X82790Y10639D01*
X82712Y10701D01*
X82637Y10766D01*
X82564Y10834D01*
X82494Y10904D01*
X82426Y10977D01*
X82361Y11052D01*
X82299Y11130D01*
X82241Y11210D01*
X82185Y11293D01*
X82133Y11377D01*
X82083Y11464D01*
X82038Y11552D01*
X81995Y11642D01*
X81956Y11734D01*
X81921Y11827D01*
X81889Y11921D01*
X81861Y12016D01*
X81836Y12112D01*
X81815Y12210D01*
X81798Y12308D01*
X81785Y12406D01*
X81776Y12505D01*
X81770Y12605D01*
X81768Y12704D01*
X81768Y19196D01*
X81770Y19295D01*
X81776Y19395D01*
X81785Y19494D01*
X81798Y19592D01*
X81815Y19690D01*
X81836Y19788D01*
X81861Y19884D01*
X81889Y19979D01*
X81921Y20073D01*
X81956Y20166D01*
X81995Y20258D01*
X82038Y20348D01*
X82083Y20436D01*
X82133Y20523D01*
X82185Y20607D01*
X82241Y20690D01*
X82299Y20770D01*
X82361Y20848D01*
X82426Y20923D01*
X82494Y20996D01*
X82564Y21066D01*
X82637Y21134D01*
X82712Y21199D01*
X82790Y21261D01*
X82870Y21319D01*
X82953Y21375D01*
X83037Y21427D01*
X83124Y21477D01*
X83212Y21522D01*
X83302Y21565D01*
X83394Y21604D01*
X83486Y21639D01*
X83581Y21671D01*
X83676Y21699D01*
X83772Y21724D01*
X83870Y21745D01*
X83968Y21762D01*
X84066Y21775D01*
X84165Y21784D01*
X84265Y21790D01*
X84364Y21792D01*
X86961Y21792D01*
X91707Y21792D02*
X91707Y10108D01*
X98198Y10108D02*
X91707Y21792D01*
X98198Y21792D02*
X98198Y10108D01*
X107088Y21792D02*
X107195Y21790D01*
X107301Y21784D01*
X107407Y21774D01*
X107513Y21761D01*
X107619Y21743D01*
X107723Y21722D01*
X107827Y21697D01*
X107930Y21668D01*
X108031Y21636D01*
X108131Y21599D01*
X108230Y21559D01*
X108328Y21516D01*
X108424Y21469D01*
X108518Y21418D01*
X108610Y21364D01*
X108700Y21307D01*
X108788Y21247D01*
X108873Y21183D01*
X108956Y21116D01*
X109037Y21046D01*
X109115Y20974D01*
X109191Y20898D01*
X109263Y20820D01*
X109333Y20739D01*
X109400Y20656D01*
X109464Y20571D01*
X109524Y20483D01*
X109581Y20393D01*
X109635Y20301D01*
X109686Y20207D01*
X109733Y20111D01*
X109776Y20013D01*
X109816Y19914D01*
X109853Y19814D01*
X109885Y19713D01*
X109914Y19610D01*
X109939Y19506D01*
X109960Y19402D01*
X109978Y19296D01*
X109991Y19190D01*
X110001Y19084D01*
X110007Y18978D01*
X110009Y18871D01*
X107088Y21792D02*
X106967Y21790D01*
X106846Y21784D01*
X106726Y21774D01*
X106605Y21761D01*
X106486Y21743D01*
X106366Y21722D01*
X106248Y21697D01*
X106131Y21668D01*
X106014Y21635D01*
X105899Y21599D01*
X105785Y21558D01*
X105672Y21515D01*
X105560Y21467D01*
X105451Y21416D01*
X105343Y21361D01*
X105236Y21303D01*
X105132Y21242D01*
X105030Y21177D01*
X104930Y21109D01*
X104832Y21038D01*
X104736Y20964D01*
X104643Y20887D01*
X104553Y20806D01*
X104465Y20723D01*
X104380Y20637D01*
X104297Y20548D01*
X104218Y20457D01*
X104141Y20363D01*
X104068Y20267D01*
X103998Y20169D01*
X103931Y20068D01*
X103867Y19965D01*
X103807Y19860D01*
X103750Y19753D01*
X103696Y19645D01*
X103646Y19535D01*
X103600Y19423D01*
X103557Y19310D01*
X103518Y19195D01*
X109036Y16599D02*
X109115Y16676D01*
X109191Y16757D01*
X109264Y16840D01*
X109334Y16925D01*
X109401Y17013D01*
X109465Y17103D01*
X109525Y17195D01*
X109582Y17290D01*
X109636Y17386D01*
X109687Y17484D01*
X109734Y17584D01*
X109778Y17686D01*
X109818Y17789D01*
X109854Y17893D01*
X109886Y17999D01*
X109915Y18105D01*
X109940Y18213D01*
X109962Y18321D01*
X109979Y18431D01*
X109993Y18540D01*
X110002Y18650D01*
X110008Y18761D01*
X110010Y18871D01*
X109036Y16599D02*
X103518Y10108D01*
X110009Y10108D01*
X112000Y76500D02*
X108000Y76500D01*
X108000Y83500D02*
X112000Y83500D01*
D14*
X111250Y77125D03*
D13*
X112000Y156500D02*
X108000Y156500D01*
X108000Y163500D02*
X112000Y163500D01*
D14*
X111250Y157125D03*
D13*
X112000Y116500D02*
X108000Y116500D01*
X108000Y123500D02*
X112000Y123500D01*
D14*
X111250Y117125D03*
D13*
X68403Y139008D02*
X64508Y150692D01*
X72297Y150692D02*
X68403Y139008D01*
X77137Y145499D02*
X80383Y145499D01*
X80383Y145500D02*
X80496Y145498D01*
X80609Y145492D01*
X80722Y145482D01*
X80835Y145468D01*
X80947Y145451D01*
X81058Y145429D01*
X81168Y145404D01*
X81278Y145374D01*
X81386Y145341D01*
X81493Y145304D01*
X81599Y145264D01*
X81703Y145219D01*
X81806Y145171D01*
X81907Y145120D01*
X82006Y145065D01*
X82103Y145007D01*
X82198Y144945D01*
X82291Y144880D01*
X82381Y144812D01*
X82469Y144741D01*
X82555Y144666D01*
X82638Y144589D01*
X82718Y144509D01*
X82795Y144426D01*
X82870Y144340D01*
X82941Y144252D01*
X83009Y144162D01*
X83074Y144069D01*
X83136Y143974D01*
X83194Y143877D01*
X83249Y143778D01*
X83300Y143677D01*
X83348Y143574D01*
X83393Y143470D01*
X83433Y143364D01*
X83470Y143257D01*
X83503Y143149D01*
X83533Y143039D01*
X83558Y142929D01*
X83580Y142818D01*
X83597Y142706D01*
X83611Y142593D01*
X83621Y142480D01*
X83627Y142367D01*
X83629Y142254D01*
X83627Y142141D01*
X83621Y142028D01*
X83611Y141915D01*
X83597Y141802D01*
X83580Y141690D01*
X83558Y141579D01*
X83533Y141469D01*
X83503Y141359D01*
X83470Y141251D01*
X83433Y141144D01*
X83393Y141038D01*
X83348Y140934D01*
X83300Y140831D01*
X83249Y140730D01*
X83194Y140631D01*
X83136Y140534D01*
X83074Y140439D01*
X83009Y140346D01*
X82941Y140256D01*
X82870Y140168D01*
X82795Y140082D01*
X82718Y139999D01*
X82638Y139919D01*
X82555Y139842D01*
X82469Y139767D01*
X82381Y139696D01*
X82291Y139628D01*
X82198Y139563D01*
X82103Y139501D01*
X82006Y139443D01*
X81907Y139388D01*
X81806Y139337D01*
X81703Y139289D01*
X81599Y139244D01*
X81493Y139204D01*
X81386Y139167D01*
X81278Y139134D01*
X81168Y139104D01*
X81058Y139079D01*
X80947Y139057D01*
X80835Y139040D01*
X80722Y139026D01*
X80609Y139016D01*
X80496Y139010D01*
X80383Y139008D01*
X77137Y139008D01*
X77137Y150692D01*
X80383Y150692D01*
X80484Y150690D01*
X80584Y150684D01*
X80684Y150674D01*
X80784Y150661D01*
X80883Y150643D01*
X80982Y150622D01*
X81079Y150597D01*
X81176Y150568D01*
X81271Y150535D01*
X81365Y150499D01*
X81457Y150459D01*
X81548Y150416D01*
X81637Y150369D01*
X81724Y150319D01*
X81810Y150265D01*
X81893Y150208D01*
X81973Y150148D01*
X82052Y150085D01*
X82128Y150018D01*
X82201Y149949D01*
X82271Y149877D01*
X82339Y149803D01*
X82404Y149726D01*
X82465Y149646D01*
X82524Y149564D01*
X82579Y149480D01*
X82631Y149394D01*
X82680Y149306D01*
X82725Y149216D01*
X82767Y149124D01*
X82805Y149031D01*
X82839Y148936D01*
X82870Y148841D01*
X82897Y148744D01*
X82920Y148646D01*
X82940Y148547D01*
X82955Y148447D01*
X82967Y148347D01*
X82975Y148247D01*
X82979Y148146D01*
X82979Y148046D01*
X82975Y147945D01*
X82967Y147845D01*
X82955Y147745D01*
X82940Y147645D01*
X82920Y147546D01*
X82897Y147448D01*
X82870Y147351D01*
X82839Y147256D01*
X82805Y147161D01*
X82767Y147068D01*
X82725Y146976D01*
X82680Y146886D01*
X82631Y146798D01*
X82579Y146712D01*
X82524Y146628D01*
X82465Y146546D01*
X82404Y146466D01*
X82339Y146389D01*
X82271Y146315D01*
X82201Y146243D01*
X82128Y146174D01*
X82052Y146107D01*
X81973Y146044D01*
X81893Y145984D01*
X81810Y145927D01*
X81724Y145873D01*
X81637Y145823D01*
X81548Y145776D01*
X81457Y145733D01*
X81365Y145693D01*
X81271Y145657D01*
X81176Y145624D01*
X81079Y145595D01*
X80982Y145570D01*
X80883Y145549D01*
X80784Y145531D01*
X80684Y145518D01*
X80584Y145508D01*
X80484Y145502D01*
X80383Y145500D01*
X88398Y142254D02*
X88398Y150692D01*
X88398Y142254D02*
X88400Y142141D01*
X88406Y142028D01*
X88416Y141915D01*
X88430Y141802D01*
X88447Y141690D01*
X88469Y141579D01*
X88494Y141469D01*
X88524Y141359D01*
X88557Y141251D01*
X88594Y141144D01*
X88634Y141038D01*
X88679Y140934D01*
X88727Y140831D01*
X88778Y140730D01*
X88833Y140631D01*
X88891Y140534D01*
X88953Y140439D01*
X89018Y140346D01*
X89086Y140256D01*
X89157Y140168D01*
X89232Y140082D01*
X89309Y139999D01*
X89389Y139919D01*
X89472Y139842D01*
X89558Y139767D01*
X89646Y139696D01*
X89736Y139628D01*
X89829Y139563D01*
X89924Y139501D01*
X90021Y139443D01*
X90120Y139388D01*
X90221Y139337D01*
X90324Y139289D01*
X90428Y139244D01*
X90534Y139204D01*
X90641Y139167D01*
X90749Y139134D01*
X90859Y139104D01*
X90969Y139079D01*
X91080Y139057D01*
X91192Y139040D01*
X91305Y139026D01*
X91418Y139016D01*
X91531Y139010D01*
X91644Y139008D01*
X91757Y139010D01*
X91870Y139016D01*
X91983Y139026D01*
X92096Y139040D01*
X92208Y139057D01*
X92319Y139079D01*
X92429Y139104D01*
X92539Y139134D01*
X92647Y139167D01*
X92754Y139204D01*
X92860Y139244D01*
X92964Y139289D01*
X93067Y139337D01*
X93168Y139388D01*
X93267Y139443D01*
X93364Y139501D01*
X93459Y139563D01*
X93552Y139628D01*
X93642Y139696D01*
X93730Y139767D01*
X93816Y139842D01*
X93899Y139919D01*
X93979Y139999D01*
X94056Y140082D01*
X94131Y140168D01*
X94202Y140256D01*
X94270Y140346D01*
X94335Y140439D01*
X94397Y140534D01*
X94455Y140631D01*
X94510Y140730D01*
X94561Y140831D01*
X94609Y140934D01*
X94654Y141038D01*
X94694Y141144D01*
X94731Y141251D01*
X94764Y141359D01*
X94794Y141469D01*
X94819Y141579D01*
X94841Y141690D01*
X94858Y141802D01*
X94872Y141915D01*
X94882Y142028D01*
X94888Y142141D01*
X94890Y142254D01*
X94889Y142254D02*
X94889Y150692D01*
X106319Y141604D02*
X106317Y141505D01*
X106311Y141405D01*
X106302Y141306D01*
X106289Y141208D01*
X106272Y141110D01*
X106251Y141012D01*
X106226Y140916D01*
X106198Y140821D01*
X106166Y140727D01*
X106131Y140634D01*
X106092Y140542D01*
X106049Y140452D01*
X106004Y140364D01*
X105954Y140277D01*
X105902Y140193D01*
X105846Y140110D01*
X105788Y140030D01*
X105726Y139952D01*
X105661Y139877D01*
X105593Y139804D01*
X105523Y139734D01*
X105450Y139666D01*
X105375Y139601D01*
X105297Y139539D01*
X105217Y139481D01*
X105134Y139425D01*
X105050Y139373D01*
X104963Y139323D01*
X104875Y139278D01*
X104785Y139235D01*
X104693Y139196D01*
X104600Y139161D01*
X104506Y139129D01*
X104411Y139101D01*
X104315Y139076D01*
X104217Y139055D01*
X104119Y139038D01*
X104021Y139025D01*
X103922Y139016D01*
X103822Y139010D01*
X103723Y139008D01*
X103579Y139010D01*
X103434Y139016D01*
X103290Y139025D01*
X103147Y139038D01*
X103003Y139055D01*
X102860Y139076D01*
X102718Y139101D01*
X102577Y139129D01*
X102436Y139161D01*
X102296Y139197D01*
X102157Y139236D01*
X102019Y139279D01*
X101883Y139326D01*
X101747Y139376D01*
X101613Y139430D01*
X101481Y139487D01*
X101350Y139548D01*
X101221Y139612D01*
X101093Y139680D01*
X100967Y139750D01*
X100843Y139825D01*
X100722Y139902D01*
X100602Y139983D01*
X100484Y140066D01*
X100369Y140153D01*
X100256Y140243D01*
X100145Y140336D01*
X100037Y140431D01*
X99931Y140530D01*
X99828Y140631D01*
X100153Y148096D02*
X100155Y148195D01*
X100161Y148295D01*
X100170Y148394D01*
X100183Y148492D01*
X100200Y148590D01*
X100221Y148688D01*
X100246Y148784D01*
X100274Y148879D01*
X100306Y148973D01*
X100341Y149066D01*
X100380Y149158D01*
X100423Y149248D01*
X100468Y149336D01*
X100518Y149423D01*
X100570Y149507D01*
X100626Y149590D01*
X100684Y149670D01*
X100746Y149748D01*
X100811Y149823D01*
X100879Y149896D01*
X100949Y149966D01*
X101022Y150034D01*
X101097Y150099D01*
X101175Y150161D01*
X101255Y150219D01*
X101338Y150275D01*
X101422Y150327D01*
X101509Y150377D01*
X101597Y150422D01*
X101687Y150465D01*
X101779Y150504D01*
X101872Y150539D01*
X101966Y150571D01*
X102061Y150599D01*
X102158Y150624D01*
X102255Y150645D01*
X102353Y150662D01*
X102451Y150675D01*
X102550Y150684D01*
X102650Y150690D01*
X102749Y150692D01*
X102885Y150690D01*
X103021Y150684D01*
X103157Y150675D01*
X103293Y150662D01*
X103428Y150644D01*
X103562Y150624D01*
X103696Y150599D01*
X103830Y150571D01*
X103962Y150538D01*
X104093Y150503D01*
X104224Y150463D01*
X104353Y150420D01*
X104481Y150374D01*
X104607Y150323D01*
X104733Y150270D01*
X104856Y150212D01*
X104978Y150152D01*
X105098Y150088D01*
X105217Y150020D01*
X105333Y149950D01*
X105447Y149876D01*
X105560Y149799D01*
X105670Y149718D01*
X101451Y145824D02*
X101365Y145877D01*
X101281Y145934D01*
X101199Y145993D01*
X101119Y146056D01*
X101042Y146122D01*
X100967Y146190D01*
X100895Y146262D01*
X100826Y146336D01*
X100760Y146413D01*
X100697Y146492D01*
X100637Y146574D01*
X100580Y146658D01*
X100526Y146744D01*
X100476Y146832D01*
X100429Y146922D01*
X100385Y147013D01*
X100346Y147107D01*
X100309Y147201D01*
X100277Y147297D01*
X100248Y147395D01*
X100223Y147493D01*
X100202Y147592D01*
X100184Y147692D01*
X100171Y147792D01*
X100161Y147893D01*
X100155Y147995D01*
X100153Y148096D01*
X105021Y143876D02*
X105107Y143823D01*
X105191Y143766D01*
X105273Y143707D01*
X105353Y143644D01*
X105430Y143578D01*
X105505Y143510D01*
X105577Y143438D01*
X105646Y143364D01*
X105712Y143287D01*
X105775Y143208D01*
X105835Y143126D01*
X105892Y143042D01*
X105946Y142956D01*
X105996Y142868D01*
X106043Y142778D01*
X106087Y142687D01*
X106126Y142593D01*
X106163Y142499D01*
X106195Y142403D01*
X106224Y142305D01*
X106249Y142207D01*
X106270Y142108D01*
X106288Y142008D01*
X106301Y141908D01*
X106311Y141807D01*
X106317Y141705D01*
X106319Y141604D01*
X105021Y143876D02*
X101451Y145824D01*
X66754Y126192D02*
X66754Y114508D01*
X63508Y126192D02*
X69999Y126192D01*
X81316Y126192D02*
X73527Y114508D01*
X81316Y114508D02*
X73527Y126192D01*
X64008Y96692D02*
X64008Y85008D01*
X64008Y96692D02*
X67254Y96692D01*
X67367Y96690D01*
X67480Y96684D01*
X67593Y96674D01*
X67706Y96660D01*
X67818Y96643D01*
X67929Y96621D01*
X68039Y96596D01*
X68149Y96566D01*
X68257Y96533D01*
X68364Y96496D01*
X68470Y96456D01*
X68574Y96411D01*
X68677Y96363D01*
X68778Y96312D01*
X68877Y96257D01*
X68974Y96199D01*
X69069Y96137D01*
X69162Y96072D01*
X69252Y96004D01*
X69340Y95933D01*
X69426Y95858D01*
X69509Y95781D01*
X69589Y95701D01*
X69666Y95618D01*
X69741Y95532D01*
X69812Y95444D01*
X69880Y95354D01*
X69945Y95261D01*
X70007Y95166D01*
X70065Y95069D01*
X70120Y94970D01*
X70171Y94869D01*
X70219Y94766D01*
X70264Y94662D01*
X70304Y94556D01*
X70341Y94449D01*
X70374Y94341D01*
X70404Y94231D01*
X70429Y94121D01*
X70451Y94010D01*
X70468Y93898D01*
X70482Y93785D01*
X70492Y93672D01*
X70498Y93559D01*
X70500Y93446D01*
X70498Y93333D01*
X70492Y93220D01*
X70482Y93107D01*
X70468Y92994D01*
X70451Y92882D01*
X70429Y92771D01*
X70404Y92661D01*
X70374Y92551D01*
X70341Y92443D01*
X70304Y92336D01*
X70264Y92230D01*
X70219Y92126D01*
X70171Y92023D01*
X70120Y91922D01*
X70065Y91823D01*
X70007Y91726D01*
X69945Y91631D01*
X69880Y91538D01*
X69812Y91448D01*
X69741Y91360D01*
X69666Y91274D01*
X69589Y91191D01*
X69509Y91111D01*
X69426Y91034D01*
X69340Y90959D01*
X69252Y90888D01*
X69162Y90820D01*
X69069Y90755D01*
X68974Y90693D01*
X68877Y90635D01*
X68778Y90580D01*
X68677Y90529D01*
X68574Y90481D01*
X68470Y90436D01*
X68364Y90396D01*
X68257Y90359D01*
X68149Y90326D01*
X68039Y90296D01*
X67929Y90271D01*
X67818Y90249D01*
X67706Y90232D01*
X67593Y90218D01*
X67480Y90208D01*
X67367Y90202D01*
X67254Y90200D01*
X67254Y90201D02*
X64008Y90201D01*
X67903Y90201D02*
X70499Y85008D01*
X74715Y85008D02*
X82505Y96692D01*
X74715Y96692D02*
X82505Y85008D01*
X70999Y63499D02*
X69052Y63499D01*
X70999Y63499D02*
X70999Y57008D01*
X67104Y57008D01*
X67005Y57010D01*
X66905Y57016D01*
X66806Y57025D01*
X66708Y57038D01*
X66610Y57055D01*
X66512Y57076D01*
X66416Y57101D01*
X66321Y57129D01*
X66227Y57161D01*
X66134Y57196D01*
X66042Y57235D01*
X65952Y57278D01*
X65864Y57323D01*
X65777Y57373D01*
X65693Y57425D01*
X65610Y57481D01*
X65530Y57539D01*
X65452Y57601D01*
X65377Y57666D01*
X65304Y57734D01*
X65234Y57804D01*
X65166Y57877D01*
X65101Y57952D01*
X65039Y58030D01*
X64981Y58110D01*
X64925Y58193D01*
X64873Y58277D01*
X64823Y58364D01*
X64778Y58452D01*
X64735Y58542D01*
X64696Y58634D01*
X64661Y58727D01*
X64629Y58821D01*
X64601Y58916D01*
X64576Y59012D01*
X64555Y59110D01*
X64538Y59208D01*
X64525Y59306D01*
X64516Y59405D01*
X64510Y59505D01*
X64508Y59604D01*
X64508Y66096D01*
X64510Y66195D01*
X64516Y66295D01*
X64525Y66394D01*
X64538Y66492D01*
X64555Y66590D01*
X64576Y66688D01*
X64601Y66784D01*
X64629Y66879D01*
X64661Y66973D01*
X64696Y67066D01*
X64735Y67158D01*
X64778Y67248D01*
X64823Y67336D01*
X64873Y67423D01*
X64925Y67507D01*
X64981Y67590D01*
X65039Y67670D01*
X65101Y67748D01*
X65166Y67823D01*
X65234Y67896D01*
X65304Y67966D01*
X65377Y68034D01*
X65452Y68099D01*
X65530Y68161D01*
X65610Y68219D01*
X65693Y68275D01*
X65777Y68327D01*
X65864Y68377D01*
X65952Y68422D01*
X66042Y68465D01*
X66134Y68504D01*
X66226Y68539D01*
X66321Y68571D01*
X66416Y68599D01*
X66512Y68624D01*
X66610Y68645D01*
X66708Y68662D01*
X66806Y68675D01*
X66905Y68684D01*
X67005Y68690D01*
X67104Y68692D01*
X70999Y68692D01*
X76700Y68692D02*
X76700Y57008D01*
X83191Y57008D02*
X76700Y68692D01*
X83191Y68692D02*
X83191Y57008D01*
X88892Y57008D02*
X88892Y68692D01*
X92137Y68692D01*
X92250Y68690D01*
X92363Y68684D01*
X92476Y68674D01*
X92589Y68660D01*
X92701Y68643D01*
X92812Y68621D01*
X92922Y68596D01*
X93032Y68566D01*
X93140Y68533D01*
X93247Y68496D01*
X93353Y68456D01*
X93457Y68411D01*
X93560Y68363D01*
X93661Y68312D01*
X93760Y68257D01*
X93857Y68199D01*
X93952Y68137D01*
X94045Y68072D01*
X94135Y68004D01*
X94223Y67933D01*
X94309Y67858D01*
X94392Y67781D01*
X94472Y67701D01*
X94549Y67618D01*
X94624Y67532D01*
X94695Y67444D01*
X94763Y67354D01*
X94828Y67261D01*
X94890Y67166D01*
X94948Y67069D01*
X95003Y66970D01*
X95054Y66869D01*
X95102Y66766D01*
X95147Y66662D01*
X95187Y66556D01*
X95224Y66449D01*
X95257Y66341D01*
X95287Y66231D01*
X95312Y66121D01*
X95334Y66010D01*
X95351Y65898D01*
X95365Y65785D01*
X95375Y65672D01*
X95381Y65559D01*
X95383Y65446D01*
X95383Y60254D01*
X95384Y60254D02*
X95382Y60141D01*
X95376Y60028D01*
X95366Y59915D01*
X95352Y59802D01*
X95335Y59690D01*
X95313Y59579D01*
X95288Y59469D01*
X95258Y59359D01*
X95225Y59251D01*
X95188Y59144D01*
X95148Y59038D01*
X95103Y58934D01*
X95055Y58831D01*
X95004Y58730D01*
X94949Y58631D01*
X94891Y58534D01*
X94829Y58439D01*
X94764Y58346D01*
X94696Y58256D01*
X94625Y58168D01*
X94550Y58082D01*
X94473Y57999D01*
X94393Y57919D01*
X94310Y57842D01*
X94224Y57767D01*
X94136Y57696D01*
X94046Y57628D01*
X93953Y57563D01*
X93858Y57501D01*
X93761Y57443D01*
X93662Y57388D01*
X93561Y57337D01*
X93458Y57289D01*
X93354Y57244D01*
X93248Y57204D01*
X93141Y57167D01*
X93033Y57134D01*
X92923Y57104D01*
X92813Y57079D01*
X92702Y57057D01*
X92590Y57040D01*
X92477Y57026D01*
X92364Y57016D01*
X92251Y57010D01*
X92138Y57008D01*
X92137Y57008D02*
X88892Y57008D01*
M02*
