G04 EAGLE Gerber RS-274X export*
G75*
%MOMM*%
%FSLAX34Y34*%
%LPD*%
%INSilk top*%
%IPPOS*%
%AMOC8*
5,1,8,0,0,1.08239X$1,22.5*%
G01*
%ADD10C,0.152400*%
%ADD11C,0.203200*%
%ADD12C,0.101600*%
%ADD13C,0.127000*%
%ADD14R,0.250000X0.225000*%


D10*
X0Y30000D02*
X0Y342900D01*
X95000Y342900D01*
X95000Y234950D01*
X220000Y234950D01*
X220000Y30000D01*
X0Y30000D01*
D11*
X10490Y213450D02*
X210490Y213450D01*
X210490Y129450D01*
X169870Y129450D01*
X169870Y132450D01*
X155080Y132450D01*
X155080Y129450D01*
X129320Y129450D01*
X129320Y144950D01*
X91660Y144950D01*
X91660Y129450D01*
X129320Y129450D01*
X91660Y129450D02*
X10490Y129450D01*
X10490Y213450D01*
X21740Y204200D02*
X199240Y204200D01*
X199240Y138700D01*
X129320Y138700D01*
X91660Y138700D02*
X21740Y138700D01*
X21740Y204200D01*
D12*
X189398Y217678D02*
X197187Y229362D01*
X189398Y229362D02*
X197187Y217678D01*
X201477Y226766D02*
X204723Y229362D01*
X204723Y217678D01*
X207968Y217678D02*
X201477Y217678D01*
X173961Y99608D02*
X171364Y99608D01*
X171265Y99610D01*
X171165Y99616D01*
X171066Y99625D01*
X170968Y99638D01*
X170870Y99655D01*
X170772Y99676D01*
X170676Y99701D01*
X170581Y99729D01*
X170487Y99761D01*
X170394Y99796D01*
X170302Y99835D01*
X170212Y99878D01*
X170124Y99923D01*
X170037Y99973D01*
X169953Y100025D01*
X169870Y100081D01*
X169790Y100139D01*
X169712Y100201D01*
X169637Y100266D01*
X169564Y100334D01*
X169494Y100404D01*
X169426Y100477D01*
X169361Y100552D01*
X169299Y100630D01*
X169241Y100710D01*
X169185Y100793D01*
X169133Y100877D01*
X169083Y100964D01*
X169038Y101052D01*
X168995Y101142D01*
X168956Y101234D01*
X168921Y101327D01*
X168889Y101421D01*
X168861Y101516D01*
X168836Y101612D01*
X168815Y101710D01*
X168798Y101808D01*
X168785Y101906D01*
X168776Y102005D01*
X168770Y102105D01*
X168768Y102204D01*
X168768Y108696D01*
X168770Y108795D01*
X168776Y108895D01*
X168785Y108994D01*
X168798Y109092D01*
X168815Y109190D01*
X168836Y109288D01*
X168861Y109384D01*
X168889Y109479D01*
X168921Y109573D01*
X168956Y109666D01*
X168995Y109758D01*
X169038Y109848D01*
X169083Y109936D01*
X169133Y110023D01*
X169185Y110107D01*
X169241Y110190D01*
X169299Y110270D01*
X169361Y110348D01*
X169426Y110423D01*
X169494Y110496D01*
X169564Y110566D01*
X169637Y110634D01*
X169712Y110699D01*
X169790Y110761D01*
X169870Y110819D01*
X169953Y110875D01*
X170037Y110927D01*
X170124Y110977D01*
X170212Y111022D01*
X170302Y111065D01*
X170394Y111104D01*
X170486Y111139D01*
X170581Y111171D01*
X170676Y111199D01*
X170772Y111224D01*
X170870Y111245D01*
X170968Y111262D01*
X171066Y111275D01*
X171165Y111284D01*
X171265Y111290D01*
X171364Y111292D01*
X173961Y111292D01*
X178707Y111292D02*
X178707Y99608D01*
X185198Y99608D02*
X178707Y111292D01*
X185198Y111292D02*
X185198Y99608D01*
X194088Y111292D02*
X194195Y111290D01*
X194301Y111284D01*
X194407Y111274D01*
X194513Y111261D01*
X194619Y111243D01*
X194723Y111222D01*
X194827Y111197D01*
X194930Y111168D01*
X195031Y111136D01*
X195131Y111099D01*
X195230Y111059D01*
X195328Y111016D01*
X195424Y110969D01*
X195518Y110918D01*
X195610Y110864D01*
X195700Y110807D01*
X195788Y110747D01*
X195873Y110683D01*
X195956Y110616D01*
X196037Y110546D01*
X196115Y110474D01*
X196191Y110398D01*
X196263Y110320D01*
X196333Y110239D01*
X196400Y110156D01*
X196464Y110071D01*
X196524Y109983D01*
X196581Y109893D01*
X196635Y109801D01*
X196686Y109707D01*
X196733Y109611D01*
X196776Y109513D01*
X196816Y109414D01*
X196853Y109314D01*
X196885Y109213D01*
X196914Y109110D01*
X196939Y109006D01*
X196960Y108902D01*
X196978Y108796D01*
X196991Y108690D01*
X197001Y108584D01*
X197007Y108478D01*
X197009Y108371D01*
X194088Y111292D02*
X193967Y111290D01*
X193846Y111284D01*
X193726Y111274D01*
X193605Y111261D01*
X193486Y111243D01*
X193366Y111222D01*
X193248Y111197D01*
X193131Y111168D01*
X193014Y111135D01*
X192899Y111099D01*
X192785Y111058D01*
X192672Y111015D01*
X192560Y110967D01*
X192451Y110916D01*
X192343Y110861D01*
X192236Y110803D01*
X192132Y110742D01*
X192030Y110677D01*
X191930Y110609D01*
X191832Y110538D01*
X191736Y110464D01*
X191643Y110387D01*
X191553Y110306D01*
X191465Y110223D01*
X191380Y110137D01*
X191297Y110048D01*
X191218Y109957D01*
X191141Y109863D01*
X191068Y109767D01*
X190998Y109669D01*
X190931Y109568D01*
X190867Y109465D01*
X190807Y109360D01*
X190750Y109253D01*
X190696Y109145D01*
X190646Y109035D01*
X190600Y108923D01*
X190557Y108810D01*
X190518Y108695D01*
X196036Y106099D02*
X196115Y106176D01*
X196191Y106257D01*
X196264Y106340D01*
X196334Y106425D01*
X196401Y106513D01*
X196465Y106603D01*
X196525Y106695D01*
X196582Y106790D01*
X196636Y106886D01*
X196687Y106984D01*
X196734Y107084D01*
X196778Y107186D01*
X196818Y107289D01*
X196854Y107393D01*
X196886Y107499D01*
X196915Y107605D01*
X196940Y107713D01*
X196962Y107821D01*
X196979Y107931D01*
X196993Y108040D01*
X197002Y108150D01*
X197008Y108261D01*
X197010Y108371D01*
X196036Y106099D02*
X190518Y99608D01*
X197009Y99608D01*
D10*
X95600Y48250D02*
X89250Y41900D01*
X95600Y60950D02*
X89250Y67300D01*
X95600Y73650D01*
X95600Y86350D02*
X89250Y92700D01*
X89250Y41900D02*
X51150Y41900D01*
X44800Y48250D01*
X44800Y60950D01*
X51150Y67300D01*
X44800Y73650D01*
X44800Y86350D01*
X51150Y92700D01*
X51150Y67300D02*
X89250Y67300D01*
X89250Y92700D02*
X51150Y92700D01*
X95600Y86350D02*
X95600Y73650D01*
X95600Y60950D02*
X95600Y48250D01*
X89250Y92700D02*
X95600Y99050D01*
X95600Y111750D02*
X89250Y118100D01*
X51150Y92700D02*
X44800Y99050D01*
X44800Y111750D01*
X51150Y118100D01*
X89250Y118100D01*
X95600Y111750D02*
X95600Y99050D01*
D13*
X106385Y96345D02*
X115275Y96345D01*
X115375Y96343D01*
X115474Y96337D01*
X115574Y96327D01*
X115672Y96314D01*
X115771Y96296D01*
X115868Y96275D01*
X115964Y96250D01*
X116060Y96221D01*
X116154Y96188D01*
X116247Y96152D01*
X116338Y96112D01*
X116428Y96068D01*
X116516Y96021D01*
X116602Y95971D01*
X116686Y95917D01*
X116768Y95860D01*
X116847Y95800D01*
X116925Y95736D01*
X116999Y95670D01*
X117071Y95601D01*
X117140Y95529D01*
X117206Y95455D01*
X117270Y95377D01*
X117330Y95298D01*
X117387Y95216D01*
X117441Y95132D01*
X117491Y95046D01*
X117538Y94958D01*
X117582Y94868D01*
X117622Y94777D01*
X117658Y94684D01*
X117691Y94590D01*
X117720Y94494D01*
X117745Y94398D01*
X117766Y94301D01*
X117784Y94202D01*
X117797Y94104D01*
X117807Y94004D01*
X117813Y93905D01*
X117815Y93805D01*
X117815Y92535D01*
X117815Y102325D02*
X106385Y102325D01*
X106385Y105500D01*
X106387Y105611D01*
X106393Y105721D01*
X106402Y105832D01*
X106416Y105942D01*
X106433Y106051D01*
X106454Y106160D01*
X106479Y106268D01*
X106508Y106375D01*
X106540Y106481D01*
X106576Y106586D01*
X106616Y106689D01*
X106659Y106791D01*
X106706Y106892D01*
X106757Y106991D01*
X106810Y107087D01*
X106867Y107182D01*
X106928Y107275D01*
X106991Y107366D01*
X107058Y107455D01*
X107128Y107541D01*
X107201Y107624D01*
X107276Y107706D01*
X107354Y107784D01*
X107436Y107859D01*
X107519Y107932D01*
X107605Y108002D01*
X107694Y108069D01*
X107785Y108132D01*
X107878Y108193D01*
X107973Y108250D01*
X108069Y108303D01*
X108168Y108354D01*
X108269Y108401D01*
X108371Y108444D01*
X108474Y108484D01*
X108579Y108520D01*
X108685Y108552D01*
X108792Y108581D01*
X108900Y108606D01*
X109009Y108627D01*
X109118Y108644D01*
X109228Y108658D01*
X109339Y108667D01*
X109449Y108673D01*
X109560Y108675D01*
X109671Y108673D01*
X109781Y108667D01*
X109892Y108658D01*
X110002Y108644D01*
X110111Y108627D01*
X110220Y108606D01*
X110328Y108581D01*
X110435Y108552D01*
X110541Y108520D01*
X110646Y108484D01*
X110749Y108444D01*
X110851Y108401D01*
X110952Y108354D01*
X111051Y108303D01*
X111148Y108250D01*
X111242Y108193D01*
X111335Y108132D01*
X111426Y108069D01*
X111515Y108002D01*
X111601Y107932D01*
X111684Y107859D01*
X111766Y107784D01*
X111844Y107706D01*
X111919Y107624D01*
X111992Y107541D01*
X112062Y107455D01*
X112129Y107366D01*
X112192Y107275D01*
X112253Y107182D01*
X112310Y107088D01*
X112363Y106991D01*
X112414Y106892D01*
X112461Y106791D01*
X112504Y106689D01*
X112544Y106586D01*
X112580Y106481D01*
X112612Y106375D01*
X112641Y106268D01*
X112666Y106160D01*
X112687Y106051D01*
X112704Y105942D01*
X112718Y105832D01*
X112727Y105721D01*
X112733Y105611D01*
X112735Y105500D01*
X112735Y102325D01*
X106385Y116676D02*
X106387Y116780D01*
X106393Y116885D01*
X106402Y116989D01*
X106415Y117092D01*
X106433Y117195D01*
X106453Y117297D01*
X106478Y117399D01*
X106506Y117499D01*
X106538Y117599D01*
X106574Y117697D01*
X106613Y117794D01*
X106655Y117889D01*
X106701Y117983D01*
X106751Y118075D01*
X106803Y118165D01*
X106859Y118253D01*
X106919Y118339D01*
X106981Y118423D01*
X107046Y118504D01*
X107114Y118583D01*
X107186Y118660D01*
X107259Y118733D01*
X107336Y118805D01*
X107415Y118873D01*
X107496Y118938D01*
X107580Y119000D01*
X107666Y119060D01*
X107754Y119116D01*
X107844Y119168D01*
X107936Y119218D01*
X108030Y119264D01*
X108125Y119306D01*
X108222Y119345D01*
X108320Y119381D01*
X108420Y119413D01*
X108520Y119441D01*
X108622Y119466D01*
X108724Y119486D01*
X108827Y119504D01*
X108930Y119517D01*
X109034Y119526D01*
X109139Y119532D01*
X109243Y119534D01*
X106385Y116676D02*
X106387Y116558D01*
X106393Y116439D01*
X106402Y116321D01*
X106415Y116204D01*
X106433Y116087D01*
X106453Y115970D01*
X106478Y115854D01*
X106506Y115739D01*
X106539Y115626D01*
X106574Y115513D01*
X106614Y115401D01*
X106656Y115291D01*
X106703Y115182D01*
X106753Y115074D01*
X106806Y114969D01*
X106863Y114865D01*
X106923Y114763D01*
X106986Y114663D01*
X107053Y114565D01*
X107122Y114469D01*
X107195Y114376D01*
X107271Y114285D01*
X107349Y114196D01*
X107431Y114110D01*
X107515Y114027D01*
X107601Y113946D01*
X107691Y113869D01*
X107782Y113794D01*
X107876Y113722D01*
X107973Y113653D01*
X108071Y113588D01*
X108172Y113525D01*
X108275Y113466D01*
X108379Y113410D01*
X108485Y113358D01*
X108593Y113309D01*
X108702Y113264D01*
X108813Y113222D01*
X108925Y113184D01*
X111465Y118582D02*
X111390Y118658D01*
X111311Y118733D01*
X111230Y118804D01*
X111146Y118873D01*
X111060Y118938D01*
X110972Y119000D01*
X110882Y119060D01*
X110790Y119116D01*
X110695Y119169D01*
X110599Y119218D01*
X110501Y119264D01*
X110402Y119307D01*
X110301Y119346D01*
X110199Y119381D01*
X110096Y119413D01*
X109992Y119441D01*
X109887Y119466D01*
X109780Y119487D01*
X109674Y119504D01*
X109567Y119517D01*
X109459Y119526D01*
X109351Y119532D01*
X109243Y119534D01*
X111465Y118581D02*
X117815Y113184D01*
X117815Y119534D01*
D12*
X27400Y232100D02*
X23400Y232100D01*
X23400Y225100D02*
X27400Y225100D01*
D14*
X24150Y231475D03*
D12*
X22800Y73700D02*
X26800Y73700D01*
X26800Y66700D02*
X22800Y66700D01*
D14*
X23550Y73075D03*
D12*
X22300Y113800D02*
X26300Y113800D01*
X26300Y106800D02*
X22300Y106800D01*
D14*
X23050Y113175D03*
M02*
