M48
;GenerationSoftware,Autodesk,EAGLE,9.2.0*%
;CreationDate,2018-11-07T23:58:19Z*%
FMAT,2
ICI,OFF
METRIC,TZ,000.000
T5C0.305
T4C0.500
T3C1.000
T2C1.016
T1C1.300
%
G90
M71
T1
X18601Y4400
X11401Y4400
T2
X8290Y5460
X5750Y5460
X8290Y8000
X5750Y8000
X8290Y10540
X5750Y10540
T3
X5969Y15875
X5969Y18415
X8509Y15875
X8509Y18415
X11049Y15875
X11049Y18415
X13589Y15875
X13589Y18415
X16129Y15875
X16129Y18415
T4
X16300Y8757
T5
X2478Y31940
X4718Y31777
X4699Y30988
X3048Y26162
X3946Y28946
X5950Y22950
M30