G04 EAGLE Gerber RS-274X export*
G75*
%MOMM*%
%FSLAX34Y34*%
%LPD*%
%AMOC8*
5,1,8,0,0,1.08239X$1,22.5*%
G01*
%ADD10C,0.030000*%
%ADD11C,0.152400*%
%ADD12C,0.101600*%


D10*
X500Y-3000D02*
X500Y232500D01*
X-2000Y232500D01*
X-2000Y304000D01*
X181200Y304000D01*
X213000Y272700D01*
X213000Y232500D01*
X210000Y232500D01*
X210000Y4000D01*
X122000Y4000D01*
X122000Y163000D01*
X109000Y163000D01*
X109000Y180000D01*
X97500Y180000D01*
X97500Y-3000D01*
X500Y-3000D01*
D11*
X147000Y238710D02*
X150000Y238710D01*
X150000Y243190D02*
X147000Y243190D01*
X122200Y244190D02*
X119200Y244190D01*
X119200Y239710D02*
X122200Y239710D01*
X98950Y239310D02*
X95950Y239310D01*
X95950Y243790D02*
X98950Y243790D01*
X206890Y192536D02*
X206890Y189536D01*
X202410Y189536D02*
X202410Y192536D01*
X197050Y7760D02*
X194050Y7760D01*
X194050Y12240D02*
X197050Y12240D01*
X195615Y34852D02*
X198615Y34852D01*
X198615Y39332D02*
X195615Y39332D01*
D12*
X139300Y183600D02*
X139300Y186600D01*
X139300Y183600D02*
X136300Y183600D01*
X136300Y214600D02*
X139300Y214600D01*
X139300Y211600D01*
X108300Y211600D02*
X108300Y214600D01*
X111300Y214600D01*
X111300Y183600D02*
X108300Y183600D01*
X108300Y186600D01*
D11*
X194200Y23210D02*
X197200Y23210D01*
X197200Y27690D02*
X194200Y27690D01*
X52450Y185110D02*
X49450Y185110D01*
X49450Y189590D02*
X52450Y189590D01*
X170150Y243290D02*
X173150Y243290D01*
X173150Y238810D02*
X170150Y238810D01*
X186324Y205174D02*
X186324Y197046D01*
X180736Y197046D01*
X157876Y197046D02*
X157876Y205174D01*
X157876Y197046D02*
X163464Y197046D01*
X195210Y216900D02*
X195210Y219900D01*
X199690Y219900D02*
X199690Y216900D01*
X194590Y192700D02*
X194590Y189700D01*
X190110Y189700D02*
X190110Y192700D01*
M02*
