G04 EAGLE Gerber RS-274X export*
G75*
%MOMM*%
%FSLAX34Y34*%
%LPD*%
%AMOC8*
5,1,8,0,0,1.08239X$1,22.5*%
G01*
%ADD10C,0.030000*%
%ADD11C,0.250000*%
%ADD12R,3.400000X3.400000*%
%ADD13R,0.600000X0.500000*%
%ADD14R,0.500000X0.600000*%
%ADD15C,0.500000*%
%ADD16R,4.800000X5.600000*%
%ADD17R,0.800000X1.400000*%
%ADD18C,0.050000*%
%ADD19R,1.590000X1.750000*%
%ADD20C,0.048000*%
%ADD21R,1.400000X1.000000*%
%ADD22R,1.400000X0.600000*%
%ADD23R,0.550000X1.100000*%
%ADD24R,0.450000X1.200000*%
%ADD25R,0.500000X1.200000*%
%ADD26R,0.500000X1.100000*%
%ADD27R,0.800000X2.000000*%
%ADD28R,1.000000X1.400000*%
%ADD29C,0.609600*%
%ADD30C,0.254000*%
%ADD31C,0.654800*%
%ADD32C,0.203200*%
%ADD33C,0.406400*%
%ADD34C,0.304800*%
%ADD35C,0.152400*%
%ADD36C,0.254000*%
%ADD37C,0.152400*%
%ADD38C,0.200000*%


D10*
X500Y-3000D02*
X500Y232500D01*
X-2000Y232500D01*
X-2000Y304000D01*
X181200Y304000D01*
X213000Y272700D01*
X213000Y232500D01*
X210000Y232500D01*
X210000Y4000D01*
X122000Y4000D01*
X122000Y163000D01*
X109000Y163000D01*
X109000Y180000D01*
X97500Y180000D01*
X97500Y-3000D01*
X500Y-3000D01*
D11*
X183150Y125750D02*
X194650Y125750D01*
D12*
X161650Y143250D03*
D11*
X183150Y130750D02*
X194650Y130750D01*
X194650Y135750D02*
X183150Y135750D01*
X183150Y140750D02*
X194650Y140750D01*
X194650Y145750D02*
X183150Y145750D01*
X183150Y150750D02*
X194650Y150750D01*
X194650Y155750D02*
X183150Y155750D01*
X183150Y160750D02*
X194650Y160750D01*
X179150Y164750D02*
X179150Y176250D01*
X174150Y176250D02*
X174150Y164750D01*
X169150Y164750D02*
X169150Y176250D01*
X164150Y176250D02*
X164150Y164750D01*
X159150Y164750D02*
X159150Y176250D01*
X154150Y176250D02*
X154150Y164750D01*
X149150Y164750D02*
X149150Y176250D01*
X144150Y176250D02*
X144150Y164750D01*
X140150Y160750D02*
X128650Y160750D01*
X128650Y155750D02*
X140150Y155750D01*
X140150Y150750D02*
X128650Y150750D01*
X128650Y145750D02*
X140150Y145750D01*
X140150Y140750D02*
X128650Y140750D01*
X128650Y135750D02*
X140150Y135750D01*
X140150Y130750D02*
X128650Y130750D01*
X128650Y125750D02*
X140150Y125750D01*
X144150Y121750D02*
X144150Y110250D01*
X149150Y110250D02*
X149150Y121750D01*
X154150Y121750D02*
X154150Y110250D01*
X159150Y110250D02*
X159150Y121750D01*
X164150Y121750D02*
X164150Y110250D01*
X169150Y110250D02*
X169150Y121750D01*
X174150Y121750D02*
X174150Y110250D01*
X179150Y110250D02*
X179150Y121750D01*
D13*
X154500Y240950D03*
X142500Y240950D03*
X114700Y241950D03*
X126700Y241950D03*
X103450Y241550D03*
X91450Y241550D03*
D14*
X204650Y197036D03*
X204650Y185036D03*
D15*
X172550Y104550D02*
X172550Y95550D01*
D16*
X153500Y57050D03*
D15*
X159850Y95550D02*
X159850Y104550D01*
X147150Y104550D02*
X147150Y95550D01*
X134450Y95550D02*
X134450Y104550D01*
X134450Y18550D02*
X134450Y9550D01*
X147150Y9550D02*
X147150Y18550D01*
X159850Y18550D02*
X159850Y9550D01*
X172550Y9550D02*
X172550Y18550D01*
D13*
X201550Y10000D03*
X189550Y10000D03*
D17*
X203250Y50000D03*
X203250Y76000D03*
X191250Y76000D03*
X191250Y50000D03*
D13*
X203115Y37092D03*
X191115Y37092D03*
D18*
X148550Y189850D02*
X136850Y189850D01*
X148550Y189850D02*
X148550Y188350D01*
X136850Y188350D01*
X136850Y189850D01*
X136850Y188825D02*
X148550Y188825D01*
X148550Y189300D02*
X136850Y189300D01*
X136850Y189775D02*
X148550Y189775D01*
D19*
X123800Y199100D03*
D18*
X136850Y193850D02*
X148550Y193850D01*
X148550Y192350D01*
X136850Y192350D01*
X136850Y193850D01*
X136850Y192825D02*
X148550Y192825D01*
X148550Y193300D02*
X136850Y193300D01*
X136850Y193775D02*
X148550Y193775D01*
X148550Y197850D02*
X136850Y197850D01*
X148550Y197850D02*
X148550Y196350D01*
X136850Y196350D01*
X136850Y197850D01*
X136850Y196825D02*
X148550Y196825D01*
X148550Y197300D02*
X136850Y197300D01*
X136850Y197775D02*
X148550Y197775D01*
X148550Y201850D02*
X136850Y201850D01*
X148550Y201850D02*
X148550Y200350D01*
X136850Y200350D01*
X136850Y201850D01*
X136850Y200825D02*
X148550Y200825D01*
X148550Y201300D02*
X136850Y201300D01*
X136850Y201775D02*
X148550Y201775D01*
X148550Y205850D02*
X136850Y205850D01*
X148550Y205850D02*
X148550Y204350D01*
X136850Y204350D01*
X136850Y205850D01*
X136850Y204825D02*
X148550Y204825D01*
X148550Y205300D02*
X136850Y205300D01*
X136850Y205775D02*
X148550Y205775D01*
X148550Y209850D02*
X136850Y209850D01*
X148550Y209850D02*
X148550Y208350D01*
X136850Y208350D01*
X136850Y209850D01*
X136850Y208825D02*
X148550Y208825D01*
X148550Y209300D02*
X136850Y209300D01*
X136850Y209775D02*
X148550Y209775D01*
X133050Y212150D02*
X133050Y223850D01*
X134550Y223850D01*
X134550Y212150D01*
X133050Y212150D01*
X133050Y212625D02*
X134550Y212625D01*
X134550Y213100D02*
X133050Y213100D01*
X133050Y213575D02*
X134550Y213575D01*
X134550Y214050D02*
X133050Y214050D01*
X133050Y214525D02*
X134550Y214525D01*
X134550Y215000D02*
X133050Y215000D01*
X133050Y215475D02*
X134550Y215475D01*
X134550Y215950D02*
X133050Y215950D01*
X133050Y216425D02*
X134550Y216425D01*
X134550Y216900D02*
X133050Y216900D01*
X133050Y217375D02*
X134550Y217375D01*
X134550Y217850D02*
X133050Y217850D01*
X133050Y218325D02*
X134550Y218325D01*
X134550Y218800D02*
X133050Y218800D01*
X133050Y219275D02*
X134550Y219275D01*
X134550Y219750D02*
X133050Y219750D01*
X133050Y220225D02*
X134550Y220225D01*
X134550Y220700D02*
X133050Y220700D01*
X133050Y221175D02*
X134550Y221175D01*
X134550Y221650D02*
X133050Y221650D01*
X133050Y222125D02*
X134550Y222125D01*
X134550Y222600D02*
X133050Y222600D01*
X133050Y223075D02*
X134550Y223075D01*
X134550Y223550D02*
X133050Y223550D01*
X129050Y223850D02*
X129050Y212150D01*
X129050Y223850D02*
X130550Y223850D01*
X130550Y212150D01*
X129050Y212150D01*
X129050Y212625D02*
X130550Y212625D01*
X130550Y213100D02*
X129050Y213100D01*
X129050Y213575D02*
X130550Y213575D01*
X130550Y214050D02*
X129050Y214050D01*
X129050Y214525D02*
X130550Y214525D01*
X130550Y215000D02*
X129050Y215000D01*
X129050Y215475D02*
X130550Y215475D01*
X130550Y215950D02*
X129050Y215950D01*
X129050Y216425D02*
X130550Y216425D01*
X130550Y216900D02*
X129050Y216900D01*
X129050Y217375D02*
X130550Y217375D01*
X130550Y217850D02*
X129050Y217850D01*
X129050Y218325D02*
X130550Y218325D01*
X130550Y218800D02*
X129050Y218800D01*
X129050Y219275D02*
X130550Y219275D01*
X130550Y219750D02*
X129050Y219750D01*
X129050Y220225D02*
X130550Y220225D01*
X130550Y220700D02*
X129050Y220700D01*
X129050Y221175D02*
X130550Y221175D01*
X130550Y221650D02*
X129050Y221650D01*
X129050Y222125D02*
X130550Y222125D01*
X130550Y222600D02*
X129050Y222600D01*
X129050Y223075D02*
X130550Y223075D01*
X130550Y223550D02*
X129050Y223550D01*
X125050Y223850D02*
X125050Y212150D01*
X125050Y223850D02*
X126550Y223850D01*
X126550Y212150D01*
X125050Y212150D01*
X125050Y212625D02*
X126550Y212625D01*
X126550Y213100D02*
X125050Y213100D01*
X125050Y213575D02*
X126550Y213575D01*
X126550Y214050D02*
X125050Y214050D01*
X125050Y214525D02*
X126550Y214525D01*
X126550Y215000D02*
X125050Y215000D01*
X125050Y215475D02*
X126550Y215475D01*
X126550Y215950D02*
X125050Y215950D01*
X125050Y216425D02*
X126550Y216425D01*
X126550Y216900D02*
X125050Y216900D01*
X125050Y217375D02*
X126550Y217375D01*
X126550Y217850D02*
X125050Y217850D01*
X125050Y218325D02*
X126550Y218325D01*
X126550Y218800D02*
X125050Y218800D01*
X125050Y219275D02*
X126550Y219275D01*
X126550Y219750D02*
X125050Y219750D01*
X125050Y220225D02*
X126550Y220225D01*
X126550Y220700D02*
X125050Y220700D01*
X125050Y221175D02*
X126550Y221175D01*
X126550Y221650D02*
X125050Y221650D01*
X125050Y222125D02*
X126550Y222125D01*
X126550Y222600D02*
X125050Y222600D01*
X125050Y223075D02*
X126550Y223075D01*
X126550Y223550D02*
X125050Y223550D01*
X121050Y223850D02*
X121050Y212150D01*
X121050Y223850D02*
X122550Y223850D01*
X122550Y212150D01*
X121050Y212150D01*
X121050Y212625D02*
X122550Y212625D01*
X122550Y213100D02*
X121050Y213100D01*
X121050Y213575D02*
X122550Y213575D01*
X122550Y214050D02*
X121050Y214050D01*
X121050Y214525D02*
X122550Y214525D01*
X122550Y215000D02*
X121050Y215000D01*
X121050Y215475D02*
X122550Y215475D01*
X122550Y215950D02*
X121050Y215950D01*
X121050Y216425D02*
X122550Y216425D01*
X122550Y216900D02*
X121050Y216900D01*
X121050Y217375D02*
X122550Y217375D01*
X122550Y217850D02*
X121050Y217850D01*
X121050Y218325D02*
X122550Y218325D01*
X122550Y218800D02*
X121050Y218800D01*
X121050Y219275D02*
X122550Y219275D01*
X122550Y219750D02*
X121050Y219750D01*
X121050Y220225D02*
X122550Y220225D01*
X122550Y220700D02*
X121050Y220700D01*
X121050Y221175D02*
X122550Y221175D01*
X122550Y221650D02*
X121050Y221650D01*
X121050Y222125D02*
X122550Y222125D01*
X122550Y222600D02*
X121050Y222600D01*
X121050Y223075D02*
X122550Y223075D01*
X122550Y223550D02*
X121050Y223550D01*
X117050Y223850D02*
X117050Y212150D01*
X117050Y223850D02*
X118550Y223850D01*
X118550Y212150D01*
X117050Y212150D01*
X117050Y212625D02*
X118550Y212625D01*
X118550Y213100D02*
X117050Y213100D01*
X117050Y213575D02*
X118550Y213575D01*
X118550Y214050D02*
X117050Y214050D01*
X117050Y214525D02*
X118550Y214525D01*
X118550Y215000D02*
X117050Y215000D01*
X117050Y215475D02*
X118550Y215475D01*
X118550Y215950D02*
X117050Y215950D01*
X117050Y216425D02*
X118550Y216425D01*
X118550Y216900D02*
X117050Y216900D01*
X117050Y217375D02*
X118550Y217375D01*
X118550Y217850D02*
X117050Y217850D01*
X117050Y218325D02*
X118550Y218325D01*
X118550Y218800D02*
X117050Y218800D01*
X117050Y219275D02*
X118550Y219275D01*
X118550Y219750D02*
X117050Y219750D01*
X117050Y220225D02*
X118550Y220225D01*
X118550Y220700D02*
X117050Y220700D01*
X117050Y221175D02*
X118550Y221175D01*
X118550Y221650D02*
X117050Y221650D01*
X117050Y222125D02*
X118550Y222125D01*
X118550Y222600D02*
X117050Y222600D01*
X117050Y223075D02*
X118550Y223075D01*
X118550Y223550D02*
X117050Y223550D01*
X113050Y223850D02*
X113050Y212150D01*
X113050Y223850D02*
X114550Y223850D01*
X114550Y212150D01*
X113050Y212150D01*
X113050Y212625D02*
X114550Y212625D01*
X114550Y213100D02*
X113050Y213100D01*
X113050Y213575D02*
X114550Y213575D01*
X114550Y214050D02*
X113050Y214050D01*
X113050Y214525D02*
X114550Y214525D01*
X114550Y215000D02*
X113050Y215000D01*
X113050Y215475D02*
X114550Y215475D01*
X114550Y215950D02*
X113050Y215950D01*
X113050Y216425D02*
X114550Y216425D01*
X114550Y216900D02*
X113050Y216900D01*
X113050Y217375D02*
X114550Y217375D01*
X114550Y217850D02*
X113050Y217850D01*
X113050Y218325D02*
X114550Y218325D01*
X114550Y218800D02*
X113050Y218800D01*
X113050Y219275D02*
X114550Y219275D01*
X114550Y219750D02*
X113050Y219750D01*
X113050Y220225D02*
X114550Y220225D01*
X114550Y220700D02*
X113050Y220700D01*
X113050Y221175D02*
X114550Y221175D01*
X114550Y221650D02*
X113050Y221650D01*
X113050Y222125D02*
X114550Y222125D01*
X114550Y222600D02*
X113050Y222600D01*
X113050Y223075D02*
X114550Y223075D01*
X114550Y223550D02*
X113050Y223550D01*
X110750Y208350D02*
X99050Y208350D01*
X99050Y209850D01*
X110750Y209850D01*
X110750Y208350D01*
X110750Y208825D02*
X99050Y208825D01*
X99050Y209300D02*
X110750Y209300D01*
X110750Y209775D02*
X99050Y209775D01*
X99050Y204350D02*
X110750Y204350D01*
X99050Y204350D02*
X99050Y205850D01*
X110750Y205850D01*
X110750Y204350D01*
X110750Y204825D02*
X99050Y204825D01*
X99050Y205300D02*
X110750Y205300D01*
X110750Y205775D02*
X99050Y205775D01*
X99050Y200350D02*
X110750Y200350D01*
X99050Y200350D02*
X99050Y201850D01*
X110750Y201850D01*
X110750Y200350D01*
X110750Y200825D02*
X99050Y200825D01*
X99050Y201300D02*
X110750Y201300D01*
X110750Y201775D02*
X99050Y201775D01*
X99050Y196350D02*
X110750Y196350D01*
X99050Y196350D02*
X99050Y197850D01*
X110750Y197850D01*
X110750Y196350D01*
X110750Y196825D02*
X99050Y196825D01*
X99050Y197300D02*
X110750Y197300D01*
X110750Y197775D02*
X99050Y197775D01*
X99050Y192350D02*
X110750Y192350D01*
X99050Y192350D02*
X99050Y193850D01*
X110750Y193850D01*
X110750Y192350D01*
X110750Y192825D02*
X99050Y192825D01*
X99050Y193300D02*
X110750Y193300D01*
X110750Y193775D02*
X99050Y193775D01*
X99050Y188350D02*
X110750Y188350D01*
X99050Y188350D02*
X99050Y189850D01*
X110750Y189850D01*
X110750Y188350D01*
X110750Y188825D02*
X99050Y188825D01*
X99050Y189300D02*
X110750Y189300D01*
X110750Y189775D02*
X99050Y189775D01*
X114550Y186050D02*
X114550Y174350D01*
X113050Y174350D01*
X113050Y186050D01*
X114550Y186050D01*
X114550Y174825D02*
X113050Y174825D01*
X113050Y175300D02*
X114550Y175300D01*
X114550Y175775D02*
X113050Y175775D01*
X113050Y176250D02*
X114550Y176250D01*
X114550Y176725D02*
X113050Y176725D01*
X113050Y177200D02*
X114550Y177200D01*
X114550Y177675D02*
X113050Y177675D01*
X113050Y178150D02*
X114550Y178150D01*
X114550Y178625D02*
X113050Y178625D01*
X113050Y179100D02*
X114550Y179100D01*
X114550Y179575D02*
X113050Y179575D01*
X113050Y180050D02*
X114550Y180050D01*
X114550Y180525D02*
X113050Y180525D01*
X113050Y181000D02*
X114550Y181000D01*
X114550Y181475D02*
X113050Y181475D01*
X113050Y181950D02*
X114550Y181950D01*
X114550Y182425D02*
X113050Y182425D01*
X113050Y182900D02*
X114550Y182900D01*
X114550Y183375D02*
X113050Y183375D01*
X113050Y183850D02*
X114550Y183850D01*
X114550Y184325D02*
X113050Y184325D01*
X113050Y184800D02*
X114550Y184800D01*
X114550Y185275D02*
X113050Y185275D01*
X113050Y185750D02*
X114550Y185750D01*
X118550Y186050D02*
X118550Y174350D01*
X117050Y174350D01*
X117050Y186050D01*
X118550Y186050D01*
X118550Y174825D02*
X117050Y174825D01*
X117050Y175300D02*
X118550Y175300D01*
X118550Y175775D02*
X117050Y175775D01*
X117050Y176250D02*
X118550Y176250D01*
X118550Y176725D02*
X117050Y176725D01*
X117050Y177200D02*
X118550Y177200D01*
X118550Y177675D02*
X117050Y177675D01*
X117050Y178150D02*
X118550Y178150D01*
X118550Y178625D02*
X117050Y178625D01*
X117050Y179100D02*
X118550Y179100D01*
X118550Y179575D02*
X117050Y179575D01*
X117050Y180050D02*
X118550Y180050D01*
X118550Y180525D02*
X117050Y180525D01*
X117050Y181000D02*
X118550Y181000D01*
X118550Y181475D02*
X117050Y181475D01*
X117050Y181950D02*
X118550Y181950D01*
X118550Y182425D02*
X117050Y182425D01*
X117050Y182900D02*
X118550Y182900D01*
X118550Y183375D02*
X117050Y183375D01*
X117050Y183850D02*
X118550Y183850D01*
X118550Y184325D02*
X117050Y184325D01*
X117050Y184800D02*
X118550Y184800D01*
X118550Y185275D02*
X117050Y185275D01*
X117050Y185750D02*
X118550Y185750D01*
X122550Y186050D02*
X122550Y174350D01*
X121050Y174350D01*
X121050Y186050D01*
X122550Y186050D01*
X122550Y174825D02*
X121050Y174825D01*
X121050Y175300D02*
X122550Y175300D01*
X122550Y175775D02*
X121050Y175775D01*
X121050Y176250D02*
X122550Y176250D01*
X122550Y176725D02*
X121050Y176725D01*
X121050Y177200D02*
X122550Y177200D01*
X122550Y177675D02*
X121050Y177675D01*
X121050Y178150D02*
X122550Y178150D01*
X122550Y178625D02*
X121050Y178625D01*
X121050Y179100D02*
X122550Y179100D01*
X122550Y179575D02*
X121050Y179575D01*
X121050Y180050D02*
X122550Y180050D01*
X122550Y180525D02*
X121050Y180525D01*
X121050Y181000D02*
X122550Y181000D01*
X122550Y181475D02*
X121050Y181475D01*
X121050Y181950D02*
X122550Y181950D01*
X122550Y182425D02*
X121050Y182425D01*
X121050Y182900D02*
X122550Y182900D01*
X122550Y183375D02*
X121050Y183375D01*
X121050Y183850D02*
X122550Y183850D01*
X122550Y184325D02*
X121050Y184325D01*
X121050Y184800D02*
X122550Y184800D01*
X122550Y185275D02*
X121050Y185275D01*
X121050Y185750D02*
X122550Y185750D01*
X126550Y186050D02*
X126550Y174350D01*
X125050Y174350D01*
X125050Y186050D01*
X126550Y186050D01*
X126550Y174825D02*
X125050Y174825D01*
X125050Y175300D02*
X126550Y175300D01*
X126550Y175775D02*
X125050Y175775D01*
X125050Y176250D02*
X126550Y176250D01*
X126550Y176725D02*
X125050Y176725D01*
X125050Y177200D02*
X126550Y177200D01*
X126550Y177675D02*
X125050Y177675D01*
X125050Y178150D02*
X126550Y178150D01*
X126550Y178625D02*
X125050Y178625D01*
X125050Y179100D02*
X126550Y179100D01*
X126550Y179575D02*
X125050Y179575D01*
X125050Y180050D02*
X126550Y180050D01*
X126550Y180525D02*
X125050Y180525D01*
X125050Y181000D02*
X126550Y181000D01*
X126550Y181475D02*
X125050Y181475D01*
X125050Y181950D02*
X126550Y181950D01*
X126550Y182425D02*
X125050Y182425D01*
X125050Y182900D02*
X126550Y182900D01*
X126550Y183375D02*
X125050Y183375D01*
X125050Y183850D02*
X126550Y183850D01*
X126550Y184325D02*
X125050Y184325D01*
X125050Y184800D02*
X126550Y184800D01*
X126550Y185275D02*
X125050Y185275D01*
X125050Y185750D02*
X126550Y185750D01*
X130550Y186050D02*
X130550Y174350D01*
X129050Y174350D01*
X129050Y186050D01*
X130550Y186050D01*
X130550Y174825D02*
X129050Y174825D01*
X129050Y175300D02*
X130550Y175300D01*
X130550Y175775D02*
X129050Y175775D01*
X129050Y176250D02*
X130550Y176250D01*
X130550Y176725D02*
X129050Y176725D01*
X129050Y177200D02*
X130550Y177200D01*
X130550Y177675D02*
X129050Y177675D01*
X129050Y178150D02*
X130550Y178150D01*
X130550Y178625D02*
X129050Y178625D01*
X129050Y179100D02*
X130550Y179100D01*
X130550Y179575D02*
X129050Y179575D01*
X129050Y180050D02*
X130550Y180050D01*
X130550Y180525D02*
X129050Y180525D01*
X129050Y181000D02*
X130550Y181000D01*
X130550Y181475D02*
X129050Y181475D01*
X129050Y181950D02*
X130550Y181950D01*
X130550Y182425D02*
X129050Y182425D01*
X129050Y182900D02*
X130550Y182900D01*
X130550Y183375D02*
X129050Y183375D01*
X129050Y183850D02*
X130550Y183850D01*
X130550Y184325D02*
X129050Y184325D01*
X129050Y184800D02*
X130550Y184800D01*
X130550Y185275D02*
X129050Y185275D01*
X129050Y185750D02*
X130550Y185750D01*
D20*
X134560Y186060D02*
X134560Y174340D01*
X133040Y174340D01*
X133040Y186060D01*
X134560Y186060D01*
X134560Y174796D02*
X133040Y174796D01*
X133040Y175252D02*
X134560Y175252D01*
X134560Y175708D02*
X133040Y175708D01*
X133040Y176164D02*
X134560Y176164D01*
X134560Y176620D02*
X133040Y176620D01*
X133040Y177076D02*
X134560Y177076D01*
X134560Y177532D02*
X133040Y177532D01*
X133040Y177988D02*
X134560Y177988D01*
X134560Y178444D02*
X133040Y178444D01*
X133040Y178900D02*
X134560Y178900D01*
X134560Y179356D02*
X133040Y179356D01*
X133040Y179812D02*
X134560Y179812D01*
X134560Y180268D02*
X133040Y180268D01*
X133040Y180724D02*
X134560Y180724D01*
X134560Y181180D02*
X133040Y181180D01*
X133040Y181636D02*
X134560Y181636D01*
X134560Y182092D02*
X133040Y182092D01*
X133040Y182548D02*
X134560Y182548D01*
X134560Y183004D02*
X133040Y183004D01*
X133040Y183460D02*
X134560Y183460D01*
X134560Y183916D02*
X133040Y183916D01*
X133040Y184372D02*
X134560Y184372D01*
X134560Y184828D02*
X133040Y184828D01*
X133040Y185284D02*
X134560Y185284D01*
X134560Y185740D02*
X133040Y185740D01*
D13*
X201700Y25450D03*
X189700Y25450D03*
D21*
X50250Y218450D03*
D22*
X50250Y201450D03*
X77250Y201450D03*
X77250Y220450D03*
D13*
X56950Y187350D03*
X44950Y187350D03*
D23*
X92000Y90700D03*
D24*
X82000Y162700D03*
X71000Y162700D03*
D25*
X63500Y166300D03*
X34500Y166300D03*
D24*
X27000Y162700D03*
X16000Y162700D03*
D23*
X6000Y90700D03*
D26*
X27200Y90700D03*
X49000Y90700D03*
X70800Y90700D03*
D27*
X43500Y140000D03*
X32500Y140000D03*
X21500Y140000D03*
X10500Y140000D03*
X54500Y140000D03*
X65500Y140000D03*
X76500Y140000D03*
X87500Y140000D03*
D13*
X165650Y241050D03*
X177650Y241050D03*
D28*
X172100Y192650D03*
X162600Y214650D03*
X181600Y214650D03*
D14*
X197450Y212400D03*
X197450Y224400D03*
X192350Y197200D03*
X192350Y185200D03*
D23*
X92000Y5200D03*
D24*
X82000Y77200D03*
X71000Y77200D03*
D25*
X63500Y80800D03*
X34500Y80800D03*
D24*
X27000Y77200D03*
X16000Y77200D03*
D23*
X6000Y5200D03*
D26*
X27200Y5200D03*
X49000Y5200D03*
X70800Y5200D03*
D27*
X43500Y54500D03*
X32500Y54500D03*
X21500Y54500D03*
X10500Y54500D03*
X54500Y54500D03*
X65500Y54500D03*
X76500Y54500D03*
X87500Y54500D03*
D29*
X204100Y10350D03*
X160950Y57100D03*
X203115Y37092D03*
X203800Y75800D03*
D30*
X114700Y226894D02*
X114700Y241950D01*
X117594Y218206D02*
X117800Y218000D01*
X117594Y218206D02*
X117594Y225111D01*
X115811Y226894D01*
X114700Y226894D01*
X175600Y135750D02*
X188900Y135750D01*
D31*
X6464Y17150D03*
D30*
X6000Y16686D01*
X6000Y5200D01*
X27000Y162700D02*
X23450Y166250D01*
X23048Y166250D01*
D31*
X23048Y166250D03*
X114950Y274950D03*
D30*
X60100Y274950D01*
X59750Y274600D01*
D31*
X59750Y274600D03*
D30*
X201550Y10000D02*
X203556Y9935D01*
X201700Y22936D02*
X201700Y25450D01*
X201700Y22936D02*
X203986Y20650D01*
D31*
X203986Y20650D03*
D30*
X139702Y100050D02*
X134450Y100050D01*
X139702Y100050D02*
X139852Y99900D01*
D31*
X139852Y99900D03*
D30*
X153550Y57100D02*
X153500Y57050D01*
X153550Y57100D02*
X160950Y57100D01*
X175600Y135750D02*
X168100Y143250D01*
D31*
X175600Y135750D03*
D32*
X117800Y180200D02*
X117800Y193100D01*
X122350Y197650D01*
X123800Y199100D01*
X105360Y189560D02*
X104900Y189100D01*
X105360Y189560D02*
X111906Y189560D01*
X119996Y197650D02*
X122350Y197650D01*
X119996Y197650D02*
X111906Y189560D01*
X109736Y239186D02*
X112500Y241950D01*
X109736Y239186D02*
X108900Y239186D01*
D31*
X108900Y239186D03*
D32*
X106536Y241550D02*
X103450Y241550D01*
X106536Y241550D02*
X108900Y239186D01*
X112500Y241950D02*
X114700Y241950D01*
X117800Y218000D02*
X118244Y217556D01*
X123800Y205454D02*
X123800Y199100D01*
X118244Y211010D02*
X118244Y217556D01*
X118244Y211010D02*
X123800Y205454D01*
D31*
X154500Y240950D03*
X204036Y197036D03*
X165650Y241050D03*
X37500Y259300D03*
D33*
X37500Y231200D01*
D30*
X204036Y197036D02*
X204650Y197036D01*
D34*
X168100Y143250D02*
X161650Y143250D01*
D30*
X203250Y76000D02*
X203600Y76000D01*
X203800Y75800D01*
X203750Y10000D02*
X201550Y10000D01*
X203750Y10000D02*
X204100Y10350D01*
D33*
X50250Y218450D02*
X37500Y231200D01*
D31*
X50250Y218450D03*
D32*
X191900Y197200D02*
X192350Y197200D01*
D31*
X191900Y197200D03*
D35*
X179548Y170500D02*
X179150Y170500D01*
X179548Y170500D02*
X180198Y171150D01*
D31*
X180198Y171150D03*
X89800Y17050D03*
D35*
X92000Y14850D01*
X92000Y5200D01*
D31*
X71050Y179800D03*
D35*
X59980Y187350D02*
X56950Y187350D01*
X59980Y187350D02*
X66146Y181184D01*
X69666Y181184D02*
X71050Y179800D01*
X69666Y181184D02*
X66146Y181184D01*
D30*
X159850Y14050D02*
X164950Y14050D01*
X172550Y14050D01*
X182900Y14050D02*
X188900Y9350D01*
X182900Y14050D02*
X172550Y14050D01*
D29*
X140700Y89650D03*
D32*
X147150Y100050D02*
X147698Y100598D01*
D30*
X106250Y210450D02*
X106250Y214600D01*
X98157Y222693D02*
X91450Y241550D01*
X106250Y210450D02*
X104900Y209100D01*
D31*
X24750Y190350D03*
D30*
X42900Y172200D02*
X42900Y170478D01*
X27893Y187207D02*
X24750Y190350D01*
X27893Y187207D02*
X27893Y186690D01*
X29791Y184791D01*
X41949Y172634D01*
X42466Y172634D01*
X42900Y172200D01*
X191115Y37092D02*
X191250Y37092D01*
X164950Y14050D02*
X158550Y14050D01*
X154450Y18150D01*
D31*
X154450Y18150D03*
D32*
X191115Y33127D02*
X191115Y37092D01*
X191115Y33127D02*
X195240Y29002D01*
X195240Y15690D01*
X188900Y9350D01*
D30*
X147006Y99906D02*
X147150Y100050D01*
X147150Y96100D01*
X140700Y89650D01*
X67593Y153906D02*
X65956Y155543D01*
X90001Y158500D02*
X92600Y158500D01*
X90001Y158500D02*
X85407Y153906D01*
X67593Y153906D01*
X92600Y158500D02*
X92600Y159530D01*
X91536Y160594D01*
D31*
X91536Y160594D03*
D32*
X195240Y15690D02*
X189550Y10000D01*
D30*
X202758Y157392D02*
X202758Y164108D01*
X200933Y165933D01*
X200800Y166066D01*
X200800Y170947D01*
X204850Y204587D02*
X204850Y225000D01*
X204850Y232050D01*
X106250Y214600D02*
X98157Y222693D01*
D32*
X129800Y225000D02*
X129800Y218000D01*
X91450Y241550D02*
X91450Y243850D01*
X92600Y245000D02*
X92600Y255568D01*
X88598Y259570D01*
D31*
X88598Y259570D03*
D32*
X151340Y191194D02*
X149706Y189560D01*
X151340Y211006D02*
X149706Y212640D01*
X143160Y189560D02*
X142700Y189100D01*
X143160Y189560D02*
X149706Y189560D01*
X151340Y191194D02*
X151340Y211006D01*
X129800Y222540D02*
X129800Y225000D01*
X141856Y212640D02*
X149706Y212640D01*
X141856Y212640D02*
X139598Y214898D01*
D31*
X139598Y214898D03*
X106250Y214600D03*
D32*
X131894Y226640D02*
X135706Y226640D01*
X130254Y225000D02*
X129800Y225000D01*
X130254Y225000D02*
X131894Y226640D01*
X135706Y226640D02*
X139598Y222748D01*
X139598Y220000D01*
X139598Y214898D01*
X130254Y225000D02*
X142500Y237246D01*
X92600Y245000D02*
X91450Y243850D01*
X142500Y240950D02*
X142500Y237246D01*
D30*
X204850Y204587D02*
X204850Y204020D01*
X199356Y192879D02*
X199800Y192435D01*
X199800Y185000D01*
X199356Y192879D02*
X199356Y193135D01*
X197968Y194523D01*
X203934Y203104D02*
X204850Y204020D01*
X197968Y199805D02*
X197968Y194523D01*
X197968Y199805D02*
X201267Y203104D01*
X203934Y203104D01*
X204650Y185036D02*
X204614Y185000D01*
X200933Y180000D02*
X200933Y165933D01*
X200933Y180000D02*
X200933Y181319D01*
X162600Y214650D02*
X162600Y228549D01*
X171718Y237667D02*
X171718Y244433D01*
X171718Y237667D02*
X162600Y228549D01*
D32*
X162897Y246519D02*
X163242Y246864D01*
X162897Y246519D02*
X161519Y246519D01*
X170576Y245576D02*
X171718Y244433D01*
X170576Y245576D02*
X169287Y246864D01*
X163242Y246864D01*
X44950Y187350D02*
X32350Y187350D01*
D31*
X110002Y259700D03*
D30*
X148338Y259700D01*
X161519Y246519D01*
X170576Y245576D02*
X172724Y245576D01*
X173493Y246344D01*
X190556Y246344D01*
X204850Y232050D01*
D32*
X191115Y49865D02*
X191115Y37092D01*
X191115Y49865D02*
X191250Y50000D01*
X203250Y50000D01*
D30*
X188900Y150750D02*
X189816Y151666D01*
X197032Y151666D01*
X202758Y157392D01*
X59322Y170478D02*
X42900Y170478D01*
X59322Y170478D02*
X63500Y166300D01*
X65956Y163844D02*
X65956Y155543D01*
X65956Y163844D02*
X63500Y166300D01*
D32*
X32350Y187350D02*
X29791Y184791D01*
D36*
X200933Y180000D03*
D30*
X200933Y181319D01*
X204650Y185036D01*
X200933Y183867D02*
X200933Y180000D01*
X200933Y183867D02*
X199800Y185000D01*
D35*
X174150Y179803D02*
X174150Y170500D01*
D31*
X174150Y179803D03*
X82248Y69150D03*
D35*
X82248Y76952D01*
X82000Y77200D01*
D32*
X121800Y218000D02*
X121800Y237050D01*
X126700Y241950D01*
D35*
X125800Y180200D02*
X125800Y171850D01*
X131500Y166150D01*
X140000Y166150D01*
X140850Y166150D01*
D37*
X140000Y166150D03*
D35*
X140850Y167200D02*
X144150Y170500D01*
X140850Y167200D02*
X140850Y166150D01*
X125800Y218000D02*
X126498Y218698D01*
X126498Y226368D01*
X146441Y229391D02*
X154642Y221191D01*
X137214Y244397D02*
X138553Y245736D01*
X137214Y244397D02*
X137214Y237084D01*
X146447Y245736D02*
X147786Y244397D01*
X147786Y237503D01*
X146441Y236159D02*
X146441Y229391D01*
X146441Y236159D02*
X147786Y237503D01*
X146447Y245736D02*
X138553Y245736D01*
X137214Y237084D02*
X126498Y226368D01*
X154642Y189508D02*
X156675Y187475D01*
X154642Y189508D02*
X154642Y221191D01*
X159150Y179387D02*
X159150Y170500D01*
X159150Y179387D02*
X156590Y181947D01*
X156590Y186553D01*
X156675Y186638D01*
X156675Y187475D01*
X142539Y183950D02*
X138944Y180355D01*
X154150Y180076D02*
X154150Y170500D01*
X150276Y183950D02*
X142539Y183950D01*
X150276Y183950D02*
X154150Y180076D01*
X138944Y180355D02*
X133955Y180355D01*
X133800Y180200D01*
X144864Y179786D02*
X145615Y179786D01*
X149150Y176251D02*
X149150Y170500D01*
X149150Y176251D02*
X145615Y179786D01*
X144864Y179786D02*
X142685Y179786D01*
X140614Y177715D01*
X140614Y175614D01*
X130514Y179486D02*
X129800Y180200D01*
X130514Y179486D02*
X130514Y173294D01*
X131994Y171814D01*
X135000Y171814D01*
X136814Y171814D01*
X140614Y175614D01*
X191250Y85000D02*
X191250Y76000D01*
X191250Y85000D02*
X181250Y95000D01*
X180000Y95000D01*
X178910Y96090D01*
X178910Y99203D01*
X177336Y100777D01*
X177336Y106532D01*
X174150Y109718D02*
X174150Y116000D01*
X174150Y109718D02*
X177336Y106532D01*
X173350Y99250D02*
X173350Y96900D01*
D31*
X173350Y96900D03*
X154440Y90260D03*
D35*
X154150Y112650D02*
X154150Y116000D01*
X154440Y112360D02*
X154440Y90260D01*
X154440Y112360D02*
X154150Y112650D01*
X172550Y100050D02*
X173350Y99250D01*
X179709Y23716D02*
X156816Y23716D01*
X179709Y23716D02*
X181443Y25450D01*
X189700Y25450D01*
X156816Y23716D02*
X156810Y23710D01*
X152147Y23710D01*
X189700Y25450D02*
X189700Y29774D01*
X184814Y34660D01*
X184814Y82650D01*
X184814Y85000D01*
X184814Y82650D01*
X184814Y85000D02*
X182834Y86980D01*
X182834Y87259D01*
X167686Y114536D02*
X169150Y116000D01*
X167686Y93646D02*
X170568Y90764D01*
X167686Y93646D02*
X167686Y114536D01*
X179329Y90764D02*
X182834Y87259D01*
X179329Y90764D02*
X170568Y90764D01*
X152147Y23710D02*
X148890Y20453D01*
X148890Y15790D02*
X147150Y14050D01*
X148890Y15790D02*
X148890Y20453D01*
X159150Y100750D02*
X159150Y116000D01*
X159150Y100750D02*
X159850Y100050D01*
X147164Y26764D02*
X134450Y14050D01*
X147164Y26764D02*
X178447Y26764D01*
X179786Y28103D01*
X164636Y116000D02*
X164150Y116000D01*
X164636Y116000D02*
X164636Y92385D01*
X169305Y87716D01*
X179786Y85997D02*
X179786Y28103D01*
X179786Y85997D02*
X178067Y87716D01*
X169305Y87716D01*
X204950Y107650D02*
X204950Y129700D01*
X190364Y144286D02*
X188900Y145750D01*
X190364Y144286D02*
X196115Y144286D01*
X201234Y133416D02*
X204950Y129700D01*
X201234Y139167D02*
X196115Y144286D01*
X201234Y139167D02*
X201234Y133416D01*
X199950Y107650D02*
X204950Y107650D01*
D31*
X75943Y110343D03*
D35*
X75000Y110343D01*
D31*
X194700Y105450D03*
D35*
X196900Y107650D01*
X199950Y107650D01*
X37947Y72514D02*
X31053Y72514D01*
X29714Y73853D01*
X29714Y74486D01*
X27000Y77200D01*
X48347Y82914D02*
X52447Y82914D01*
X53786Y84253D01*
X53786Y90320D01*
X69233Y105767D01*
X71297Y107831D01*
X72488Y107831D01*
X75000Y110343D01*
X48347Y82914D02*
X37947Y72514D01*
X27000Y77200D02*
X20536Y83664D01*
X20536Y84147D01*
X15072Y104316D02*
X15000Y104388D01*
X15000Y108932D01*
X15072Y89611D02*
X20536Y84147D01*
X15072Y89611D02*
X15072Y104316D01*
D31*
X15000Y108932D03*
X84479Y190021D03*
D35*
X84479Y194221D02*
X77250Y201450D01*
X84479Y194221D02*
X84479Y190021D01*
X198186Y131525D02*
X201234Y128477D01*
X201234Y123023D01*
X199300Y121089D01*
X199300Y117350D01*
X198186Y131525D02*
X198186Y137215D01*
X194950Y140451D01*
D31*
X194700Y113522D03*
D35*
X195472Y113522D01*
X199300Y117350D01*
X23803Y68914D02*
X22464Y70253D01*
X22464Y70736D01*
X16000Y77200D01*
X44743Y75000D02*
X45000Y75000D01*
X38657Y68914D02*
X23803Y68914D01*
X38657Y68914D02*
X44743Y75000D01*
D31*
X73600Y102271D03*
D35*
X71138Y102271D01*
X49866Y79866D02*
X45000Y75000D01*
X49866Y79866D02*
X53709Y79866D01*
X56834Y82991D01*
X56834Y87967D01*
X71138Y102271D01*
D31*
X76407Y191950D03*
D35*
X67700Y191950D01*
X58200Y201450D02*
X50250Y201450D01*
X188900Y140750D02*
X189199Y140451D01*
X194950Y140451D01*
X67700Y191950D02*
X58200Y201450D01*
D31*
X6464Y100750D03*
D32*
X6000Y100286D01*
X6000Y90700D01*
D31*
X15650Y177000D03*
D32*
X15650Y163050D01*
X16000Y162700D01*
D30*
X34500Y166300D02*
X34927Y166625D01*
D38*
X34927Y171073D02*
X31500Y174500D01*
X34927Y171073D02*
X34927Y166625D01*
D31*
X31500Y174500D03*
D32*
X71000Y170000D02*
X71000Y162700D01*
D31*
X25450Y199150D03*
D38*
X60000Y179676D02*
X62216Y179676D01*
X70946Y170946D01*
D32*
X70946Y170054D02*
X71000Y170000D01*
X70946Y170054D02*
X70946Y170946D01*
X26444Y198156D02*
X25450Y199150D01*
X26444Y198156D02*
X26444Y196878D01*
X27486Y195836D01*
D38*
X57350Y182326D02*
X60000Y179676D01*
X57350Y182326D02*
X52905Y182326D01*
X50474Y184757D01*
X27509Y195836D02*
X27486Y195836D01*
X48968Y192402D02*
X50474Y190896D01*
X48968Y192402D02*
X30943Y192402D01*
X27509Y195836D01*
X50474Y190896D02*
X50474Y184757D01*
D31*
X29508Y206508D03*
D32*
X82000Y170000D02*
X82000Y162700D01*
X30508Y205508D02*
X29508Y206508D01*
X31264Y201558D02*
X31264Y197087D01*
X30508Y202314D02*
X30508Y205508D01*
X30508Y202314D02*
X31264Y201558D01*
X73458Y185614D02*
X76864Y182208D01*
X76864Y175136D02*
X82000Y170000D01*
X76864Y175136D02*
X76864Y182208D01*
X73458Y185614D02*
X67728Y185614D01*
D38*
X41043Y197087D02*
X31264Y197087D01*
X41043Y197087D02*
X42205Y195926D01*
X57444Y195926D01*
D32*
X67728Y185641D01*
X67728Y185614D01*
X91957Y116157D02*
X91957Y90743D01*
X92000Y90700D01*
X91957Y116157D02*
X70000Y116157D01*
D38*
X55307Y116157D01*
X54575Y115425D01*
X45000Y125000D01*
X20000Y125000D01*
D31*
X20000Y125000D03*
D30*
X37950Y84250D02*
X34500Y80800D01*
X37950Y84250D02*
X37950Y97500D01*
D31*
X37950Y97500D03*
D30*
X181600Y205000D02*
X181600Y214650D01*
X181600Y237100D01*
X177650Y241050D01*
D31*
X162150Y184250D03*
D30*
X179044Y202444D02*
X181600Y205000D01*
X179044Y202444D02*
X165943Y202444D01*
X162150Y198651D01*
X162150Y184250D01*
X187702Y214650D02*
X197450Y224400D01*
X187702Y214650D02*
X181600Y214650D01*
D32*
X80450Y220450D02*
X77250Y220450D01*
X80450Y220450D02*
X88900Y212000D01*
D31*
X88900Y212000D03*
X71000Y77200D03*
D35*
X183523Y109430D02*
X183650Y109303D01*
X183650Y105750D01*
X183523Y120373D02*
X188900Y125750D01*
X183523Y120000D02*
X183523Y109430D01*
X183523Y120000D02*
X183523Y120373D01*
X183650Y105750D02*
X183650Y100650D01*
X185450Y98850D01*
D31*
X185450Y98850D03*
D35*
X190364Y129286D02*
X188900Y130750D01*
X188900Y114999D02*
X188900Y111916D01*
D31*
X63342Y80958D03*
D35*
X190364Y129286D02*
X196115Y129286D01*
X198186Y127215D01*
X198186Y124285D01*
X196115Y122214D01*
X191902Y122214D01*
D31*
X191083Y93067D03*
D35*
X189083Y103080D02*
X189083Y110000D01*
X189083Y103080D02*
X191010Y101153D01*
X191010Y93140D02*
X191083Y93067D01*
X191010Y93140D02*
X191010Y101153D01*
X189083Y110000D02*
X188900Y110183D01*
X188900Y114999D01*
X191902Y118587D02*
X191902Y122214D01*
X191902Y118587D02*
X189140Y115825D01*
X189140Y115239D01*
X188900Y114999D01*
D38*
X63500Y80800D02*
X63342Y80958D01*
D30*
X198694Y159075D02*
X198694Y162425D01*
X196736Y164383D01*
X196736Y180814D02*
X192350Y185200D01*
X196736Y180814D02*
X196736Y164383D01*
X183747Y192650D02*
X172100Y192650D01*
X185990Y191560D02*
X192350Y185200D01*
X185990Y191560D02*
X184837Y191560D01*
X183747Y192650D01*
D36*
X198694Y159075D03*
D30*
X195349Y155730D01*
X188900Y155730D01*
D32*
X188900Y155750D01*
D31*
X188900Y161798D03*
D35*
X188900Y160750D01*
X194100Y209050D02*
X197450Y212400D01*
X194100Y209050D02*
X194100Y207250D01*
D31*
X194100Y207250D03*
M02*
