G04 EAGLE Gerber RS-274X export*
G75*
%MOMM*%
%FSLAX34Y34*%
%LPD*%
%AMOC8*
5,1,8,0,0,1.08239X$1,22.5*%
G01*
%ADD10C,0.177800*%
%ADD11C,0.030000*%


D10*
X27907Y238911D02*
X36211Y234759D01*
X27907Y230607D01*
X27907Y225814D02*
X27907Y223738D01*
X36211Y223738D01*
X36211Y225814D02*
X36211Y221662D01*
X23754Y223738D02*
X21678Y223738D01*
X27907Y217082D02*
X36211Y217082D01*
X32059Y217082D02*
X27907Y212930D01*
X27907Y210854D01*
X25830Y204092D02*
X34135Y204092D01*
X36211Y202016D01*
X27907Y202016D02*
X27907Y206168D01*
X27907Y197436D02*
X34135Y197436D01*
X36211Y195360D01*
X36211Y189132D01*
X27907Y189132D01*
X27907Y182263D02*
X27907Y178111D01*
X29983Y176035D01*
X36211Y176035D01*
X36211Y182263D01*
X34135Y184339D01*
X32059Y182263D01*
X32059Y176035D01*
X23754Y171242D02*
X23754Y169166D01*
X36211Y169166D01*
X36211Y171242D02*
X36211Y167090D01*
X23754Y156282D02*
X25830Y154206D01*
X23754Y156282D02*
X23754Y160434D01*
X25830Y162510D01*
X34135Y162510D01*
X36211Y160434D01*
X36211Y156282D01*
X34135Y154206D01*
X29983Y154206D01*
X29983Y158358D01*
X27907Y149413D02*
X27907Y147337D01*
X36211Y147337D01*
X36211Y149413D02*
X36211Y145261D01*
X23754Y147337D02*
X21678Y147337D01*
X27907Y140682D02*
X36211Y140682D01*
X27907Y140682D02*
X27907Y138606D01*
X29983Y136529D01*
X36211Y136529D01*
X29983Y136529D02*
X27907Y134453D01*
X29983Y132377D01*
X36211Y132377D01*
X36211Y127584D02*
X23754Y127584D01*
X36211Y127584D02*
X36211Y121356D01*
X34135Y119280D01*
X29983Y119280D01*
X27907Y121356D01*
X27907Y127584D01*
X27907Y112411D02*
X27907Y108259D01*
X29983Y106183D01*
X36211Y106183D01*
X36211Y112411D01*
X34135Y114487D01*
X32059Y112411D01*
X32059Y106183D01*
X23754Y101390D02*
X23754Y99314D01*
X36211Y99314D01*
X36211Y101390D02*
X36211Y97238D01*
X36211Y79561D02*
X27907Y79561D01*
X32059Y79561D02*
X27907Y75409D01*
X27907Y73333D01*
X36211Y66571D02*
X36211Y62418D01*
X36211Y66571D02*
X34135Y68647D01*
X29983Y68647D01*
X27907Y66571D01*
X27907Y62418D01*
X29983Y60342D01*
X32059Y60342D01*
X32059Y68647D01*
X27907Y55550D02*
X36211Y51397D01*
X27907Y47245D01*
X34135Y42452D02*
X36211Y42452D01*
X34135Y42452D02*
X34135Y40376D01*
X36211Y40376D01*
X36211Y42452D01*
X36211Y29675D02*
X23754Y29675D01*
X29983Y35904D01*
X29983Y27599D01*
X34135Y22806D02*
X36211Y22806D01*
X34135Y22806D02*
X34135Y20730D01*
X36211Y20730D01*
X36211Y22806D01*
X27907Y16258D02*
X23754Y12106D01*
X36211Y12106D01*
X36211Y16258D02*
X36211Y7953D01*
X47754Y238111D02*
X60211Y238111D01*
X60211Y231883D01*
X58135Y229807D01*
X49830Y229807D01*
X47754Y231883D01*
X47754Y238111D01*
X60211Y222938D02*
X60211Y218785D01*
X60211Y222938D02*
X58135Y225014D01*
X53983Y225014D01*
X51907Y222938D01*
X51907Y218785D01*
X53983Y216709D01*
X56059Y216709D01*
X56059Y225014D01*
X60211Y211917D02*
X60211Y205688D01*
X58135Y203612D01*
X56059Y205688D01*
X56059Y209840D01*
X53983Y211917D01*
X51907Y209840D01*
X51907Y203612D01*
X51907Y198819D02*
X51907Y196743D01*
X60211Y196743D01*
X60211Y198819D02*
X60211Y194667D01*
X47754Y196743D02*
X45678Y196743D01*
X64363Y185936D02*
X64363Y183859D01*
X62287Y181783D01*
X51907Y181783D01*
X51907Y188012D01*
X53983Y190088D01*
X58135Y190088D01*
X60211Y188012D01*
X60211Y181783D01*
X60211Y176991D02*
X51907Y176991D01*
X51907Y170762D01*
X53983Y168686D01*
X60211Y168686D01*
X60211Y161817D02*
X60211Y157665D01*
X60211Y161817D02*
X58135Y163893D01*
X53983Y163893D01*
X51907Y161817D01*
X51907Y157665D01*
X53983Y155589D01*
X56059Y155589D01*
X56059Y163893D01*
X60211Y142492D02*
X47754Y142492D01*
X60211Y142492D02*
X60211Y148720D01*
X58135Y150796D01*
X53983Y150796D01*
X51907Y148720D01*
X51907Y142492D01*
X47754Y124602D02*
X60211Y124602D01*
X60211Y118373D01*
X58135Y116297D01*
X53983Y116297D01*
X51907Y118373D01*
X51907Y124602D01*
X51907Y111504D02*
X58135Y111504D01*
X60211Y109428D01*
X60211Y103200D01*
X62287Y103200D02*
X51907Y103200D01*
X62287Y103200D02*
X64363Y105276D01*
X64363Y107352D01*
X72754Y238511D02*
X74830Y238511D01*
X78983Y234359D01*
X74830Y230207D01*
X72754Y230207D01*
X78983Y234359D02*
X85211Y234359D01*
X85211Y223338D02*
X85211Y219185D01*
X83135Y217109D01*
X78983Y217109D01*
X76907Y219185D01*
X76907Y223338D01*
X78983Y225414D01*
X83135Y225414D01*
X85211Y223338D01*
X85211Y212317D02*
X85211Y206088D01*
X83135Y204012D01*
X81059Y206088D01*
X81059Y210240D01*
X78983Y212317D01*
X76907Y210240D01*
X76907Y204012D01*
X72754Y199219D02*
X85211Y199219D01*
X78983Y199219D02*
X76907Y197143D01*
X76907Y192991D01*
X78983Y190915D01*
X85211Y190915D01*
X76907Y186122D02*
X76907Y184046D01*
X85211Y184046D01*
X85211Y186122D02*
X85211Y181970D01*
X72754Y184046D02*
X70678Y184046D01*
X76907Y175314D02*
X76907Y171162D01*
X78983Y169086D01*
X85211Y169086D01*
X85211Y175314D01*
X83135Y177391D01*
X81059Y175314D01*
X81059Y169086D01*
X85211Y164293D02*
X72754Y164293D01*
X81059Y164293D02*
X85211Y158065D01*
X81059Y164293D02*
X76907Y158065D01*
X76907Y153379D02*
X76907Y151303D01*
X85211Y151303D01*
X85211Y153379D02*
X85211Y149227D01*
X72754Y151303D02*
X70678Y151303D01*
X72754Y125322D02*
X74830Y123246D01*
X72754Y125322D02*
X72754Y129474D01*
X74830Y131550D01*
X76907Y131550D01*
X78983Y129474D01*
X78983Y125322D01*
X81059Y123246D01*
X83135Y123246D01*
X85211Y125322D01*
X85211Y129474D01*
X83135Y131550D01*
X76907Y116377D02*
X76907Y112225D01*
X78983Y110148D01*
X85211Y110148D01*
X85211Y116377D01*
X83135Y118453D01*
X81059Y116377D01*
X81059Y110148D01*
X83135Y103280D02*
X74830Y103280D01*
X83135Y103280D02*
X85211Y101203D01*
X76907Y101203D02*
X76907Y105356D01*
X85211Y94548D02*
X85211Y90396D01*
X83135Y88320D01*
X78983Y88320D01*
X76907Y90396D01*
X76907Y94548D01*
X78983Y96624D01*
X83135Y96624D01*
X85211Y94548D01*
D11*
X500Y-3000D02*
X500Y232500D01*
X-2000Y232500D01*
X-2000Y304000D01*
X181200Y304000D01*
X213000Y272700D01*
X213000Y232500D01*
X210000Y232500D01*
X210000Y4000D01*
X122000Y4000D01*
X122000Y163000D01*
X109000Y163000D01*
X109000Y180000D01*
X97500Y180000D01*
X97500Y-3000D01*
X500Y-3000D01*
M02*
